<?xml version="1.0" standalone="no"?>
<!DOCTYPE svg PUBLIC "-//W3C//DTD SVG 1.1//EN" "http://www.w3.org/Graphics/SVG/1.1/DTD/svg11.dtd" >
<svg>
<metadata>
Created by FontForge 20090622 at Sat May 19 20:37:42 2018
 By deploy user
 2000 PARACHUTE Type &#38; Image Corp. Designed by Panos Vassiliou. Based on Paul Renner Futura 7
</metadata>
<defs>
<font id="PFFuturaNeuBook-Regular" horiz-adv-x="633" >
  <font-face 
    font-family="PF Futura Neu Book"
    font-weight="400"
    font-stretch="normal"
    units-per-em="1000"
    panose-1="2 0 5 4 4 0 0 2 0 4"
    ascent="800"
    descent="-200"
    x-height="472"
    cap-height="754"
    bbox="-181 -267 1102 1017"
    underline-thickness="20"
    underline-position="-133"
    unicode-range="U+0020-U+E002"
  />
<missing-glyph horiz-adv-x="1000" 
 />
    <glyph glyph-name=".notdef" horiz-adv-x="1000" 
 />
    <glyph glyph-name=".null" horiz-adv-x="0" 
 />
    <glyph glyph-name="nonmarkingreturn" horiz-adv-x="500" 
 />
    <glyph glyph-name="space" unicode=" " horiz-adv-x="317" 
 />
    <glyph glyph-name="space" unicode="&#xa0;" horiz-adv-x="317" 
 />
    <glyph glyph-name="numbersign" unicode="#" 
d="M435 279h113v-63h-125l-36 -216h-60l35 216h-126l-33 -216h-61l33 216h-115v63h125l23 152h-118v63h128l33 210h64l-34 -210h127l34 210h63l-35 -210h104v-63h-114zM247 279h127l24 152h-128z" />
    <glyph glyph-name="dollar" unicode="$" horiz-adv-x="616" 
d="M476 53q-26 -23 -59 -38.5t-68 -22.5v-108h-52v104q-78 1 -137 41t-91 107l52 48q26 -55 69.5 -89t106.5 -36v307q-15 7 -33.5 16.5l-35 18l-29 15l-14.5 7.5q-74 44 -74 139q0 42 13.5 78t38 63t59 43t75.5 19v99h52v-100q49 -6 93 -31.5t72 -64.5l-44 -54
q-23 32 -52.5 53t-68.5 27v-267l94 -47q51 -26 78.5 -64t27.5 -98q0 -48 -19 -91t-54 -74zM297 693q-45 -8 -75 -42.5t-30 -81.5q0 -23 9 -40.5t24 -31.5t34 -24.5t38 -19.5v240v0zM349 66q51 14 85 53.5t34 95.5q0 26 -10.5 45t-28 34t-38.5 26.5t-42 21.5v-276z" />
    <glyph glyph-name="percent" unicode="%" horiz-adv-x="726" 
d="M194 454q-34 0 -64 11t-52 31.5t-35 49t-13 63.5t13 64t35 49.5t52 32t64 11.5t64 -11.5t52 -32t35 -49.5t13 -64t-13 -63.5t-35 -49t-52 -31.5t-64 -11zM116 1l445 767l48 -14l-447 -768zM526 -2q-34 0 -64 11.5t-52 32t-35 49.5t-13 63q0 35 13 64t35 49.5t52 31.5
t64 11t64 -11t52 -31.5t35 -49.5t13 -64q0 -34 -13 -63t-35 -49.5t-52 -32t-64 -11.5zM194 710q-21 0 -40 -8t-33 -21.5t-22.5 -32t-8.5 -39.5t8.5 -39t22.5 -31.5t33 -21.5t40 -8t40 8t33 21.5t22.5 31.5t8.5 39t-8.5 39.5t-22.5 32t-33 21.5t-40 8zM526 255q-21 0 -40 -8
t-33 -21.5t-22.5 -32.5t-8.5 -40t8.5 -39t22.5 -31.5t33 -21t40 -7.5t40 7.5t33 21t22.5 31.5t8.5 39t-8.5 40t-22.5 32.5t-33 21.5t-40 8z" />
    <glyph glyph-name="ampersand" unicode="&#x26;" horiz-adv-x="683" 
d="M505 113q-31 -25 -64 -48t-67.5 -41t-70.5 -29t-72 -11q-43 0 -81 15.5t-66 43t-44 64.5t-16 80q0 45 17.5 82t45.5 67.5t64 55.5t73 46q3 4 8.5 6.5t10.5 4.5l-9 11t-8 12q-22 30 -41 63.5t-19 75.5q0 34 13.5 63t36.5 50t53 33t63 12t61.5 -11.5t49.5 -32t33.5 -48.5
t12.5 -61t-11.5 -59.5t-31 -48.5t-44.5 -40.5t-53 -36.5l167 -221q4 4 18.5 19.5l31 33.5l30.5 33.5t16 18.5l53 -38l-96 -109l-9 -9l127 -159h-93zM332 705q-19 0 -35 -8t-28 -21t-18.5 -30.5t-6.5 -35.5q0 -19 6.5 -36t16 -32.5t20.5 -30.5t21 -31l37.5 27t35.5 30
q17 16 27 35t10 45q0 36 -24.5 62t-61.5 26zM244 370l-47 -32.5t-45 -38.5t-33.5 -46t-13.5 -56q0 -29 10.5 -54.5t28.5 -44.5t43 -30t53 -11q29 0 58 10.5t57.5 26.5t55 36l49.5 38l-175 230z" />
    <glyph glyph-name="quotesingle" unicode="'" horiz-adv-x="228" 
d="M90 496l-13 258h74l-14 -258h-47z" />
    <glyph glyph-name="parenleft" unicode="(" horiz-adv-x="262" 
d="M148 -190q-23 49 -39.5 110.5t-27 126t-15 128.5t-4.5 118q0 55 4.5 119.5t14.5 129.5t26.5 127t40.5 113l53 -34q-37 -108 -55.5 -223.5t-18.5 -233.5q0 -109 18.5 -224t55.5 -224l-53 -33v0z" />
    <glyph glyph-name="parenright" unicode=")" horiz-adv-x="262" 
d="M61 -157q37 109 55.5 224t18.5 224q0 118 -18 233.5t-56 223.5l53 34q24 -51 40.5 -113t27 -127t15 -129t4.5 -120q0 -54 -4.5 -118t-15 -128.5t-27 -126t-40.5 -110.5z" />
    <glyph glyph-name="asterisk" unicode="*" horiz-adv-x="592" 
d="M433 444l-59 -43l-78 118l-78 -118l-59 43l89 110l-137 38l23 69l133 -49l-6 140h71l-6 -140l133 49l23 -69l-137 -38z" />
    <glyph glyph-name="plus" unicode="+" 
d="M352 0h-71v221h-221v70h221v221h71v-221h222v-70h-222v-221z" />
    <glyph glyph-name="comma" unicode="," horiz-adv-x="317" 
d="M71 -152l81 250l72 -12l-104 -247z" />
    <glyph glyph-name="hyphen" unicode="-" horiz-adv-x="230" 
d="M10 353h211v-66h-211v66z" />
    <glyph glyph-name="period" unicode="." horiz-adv-x="317" 
d="M158 -12q-24 0 -40.5 16.5t-16.5 39.5q0 24 16.5 40t40.5 16t41 -16t17 -40q0 -23 -17 -39.5t-41 -16.5z" />
    <glyph glyph-name="slash" unicode="/" horiz-adv-x="628" 
d="M32 -117l505 943l59 -15l-504 -943z" />
    <glyph glyph-name="zero" unicode="0" 
d="M317 -14q-50 0 -90.5 18t-72 48t-55 70t-38.5 84t-22 89t-7 86q0 62 17 130.5t52 125.5t89 94t127 37t126.5 -37t88.5 -94t52 -125.5t17 -130.5q0 -41 -7 -86t-22 -89t-38 -84t-54.5 -70t-72 -48t-90.5 -18zM317 696q-55 0 -94 -33.5t-64 -82.5t-36 -103.5t-11 -95.5
q0 -31 5 -67t15.5 -71.5t26.5 -69t39 -59t52.5 -41t66.5 -15.5t66.5 15.5t52 41t39 58.5t26.5 69t15 72t5 67q0 41 -11 95.5t-35.5 103.5t-63 82.5t-94.5 33.5z" />
    <glyph glyph-name="one" unicode="1" 
d="M299 683h-117v71h197v-754h-80v683z" />
    <glyph glyph-name="two" unicode="2" 
d="M512 400q-20 -32 -44 -59.5l-49 -54.5l-198 -215h335v-71h-496l287 315l43.5 49t41.5 55t31.5 59.5t12.5 61.5q0 33 -12.5 61.5t-34.5 50t-50.5 33.5t-61.5 12q-60 0 -100.5 -32t-52.5 -86q-6 -19 -4 -49h-84q2 45 12 82.5t39 70.5q34 40 84.5 62.5t105.5 22.5
q50 0 93.5 -17t76 -48t51.5 -73.5t19 -92.5q0 -38 -12.5 -72t-32.5 -65z" />
    <glyph glyph-name="three" unicode="3" 
d="M309 -13q-45 0 -85 15t-70 42t-48 65.5t-19 84.5h79q2 -29 14.5 -53.5t32 -42t45.5 -27t54 -9.5q32 0 59 12t47 33t31.5 49t11.5 59q0 73 -45.5 109t-115.5 34v71q30 1 57.5 8t48 22t32.5 39t12 60q0 61 -37 97.5t-97 36.5q-57 0 -88.5 -34t-36.5 -88h-80q10 91 62 144
t145 53q45 0 84 -14.5t67.5 -41.5t45 -64.5t16.5 -84.5q0 -51 -26 -96t-74 -70q57 -26 84 -77t27 -109q0 -49 -18.5 -90t-50 -70.5t-74 -46t-90.5 -16.5z" />
    <glyph glyph-name="four" unicode="4" 
d="M487 0h-76v145h-399v31l418 599h57v-562h103v-68h-103v-145zM407 625l-285 -408v-4h289v412h-4z" />
    <glyph glyph-name="five" unicode="5" horiz-adv-x="634" 
d="M465 59q-38 -36 -90 -54.5t-109 -18.5q-69 0 -128 30t-101 84l43 53q32 -45 82 -70.5t104 -25.5q42 0 78.5 15t64 41.5t43 62.5t15.5 79t-17 78.5t-45.5 61t-66.5 39.5t-79 14q-34 0 -63 -8.5t-59 -25.5l92 340h310v-71h-254l-53 -178q69 15 127 1.5t100 -48.5t65.5 -88
t23.5 -117q0 -60 -22 -109t-61 -85z" />
    <glyph glyph-name="six" unicode="6" 
d="M518 67q-40 -42 -92.5 -61.5t-110.5 -19.5q-54 0 -104 18.5t-88 53.5q-39 36 -62.5 86t-23.5 107q0 55 18.5 101.5t50.5 91.5l227 318l77 -24l-175 -238v-1q51 20 101 20q55 0 102.5 -21.5t82.5 -57.5t55 -84t20 -102t-21.5 -102t-56.5 -85zM316 452q-41 0 -77.5 -16
t-63.5 -43t-43 -63t-16 -77t16 -77t43 -63t63.5 -42.5t77.5 -15.5t77 15.5t63 42.5t43 63t16 77t-16 77t-43 63t-63 43t-77 16z" />
    <glyph glyph-name="seven" unicode="7" 
d="M39 17l459 666h-429v71h564l-520 -761z" />
    <glyph glyph-name="eight" unicode="8" 
d="M423 394q63 -29 95 -78t32 -118q0 -48 -19.5 -87t-52 -67t-74.5 -43t-87 -15t-87.5 15t-75 43t-52 67t-19.5 87q0 69 32 118t95 78q-49 23 -78 70t-29 101q0 45 17 82.5t46 64.5t68 41.5t83 14.5t83 -14.5t68 -41.5t46 -64.5t17 -82.5q0 -27 -7.5 -53t-22 -48.5
t-34.5 -40.5t-44 -29zM317 703q-28 0 -53.5 -11t-44.5 -29.5t-30 -43.5t-11 -54q0 -28 11 -53t29.5 -44t44 -29.5t54.5 -10.5q28 0 53 10.5t44 29.5t30 44t11 53q0 29 -11 54t-30 43.5t-44 29.5t-53 11zM317 358q-31 0 -59 -12t-49 -32t-33.5 -47.5t-12.5 -59.5
q0 -31 12.5 -59t33.5 -48t49 -32t59 -12q32 0 59.5 12t48.5 32t33 48t12 59q0 32 -12 59.5t-33 47.5t-48.5 32t-59.5 12z" />
    <glyph glyph-name="nine" unicode="9" 
d="M301 -7l-78 24l177 239l-1 1q-25 -11 -49 -16t-53 -5q-54 0 -101.5 21.5t-83 57.5t-55.5 84t-20 102q0 58 22.5 107t61 84.5t89.5 55.5t108 20q115 0 193 -72q40 -36 62.5 -86.5t22.5 -110.5q0 -54 -19 -100t-49 -88zM318 699q-41 0 -77.5 -15.5t-63.5 -42.5t-43 -63
t-16 -77q0 -40 16 -76t43 -63t63.5 -42.5t77.5 -15.5t77.5 15.5t63.5 42.5t43 63t16 76q0 41 -16 77t-43 63t-63.5 42.5t-77.5 15.5z" />
    <glyph glyph-name="colon" unicode=":" horiz-adv-x="317" 
d="M158 374q-24 0 -40.5 16.5t-16.5 40.5t16.5 40.5t40.5 16.5t41 -16.5t17 -40.5t-17 -40.5t-41 -16.5zM158 -12q-24 0 -40.5 16.5t-16.5 40.5t16.5 40.5t40.5 16.5t41 -16.5t17 -40.5t-17 -40.5t-41 -16.5z" />
    <glyph glyph-name="semicolon" unicode=";" horiz-adv-x="317" 
d="M172 374q-24 0 -40.5 16.5t-16.5 40.5t16.5 40.5t40.5 16.5t41 -16.5t17 -40.5t-17 -40.5t-41 -16.5zM68 -152l81 251l73 -12l-104 -248z" />
    <glyph glyph-name="semicolon" unicode="&#x37e;" horiz-adv-x="317" 
d="M172 374q-24 0 -40.5 16.5t-16.5 40.5t16.5 40.5t40.5 16.5t41 -16.5t17 -40.5t-17 -40.5t-41 -16.5zM68 -152l81 251l73 -12l-104 -248z" />
    <glyph glyph-name="less" unicode="&#x3c;" 
d="M62 290l509 215v-69l-421 -180h1l420 -189v-69l-509 225v67z" />
    <glyph glyph-name="equal" unicode="=" 
d="M60 382h514v-69h-514v69zM60 200h514v-70h-514v70z" />
    <glyph glyph-name="greater" unicode="&#x3e;" 
d="M62 67l422 189l-1 1l-421 179v69l509 -215v-67l-509 -225v69z" />
    <glyph glyph-name="question" unicode="?" horiz-adv-x="488" 
d="M371 454q-26 -23 -63 -35.5t-69 -21.5q-16 -5 -30.5 -11.5t-25 -16.5t-17 -23.5t-6.5 -33.5q0 -35 24.5 -58.5t59.5 -23.5q21 0 36.5 8t25.5 21.5t15 30.5t5 36h79q0 -36 -12 -67t-33 -54t-51 -36t-66 -13q-34 0 -64 12.5t-51.5 34t-34 51.5t-12.5 64q0 33 10.5 57.5
t29 42.5t43.5 30.5t53 21.5q12 4 24 7.5t23 7.5q23 8 41 20t29.5 31t11.5 51q0 48 -29.5 77t-75.5 29q-22 0 -40 -8t-31.5 -21.5t-21 -32t-7.5 -39.5t6 -47h-80l-4 52q-3 39 11.5 70t40.5 53.5t60 34.5t71 12q38 0 70.5 -14t56.5 -38t38 -56.5t14 -70.5q0 -37 -13.5 -73
t-40.5 -61zM242 -13q-23 0 -39 16.5t-16 39.5q0 22 16 37.5t39 15.5t39 -15.5t16 -37.5q0 -23 -16 -39.5t-39 -16.5z" />
    <glyph glyph-name="at" unicode="@" horiz-adv-x="788" 
d="M682 236q-35 -42 -76 -64t-81 -21q-25 0 -45 13t-28 37q-29 -26 -61.5 -38t-67.5 -12q-33 0 -59 12t-44 33t-28 49t-10 61q0 50 16.5 103t47.5 96t74.5 70.5t97.5 27.5q35 0 66.5 -16.5t53.5 -48.5l13 47h57l-93 -312q-4 -12 -7 -24.5t-1 -22t10.5 -15.5t26.5 -6
q27 0 55 22t51.5 56t38.5 75.5t15 80.5q1 62 -23.5 112.5t-65.5 86t-94.5 55t-110.5 19.5q-68 0 -127 -27t-103 -73.5t-69 -108t-25 -129.5q0 -69 26.5 -129.5t71.5 -105.5t105 -71t126 -26q80 0 148 30.5t106 86.5l63 -14q-45 -70 -127 -113.5t-191 -43.5
q-81 0 -150.5 30.5t-121 83.5t-81 124.5t-29.5 152.5t30 151.5t81.5 123t120 82.5t145.5 30q140 0 238 -86q51 -45 80 -104.5t29 -132.5q0 -61 -20.5 -114t-53.5 -93zM414 545q-36 0 -67 -23t-54.5 -58t-37 -75t-13.5 -75q0 -21 6.5 -40.5t19 -34.5t31 -23.5t42.5 -7.5
q22 0 42 9.5t36.5 24.5t29 33t18.5 36q1 2 7.5 21.5l14 43.5l14 44t6.5 22q4 15 -1 32.5t-17.5 33.5t-31.5 26.5t-45 10.5z" />
    <glyph glyph-name="A" unicode="A" horiz-adv-x="669" 
d="M493 224h-317l-91 -224h-83l332 785l333 -785h-83zM335 626l-133 -334h266l-133 335v-1z" />
    <glyph glyph-name="B" unicode="B" horiz-adv-x="587" 
d="M391 401q72 -14 113 -65t41 -126q0 -99 -73 -157q-40 -32 -84.5 -42.5t-95.5 -10.5h-215v754h177q45 0 84.5 -7.5t73.5 -36.5t48.5 -68.5t14.5 -87.5q0 -51 -19.5 -89.5t-64.5 -63.5zM342 665q-26 16 -56.5 18.5t-61.5 2.5h-68v-264h70q33 0 63 2.5t59 22.5t40 46t11 62
q0 35 -14 64t-43 46zM391 335q-32 15 -72 17.5t-75 2.5h-88v-287h96q36 0 73.5 2.5t69.5 22.5t51 50t19 70t-19.5 72.5t-54.5 49.5z" />
    <glyph glyph-name="C" unicode="C" horiz-adv-x="723" 
d="M429 -10q-84 0 -156 30t-125.5 82.5t-84 123t-30.5 150.5q0 78 29 147.5t83 123.5q55 55 128.5 87t155.5 32q64 0 125 -22t112 -64v-103q-21 26 -48.5 47t-59 35.5t-64.5 22.5t-66 8q-65 0 -122.5 -25.5t-100 -69t-67 -101t-24.5 -121.5q0 -63 23.5 -118t68.5 -97
q43 -42 101 -68.5t121 -26.5q31 0 64.5 8t65 22.5t59.5 34.5t49 45v-103q-54 -38 -112.5 -59t-124.5 -21z" />
    <glyph glyph-name="D" unicode="D" horiz-adv-x="672" 
d="M524 102q-61 -59 -129.5 -80.5t-152.5 -21.5h-165v754h165q82 0 150 -20.5t128 -76.5q60 -55 90 -127.5t30 -153.5q0 -78 -29.5 -149t-86.5 -125zM459 607q-49 45 -104 60.5t-121 15.5h-78v-612h78q69 0 125.5 18t107.5 66q45 45 68 101t23 120q0 69 -25 127.5t-74 103.5
z" />
    <glyph glyph-name="E" unicode="E" horiz-adv-x="516" 
d="M77 754h375v-71h-296v-242h288v-71h-288v-299h296v-71h-375v754z" />
    <glyph glyph-name="F" unicode="F" horiz-adv-x="464" 
d="M156 441h242v-71h-242v-370h-79v754h331v-71h-252v-242z" />
    <glyph glyph-name="G" unicode="G" horiz-adv-x="828" 
d="M716 114q-55 -63 -131.5 -95t-160.5 -32q-81 0 -152 30.5t-124 83t-84 123t-31 150.5q0 83 31 155t84.5 125t126 83t155.5 30q106 0 189.5 -48t141.5 -136l-70 -41q-45 72 -112.5 112.5t-152.5 40.5q-64 0 -121 -26.5t-99.5 -70.5t-67 -101.5t-24.5 -120.5q0 -64 24 -122
t66.5 -101.5t99.5 -69.5t123 -26q55 0 106 19.5t93 53.5q43 35 61.5 78.5t20.5 98.5h-248v69h335q1 -74 -14 -139t-65 -123z" />
    <glyph glyph-name="H" unicode="H" horiz-adv-x="733" 
d="M577 372h-421v-372h-79v754h79v-313h421v313h80v-754h-80v372z" />
    <glyph glyph-name="I" unicode="I" horiz-adv-x="233" 
d="M77 754h79v-754h-79v754z" />
    <glyph glyph-name="J" unicode="J" horiz-adv-x="272" 
d="M39 -130q-46 0 -82.5 24t-57.5 64l53 47q14 -27 38 -45.5t52 -18.5q26 0 41 11.5t22.5 29.5t9.5 39.5t2 41.5v691h79v-693q0 -40 -7.5 -75t-25.5 -60.5t-48 -40.5t-76 -15z" />
    <glyph glyph-name="K" unicode="K" horiz-adv-x="607" 
d="M172 352l-16 -15v-337h-79v754h79v-342l333 342h103l-357 -362l380 -392h-104z" />
    <glyph glyph-name="L" unicode="L" horiz-adv-x="361" 
d="M77 754h79v-683h201v-71h-280v754z" />
    <glyph glyph-name="M" unicode="M" horiz-adv-x="914" 
d="M705 574l-251 -606l-33.5 78l-50 118.5l-57 136l-54 129.5l-41 99l-18.5 45h-1l-111 -574h-78l170 793l277 -645l266 644l20 -81.5l26 -112l29.5 -130l30.5 -134.5l75 -334h-78z" />
    <glyph glyph-name="N" unicode="N" horiz-adv-x="851" 
d="M156 0h-79q0 793 24 767l28 -29.5l36 -38.5l92 -96l107 -114l109.5 -116l100 -106l77.5 -82.5l43 -46.5v616h80v-791l-618 645v-608z" />
    <glyph glyph-name="O" unicode="O" horiz-adv-x="861" 
d="M430 -13q-82 0 -154 30.5t-126 84t-85.5 125t-31.5 153.5q0 81 32 151.5t86.5 123t126.5 82.5t152 30t152 -30t126.5 -82.5t86.5 -123t32 -151.5q0 -82 -31 -153.5t-85 -125t-126 -84t-155 -30.5zM430 691q-65 0 -122.5 -25t-100.5 -67.5t-68 -99t-25 -119.5
q0 -65 25 -123t68 -101t100.5 -68t122.5 -25t122.5 25t100.5 68.5t68 101t25 122.5q0 63 -25 119.5t-68 99t-100.5 67.5t-122.5 25z" />
    <glyph glyph-name="P" unicode="P" horiz-adv-x="510" 
d="M421 387q-35 -31 -80 -41t-96 -10h-89v-336h-79v754h167q48 0 91.5 -8.5t78.5 -38.5q35 -29 53 -71.5t18 -90.5q0 -46 -16 -88t-48 -70zM350 658q-27 19 -59.5 23t-65.5 4h-69v-280h75q35 0 66.5 6t59.5 29q46 39 46 105q0 35 -13.5 65t-39.5 48z" />
    <glyph glyph-name="Q" unicode="Q" horiz-adv-x="862" 
d="M827 -7h-106l-63 68q-48 -35 -109 -54.5t-118 -19.5q-81 0 -153 30.5t-126 83t-85.5 123.5t-31.5 152t31.5 152t85.5 124.5t126 84t153 30.5q82 0 154 -31t126 -84.5t85.5 -125t31.5 -152.5q0 -79 -30 -143.5t-84 -122.5zM431 690q-65 0 -122.5 -25t-100 -67.5
t-67.5 -99.5t-25 -121t25 -120.5t68 -99.5t100.5 -68t121.5 -25q42 0 88.5 13.5t82.5 40.5l-184 185h109l132 -139q86 92 86 213q0 65 -24.5 121.5t-67.5 99.5t-100 67.5t-122 24.5z" />
    <glyph glyph-name="R" unicode="R" horiz-adv-x="526" 
d="M174 343h-18v-343h-79v754h134q48 0 92.5 -6.5t82.5 -34.5q40 -29 58.5 -72t18.5 -94q0 -47 -15 -84t-42 -62.5t-65 -39t-83 -14.5l245 -347h-95zM308 670q-28 13 -61 14.5t-63 1.5h-28v-280h52q33 0 65 5t59 26q25 20 37.5 48.5t12.5 60.5q0 42 -18.5 74.5t-55.5 49.5z
" />
    <glyph glyph-name="S" unicode="S" horiz-adv-x="558" 
d="M446 53q-35 -32 -80.5 -48.5t-94.5 -16.5q-78 0 -138.5 39.5t-93.5 108.5l52 48q27 -57 70.5 -91t109.5 -34q33 0 63 11.5t53.5 32.5t37 49.5t13.5 62.5q0 30 -14.5 51.5t-36 37.5t-47 28l-47.5 22l-25 12.5l-45 22.5l-44.5 22t-23.5 12q-74 44 -74 139q0 45 15.5 82.5
t43 64.5t65.5 42t83 15q57 0 110.5 -26.5t85.5 -71.5l-44 -54q-26 38 -62 59.5t-87 21.5q-27 0 -50.5 -9.5t-41 -26.5t-27.5 -40t-10 -50q0 -20 7 -36t18.5 -28.5t26.5 -22.5t31 -18q23 -10 42 -21l126 -63q51 -26 78.5 -64t27.5 -98q0 -48 -19 -90.5t-54 -74.5z" />
    <glyph glyph-name="T" unicode="T" horiz-adv-x="467" 
d="M273 0h-80v683h-188v71h456v-71h-188v-683z" />
    <glyph glyph-name="U" unicode="U" horiz-adv-x="684" 
d="M613 234q-2 -45 -13.5 -84.5t-42.5 -74.5q-40 -45 -97.5 -66t-117.5 -21t-117.5 21t-97.5 66q-21 24 -33 50t-17 53.5t-6 56t-1 58.5v461h80v-444q0 -48 4.5 -96t30.5 -83q25 -35 68.5 -53t88.5 -18t88.5 18t68.5 53q13 18 20 39t10.5 44t4 47.5t0.5 48.5v444h79v-461
q0 -15 0.5 -30t-0.5 -29z" />
    <glyph glyph-name="V" unicode="V" horiz-adv-x="596" 
d="M0 754h83l217 -605h1l212 605h84l-294 -799z" />
    <glyph glyph-name="W" unicode="W" horiz-adv-x="1107" 
d="M552 622l-276 -671l-271 803h82l195 -583l271 650l273 -650l195 583h81l-263 -805z" />
    <glyph glyph-name="X" unicode="X" horiz-adv-x="553" 
d="M277 320l-179 -320h-92l225 389l-208 365h93l161 -296l161 296h93l-206 -365l222 -389h-92z" />
    <glyph glyph-name="Y" unicode="Y" horiz-adv-x="590" 
d="M334 0h-79v330l-257 424h91l206 -345l205 345h92l-258 -424v-330z" />
    <glyph glyph-name="Z" unicode="Z" horiz-adv-x="596" 
d="M567 71v-71h-557l439 683h-391v71h528l-439 -683h420z" />
    <glyph glyph-name="bracketleft" unicode="[" horiz-adv-x="310" 
d="M61 761h188v-64h-119v-844h119v-63h-188v971z" />
    <glyph glyph-name="backslash" unicode="\" horiz-adv-x="628" 
d="M32 811l59 15l505 -810l-60 -16z" />
    <glyph glyph-name="bracketright" unicode="]" horiz-adv-x="310" 
d="M61 -147h119v844h-119v64h188v-971h-188v63z" />
    <glyph glyph-name="asciicircum" unicode="^" 
d="M317 686l-192 -377l-63 13l221 438h67l221 -438l-62 -13z" />
    <glyph glyph-name="underscore" unicode="_" horiz-adv-x="500" 
d="M-1 -113h502v-75h-502v75z" />
    <glyph glyph-name="grave" unicode="`" horiz-adv-x="331" 
d="M73 704l73 31l110 -151l-48 -26z" />
    <glyph glyph-name="a" unicode="a" horiz-adv-x="584" 
d="M443 77q-26 -43 -74 -65.5t-99 -22.5q-54 0 -97 19.5t-74 53.5t-47.5 79.5t-16.5 97.5q0 51 16.5 96t47 78t73.5 52t96 19q52 0 99 -21.5t76 -63.5v73h75v-472h-75v77zM276 417q-37 0 -67.5 -15t-52 -40t-33.5 -57t-12 -67q0 -36 11.5 -69t33.5 -58t53 -40t70 -15
q41 0 72 15t52.5 40.5t32.5 59.5t11 71t-12 69t-34.5 55.5t-54 37t-70.5 13.5z" />
    <glyph glyph-name="b" unicode="b" horiz-adv-x="584" 
d="M146 399q29 42 76 63.5t99 21.5q53 0 96 -19t73.5 -52t47 -77.5t16.5 -96.5t-16.5 -97.5t-47.5 -79.5t-74 -53.5t-97 -19.5q-51 0 -99 22.5t-74 66.5v-78h-75v826h75v-427v0zM312 417q-40 0 -72 -14t-53.5 -38t-33 -56.5t-11.5 -70.5q0 -37 11.5 -70t33 -58t53 -39.5
t70.5 -14.5t70.5 15t53 40t33 58.5t11.5 69.5q0 35 -12 67t-33.5 57t-52 39.5t-68.5 14.5z" />
    <glyph glyph-name="c" unicode="c" horiz-adv-x="478" 
d="M276 -11q-52 0 -97.5 19t-78.5 52.5t-52 78.5t-19 97q0 53 19 98t52.5 78.5t79 52.5t98.5 19q87 0 154 -52v-82q-32 33 -68.5 51t-81.5 18q-38 0 -70.5 -15t-56 -40t-37 -58t-13.5 -69q0 -37 13.5 -70t37 -58t56 -40t69.5 -15q45 0 85.5 19.5t70.5 54.5v-82
q-72 -57 -161 -57z" />
    <glyph glyph-name="d" unicode="d" horiz-adv-x="584" 
d="M439 78h-1q-26 -44 -74 -66.5t-98 -22.5q-54 0 -97 19.5t-74 53.5t-47.5 79.5t-16.5 97.5t16.5 96.5t47 77.5t73.5 52t96 19q51 0 98 -21.5t76 -63.5l1 427h74v-826h-74v78zM272 417q-37 0 -67.5 -15t-52.5 -39.5t-34 -56.5t-12 -67q0 -36 11.5 -69.5t33.5 -58.5t53 -40
t70 -15q41 0 72.5 15t52.5 40.5t32 59.5t11 72q0 36 -12 68t-34 55.5t-53.5 37t-70.5 13.5z" />
    <glyph glyph-name="e" unicode="e" horiz-adv-x="530" 
d="M103 226q-1 -40 11.5 -72.5t35 -55.5t54.5 -35.5t69 -12.5q49 0 86.5 25t60.5 68l68 -18q-30 -67 -88.5 -101.5t-130.5 -34.5q-54 0 -98.5 19t-76 52.5t-48.5 79t-17 97.5q0 51 17 96t48 78.5t75 53t97 19.5q54 0 97 -18.5t73.5 -51t47 -76.5t17.5 -95q1 -1 1 -8
q-1 -2 -1 -9h-398v0zM269 425q-31 0 -60 -11t-51 -30.5t-36.5 -45.5t-17.5 -56h325q-4 29 -18 55t-35 45.5t-48.5 31t-58.5 11.5z" />
    <glyph glyph-name="f" unicode="f" horiz-adv-x="270" 
d="M151 0h-75v408h-53v65h53v177q0 32 4 66t21 61q20 30 52 45.5t67 15.5q13 0 25 -2t24 -7v-66q-11 2 -22 5t-22 3q-26 0 -41 -11t-22.5 -29t-9 -40t-1.5 -44v-174h118v-65h-118v-408z" />
    <glyph glyph-name="g" unicode="g" horiz-adv-x="589" 
d="M443 75q-32 -40 -77.5 -63t-99.5 -23q-52 0 -94.5 20t-73 53.5t-47 78.5t-16.5 95q0 51 17.5 96t49 79t75.5 53.5t96 19.5q105 0 170 -86v74h75v-444q0 -58 -9 -107.5t-42 -94.5q-34 -45 -84 -66.5t-110 -21.5q-45 0 -87.5 13t-75.5 38t-54.5 62t-24.5 86h79
q2 -32 16 -56.5t36 -41.5q45 -36 108 -36q42 0 77.5 14.5t58.5 47.5q24 35 30.5 75.5t6.5 85.5v49v0zM276 417q-37 0 -67.5 -15t-52 -39.5t-33.5 -56.5t-12 -67q0 -36 11.5 -69.5t33.5 -58.5t53 -40t70 -15q41 0 72 15t52.5 40.5t32.5 59.5t11 72q0 36 -12 68t-34.5 55.5
t-54 37t-70.5 13.5z" />
    <glyph glyph-name="h" unicode="h" horiz-adv-x="524" 
d="M377 276q0 29 -3 55.5t-13.5 46t-31.5 31t-56 11.5q-40 0 -64.5 -16.5t-38 -43t-18.5 -59.5t-5 -66v-235h-74v826h74v-423q23 39 59 60t84 21q46 0 77 -14t50 -39.5t27 -62.5t8 -82v-286h-75v276z" />
    <glyph glyph-name="i" unicode="i" horiz-adv-x="248" 
d="M124 580q-23 0 -38.5 15.5t-15.5 38.5q0 22 15.5 38t38.5 16t38.5 -16t15.5 -38q0 -23 -15.5 -38.5t-38.5 -15.5zM86 473h75v-473h-75v473z" />
    <glyph glyph-name="j" unicode="j" horiz-adv-x="248" 
d="M124 580q-23 0 -38.5 15.5t-15.5 38.5q0 22 15.5 38t38.5 16t38.5 -16t15.5 -38q0 -23 -15.5 -38.5t-38.5 -15.5zM86 473h75v-740h-75v740z" />
    <glyph glyph-name="k" unicode="k" horiz-adv-x="479" 
d="M166 226l-19 -26v-200h-74v826h74v-545l188 192h99l-207 -208l263 -265h-101z" />
    <glyph glyph-name="l" unicode="l" horiz-adv-x="220" 
d="M73 826h74v-826h-74v826z" />
    <glyph glyph-name="m" unicode="m" horiz-adv-x="778" 
d="M631 286q0 25 -2.5 49t-12 42.5t-28 30t-50.5 11.5q-35 0 -57 -14t-34 -36t-16.5 -50t-4.5 -57v-262h-74v277q0 26 -3 51.5t-13.5 46t-29.5 33t-52 12.5q-35 0 -56 -16.5t-32.5 -41t-15 -54t-3.5 -56.5v-252h-74v472h74v-59q20 35 53.5 53t72.5 18q48 0 83.5 -22
t55.5 -64q21 42 59 64t84 22t75 -14.5t45.5 -40t23 -59.5t6.5 -73v-297h-74v286z" />
    <glyph glyph-name="n" unicode="n" horiz-adv-x="524" 
d="M377 273q0 29 -2.5 55t-13 46.5t-31 32.5t-57.5 12q-40 0 -65 -16.5t-38.5 -42.5t-18 -58.5t-4.5 -65.5v-236h-74v472h74v-70q23 40 59 61t84 21q47 0 78 -14t49.5 -39.5t26.5 -62.5t8 -82v-286h-75v273z" />
    <glyph glyph-name="o" unicode="o" horiz-adv-x="570" 
d="M284 -11q-52 0 -98.5 19t-81.5 52t-55 78t-20 97q0 53 20 98.5t54.5 79t81 52.5t99.5 19t100 -18.5t82 -51.5t55 -78.5t20 -99.5t-20 -99.5t-55 -78t-82 -51t-100 -18.5zM281 417q-38 0 -70.5 -14.5t-56 -39.5t-36.5 -58t-13 -70q0 -36 13.5 -68.5t37 -57t56 -39
t69.5 -14.5q39 0 73 14t58.5 38t38.5 57t14 70q0 39 -14 72t-38.5 57.5t-58 38.5t-73.5 14z" />
    <glyph glyph-name="p" unicode="p" horiz-adv-x="584" 
d="M146 -267h-75v739h75v-78q26 44 74 67t99 23q54 0 97.5 -20t74 -54.5t47 -80t16.5 -97.5q0 -51 -16.5 -95.5t-47 -77.5t-73.5 -52t-96 -19q-52 0 -99 21.5t-76 63.5v-340zM310 417q-40 0 -71.5 -15.5t-53 -41.5t-32.5 -60t-11 -72q0 -37 12 -68.5t34.5 -55t53.5 -36.5
t70 -13q38 0 68.5 14.5t52 38.5t33.5 56t12 68t-11.5 69.5t-33 59t-53 41t-70.5 15.5z" />
    <glyph glyph-name="q" unicode="q" horiz-adv-x="584" 
d="M439 73q-29 -42 -76 -63.5t-99 -21.5q-54 0 -97 19t-73 51.5t-46.5 77t-16.5 95.5q0 52 16.5 98t47 80.5t74 54.5t97.5 20q50 0 98 -23t74 -67h1v78h74v-739h-74v340v0zM274 417q-40 0 -71.5 -15.5t-53 -41.5t-32.5 -60t-11 -72q0 -37 12 -68.5t34.5 -55t53.5 -36.5
t70 -13q38 0 68.5 14.5t52 38.5t33.5 56t12 68t-11.5 69.5t-33 59t-53 41t-70.5 15.5z" />
    <glyph glyph-name="r" unicode="r" horiz-adv-x="313" 
d="M285 393l-22 14.5t-26 6.5q-33 0 -51 -19.5t-27 -47t-11 -58.5t-2 -54v-235h-75v470h75v-51h1q20 28 42.5 46t61.5 18q20 0 37.5 -6t35.5 -17l-39 -67v0z" />
    <glyph glyph-name="s" unicode="s" horiz-adv-x="403" 
d="M196 -11q-57 0 -103 29t-67 81l50 38q17 -38 46.5 -62t74.5 -24q38 0 65.5 25t27.5 64q0 30 -17 45.5t-42 25.5q-8 3 -17 6l-18 6q-23 8 -46.5 18t-42 24.5t-30.5 36t-12 51.5q0 31 12 55t32.5 41t47 26t55.5 9q37 0 73 -18.5t56 -48.5l-45 -41q-29 47 -84 47
q-13 0 -26 -5t-23.5 -13t-17 -19.5t-6.5 -25.5q0 -28 20 -42t46 -24l55 -19.5t51 -26.5q23 -16 38.5 -41t15.5 -65q0 -36 -13.5 -64t-37 -48t-54 -30.5t-64.5 -10.5z" />
    <glyph glyph-name="t" unicode="t" horiz-adv-x="239" 
d="M154 0h-74v407h-53v66h53v162h74v-162h86v-66h-86v-407z" />
    <glyph glyph-name="u" unicode="u" horiz-adv-x="509" 
d="M406 49q-26 -32 -66 -46t-85 -14t-85 14t-67 46q-24 29 -30.5 64.5t-6.5 75.5v283h75v-263q0 -31 3.5 -59.5t15 -50t34 -34t61.5 -12.5t61.5 12.5t34 34t15 50t3.5 59.5v263h74v-283q0 -40 -6 -75.5t-31 -64.5z" />
    <glyph glyph-name="v" unicode="v" horiz-adv-x="471" 
d="M238 -38l-19.5 37l-13.5 26t-18 38l-33.5 72l-59 128.5l-95.5 208.5h80l158 -354l155 354h80l-234 -510v0z" />
    <glyph glyph-name="w" unicode="w" horiz-adv-x="801" 
d="M400 352l-163 -389l-238 509h80l155 -356l164 399l171 -399l153 356h79l-228 -509z" />
    <glyph glyph-name="x" unicode="x" horiz-adv-x="497" 
d="M248 199l-157 -199h-93l203 251l-180 221h91l136 -169l136 169h93l-181 -221l203 -251h-93z" />
    <glyph glyph-name="y" unicode="y" horiz-adv-x="499" 
d="M93 -267l124 275l-227 464h82l184 -384l168 384h80l-331 -739h-80z" />
    <glyph glyph-name="z" unicode="z" horiz-adv-x="496" 
d="M485 66v-66h-483l350 407h-294v65h435l-350 -406h342z" />
    <glyph glyph-name="braceleft" unicode="{" horiz-adv-x="310" 
d="M222 -210q-12 1 -22 3t-13 8q-38 6 -57 46t-19 104v191q0 23 -5.5 38.5t-15 27.5t-23 21.5l-28.5 19.5v57q16 10 29 19t22.5 20.5t15 26.5t5.5 36v191q0 66 19 106t57 45q3 6 13 8.5t22 2.5q12 1 25 0.5t24 -0.5v-62q-4 0 -8 0.5t-9 0.5q-9 2 -14 -3q-27 -2 -43.5 -19.5
t-16.5 -53.5v-194q0 -36 -6 -60.5t-16.5 -41.5t-24.5 -28t-31 -21v-4q17 -9 31 -20.5t24.5 -29t16.5 -43.5t6 -65v-192q0 -36 16.5 -53.5t43.5 -19.5q3 -3 14 -3q5 0 9 1t8 1v-61q-11 0 -24 -0.5t-25 0.5z" />
    <glyph glyph-name="bar" unicode="|" horiz-adv-x="372" 
d="M151 826h70v-826h-70v826z" />
    <glyph glyph-name="braceright" unicode="}" horiz-adv-x="310" 
d="M199 -49q0 -64 -18.5 -104t-56.5 -46q-4 -6 -13.5 -8t-21.5 -3q-13 -1 -26 -0.5t-24 0.5v61q4 0 8 -1t9 -1q11 0 14 3q28 2 44.5 19.5t16.5 53.5v192q0 39 6 65t16 43.5t24.5 29t30.5 20.5v4q-16 10 -30 21.5t-24.5 28t-16.5 41t-6 60.5v194q0 36 -16.5 53.5t-44.5 19.5
q-5 5 -14 3q-5 0 -9 -0.5t-8 -0.5v62q11 0 24 0.5t26 -0.5q11 0 21 -2.5t14 -8.5q38 -5 56.5 -45t18.5 -106v-191q0 -21 5.5 -36t15 -26t23 -20.5l28.5 -19.5v-57l-28.5 -19.5t-23 -21.5t-15 -27.5t-5.5 -38.5v-191z" />
    <glyph glyph-name="asciitilde" unicode="~" 
d="M428 173q-29 0 -57.5 12.5t-54.5 26.5l-28 15.5t-28 13.5q-30 13 -54 13q-30 0 -51.5 -23.5t-40.5 -52.5l-62 39l30 37.5t33 35.5q19 17 41 28.5t50 11.5t59 -12.5t60 -26.5l57 -28.5t47 -13.5q31 0 52 24.5t38 55.5l63 -38q-13 -21 -29 -42t-34.5 -38t-41 -27.5
t-49.5 -10.5z" />
    <glyph glyph-name="Adieresis" unicode="&#xc4;" horiz-adv-x="669" 
d="M435 876q-22 0 -37.5 15t-15.5 38q0 21 15.5 36.5t37.5 15.5t37.5 -15.5t15.5 -36.5q0 -23 -15.5 -38t-37.5 -15zM234 876q-22 0 -37.5 15t-15.5 38q0 21 15.5 36.5t37.5 15.5t37.5 -15.5t15.5 -36.5q0 -23 -15.5 -38t-37.5 -15zM493 224h-317l-91 -224h-83l332 785
l333 -785h-83zM202 292h266l-133 335z" />
    <glyph glyph-name="Eacute" unicode="&#xc9;" horiz-adv-x="516" 
d="M166 864l110 153l73 -32l-135 -147zM77 755h375v-72h-296v-241h288v-72h-288v-299h296v-71h-375v755z" />
    <glyph glyph-name="Odieresis" unicode="&#xd6;" horiz-adv-x="861" 
d="M531 876q-22 0 -37.5 15t-15.5 37t15.5 37.5t37.5 15.5t37.5 -15.5t15.5 -37.5t-15.5 -37t-37.5 -15zM330 876q-22 0 -37 15t-15 37t15 37.5t37 15.5t37.5 -15.5t15.5 -37.5t-15.5 -37t-37.5 -15zM430 -13q-82 0 -154 30.5t-126 84t-85.5 125t-31.5 153.5q0 81 32 151.5
t86.5 123t126.5 82.5t152 30t152 -30t126.5 -82.5t86.5 -123t32 -151.5q0 -82 -31 -153.5t-85 -125t-126 -84t-155 -30.5zM430 692q-65 0 -122.5 -25t-100.5 -67.5t-68 -99.5t-25 -120q0 -65 25 -123t68 -101t100.5 -68t122.5 -25t122.5 25t100.5 68.5t68 101t25 122.5
q0 63 -25 120t-68 99.5t-100.5 67.5t-122.5 25z" />
    <glyph glyph-name="Udieresis" unicode="&#xdc;" horiz-adv-x="684" 
d="M443 876q-23 0 -38 15t-15 38q0 21 15 36.5t38 15.5q22 0 37 -15.5t15 -36.5q0 -23 -15 -38t-37 -15zM242 876q-22 0 -37.5 15t-15.5 38q0 21 15.5 36.5t37.5 15.5t37 -15.5t15 -36.5q0 -23 -15 -38t-37 -15zM613 234q-2 -45 -13 -84.5t-43 -74.5q-39 -45 -97 -66
t-118 -21t-117.5 21t-97.5 66q-21 24 -33 50t-17 53.5t-6 56.5t-1 59v460h80v-444q0 -48 4.5 -96t30.5 -83q25 -35 68.5 -53t88.5 -18t88.5 18t68.5 53q13 18 20 39t10.5 44t4 47.5t0.5 48.5v444h79v-460q0 -16 0.5 -30.5t-0.5 -29.5z" />
    <glyph glyph-name="agrave" unicode="&#xe0;" horiz-adv-x="584" 
d="M201 703l73 32l110 -153l-49 -26zM437 78q-26 -44 -74 -66.5t-99 -22.5q-54 0 -97 19.5t-74 53.5t-47.5 79.5t-16.5 97.5q0 51 16.5 96t47 78t73.5 52t96 19q52 0 99 -21.5t76 -63.5v74h75v-473h-75v78zM270 417q-37 0 -67.5 -15t-52 -39.5t-33.5 -56.5t-12 -67
q0 -36 11.5 -69.5t33.5 -58.5t53 -40t70 -15q41 0 72 15t52.5 40.5t32.5 59.5t11 72q0 36 -12 68t-34.5 55.5t-54 37t-70.5 13.5z" />
    <glyph glyph-name="acircumflex" unicode="&#xe2;" horiz-adv-x="584" 
d="M292 645l-111 -83l-45 41l156 118l156 -118l-47 -41zM437 78q-26 -44 -74 -66.5t-99 -22.5q-54 0 -97 19.5t-74 53.5t-47.5 79.5t-16.5 97.5q0 51 16.5 96t47 78t73.5 52t96 19q52 0 99 -21.5t76 -63.5v74h75v-473h-75v78zM270 417q-37 0 -67.5 -15t-52 -39.5
t-33.5 -56.5t-12 -67q0 -36 11.5 -69.5t33.5 -58.5t53 -40t70 -15q41 0 72 15t52.5 40.5t32.5 59.5t11 72q0 36 -12 68t-34.5 55.5t-54 37t-70.5 13.5z" />
    <glyph glyph-name="adieresis" unicode="&#xe4;" horiz-adv-x="584" 
d="M393 594q-22 0 -37.5 15.5t-15.5 37.5t15.5 37t37.5 15t37.5 -15t15.5 -37t-15.5 -37.5t-37.5 -15.5zM192 594q-22 0 -37.5 15.5t-15.5 37.5t15.5 37t37.5 15t37.5 -15t15.5 -37t-15.5 -37.5t-37.5 -15.5zM437 78q-26 -44 -74 -66.5t-99 -22.5q-54 0 -97 19.5t-74 53.5
t-47.5 79.5t-16.5 97.5q0 51 16.5 96t47 78t73.5 52t96 19q52 0 99 -21.5t76 -63.5v74h75v-473h-75v78zM270 417q-37 0 -67.5 -15t-52 -39.5t-33.5 -56.5t-12 -67q0 -36 11.5 -69.5t33.5 -58.5t53 -40t70 -15q41 0 72 15t52.5 40.5t32.5 59.5t11 72q0 36 -12 68t-34.5 55.5
t-54 37t-70.5 13.5z" />
    <glyph glyph-name="dieresis" unicode="&#xa8;" horiz-adv-x="458" 
d="M329 596q-22 0 -37.5 15t-15.5 37q0 21 15.5 36t37.5 15t37.5 -15t15.5 -36q0 -22 -15.5 -37t-37.5 -15zM128 596q-22 0 -37 15t-15 37q0 21 15 36t37 15t37.5 -15t15.5 -36q0 -22 -15.5 -37t-37.5 -15z" />
    <glyph glyph-name="ccedilla" unicode="&#xe7;" horiz-adv-x="478" 
d="M276 -12q-52 0 -97.5 19t-78.5 52.5t-52 79t-19 97.5q0 53 19 98t52.5 78.5t79 52.5t98.5 19q87 0 154 -52v-82q-32 33 -68.5 51t-81.5 18q-38 0 -70.5 -15t-56 -40t-37 -58t-13.5 -69q0 -37 13.5 -70t37 -58.5t56 -40.5t69.5 -15q45 0 85.5 20t70.5 55v-83
q-72 -57 -161 -57zM155 -168l102 148l66 -31l-120 -143z" />
    <glyph glyph-name="eacute" unicode="&#xe9;" horiz-adv-x="530" 
d="M174 582l110 153l73 -32l-135 -147zM103 226q-1 -40 11.5 -72.5t35 -55.5t54.5 -35.5t69 -12.5q49 0 86.5 25t60.5 68l68 -18q-30 -67 -88.5 -101.5t-130.5 -34.5q-54 0 -98.5 19t-76 52.5t-48.5 79t-17 97.5t17 97t48 78.5t75 52.5t97 19q54 0 97 -18.5t73.5 -51
t47 -76.5t17.5 -95q1 -1 1 -8q-1 -2 -1 -9h-398v0zM269 425q-31 0 -60 -11t-51 -30.5t-36.5 -45t-17.5 -55.5h325q-4 29 -18 54.5t-35 45t-48.5 31t-58.5 11.5z" />
    <glyph glyph-name="egrave" unicode="&#xe8;" horiz-adv-x="530" 
d="M173 703l73 32l110 -153l-48 -26zM103 226q-1 -40 11.5 -72.5t35 -55.5t54.5 -35.5t69 -12.5q49 0 86.5 25t60.5 68l68 -18q-30 -67 -88.5 -101.5t-130.5 -34.5q-54 0 -98.5 19t-76 52.5t-48.5 79t-17 97.5t17 97t48 78.5t75 52.5t97 19q54 0 97 -18.5t73.5 -51t47 -76.5
t17.5 -95q1 -1 1 -8q-1 -2 -1 -9h-398v0zM269 425q-31 0 -60 -11t-51 -30.5t-36.5 -45t-17.5 -55.5h325q-4 29 -18 54.5t-35 45t-48.5 31t-58.5 11.5z" />
    <glyph glyph-name="ecircumflex" unicode="&#xea;" horiz-adv-x="530" 
d="M265 645l-111 -83l-45 41l156 118l156 -118l-48 -41zM103 226q-1 -40 11.5 -72.5t35 -55.5t54.5 -35.5t69 -12.5q49 0 86.5 25t60.5 68l68 -18q-30 -67 -88.5 -101.5t-130.5 -34.5q-54 0 -98.5 19t-76 52.5t-48.5 79t-17 97.5t17 97t48 78.5t75 52.5t97 19q54 0 97 -18.5
t73.5 -51t47 -76.5t17.5 -95q1 -1 1 -8q-1 -2 -1 -9h-398v0zM269 425q-31 0 -60 -11t-51 -30.5t-36.5 -45t-17.5 -55.5h325q-4 29 -18 54.5t-35 45t-48.5 31t-58.5 11.5z" />
    <glyph glyph-name="edieresis" unicode="&#xeb;" horiz-adv-x="530" 
d="M366 594q-22 0 -37.5 15.5t-15.5 37.5t15.5 37t37.5 15t37 -15t15 -37t-15 -37.5t-37 -15.5zM165 594q-22 0 -37.5 15.5t-15.5 37.5t15.5 37t37.5 15t37.5 -15t15.5 -37t-15.5 -37.5t-37.5 -15.5zM103 226q-1 -40 11.5 -72.5t35 -55.5t54.5 -35.5t69 -12.5q49 0 86.5 25
t60.5 68l68 -18q-30 -67 -88.5 -101.5t-130.5 -34.5q-54 0 -98.5 19t-76 52.5t-48.5 79t-17 97.5t17 97t48 78.5t75 52.5t97 19q54 0 97 -18.5t73.5 -51t47 -76.5t17.5 -95q1 -1 1 -8q-1 -2 -1 -9h-398v0zM269 425q-31 0 -60 -11t-51 -30.5t-36.5 -45t-17.5 -55.5h325
q-4 29 -18 54.5t-35 45t-48.5 31t-58.5 11.5z" />
    <glyph glyph-name="sterling" unicode="&#xa3;" 
d="M429 -11q-29 0 -59 9t-60 20q-28 11 -56 19.5t-50 8.5q-30 0 -55 -15.5t-45 -38.5l-49 32q21 29 53.5 51t66.5 27q25 22 45.5 49t27.5 56q3 6 0.5 23t-5.5 23h-132v53h110l-14 24l-23.5 40t-22 38.5t-9.5 18.5q-20 34 -32.5 64t-12.5 69q0 43 16.5 80t45.5 65
q31 29 72 44.5t86 15.5q48 0 87.5 -16t67 -45t42 -69t13.5 -88h-79v8q0 5 0.5 11t0.5 11q0 12 -6 16q-6 43 -40.5 70.5t-81.5 29.5q-26 2 -48 -6.5t-41 -22.5q-26 -18 -41.5 -46t-15.5 -61q0 -29 12 -54t26 -50l42.5 -72.5t38.5 -74.5h141v-53h-130q0 -2 0.5 -6t0.5 -8
q1 -4 1 -11v-5q3 -33 -11 -65.5t-35 -56.5l9 -3l33.5 -11.5t40.5 -14.5q20 -7 39 -12t33 -5q33 0 57.5 23.5t37.5 52.5l59 -20q-9 -24 -23.5 -46t-33.5 -39t-42.5 -27t-51.5 -10z" />
    <glyph glyph-name="trademark" unicode="&#x2122;" horiz-adv-x="940" 
d="M834 703h-2l-155 -367h-14l-153 367h-2v-367h-54v418h88l128 -308l130 308h87v-418h-53v367zM244 336h-55v367h-135v51h326v-51h-136v-367z" />
    <glyph glyph-name="icircumflex" unicode="&#xee;" horiz-adv-x="248" 
d="M123 645l-110 -83l-45 41l155 118l157 -118l-48 -41zM86 473h75v-473h-75v473z" />
    <glyph glyph-name="idieresis" unicode="&#xef;" horiz-adv-x="248" 
d="M225 594q-23 0 -38 15.5t-15 37.5t15 37t38 15q22 0 37 -15t15 -37t-15 -37.5t-37 -15.5zM24 594q-22 0 -37.5 15.5t-15.5 37.5t15.5 37t37.5 15t37 -15t15 -37t-15 -37.5t-37 -15.5zM86 473h75v-473h-75v473z" />
    <glyph glyph-name="bullet" unicode="&#x2022;" 
d="M318 189q-40 0 -75 15t-60.5 40.5t-40 59.5t-14.5 73t14.5 73.5t40 60t60.5 40.5t75 15q41 0 75.5 -15t59.5 -40.5t39.5 -60t14.5 -73.5t-14.5 -73t-39.5 -59.5t-59.5 -40.5t-75.5 -15z" />
    <glyph glyph-name="perthousand" unicode="&#x2030;" horiz-adv-x="1102" 
d="M906 -2q-34 0 -64 11.5t-52 32t-35 49.5t-13 63q0 35 13 64t35 49.5t52 31.5t64 11t64 -11t52 -31.5t35 -49.5t13 -64q0 -34 -13 -63t-35 -49.5t-52 -32t-64 -11.5zM194 454q-34 0 -64 11t-52 31.5t-35 49t-13 63.5t13 64t35 49.5t52 32t64 11.5t64 -11.5t52 -32
t35 -49.5t13 -64t-13 -63.5t-35 -49t-52 -31.5t-64 -11zM116 1l445 767l48 -14l-447 -768zM526 -2q-34 0 -64 11.5t-52 32t-35 49.5t-13 63q0 35 13 64t35 49.5t52 31.5t64 11t64 -11t52 -31.5t35 -49.5t13 -64q0 -34 -13 -63t-35 -49.5t-52 -32t-64 -11.5zM906 255
q-21 0 -40 -8t-33 -21.5t-22.5 -32.5t-8.5 -40t8.5 -39t22.5 -31.5t33 -21t40 -7.5t40 7.5t33 21t22.5 31.5t8.5 39t-8.5 40t-22.5 32.5t-33 21.5t-40 8zM194 710q-21 0 -40 -8t-33 -21.5t-22.5 -32t-8.5 -39.5t8.5 -39t22.5 -31.5t33 -21.5t40 -8t40 8t33 21.5t22.5 31.5
t8.5 39t-8.5 39.5t-22.5 32t-33 21.5t-40 8zM526 255q-21 0 -40 -8t-33 -21.5t-22.5 -32.5t-8.5 -40t8.5 -39t22.5 -31.5t33 -21t40 -7.5t40 7.5t33 21t22.5 31.5t8.5 39t-8.5 40t-22.5 32.5t-33 21.5t-40 8z" />
    <glyph glyph-name="ocircumflex" unicode="&#xf4;" horiz-adv-x="570" 
d="M285 645l-110 -83l-46 41l156 118l156 -118l-47 -41zM284 -11q-52 0 -98.5 19t-81.5 52t-55 78.5t-20 97.5q0 53 20 98.5t54.5 78.5t81 52t99.5 19t100 -18.5t82 -51.5t55 -78.5t20 -99.5t-20 -99.5t-55 -78t-82 -51t-100 -18.5zM281 417q-38 0 -70.5 -14.5t-56 -39.5
t-36.5 -58t-13 -69t13.5 -69t37 -57.5t56 -39t69.5 -14.5q39 0 73 14t58.5 38t38.5 57t14 71q0 39 -14 72t-38.5 57t-58 38t-73.5 14z" />
    <glyph glyph-name="odieresis" unicode="&#xf6;" horiz-adv-x="570" 
d="M385 594q-22 0 -37 15.5t-15 37.5t15 37t37 15t37.5 -15t15.5 -37t-15.5 -37.5t-37.5 -15.5zM185 594q-23 0 -38 15.5t-15 37.5t15 37t38 15q22 0 37 -15t15 -37t-15 -37.5t-37 -15.5zM284 -11q-52 0 -98.5 19t-81.5 52t-55 78.5t-20 97.5q0 53 20 98.5t54.5 78.5t81 52
t99.5 19t100 -18.5t82 -51.5t55 -78.5t20 -99.5t-20 -99.5t-55 -78t-82 -51t-100 -18.5zM281 417q-38 0 -70.5 -14.5t-56 -39.5t-36.5 -58t-13 -69t13.5 -69t37 -57.5t56 -39t69.5 -14.5q39 0 73 14t58.5 38t38.5 57t14 71t-14 71t-38.5 57.5t-58 38.5t-73.5 14z" />
    <glyph glyph-name="ugrave" unicode="&#xf9;" horiz-adv-x="509" 
d="M163 703l73 32l110 -153l-48 -26zM406 49q-26 -32 -66 -46t-85 -14t-85 14t-67 46q-24 29 -30.5 64.5t-6.5 75.5v284h75v-264q0 -31 3.5 -59.5t15 -50t34 -34t61.5 -12.5t61.5 12.5t34 34t15 50t3.5 59.5v264h74v-284q0 -40 -6 -75.5t-31 -64.5z" />
    <glyph glyph-name="ucircumflex" unicode="&#xfb;" horiz-adv-x="509" 
d="M254 645l-110 -83l-45 41l155 118l157 -118l-48 -41zM406 49q-26 -32 -66 -46t-85 -14t-85 14t-67 46q-24 29 -30.5 64.5t-6.5 75.5v284h75v-264q0 -31 3.5 -59.5t15 -50t34 -34t61.5 -12.5t61.5 12.5t34 34t15 50t3.5 59.5v264h74v-284q0 -40 -6 -75.5t-31 -64.5z" />
    <glyph glyph-name="udieresis" unicode="&#xfc;" horiz-adv-x="509" 
d="M356 594q-23 0 -38 15.5t-15 37.5t15 37t38 15q22 0 37 -15t15 -37t-15 -37.5t-37 -15.5zM155 594q-22 0 -37.5 15.5t-15.5 37.5t15.5 37t37.5 15t37 -15t15 -37t-15 -37.5t-37 -15.5zM406 49q-26 -32 -66 -46t-85 -14t-85 14t-67 46q-24 29 -30.5 64.5t-6.5 75.5v284h75
v-264q0 -31 3.5 -59.5t15 -50t34 -34t61.5 -12.5t61.5 12.5t34 34t15 50t3.5 59.5v264h74v-284q0 -40 -6 -75.5t-31 -64.5z" />
    <glyph glyph-name="dagger" unicode="&#x2020;" 
d="M353 -178h-73v666h-180v66h180v200h73v-200h181v-66h-181v-666z" />
    <glyph glyph-name="germandbls" unicode="&#xdf;" horiz-adv-x="557" 
d="M349 523q41 -12 74.5 -36.5t56.5 -57.5t35.5 -73t12.5 -83q0 -52 -18 -100t-51 -84q-35 -38 -81.5 -62.5t-98.5 -30.5q-6 -3 -17 -3h-10t-9 -1v66q43 5 80.5 23t66 46.5t45 66t16.5 81.5q0 45 -16 82.5t-44 65t-66 44t-82 19.5v65q54 0 87.5 30.5t33.5 84.5
q0 48 -31.5 77t-79.5 29q-27 0 -51.5 -11t-37.5 -34q-12 -22 -14.5 -51t-2.5 -55v-621h-74v394h-50v65h50v178q0 38 6.5 75.5t32.5 66.5q27 31 67 45t80 14q38 0 70.5 -12.5t56.5 -35.5t37.5 -55t13.5 -71q0 -48 -23 -84.5t-65 -55.5v-1v0z" />
    <glyph glyph-name="registered" unicode="&#xae;" horiz-adv-x="800" 
d="M401 -12q-81 0 -152 30.5t-124.5 83.5t-84 124t-30.5 152q0 80 30.5 151t84 123.5t124.5 83t152 30.5t151.5 -30.5t123.5 -83t83.5 -123.5t30.5 -151q0 -81 -30.5 -152t-83.5 -124t-123.5 -83.5t-151.5 -30.5zM401 707q-69 0 -129.5 -25.5t-105.5 -69.5t-71 -104.5
t-26 -129.5q0 -70 26 -130.5t71 -105t105.5 -70t129.5 -25.5t129 25.5t105 70t70.5 105t25.5 130.5q0 69 -25.5 129.5t-70.5 104.5t-105 69.5t-129 25.5zM592 161h-72l-115 190h-91v-190h-59v422h189q82 0 117.5 -28t35.5 -88t-35.5 -87t-92.5 -29zM314 528v-124h88h45
q18 0 34.5 3t29.5 10.5t21 20.5t8 32t-10 30.5t-25.5 17.5t-35 8t-38.5 2h-117z" />
    <glyph glyph-name="copyright" unicode="&#xa9;" horiz-adv-x="800" 
d="M401 -12q-81 0 -152 30.5t-124.5 83.5t-84 124t-30.5 152q0 80 30.5 151t84 123.5t124.5 83t152 30.5t151.5 -30.5t123.5 -83t83.5 -123.5t30.5 -151q0 -81 -30.5 -152t-83.5 -124t-123.5 -83.5t-151.5 -30.5zM401 707q-69 0 -129.5 -25.5t-105.5 -69.5t-71 -104.5
t-26 -129.5q0 -70 26 -130.5t71 -105t105.5 -70t129.5 -25.5t129 25.5t105 70t70.5 105t25.5 130.5q0 69 -25.5 129.5t-70.5 104.5t-105 69.5t-129 25.5zM418 156q-49 0 -89 17.5t-68 47.5t-43.5 71t-15.5 89t14.5 89t42 71t67 47t89.5 17q71 0 122 -38.5t62 -110.5h-58
q-8 45 -44.5 69t-80.5 24q-36 0 -65 -13t-49 -36t-30.5 -53t-10.5 -65q0 -33 11 -64t31.5 -54.5t49.5 -37.5t65 -14q45 0 81 25.5t42 71.5h58q-3 -36 -19 -64t-41 -48t-56.5 -30.5t-64.5 -10.5z" />
    <glyph glyph-name="section" unicode="&#xa7;" 
d="M415 117q48 -21 71 -60t23 -90q0 -43 -16 -74.5t-42.5 -52t-62 -30.5t-74.5 -10q-188 0 -188 182v11h77v-13q1 -55 28 -84.5t84 -29.5q51 0 84.5 27.5t33.5 78.5q0 21 -7.5 37t-19.5 28t-28 20.5t-33 15.5l-23 10l-23 10q-7 8 -27 15q-8 4 -17.5 7l-18.5 6
q-18 6 -33.5 12.5t-20.5 17.5q-70 37 -70 137q0 57 27.5 101t78.5 69q-43 23 -63.5 57.5t-20.5 85.5q0 41 15 71.5t40.5 51.5t59.5 31.5t71 10.5q47 0 80.5 -12t55 -35t32.5 -57.5t14 -78.5h-71q-2 57 -27.5 88.5t-85.5 31.5q-48 0 -78 -28t-30 -76q0 -24 7 -40t19.5 -27
t29 -19.5t34.5 -16.5l24.5 -10t24.5 -11q7 -6 19 -9q6 -3 12.5 -4.5t13.5 -3.5l24 -9.5t16 -12.5q38 -21 62.5 -56.5t24.5 -97.5q0 -57 -29 -98t-77 -67zM417 351q-5 12 -19.5 23.5t-32.5 20.5t-36.5 14.5t-32.5 5.5q-23 0 -43.5 -9.5t-36 -25.5t-24.5 -37t-9 -44t8 -44
t26 -30q5 -12 19.5 -23t32.5 -20t37 -14t32 -5q23 0 43 9.5t35.5 25t24.5 36.5t9 44q0 22 -8 43t-25 30z" />
    <glyph glyph-name="degree" unicode="&#xb0;" horiz-adv-x="400" 
d="M200 466q-31 0 -58.5 12t-48 32t-32.5 47.5t-12 58.5t11.5 58t32 47.5t48 32.5t59.5 12q31 0 58.5 -12t48 -32.5t32.5 -47.5t12 -58t-12 -58.5t-32.5 -47.5t-48 -32t-58.5 -12zM199 714q-42 0 -69.5 -28t-27.5 -70t28 -70t70 -28t70 28t28 70q0 20 -7.5 38t-21 31.5
t-31.5 21t-39 7.5z" />
    <glyph glyph-name="periodcentered" unicode="&#xb7;" horiz-adv-x="317" 
d="M158 200q-24 0 -40.5 16.5t-16.5 39.5t16.5 39.5t40.5 16.5t41 -16.5t17 -39.5t-17 -39.5t-41 -16.5z" />
    <glyph glyph-name="periodcentered" unicode="&#x22c5;" horiz-adv-x="317" 
d="M158 200q-24 0 -40.5 16.5t-16.5 39.5t16.5 39.5t40.5 16.5t41 -16.5t17 -39.5t-17 -39.5t-41 -16.5z" />
    <glyph glyph-name="plusminus" unicode="&#xb1;" 
d="M352 108h-71v181h-221v70h221v181h71v-181h222v-70h-222v-181zM60 70h514v-70h-514v70z" />
    <glyph glyph-name="yen" unicode="&#xa5;" 
d="M558 459v-53h-157l-45 -75h202v-53h-203v-278h-77v278h-203v53h202l-45 75h-157v53h125l-176 295h93l200 -341l199 341h93l-176 -295h125z" />
    <glyph glyph-name="guillemotleft" unicode="&#xab;" horiz-adv-x="438" 
d="M178 320l152 185l45 -37q-32 -38 -54.5 -62l-37.5 -40q-16 -17 -23.5 -27t-7.5 -19t8 -19t23 -26l38.5 -41t53.5 -62l-45 -37zM32 320l152 185l45 -37l-122 -148l123 -148l-46 -37z" />
    <glyph glyph-name="guillemotright" unicode="&#xbb;" horiz-adv-x="438" 
d="M209 172l122 148l-122 148l45 37l152 -185l-152 -185zM63 172l123 148l-123 148l45 37l152 -185l-152 -185z" />
    <glyph glyph-name="ellipsis" unicode="&#x2026;" horiz-adv-x="1000" 
d="M833 -10q-24 0 -40.5 16.5t-16.5 40.5q0 23 16.5 39.5t40.5 16.5t40.5 -16.5t16.5 -39.5q0 -24 -16.5 -40.5t-40.5 -16.5zM500 -10q-24 0 -40.5 16.5t-16.5 40.5q0 23 16.5 39.5t40.5 16.5t40.5 -16.5t16.5 -39.5q0 -24 -16.5 -40.5t-40.5 -16.5zM167 -10
q-24 0 -40.5 16.5t-16.5 40.5q0 23 16.5 39.5t40.5 16.5t40.5 -16.5t16.5 -39.5q0 -24 -16.5 -40.5t-40.5 -16.5z" />
    <glyph glyph-name="oe" unicode="&#x153;" horiz-adv-x="960" 
d="M536 226q-2 -37 10 -69t34.5 -56t54 -37.5t68.5 -13.5q51 0 88 24.5t59 70.5l68 -19q-29 -69 -87.5 -103t-130.5 -34q-66 0 -121 33t-81 91q-33 -58 -89.5 -91t-125.5 -33q-53 0 -99.5 18.5t-81 51t-54 77.5t-19.5 99t20 99.5t54.5 79t81.5 52t100 18.5q66 0 123.5 -32
t89.5 -89q26 59 80 90t119 31q54 0 97.5 -18.5t74 -50.5t46.5 -76.5t16 -95.5q2 -2 2 -8q-1 -2 -1 -9h-396v0zM699 425q-31 0 -59.5 -11t-50.5 -30.5t-36 -45.5t-17 -56h323q-4 29 -17.5 55t-34.5 45.5t-48.5 31t-59.5 11.5zM287 417q-39 0 -72.5 -14.5t-57.5 -39.5
t-38 -58.5t-14 -71.5q0 -36 14 -68t38.5 -56t57 -38.5t68.5 -14.5q38 0 70.5 14t57.5 38t39 57t14 70t-13.5 70t-37.5 58t-56 39.5t-70 14.5z" />
    <glyph glyph-name="endash" unicode="&#x2013;" horiz-adv-x="500" 
d="M-1 353h502v-66h-502v66z" />
    <glyph glyph-name="quotedblleft" unicode="&#x201c;" horiz-adv-x="438" 
d="M214 510l104 247l49 -9l-81 -249zM61 510l104 247l49 -9l-81 -249z" />
    <glyph glyph-name="quotedblright" unicode="&#x201d;" horiz-adv-x="438" 
d="M224 513l81 249l72 -11l-104 -247zM68 513l81 249l72 -11l-104 -247z" />
    <glyph glyph-name="quoteleft" unicode="&#x2018;" horiz-adv-x="282" 
d="M61 510l104 247l49 -9l-81 -249z" />
    <glyph glyph-name="quoteright" unicode="&#x2019;" horiz-adv-x="282" 
d="M68 513l81 249l72 -11l-104 -247z" />
    <glyph glyph-name="divide" unicode="&#xf7;" 
d="M317 420q-20 0 -34.5 14t-14.5 34t14.5 34t34.5 14t34 -14t14 -34t-14 -34t-34 -14zM60 291h514v-70h-514v70zM317 -3q-20 0 -34.5 14t-14.5 34t14.5 34t34.5 14t34 -14t14 -34t-14 -34t-34 -14z" />
    <glyph glyph-name="mu" unicode="&#xb5;" horiz-adv-x="524" 
d="M372 70q-23 -40 -59 -61t-84 -21q-57 0 -87 27v-282h-75v739h75v-273q0 -28 2.5 -55t13 -47t31 -32.5t57.5 -12.5q41 0 65.5 16.5t38 42.5t18 59t4.5 66v236h74v-473h-74v71z" />
    <glyph glyph-name="mu" unicode="&#x3bc;" horiz-adv-x="524" 
d="M372 70q-23 -40 -59 -61t-84 -21q-57 0 -87 27v-282h-75v739h75v-273q0 -28 2.5 -55t13 -47t31 -32.5t57.5 -12.5q41 0 65.5 16.5t38 42.5t18 59t4.5 66v236h74v-473h-74v71z" />
    <glyph glyph-name="pi" unicode="&#x3c0;" horiz-adv-x="524" 
d="M377 407h-230v-407h-74v472h379v-472h-75v407z" />
    <glyph glyph-name="emdash" unicode="&#x2014;" horiz-adv-x="1000" 
d="M-1 353h1002v-66h-1002v66z" />
    <glyph glyph-name="quotedbl" unicode="&#x22;" horiz-adv-x="322" 
d="M207 496l-14 258h75l-15 -258h-46zM68 496l-13 258h74l-14 -258h-47z" />
    <glyph glyph-name="exclam" unicode="!" horiz-adv-x="333" 
d="M127 754h79v-589h-79v589zM166 -12q-24 0 -40.5 16.5t-16.5 40.5t16.5 40.5t40.5 16.5t41 -16.5t17 -40.5t-17 -40.5t-41 -16.5z" />
    <glyph glyph-name="onesuperior" unicode="&#xb9;" horiz-adv-x="669" 
d="M335 829q-19 0 -37.5 6.5t-32.5 19t-22.5 29.5t-8.5 38t8 38.5t22 30t32.5 19t38.5 6.5t38 -6.5t32 -19t22.5 -29.5t8.5 -38t-8 -38.5t-22 -29.5t-32.5 -19t-38.5 -7zM493 224h-317l-91 -224h-83l332 785l333 -785h-83zM335 968q-20 0 -34 -12.5t-14 -32.5t14 -33t34 -13
t34 13t14 33t-14 32.5t-34 12.5zM202 292h266l-133 335z" />
    <glyph glyph-name="twosuperior" unicode="&#xb2;" horiz-adv-x="723" 
d="M429 -12q-78 0 -149 29.5t-126 80.5q-57 54 -89 125.5t-32 152.5q0 78 29 147.5t83 123.5q55 55 128.5 87t155.5 32q64 0 125 -22t112 -64v-103q-21 26 -48.5 47t-59 35.5t-64.5 22.5t-66 8q-65 0 -122.5 -25.5t-100 -69t-67 -101t-24.5 -122.5q0 -61 23.5 -116.5
t68.5 -97.5q43 -42 101 -68.5t121 -26.5q31 0 64.5 8t65 22.5t59.5 34.5t49 45v-103q-54 -38 -112.5 -60t-124.5 -22zM278 -168l101 148l67 -31l-121 -143z" />
    <glyph glyph-name="threesuperior" unicode="&#xb3;" horiz-adv-x="851" 
d="M489 873q-14 0 -31.5 6t-35.5 13.5t-36 13.5t-34 6q-18 0 -27 -12t-14 -28l-39 16l-3 5q8 30 26 51q11 13 26.5 21.5t32.5 8.5q19 0 38 -6t36 -13q9 -3 18 -6.5l17 -6.5q17 -6 30 -6q18 0 29.5 11.5t16.5 28.5l42 -18q-6 -33 -31 -59t-61 -26zM156 0h-79q0 793 24 767
l28 -29.5l36 -38.5l92 -96l107 -114l109.5 -116l100 -106l77.5 -82.5l43 -46.5v1v615h80v-791l-618 645v-608z" />
    <glyph glyph-name="dieresistonos" unicode="&#x385;" horiz-adv-x="248" 
d="M254 596q-22 0 -37.5 15t-15.5 37q0 21 15.5 36.5t37.5 15.5t37.5 -15.5t15.5 -36.5q0 -22 -15.5 -37t-37.5 -15zM37 584l110 151l73 -31l-135 -146zM1 596q-23 0 -38 15t-15 37q0 21 15 36.5t38 15.5q22 0 37 -15.5t15 -36.5q0 -22 -15 -37t-37 -15z" />
    <glyph glyph-name="tonos" unicode="&#x384;" horiz-adv-x="331" 
d="M74 584l110 151l73 -31l-135 -146z" />
    <glyph glyph-name="onehalf" unicode="&#xbd;" horiz-adv-x="950" 
d="M641 49h208v-49h-324l188 189l27.5 30t26.5 33t19.5 35.5t7.5 37.5q0 38 -29 62.5t-71 24.5q-38 0 -63.5 -17.5t-33.5 -47.5q-3 -13 -3 -29h-57q1 27 8 49.5t25 42.5q22 24 55 37.5t68 13.5q32 0 60.5 -10.5t50 -28.5t34 -43.5t12.5 -55.5q0 -23 -7.5 -44t-20 -40.5
t-28 -36.5t-31.5 -32zM161 1l446 768l47 -15l-446 -768zM174 705h-75l12 49h117v-450h-54v401z" />
    <glyph glyph-name="brokenbar" unicode="&#xa6;" horiz-adv-x="570" 
d="M349 591q-14 0 -31.5 6t-35.5 14q-18 7 -36 13t-34 6q-18 0 -27 -11.5t-14 -28.5h-18l-25 21q7 28 26 51q11 13 26.5 21.5t33.5 8.5q19 0 38 -6t36 -13q9 -3 17.5 -6.5l16.5 -6.5l16 -4t15 -2q18 0 29.5 12t16.5 28l42 -18q-7 -33 -32 -59t-60 -26zM284 -11
q-52 0 -98.5 19t-81.5 52t-55 78.5t-20 97.5q0 53 20 98.5t54.5 78.5t81 52t99.5 19t100 -18.5t82 -51.5t55 -78.5t20 -99.5t-20 -99.5t-55 -78t-82 -51t-100 -18.5zM281 417q-38 0 -70.5 -14.5t-56 -39.5t-36.5 -58t-13 -69t13.5 -69t37 -57.5t56 -39t69.5 -14.5
q39 0 73 14t58.5 38t38.5 57t14 71t-14 71t-38.5 57.5t-58 38.5t-73.5 14z" />
    <glyph glyph-name="sfthyphen" unicode="&#xad;" horiz-adv-x="230" 
d="M10 353h211v-66h-211v66z" />
    <glyph glyph-name="Gamma" unicode="&#x393;" horiz-adv-x="464" 
d="M156 0h-79v754h355v-71h-276v-683z" />
    <glyph glyph-name="Delta" unicode="&#x394;" horiz-adv-x="669" 
d="M334 785l333 -785h-665zM335 627q-3 -7 -13.5 -33.5l-26 -65.5l-34 -86.5l-38 -97l-38 -96.5l-33.5 -85.5l-25 -64l-12 -30.5h439l-219 559v0z" />
    <glyph glyph-name="Theta" unicode="&#x398;" horiz-adv-x="861" 
d="M430 -13q-82 0 -154 30.5t-126 84t-85.5 125t-31.5 153.5q0 81 32 151.5t86.5 123t126.5 82.5t152 30t152 -30t126.5 -82.5t86.5 -123t32 -151.5q0 -82 -31 -153.5t-85 -125t-126 -84t-155 -30.5zM430 691q-57 0 -108.5 -19.5t-92.5 -53.5t-69 -80t-39 -99h619
q-11 53 -39.5 99t-69.5 80t-92.5 53.5t-108.5 19.5zM742 370v2h-624v-2v-2q-1 -1 -1 -5q2 -62 27.5 -116.5t68 -95.5t98.5 -64.5t119 -23.5t119 24t99 64.5t68.5 95.5t27.5 116q0 2 -0.5 2.5t-0.5 2.5z" />
    <glyph glyph-name="Lambda" unicode="&#x39b;" horiz-adv-x="669" 
d="M584 0l-54 132l-55 135.5l-51 128l-43.5 110l-32 80l-15.5 39.5q-4 -9 -21 -52l-41 -103.5l-52 -132l-54 -138l-47.5 -120l-32.5 -79.5h-83l332 785l333 -785h-83v0z" />
    <glyph glyph-name="Xi" unicode="&#x39e;" horiz-adv-x="598" 
d="M57 71h202v299h-179v71h179v242h-202v71h484v-71h-202v-242h179v-71h-179v-299h202v-71h-484v71z" />
    <glyph glyph-name="Pi" unicode="&#x3a0;" horiz-adv-x="733" 
d="M577 685h-421v-685h-79v754h580v-754h-80v685z" />
    <glyph glyph-name="Sigma" unicode="&#x3a3;" horiz-adv-x="596" 
d="M256 408l-230 346h528v-71h-391l185 -275l-201 -337h420v-71h-557z" />
    <glyph glyph-name="Iotadieresis" unicode="&#x3aa;" horiz-adv-x="233" 
d="M217 876q-22 0 -37.5 15t-15.5 38q0 21 15.5 36.5t37.5 15.5t37.5 -15.5t15.5 -36.5q0 -23 -15.5 -38t-37.5 -15zM16 876q-22 0 -37 15t-15 38q0 21 15 36.5t37 15.5t37.5 -15.5t15.5 -36.5q0 -23 -15.5 -38t-37.5 -15zM77 754h79v-754h-79v754z" />
    <glyph glyph-name="Alpha" unicode="&#x391;" horiz-adv-x="669" 
d="M493 224h-317l-91 -224h-83l332 785l333 -785h-83zM335 626l-133 -334h266l-133 335v-1z" />
    <glyph glyph-name="Beta" unicode="&#x392;" horiz-adv-x="587" 
d="M391 401q72 -14 113 -65t41 -126q0 -99 -73 -157q-40 -32 -84.5 -42.5t-95.5 -10.5h-215v754h177q45 0 84.5 -7.5t73.5 -36.5t48.5 -68.5t14.5 -87.5q0 -51 -19.5 -89.5t-64.5 -63.5zM342 665q-26 16 -56.5 18.5t-61.5 2.5h-68v-264h70q33 0 63 2.5t59 22.5t40 46t11 62
q0 35 -14 64t-43 46zM391 335q-32 15 -72 17.5t-75 2.5h-88v-287h96q36 0 73.5 2.5t69.5 22.5t51 50t19 70t-19.5 72.5t-54.5 49.5z" />
    <glyph glyph-name="Epsilon" unicode="&#x395;" horiz-adv-x="516" 
d="M77 754h375v-71h-296v-242h288v-71h-288v-299h296v-71h-375v754z" />
    <glyph glyph-name="Zeta" unicode="&#x396;" horiz-adv-x="596" 
d="M567 71v-71h-557l439 683h-391v71h528l-439 -683h420z" />
    <glyph glyph-name="Eta" unicode="&#x397;" horiz-adv-x="733" 
d="M577 372h-421v-372h-79v754h79v-313h421v313h80v-754h-80v372z" />
    <glyph glyph-name="Iota" unicode="&#x399;" horiz-adv-x="233" 
d="M77 754h79v-754h-79v754z" />
    <glyph glyph-name="Kappa" unicode="&#x39a;" horiz-adv-x="607" 
d="M172 352l-16 -15v-337h-79v754h79v-342l333 342h103l-357 -362l380 -392h-104z" />
    <glyph glyph-name="Mu" unicode="&#x39c;" horiz-adv-x="914" 
d="M705 574l-251 -606l-33.5 78l-50 118.5l-57 136l-54 129.5l-41 99l-18.5 45h-1l-111 -574h-78l170 793l277 -645l266 644l20 -81.5l26 -112l29.5 -130l30.5 -134.5l75 -334h-78z" />
    <glyph glyph-name="Phi" unicode="&#x3a6;" horiz-adv-x="863" 
d="M469 0h-80v31q-74 7 -138 37t-111 77t-73.5 108t-26.5 129q0 67 27 127t74 106.5t111 76.5t137 36v26h80v-25q74 -6 138.5 -35.5t112.5 -76t75.5 -107t27.5 -128.5q0 -69 -27 -130t-75 -108.5t-112.5 -77t-139.5 -35.5v-31zM469 103q56 6 105.5 30t86.5 61.5t58.5 85.5
t21.5 102q0 53 -21.5 100.5t-58.5 84t-86.5 60t-105.5 29.5v-553zM389 655q-55 -6 -104 -30t-85 -60.5t-57 -83.5t-21 -99q0 -53 21 -100.5t57.5 -85t85 -62t103.5 -30.5v551v0z" />
    <glyph glyph-name="Upsilondieresis" unicode="&#x3ab;" horiz-adv-x="590" 
d="M395 876q-22 0 -37 15t-15 38q0 21 15 36.5t37 15.5t37.5 -15.5t15.5 -36.5q0 -23 -15.5 -38t-37.5 -15zM195 876q-23 0 -38 15t-15 38q0 21 15 36.5t38 15.5q22 0 37 -15.5t15 -36.5q0 -23 -15 -38t-37 -15zM334 0h-79v330l-257 424h91l206 -344l205 344h92l-258 -424
v-330z" />
    <glyph glyph-name="Psi" unicode="&#x3a8;" horiz-adv-x="761" 
d="M692 380q-2 -45 -13.5 -84.5t-42.5 -74.5q-40 -45 -97.5 -66.5t-117.5 -21.5h-1v-133h-80v133q-60 0 -117 21.5t-97 66.5q-21 24 -33 50t-17 53t-6 56t-1 59v315h80v-299q0 -48 5 -95.5t30 -83.5q25 -34 68 -52t88 -19v549h80v-549h1q45 0 88.5 18.5t68.5 52.5
q13 18 20 39t10.5 44.5t4 47.5t0.5 48v299h80v-315v-31v-14t-1 -14z" />
    <glyph glyph-name="Omega" unicode="&#x3a9;" horiz-adv-x="862" 
d="M508 97q47 11 90.5 38t76.5 66t53 87.5t20 102.5q0 61 -25 116t-68.5 96.5t-101 66t-122.5 24.5t-123 -24.5t-101 -66t-68 -96.5t-25 -116q0 -72 33 -131t84 -101q26 -21 51.5 -35t57.5 -25v-99h-308v70h214q-47 20 -86 53t-67.5 75.5t-44 92t-15.5 102.5q0 78 32 146
t86.5 119t126.5 80t153 29q80 0 152.5 -29t127 -80t86.5 -119t32 -146q0 -53 -16 -103t-44.5 -92.5t-68 -75.5t-86.5 -52h216v-70h-322v97z" />
    <glyph glyph-name="alphatonos" unicode="&#x3ac;" horiz-adv-x="584" 
d="M217 582l110 153l73 -32l-135 -147zM437 75q-28 -43 -75 -64.5t-99 -21.5q-53 0 -96.5 19t-74 52t-47 77.5t-16.5 95.5q0 52 16.5 97.5t47 79.5t74 54t97.5 20q25 0 50 -5.5t48 -17t42.5 -27.5t32.5 -37v76h75v-473h-75v75zM273 417q-41 0 -72.5 -15.5t-52.5 -41.5
t-32 -60t-11 -72q0 -37 12 -68.5t34 -54.5t53 -36t70 -13q38 0 69 14.5t52.5 38.5t33.5 56t12 67q0 36 -11.5 69.5t-33.5 59t-53 41t-70 15.5z" />
    <glyph glyph-name="Nu" unicode="&#x39d;" horiz-adv-x="851" 
d="M156 0h-79q0 793 24 767l28 -29.5l36 -38.5l92 -96l107 -114l109.5 -116l100 -106l77.5 -82.5l43 -46.5v616h80v-791l-618 645v-608z" />
    <glyph glyph-name="Omicron" unicode="&#x39f;" horiz-adv-x="861" 
d="M430 -13q-82 0 -154 30.5t-126 84t-85.5 125t-31.5 153.5q0 81 32 151.5t86.5 123t126.5 82.5t152 30t152 -30t126.5 -82.5t86.5 -123t32 -151.5q0 -82 -31 -153.5t-85 -125t-126 -84t-155 -30.5zM430 691q-65 0 -122.5 -25t-100.5 -67.5t-68 -99t-25 -119.5
q0 -65 25 -123t68 -101t100.5 -68t122.5 -25t122.5 25t100.5 68.5t68 101t25 122.5q0 63 -25 119.5t-68 99t-100.5 67.5t-122.5 25z" />
    <glyph glyph-name="Rho" unicode="&#x3a1;" horiz-adv-x="510" 
d="M421 387q-35 -31 -80 -41t-96 -10h-89v-336h-79v754h167q48 0 91.5 -8.5t78.5 -38.5q35 -29 53 -71.5t18 -90.5q0 -46 -16 -88t-48 -70zM350 658q-27 19 -59.5 23t-65.5 4h-69v-280h75q35 0 66.5 6t59.5 29q46 39 46 105q0 35 -13.5 65t-39.5 48z" />
    <glyph glyph-name="Tau" unicode="&#x3a4;" horiz-adv-x="467" 
d="M273 0h-80v683h-188v71h456v-71h-188v-683z" />
    <glyph glyph-name="Upsilon" unicode="&#x3a5;" horiz-adv-x="590" 
d="M334 0h-79v330l-257 424h91l206 -345l205 345h92l-258 -424v-330z" />
    <glyph glyph-name="Chi" unicode="&#x3a7;" horiz-adv-x="553" 
d="M277 320l-179 -320h-92l225 389l-208 365h93l161 -296l161 296h93l-206 -365l222 -389h-92z" />
    <glyph glyph-name="Alphatonos" unicode="&#x386;" horiz-adv-x="669" 
d="M14 582l110 154l73 -32l-135 -148zM493 224h-317l-91 -224h-83l332 785l333 -785h-83zM333 627l-13.5 -33l-24 -61l-29.5 -75l-29.5 -75l-23 -60t-11.5 -31h266l-135 335v0z" />
    <glyph glyph-name="Epsilontonos" unicode="&#x388;" horiz-adv-x="516" 
d="M77 754h375v-71h-296v-242h288v-71h-288v-299h296v-71h-375v754zM-135 582l110 153l73 -32l-135 -147z" />
    <glyph glyph-name="afii00208" unicode="&#x2015;" horiz-adv-x="1000" 
d="M-1 353h1002v-66h-1002v66z" />
    <glyph glyph-name="Etatonos" unicode="&#x389;" horiz-adv-x="733" 
d="M577 372h-421v-372h-79v754h79v-313h421v313h80v-754h-80v372zM-136 582l110 153l73 -32l-134 -147z" />
    <glyph glyph-name="Iotatonos" unicode="&#x38a;" horiz-adv-x="233" 
d="M-135 582l110 153l73 -32l-134 -147zM77 754h79v-754h-79v754z" />
    <glyph glyph-name="Omicrontonos" unicode="&#x38c;" horiz-adv-x="861" 
d="M430 -13q-82 0 -154 30.5t-126 84t-85.5 125t-31.5 153.5q0 81 32 151.5t86.5 123t126.5 82.5t152 30t152 -30t126.5 -82.5t86.5 -123t32 -151.5q0 -82 -31 -153.5t-85 -125t-126 -84t-155 -30.5zM-106 582l110 154l73 -32l-135 -148zM430 691q-65 0 -122.5 -25
t-100.5 -67.5t-68 -99t-25 -119.5q0 -65 25 -123t68 -101t100.5 -68t122.5 -25t122.5 25t100.5 68.5t68 101t25 122.5q0 63 -25 119.5t-68 99t-100.5 67.5t-122.5 25z" />
    <glyph glyph-name="Upsilontonos" unicode="&#x38e;" horiz-adv-x="590" 
d="M334 0h-79v330l-258 424h92l205 -345l206 345h91l-257 -424v-330zM-181 582l110 153l73 -32l-135 -147z" />
    <glyph glyph-name="epsilontonos" unicode="&#x3ad;" horiz-adv-x="467" 
d="M190 582l110 153l73 -32l-135 -147zM426 46q-58 -43 -131 -54q-39 -6 -82.5 -3t-80 19.5t-60.5 49t-24 86.5q0 37 22 68.5t59 44.5q-38 11 -53 36.5t-15 52.5t14 51.5t39.5 43.5t61.5 30t79 11t85.5 -12.5t81.5 -38.5v-81q-32 28 -67.5 44.5t-70.5 21.5q-9 2 -18 1.5
t-18 -0.5q-16 -1 -35.5 -6t-36 -13.5t-27.5 -21.5t-11 -30q0 -22 12.5 -34.5t31.5 -18.5t40 -7t38 -1h77v-63h-117q-42 0 -68.5 -19t-26.5 -61q0 -36 34 -63.5t100 -27.5q46 0 90 18t76 51q2 2 2 -1v-3v-8q0 -13 -0.5 -25.5t-0.5 -24.5q0 -2 -0.5 -5t0.5 -5l-1 -1z" />
    <glyph glyph-name="etatonos" unicode="&#x3ae;" horiz-adv-x="524" 
d="M164 582l110 153l73 -32l-135 -147zM377 273q0 29 -2.5 55.5t-13 47t-31 32.5t-57.5 12q-40 0 -65 -16.5t-38.5 -42.5t-18 -59t-4.5 -66v-236h-74v473h74v-71q23 40 59 61t84 21q47 0 78 -14t49.5 -39.5t26.5 -62t8 -81.5v-287h-75v273z" />
    <glyph glyph-name="iotatonos" unicode="&#x3af;" horiz-adv-x="248" 
d="M68 582l110 153l73 -32l-135 -147zM86 473h75v-473h-75v473z" />
    <glyph glyph-name="omicrontonos" unicode="&#x3cc;" horiz-adv-x="570" 
d="M233 582l110 153l73 -32l-135 -147zM284 -11q-52 0 -98.5 19t-81.5 52t-55 78.5t-20 97.5q0 53 20 98.5t54.5 78.5t81 52t99.5 19t100 -18.5t82 -51.5t55 -78.5t20 -99.5t-20 -99.5t-55 -78t-82 -51t-100 -18.5zM281 417q-38 0 -70.5 -14.5t-56 -39.5t-36.5 -58t-13 -69
t13.5 -69t37 -57.5t56 -39t69.5 -14.5q39 0 73 14t58.5 38t38.5 57t14 71q0 39 -14 72t-38.5 57t-58 38t-73.5 14z" />
    <glyph glyph-name="Omegatonos" unicode="&#x38f;" horiz-adv-x="862" 
d="M508 97q47 11 90.5 38t76.5 66t53 87.5t20 102.5q0 61 -25 116t-68.5 96.5t-101 66t-122.5 24.5t-123 -24.5t-101 -66t-68 -96.5t-25 -116q0 -72 33 -131t84 -101q26 -21 51.5 -35t57.5 -25v-99h-308v70h214q-47 20 -86 53t-67.5 75.5t-44 92t-15.5 102.5q0 78 32 146
t86.5 119t126.5 80t153 29q80 0 152.5 -29t127 -80t86.5 -119t32 -146q0 -53 -16 -103t-44.5 -92.5t-68 -75.5t-86.5 -52h216v-70h-322v97zM-100 582l110 154l73 -32l-135 -148z" />
    <glyph glyph-name="upsilontonos" unicode="&#x3cd;" horiz-adv-x="509" 
d="M188 582l111 153l73 -32l-135 -147zM406 49q-26 -32 -66 -46t-85 -14t-85 14t-67 46q-24 29 -30.5 64.5t-6.5 75.5v284h75v-264q0 -31 3.5 -59.5t15 -50t34 -34t61.5 -12.5t61.5 12.5t34 34t15 50t3.5 59.5v264h74v-284q0 -40 -6 -75.5t-31 -64.5z" />
    <glyph glyph-name="alpha" unicode="&#x3b1;" horiz-adv-x="584" 
d="M437 75q-28 -43 -75 -64.5t-99 -21.5q-53 0 -96.5 19t-74 51.5t-47 77t-16.5 95.5q0 52 16.5 97.5t47 80t74 54.5t97.5 20q25 0 50 -6t48 -17t42.5 -27.5t32.5 -37.5v76h75v-472h-75v75zM273 417q-41 0 -72.5 -15.5t-52.5 -41.5t-32 -60t-11 -72q0 -37 12 -68.5t34 -54.5
t53 -36t70 -13q38 0 69 14t52.5 38t33.5 56t12 68t-11.5 69.5t-33.5 59t-53 41t-70 15.5z" />
    <glyph glyph-name="beta" unicode="&#x3b2;" horiz-adv-x="557" 
d="M67 24q-2 2 -6 4t-7 4v606q0 42 15 78t42 62.5t64 41.5t80 15q42 0 78.5 -14t64 -39t43 -60t15.5 -77q0 -51 -23.5 -89t-61.5 -62q32 -12 57.5 -34t43 -51t27 -63.5t9.5 -70.5q0 -57 -20 -106.5t-55 -87.5t-82.5 -61.5t-102.5 -28.5q-51 -5 -94.5 2.5t-85.5 30.5h-1v0z
M244 457h-67l1 60l73 -1q27 0 51 10t43 27t30 40t11 49q0 27 -10 50.5t-27.5 40.5t-41.5 26.5t-52 9.5q-29 0 -52.5 -11t-40 -29.5t-25 -43t-8.5 -51.5v-564q45 -22 100 -17q44 4 80.5 22.5t63.5 47.5t42 68t15 84q0 39 -11.5 72.5t-33 58t-52.5 38t-70 13.5h-19z" />
    <glyph glyph-name="psi" unicode="&#x3c8;" horiz-adv-x="654" 
d="M365 -12v-255h-75v255h-6q-51 0 -91.5 15t-68.5 43t-43 66.5t-15 86.5v273h72v-264q0 -30 9.5 -58t28 -49.5t46 -34.5t63.5 -13h3h2v419h75v-419h6q35 1 62 14t45.5 34t28 49t9.5 58v264h72v-271q0 -48 -15.5 -87t-43.5 -67t-68 -43.5t-89 -15.5h-7z" />
    <glyph glyph-name="delta" unicode="&#x3b4;" horiz-adv-x="570" 
d="M285 -13q-51 0 -97 19t-80 52.5t-54 79t-20 98.5q0 45 13.5 85t38.5 72t59 54t74 30q-14 8 -25.5 17.5l-22.5 19.5q-42 36 -50.5 83.5t6.5 95.5q11 34 33.5 62.5t57.5 48.5q48 29 116 27q30 0 56 -4.5t55 -17.5l6 -77q-53 34 -108 35q-27 1 -50.5 -6t-42.5 -19
q-15 -10 -25 -22.5t-17 -26.5q-15 -33 -12 -59.5t19 -48t40.5 -39t51.5 -33t54 -29.5t47 -29q24 -17 45.5 -35.5t38.5 -41.5q45 -60 45 -137q0 -54 -19 -100.5t-52.5 -80.5t-79.5 -53.5t-101 -19.5zM282 419q-37 0 -69 -15t-54.5 -40t-35.5 -58t-13 -70q0 -36 13 -69t36 -58
t54.5 -40t68.5 -15q39 0 72 14t57 38.5t37.5 57.5t13.5 72q0 36 -13.5 69t-37.5 58.5t-57 40.5t-72 15z" />
    <glyph glyph-name="epsilon" unicode="&#x3b5;" horiz-adv-x="467" 
d="M426 46q-58 -43 -131 -54q-39 -6 -82.5 -3t-80 19.5t-60.5 49t-24 86.5q0 36 22 67.5t59 44.5q-38 12 -53 37t-15 53q0 27 14 51.5t39.5 43t61.5 29.5t79 11t85.5 -12t81.5 -38v-82q-65 56 -138 67q-9 1 -18 0.5t-18 -0.5q-16 -1 -35.5 -6t-36 -13.5t-27.5 -21.5t-11 -30
q0 -22 12.5 -34.5t31.5 -18t40 -6.5t38 -1h77v-63h-117q-42 0 -68.5 -19.5t-26.5 -61.5q0 -35 34 -62.5t100 -27.5q46 0 90 18t76 51q2 2 2 -1v-3v-8q0 -13 -0.5 -25.5t-0.5 -24.5q0 -2 -0.5 -5t0.5 -5q0 -1 -1 -1z" />
    <glyph glyph-name="phi" unicode="&#x3c6;" horiz-adv-x="674" 
d="M301 -12q-53 0 -101.5 18t-85.5 51t-59 78.5t-22 100.5q0 48 15.5 89t42.5 72.5t64.5 52t82.5 28.5l12 -66q-64 -14 -102.5 -61t-38.5 -116q0 -39 15.5 -71.5t41.5 -56t60.5 -37t72.5 -15.5h3v425v3h15h28q16 0 29.5 -0.5t14.5 -0.5q51 -1 97 -19.5t80.5 -50.5t55 -77
t20.5 -99q0 -55 -21 -101t-57 -78.5t-84 -50.5t-102 -18h-1v-255h-75v255h-1zM377 416v-361h1q39 0 73 13t59.5 37t40 57t14.5 73q0 39 -14.5 72.5t-39.5 57.5t-59.5 37.5t-73.5 13.5h-1z" />
    <glyph glyph-name="gamma" unicode="&#x3b3;" horiz-adv-x="471" 
d="M272 -267h-74v301l-198 438h80l157 -355l154 355h80l-199 -442v-297z" />
    <glyph glyph-name="eta" unicode="&#x3b7;" horiz-adv-x="524" 
d="M377 273q0 29 -2.5 55t-13 46.5t-31 32.5t-57.5 12q-40 0 -65 -16.5t-38.5 -42.5t-18 -58.5t-4.5 -65.5v-236h-74v472h74v-70q23 40 59 61t84 21q47 0 78 -14t49.5 -39.5t26.5 -62.5t8 -82v-286h-75v273z" />
    <glyph glyph-name="iota" unicode="&#x3b9;" horiz-adv-x="248" 
d="M86 472h75v-472h-75v472z" />
    <glyph glyph-name="xi" unicode="&#x3be;" horiz-adv-x="429" 
d="M300 769q-35 1 -64 -10t-50 -30.5t-33.5 -45.5t-13.5 -56q0 -26 11 -50.5t30.5 -43t45.5 -30t56 -11.5h110v-60h-111q-39 0 -70.5 -13.5t-54 -38t-34.5 -57.5t-12 -72q0 -50 21 -85.5t55.5 -58t77.5 -33t88 -10.5h51v-221h-68v156q-58 0 -111.5 16t-94.5 47.5t-65.5 78.5
t-24.5 110q0 32 8.5 65t25 62t41 52.5t56.5 36.5q-61 29 -82.5 76t-16.5 99q3 37 19 71.5t44 61t68 42.5t90 16q30 0 56 -4.5t55 -17.5l6 -77q-54 33 -109 35z" />
    <glyph glyph-name="kappa" unicode="&#x3ba;" horiz-adv-x="479" 
d="M166 225l-19 -26v-199h-74v472h74v-191l188 191h99l-207 -207l263 -265h-101z" />
    <glyph glyph-name="lambda" unicode="&#x3bb;" horiz-adv-x="499" 
d="M256 393l-184 -393h-82l228 472l-152 348h79l359 -820h-80z" />
    <glyph glyph-name="nu" unicode="&#x3bd;" horiz-adv-x="471" 
d="M238 -38l-19.5 37l-13.5 26t-18 38l-33.5 72l-59 128.5l-95.5 208.5h80l158 -354l155 354h80l-234 -510v0z" />
    <glyph glyph-name="omicron" unicode="&#x3bf;" horiz-adv-x="570" 
d="M284 -11q-52 0 -98.5 19t-81.5 52t-55 78t-20 97q0 53 20 98.5t54.5 79t81 52.5t99.5 19t100 -18.5t82 -51.5t55 -78.5t20 -99.5t-20 -99.5t-55 -78t-82 -51t-100 -18.5zM282 417q-39 0 -71 -14.5t-55.5 -39.5t-36.5 -58t-13 -70q0 -36 13 -68.5t36.5 -57t56 -39
t70.5 -14.5q39 0 72.5 14t58 38t38.5 57t14 70q0 39 -14 72t-38.5 57.5t-58 38.5t-72.5 14z" />
    <glyph glyph-name="omegatonos" unicode="&#x3ce;" horiz-adv-x="720" 
d="M293 582l110 153l73 -32l-135 -147zM496 -2q-42 0 -77.5 18.5t-56.5 60.5q-21 -42 -59 -60.5t-80 -18.5q-55 0 -92 22.5t-59 57t-31.5 76.5t-9.5 81q0 41 12.5 81.5t38 75t64.5 58.5t93 32v-67q-33 -7 -57.5 -24t-41 -41.5t-25 -54t-8.5 -60.5q0 -30 7 -61t21 -55.5
t37 -40.5t54 -16q29 0 49 12.5t32.5 33t18 46.5t5.5 52v169h69v-169q0 -26 3 -52t12.5 -46.5t28 -33t49.5 -12.5q29 0 51.5 16t37.5 40.5t22.5 55.5t7.5 61q0 32 -8 61t-24.5 53t-41.5 41.5t-58 24.5v67q54 -8 93 -32t64.5 -58.5t38 -75t12.5 -81.5q0 -39 -9.5 -81
t-32 -76.5t-59.5 -57t-91 -22.5z" />
    <glyph glyph-name="rho" unicode="&#x3c1;" horiz-adv-x="584" 
d="M126 -267h-75v491q0 59 20 106.5t53 81.5t76 52.5t89 18.5q56 0 101 -20t77 -54t49.5 -79.5t17.5 -97.5q0 -51 -16.5 -95.5t-47 -77.5t-73.5 -52t-96 -19q-52 0 -99 21.5t-76 63.5v-340zM290 417q-43 0 -74.5 -19t-51.5 -47t-29.5 -61t-9.5 -62q0 -37 11.5 -68.5
t33.5 -55t52.5 -36.5t69.5 -13q38 0 68.5 14.5t52 38.5t33.5 56t12 68t-11.5 69.5t-33 59t-53 41t-70.5 15.5z" />
    <glyph glyph-name="sigma" unicode="&#x3c3;" horiz-adv-x="600" 
d="M559 472v-65h-107q40 -29 64.5 -75.5t24.5 -101.5q0 -52 -20 -96.5t-55 -76.5t-82 -50t-100 -18q-52 0 -98.5 18.5t-81.5 51t-55 76t-20 94.5t20 96t54.5 78t81 51.5t98.5 17.5q1 1 5 1l2 -1h269zM281 407q-38 0 -70.5 -14.5t-56 -39t-36.5 -57t-13 -67.5q0 -34 13.5 -66
t37 -56t56 -38.5t69.5 -14.5q39 0 73 13.5t58.5 37t38.5 55.5t14 69q0 38 -14 70.5t-38.5 56.5t-58 37.5t-73.5 13.5z" />
    <glyph glyph-name="tau" unicode="&#x3c4;" horiz-adv-x="320" 
d="M196 0h-75v407h-100v65h278v-65h-103v-407z" />
    <glyph glyph-name="theta" unicode="&#x3b8;" horiz-adv-x="553" 
d="M275 -10q-58 0 -103.5 31t-76.5 85.5t-47 130t-16 164.5q0 90 16 167.5t46.5 134.5t76 89.5t104.5 32.5q65 0 111.5 -31.5t76.5 -87.5t44 -133.5t14 -169.5t-15.5 -168t-46.5 -130.5t-77 -84.5t-107 -30zM273 759q-39 0 -68.5 -25.5t-50.5 -67.5t-32.5 -96.5
t-14.5 -112.5h339q-3 60 -14.5 115t-32.5 96.5t-52 66t-74 24.5zM106 392v-7q0 -62 11 -121.5t32 -106t52.5 -75t71.5 -28.5q45 0 78 27.5t54 73t31.5 105.5t10.5 126l-1 6h-340z" />
    <glyph glyph-name="omega" unicode="&#x3c9;" horiz-adv-x="720" 
d="M496 -2q-42 0 -77.5 18.5t-56.5 60.5q-21 -42 -59 -60.5t-80 -18.5q-55 0 -92 22.5t-59 57t-31.5 76.5t-9.5 81q0 41 12.5 81.5t38 74.5t64.5 58t93 32v-67q-33 -7 -57.5 -24t-41 -41t-25 -53t-8.5 -61q0 -30 7 -61t21 -56t37 -40.5t54 -15.5q29 0 49 12.5t32.5 33t18 46
t5.5 51.5v170h69v-170q0 -26 3 -51.5t12.5 -46t28 -33t49.5 -12.5q29 0 51.5 15.5t37.5 40.5t22.5 56t7.5 61q0 32 -8 61t-24.5 53t-41.5 41t-58 24v67q54 -8 93 -32t64.5 -58t38 -74.5t12.5 -81.5q0 -39 -9.5 -81t-32 -76.5t-59.5 -57t-91 -22.5z" />
    <glyph glyph-name="sigma1" unicode="&#x3c2;" horiz-adv-x="403" 
d="M179 -11q-78 0 -146 41l13 69q29 -22 65 -35t71 -13q19 0 37.5 6.5t32.5 18.5t23 28.5t9 35.5q0 18 -9 30.5t-24 22.5t-33 17t-36 13q-23 8 -46.5 17.5t-42.5 24.5t-31 36t-12 51q0 31 12.5 55.5t33 41.5t47.5 26t55 9q37 0 73 -18.5t56 -48.5l-45 -41q-29 47 -84 47
q-13 0 -26 -5t-23.5 -13t-17 -19.5t-6.5 -25.5q0 -26 21 -40.5t48 -25.5l56 -21.5t53 -28t39.5 -41t15.5 -61.5q0 -36 -15 -64t-40 -48t-57 -30.5t-67 -10.5z" />
    <glyph glyph-name="chi" unicode="&#x3c7;" horiz-adv-x="497" 
d="M248 199l-157 -199h-93l203 251l-180 221h91l136 -169l136 169h93l-181 -221l203 -251h-93z" />
    <glyph glyph-name="upsilon" unicode="&#x3c5;" horiz-adv-x="509" 
d="M406 49q-26 -32 -66 -46t-85 -14t-85 14t-67 46q-24 29 -30.5 64.5t-6.5 75.5v283h75v-263q0 -31 3.5 -59.5t15 -50t34 -34t61.5 -12.5t61.5 12.5t34 34t15 50t3.5 59.5v263h74v-283q0 -40 -6 -75.5t-31 -64.5z" />
    <glyph glyph-name="zeta" unicode="&#x3b6;" horiz-adv-x="380" 
d="M432 798q-74 -72 -137 -150t-106 -155t-62 -150t-6 -135q11 -51 44 -80t72 -43.5t75 -17.5t54 -3h38v-220h-69v154q-42 1 -88 10.5t-86.5 31t-71.5 58.5t-44 92q-13 56 0 125.5t47.5 144.5t89.5 151.5t127 145.5h-242v66h365v-25v0z" />
    <glyph glyph-name="iotadieresis" unicode="&#x3ca;" horiz-adv-x="248" 
d="M225 594q-23 0 -38 15.5t-15 37.5t15 37t38 15q22 0 37 -15t15 -37t-15 -37.5t-37 -15.5zM24 594q-22 0 -37.5 15.5t-15.5 37.5t15.5 37t37.5 15t37 -15t15 -37t-15 -37.5t-37 -15.5zM86 473h75v-473h-75v473z" />
    <glyph glyph-name="upsilondieresis" unicode="&#x3cb;" horiz-adv-x="509" 
d="M352 594q-22 0 -37.5 15.5t-15.5 37.5t15.5 37t37.5 15t37.5 -15t15.5 -37t-15.5 -37.5t-37.5 -15.5zM151 594q-22 0 -37.5 15.5t-15.5 37.5t15.5 37t37.5 15t37.5 -15t15.5 -37t-15.5 -37.5t-37.5 -15.5zM406 49q-26 -32 -66 -46t-85 -14t-85 14t-67 46
q-24 29 -30.5 64.5t-6.5 75.5v284h75v-264q0 -31 3.5 -59.5t15 -50t34 -34t61.5 -12.5t61.5 12.5t34 34t15 50t3.5 59.5v264h74v-284q0 -40 -6 -75.5t-31 -64.5z" />
    <glyph glyph-name="iotadieresistonos" unicode="&#x390;" horiz-adv-x="248" 
d="M254 594q-22 0 -37.5 15.5t-15.5 37.5t15.5 37t37.5 15t37.5 -15t15.5 -37t-15.5 -37.5t-37.5 -15.5zM37 582l110 153l73 -32l-135 -147zM1 594q-23 0 -38 15.5t-15 37.5t15 37t38 15q22 0 37 -15t15 -37t-15 -37.5t-37 -15.5zM86 473h75v-473h-75v473z" />
    <glyph glyph-name="upsilondieresistonos" unicode="&#x3b0;" horiz-adv-x="509" 
d="M380 594q-22 0 -37.5 15.5t-15.5 37.5t15.5 37t37.5 15t37.5 -15t15.5 -37t-15.5 -37.5t-37.5 -15.5zM163 582l110 153l73 -32l-135 -147zM127 594q-22 0 -37.5 15.5t-15.5 37.5t15.5 37t37.5 15t37 -15t15 -37t-15 -37.5t-37 -15.5zM406 49q-26 -32 -66 -46t-85 -14
t-85 14t-67 46q-24 29 -30.5 64.5t-6.5 75.5v284h75v-264q0 -31 3.5 -59.5t15 -50t34 -34t61.5 -12.5t61.5 12.5t34 34t15 50t3.5 59.5v264h74v-284q0 -40 -6 -75.5t-31 -64.5z" />
    <glyph glyph-name="FL0023" unicode="&#xe000;" horiz-adv-x="380" 
d="M200 708h-75l12 48h117v-448h-54v400z" />
    <glyph glyph-name="FL0025" unicode="&#xe001;" horiz-adv-x="380" 
d="M187 299q-67 0 -111 40q-17 17 -28.5 39.5t-10.5 48.5h34q2 -15 11 -27.5t23 -21t31.5 -13t35.5 -4.5q20 -6 40 -3.5t37 13t27.5 27.5t10.5 39q0 34 -22 56t-54 27q-10 2 -15 2h-15v45q3 0 6 -0.5t6 -0.5q6 0 8 2q34 2 55 24t21 55t-24.5 53t-60.5 20q-78 0 -83 -73h-53
q5 57 41.5 89t97.5 32q28 0 52.5 -9t43 -24.5t29 -37.5t10.5 -48q0 -33 -18 -60.5t-50 -42.5q37 -12 58 -43.5t21 -66.5q0 -30 -12 -55t-33 -43.5t-49 -28.5t-60 -10z" />
    <glyph glyph-name="FL0026" unicode="&#xe002;" horiz-adv-x="380" 
d="M141 356h208v-48h-324l188 189q14 14 28 29.5t26 32.5t19.5 35.5t7.5 37.5q0 38 -29 62.5t-71 24.5q-38 0 -63.5 -17.5t-33.5 -47.5q-3 -13 -3 -29h-57q1 27 8 49.5t25 42.5q22 24 55 37.5t68 13.5q32 0 60.5 -10.5t50 -28.5t34 -43.5t12.5 -55.5q0 -23 -7.5 -43.5
t-20 -39.5t-28 -36l-31.5 -33z" />
    <glyph glyph-name="Euro" unicode="&#x20ac;" horiz-adv-x="723" 
d="M696 585h-1q-2 -2 -3 -1q-22 26 -51 45.5t-61.5 33t-67 20t-68.5 4.5q-52 -2 -99 -21t-84.5 -50.5t-64.5 -74t-38 -90.5h444l-22 -53h-433q0 -7 -0.5 -13t-0.5 -12q0 -13 1 -24.5t3 -21.5h452l-22 -53h-416q15 -39 42 -70t61 -57q45 -34 99.5 -57.5t111.5 -21.5
q29 1 59.5 9t60 21.5t55.5 32.5t45 42v-103q-54 -38 -112.5 -60t-124.5 -22q-79 0 -150.5 29.5t-126.5 83.5q-77 74 -105 173h-98l23 53h64q-3 24 -3 49v10q0 8 1 12h-85l23 53h69q13 68 48.5 125.5t87.5 99.5t117 66t135 24q64 0 125 -22t112 -64v-94h-2v-1z" />
    </font>
</defs>
</svg>
