<svg id="Layer_1" data-name="Layer 1" xmlns="http://www.w3.org/2000/svg" viewBox="0 0 756 672"><defs><style>.cls-1{fill:#bde2e4;opacity:0.7;isolation:isolate;}</style></defs><title>bg-map-lines</title><path id="bg-map-lines" class="cls-1" d="M755.75,364V362.7c-8.19,4.25-16.5,8.51-18.51,9.63-13.35,7.39-23.42,14.1-31.1,21.38-7,6.72-15.62,11.3-28.21,15.78-1.89.67-3.77,1.35-6,2.13l-6,2c-12.34,4.26-18.63,7.06-23.92,11.31s-12.09,7.39-21.15,9.85c-2.52.67-5,1.34-8.19,2l-7.68,1.68c-6.67,1.56-10.45,2.68-13.22,4.25-3.9,2.13-8.31,3.69-16,5.6-2,.56-4,1-6.05,1.57-2.51.67-4.53,1.12-6.54,1.68-4.79,1.23-9.45,2.8-14.1,4.47-3.4,1.23-6.93,4.37-11.08,9.4-2.77,3.36-5.29,6.83-7.69,10.3-7.3,10.19-9.57,13.1-12.84,16.24a56.85,56.85,0,0,1-5.79,4.7c-2.9,2.12-13.1,8.4-14.86,9.73a17.39,17.39,0,0,0-4.66,4.59c-1.51,2.58-2.39,5.15-3.52,10-2.77,11.86-4.41,16.57-10.33,24.74-5.16,7-8.56,11.08-12.34,14.55L464,562l-4.78,4c-2.14,1.79-4,3.47-6.17,5.48a46.28,46.28,0,0,0-12.47,18.92c-3.15,9.07-3.4,17.35-2.26,30.45A78.35,78.35,0,0,1,439,630c0,11.76.12,19.59.75,28.88.25,4.48.76,8.74,1.26,12.54h1.13c-1.38-10.75-1.89-24.4-1.89-41.42a76,76,0,0,0-.63-9.29c-1.13-13-.88-21.16,2.14-30a45.66,45.66,0,0,1,12.09-18.47c2.14-2,4-3.7,6-5.49.76-.67,3.9-3.35,4.79-4l1.89-1.68c3.9-3.58,7.43-7.61,12.59-14.66,6-8.28,7.68-13.1,10.45-25.08,1.13-4.7,1.89-7.16,3.4-9.62a19.09,19.09,0,0,1,4.28-4.37c1.77-1.23,11.84-7.61,14.86-9.74a59.21,59.21,0,0,0,5.92-4.81c3.4-3.25,5.79-6.16,13.1-16.46,2.39-3.47,5-6.94,7.68-10.19,4-4.81,7.43-7.83,10.58-9.06a139.28,139.28,0,0,1,14-4.48c3.15-.9,6.43-1.68,9.57-2.46l3-.79c7.8-2,12.34-3.58,16.36-5.71,2.65-1.45,6.43-2.57,13-4l7.68-1.68c3.15-.67,5.67-1.34,8.19-2,9.07-2.58,16.12-5.71,21.53-10.08,5.16-4.14,11.33-6.94,23.55-11.08l6-2c2.39-.79,4.28-1.46,6.05-2.13C691,406,699.85,401.32,707,394.49c7.56-7.28,17.63-13.88,30.85-21.16,2-1,10-5.15,17.88-9.29V291.73c-5,9.06-10.7,16.68-16,20-3.15,2-6.8,4.48-11.33,7.73-2.64,1.9-5.29,3.69-7.81,5.6L719,326.21c-2,1.45-4,2.91-6.17,4.36-9.45,6.72-16.25,11.2-22.16,14.78-3.9,2.35-4.92,3.13-10.2,7.95-7.3,6.83-14.74,9.63-36.65,12.31C629.58,367.29,618.63,371.1,605,378c-2,1-9.19,4.81-8.81,4.59-3.4,1.79-5.92,3-8.31,4.14-7,3.13-13.22,4.7-19.77,4.7-21.53,0-52.13,12.87-65,25.52-15.11,15-39.54,31-56.92,34.93-9.32,2.13-15,7.84-17.63,16.46-1.63,4.92-2,9.29-2,15.44a36,36,0,0,0,.25,4c.63,5.83.5,9.74-1,14.89-1.89,6.94-6.17,14.11-13.34,21.72C395,543,383.67,576.63,383.67,604.72c0,2.69,0,4.82.13,9.85.12,12.1.12,17.69-.25,24.63-.76,12.54-2.65,23.17-6.3,32.8H376c3.65-9.62,5.66-20.26,6.3-32.8.37-6.83.37-12.42.25-24.51,0-5-.13-7.17-.13-9.85,0-28.33,11.46-62.13,29.09-80.94,7.05-7.5,11.21-14.55,13.1-21.27,1.38-4.92,1.51-8.84.88-14.44a38.17,38.17,0,0,1-.25-4.14c0-6.27.38-10.75,2-15.79,2.9-8.95,8.82-15,18.64-17.23,17.12-3.81,41.3-19.7,56.41-34.48,13.1-12.88,44.07-26,66-26,6.42,0,12.34-1.46,19.26-4.59,2.4-1.12,4.92-2.24,8.31-4-.37.22,6.68-3.59,8.82-4.59,13.6-6.95,24.8-10.86,39.16-12.54,21.66-2.58,28.83-5.38,36-11.87,5.29-4.92,6.3-5.82,10.33-8.17,5.91-3.47,12.59-8,22-14.67,2-1.45,4-2.91,6.17-4.36l1.64-1.12c2.64-1.9,5.29-3.69,7.8-5.6,4.66-3.25,8.19-5.71,11.46-7.84,5.54-3.58,11.59-11.86,16.75-21.71L755.76,364Zm0-130.08c-.76,0-1.64.11-2.52.11-7.68.68-17.38,3.81-27.45,8.29-4.53,2-10.7,3-17.88,3a133.34,133.34,0,0,1-18.51-1.45c-2.14-.34-4.16-.68-5.92-1-1.51-.34-3-.45-4.41-.67-6.92-.56-14-.9-21-1-13.1-.22-21.66.78-22.67,3-.5,1.12.76,2.91,3.78,5.49,1.26,1.12,2.77,2.24,5,4,2,1.45,4,3,6,4.47a17,17,0,0,0,6.92,2.8,30.79,30.79,0,0,0,3.28.56c4.41.79,6.3,1.35,7.81,2.92,1.76,2,1.76,5-.26,10-3,7.61-7.17,11.31-12.84,11.53-4.53.22-9.57-1.46-18.26-5.71-5.66-2.8-8.56-8.17-10.45-17.13-.25-1-.38-2-.63-3.24l-.5-3.14c-1.26-7.39-2.39-10.3-4.66-11.3a29.84,29.84,0,0,0-3-1.12c-2.9-.9-5.79-1.12-10.2-1-2.9.11-18.51,1.12-17.38,1-25.81,1.56-36.26,5.71-46.71,16.79-1.89,2-3.65,4-5.29,6l-2.9,3.47-3.15,3.7c-5.16,6-8.94,9.51-13.1,12.42-.75.56-1.63,1.12-2.64,1.8l-5.16,3.24c-2.27,1.46-4.41,2.91-6.55,4.48a228.08,228.08,0,0,0-20.4,17.24c-10.33,9.63-14.86,15.11-14.73,17.91.12,1.79,2,2.35,8.56,2.69,2,.11,2.64.11,3.78.22,3.77.23,6.42.79,8.56,1.9,9.44,4.59,14.6,8.17,17.63,13,4.15,6.83,1,14.44-11.21,22.72-10.45,7.05-14,11.64-14.23,16.79a19.86,19.86,0,0,0,.38,4.93c.88,7.28.25,11.87-3.53,19.48a39.88,39.88,0,0,1-5.29,8.4c-3.52,4.48-6.92,6.38-13.34,8.62-.5.22-4.16,1.34-5.42,1.79-2.26.78-4.28,1.57-6.3,2.35a94.63,94.63,0,0,0-16.49,9.18c-10.58,7.27-16.62,16.34-20.15,28.1-1.38,4.7-1.89,7.61-3.53,17-1.63,9.63-2.77,14.1-5.16,18.48-2.64,4.81-15,29.77-16.37,32.35-2.52,5-5.29,10.07-8.06,15-5.16,9.06-9.57,15.78-13.47,19.92-6.8,7.28-11.33,16.12-17.38,31.8-.75,2.12-1.63,4.14-2.39,6.26-2.26,5.94-3.77,9.63-5.41,13.21-7.67,17.12-32,29.44-58.54,29.44-14.1,0-25.94-3-39-9.52-7.05-3.46-5.79-2.68-28.08-16.23-18-11-22.29-12-25.81-7.72a32.77,32.77,0,0,0-2.27,3.13,64.18,64.18,0,0,1-6.17,6.6c-.88.9-6.93,6.6-8.81,8.4-3,2.91-5.42,5.38-7.56,7.73a57.52,57.52,0,0,0-6.42,8.61c-1.64,2.91-2.39,5.82-3.4,11.87-.25,1.23-.38,2.35-.63,3.58h-1.26l.63-3.7c1-6.15,1.76-9.17,3.53-12.2a51.52,51.52,0,0,1,6.54-8.73c2.15-2.35,4.54-4.92,7.56-7.83,1.89-1.79,7.81-7.5,8.81-8.4a43.82,43.82,0,0,0,6-6.5s1.89-2.57,2.39-3.13c4-5,8.94-3.81,27.45,7.5,22.29,13.54,20.9,12.76,28,16.23,13,6.38,24.56,9.4,38.4,9.4,25.94,0,49.87-12.09,57.29-28.77,1.89-4.36,3.66-8.73,5.29-13.21.76-2.12,1.64-4.14,2.39-6.27,6.05-15.9,10.7-24.74,17.63-32.12,3.78-4.15,8.31-10.75,13.35-19.7,2.52-4.37,5-9.3,8.06-15,1.26-2.58,13.72-27.54,16.37-32.36,2.39-4.25,3.52-8.73,5-18.13s2.14-12.43,3.53-17.13c3.53-12,9.7-21.16,20.52-28.66a91.8,91.8,0,0,1,16.75-9.4c2.14-.9,4.16-1.68,6.42-2.46,1.14-.45,4.91-1.57,5.42-1.79,6.3-2.13,9.31-3.92,12.71-8.17a44.41,44.41,0,0,0,5.17-8.29c3.77-7.38,4.28-11.86,3.4-18.92a34,34,0,0,1-.38-5.14c.25-5.49,4-10.3,14.73-17.58,11.71-7.95,14.73-14.89,10.83-21.27-2.77-4.59-7.81-7.95-17-12.54-2-1-4.53-1.45-8.06-1.79-1-.11-1.64-.11-3.78-.22-7.3-.34-9.57-1-9.7-3.7-.12-3.13,4.41-8.84,15.11-18.69a253.34,253.34,0,0,1,20.53-17.35c2.26-1.68,4.28-3,6.55-4.48l5.16-3.25c1-.67,1.89-1.23,2.64-1.79,4.16-2.91,7.81-6.27,12.85-12.2,1-1.23,2.14-2.46,3.15-3.69l2.9-3.47c2.26-2.69,3.77-4.48,5.41-6.16,10.7-11.42,21.41-15.67,47-17.12-.5,0,15.11-1,18-1.12a33.27,33.27,0,0,1,10.7,1.12c1,.33,2,.67,3.15,1.11,2.9,1.24,4,4.37,5.41,12.2l.5,3.14c.26,1.23.38,2.24.63,3.13,1.77,8.62,4.54,13.77,9.83,16.35,8.56,4.14,13.34,5.71,17.62,5.48,5-.22,8.82-3.58,11.71-10.86,1.89-4.48,1.89-7.27.38-8.84-1.13-1.23-2.9-1.79-7.05-2.58a34,34,0,0,1-3.4-.67,18,18,0,0,1-7.43-3c-2-1.57-4-3-6-4.48-1.77-1.34-3.53-2.69-5.17-4-3.4-2.91-4.91-4.92-4.15-6.6,1.26-2.91,9.82-3.92,23.8-3.8,7.05.11,14.1.44,21,1,3.52.45,4,.56,4.66.68,1.76.33,3.77.67,5.79,1A112.12,112.12,0,0,0,707.51,244c7,0,12.85-1,17.25-2.91,10.2-4.59,20-7.73,28-8.51a19.09,19.09,0,0,1,2.51-.11l.5,1.45Zm0-113.06v1.68c-10.83,18-21.79,33.13-29.84,40.19-4,3.58-9.57,5.48-17,6.27-5.67.56-10.45.44-24.18-.23-12.47-.67-19.27-.45-25.81.9A105.49,105.49,0,0,1,640,172.06l-2.77.11c-15.74.9-24.43,2-41.18,6.39-5.66,1.45-11.71,2.8-18,3.91A360.22,360.22,0,0,1,537,187c-9.57.45-16.62.67-25.44.67a50.21,50.21,0,0,0-22.66,5.82c-10.45,5.49-19,14.45-24.55,27.43a71.83,71.83,0,0,1-5.8,11c-4.53,6.94-8.68,10.08-16.87,13.66l-5,2.24a86.26,86.26,0,0,0-19.14,11.42c-10.32,8.17-17.25,18.58-28.33,39.85l-2.64,5c-9.19,17.58-14.48,26.09-21.91,33.48-9.7,9.73-25.43,16.12-50.74,22.5-5.54,1.34-23.93,5.7-24.18,5.7a196.47,196.47,0,0,0-19.64,5.49c-13.35,4.7-23.55,11.75-45.84,29.66l-2.14,1.68c-10.83,8.74-16.87,13.32-23.67,17.8-4.91,3.25-10.07,6.38-16.37,10-2.64,1.45-13,7.38-15.49,8.84-14.48,8.4-23.29,14.55-31,22.5a63.18,63.18,0,0,0-8.06,10c-5.16,7.73-7.93,14.67-11.58,28.1l-1.89,7.06c-.76,2.8-1.51,5-2.14,7.38-3.78,12-8.69,19.48-18.64,30.12l-5.16,5.6c-1.77,1.9-3.53,3.91-5.29,5.93a23.06,23.06,0,0,0-4.28,7.05c-1.51,3.58-1.89,6.6-2.39,13.32-.76,11.2-1.77,16.79-5.8,25.41-2,4.15-7.17,15.68-8,17.69a76.39,76.39,0,0,1-4.54,8.28c-3.65,5.71-8.43,11.31-16.5,19-7.55,7.16-11.2,12.2-13.34,17.91-.63,1.79-1.26,3.58-1.77,5.37l-.63,2H24.3l.63-2.35a46,46,0,0,1,1.76-5.48C29,658.24,32.74,653,40.29,645.7c8.06-7.61,12.72-13.1,16.37-18.81a74.76,74.76,0,0,0,4.41-8.17c1-2,6-13.54,8.06-17.69,4-8.4,5-13.88,5.79-25,.38-6.83.88-10,2.39-13.66a28.23,28.23,0,0,1,4.53-7.27c1.64-1.9,3.28-3.81,5.29-5.94l5.17-5.6c9.82-10.63,14.73-17.91,18.38-29.66.76-2.24,1.39-4.59,2.14-7.39l1.89-7.05c3.78-13.43,6.42-20.6,11.71-28.44A74.67,74.67,0,0,1,134.6,461c7.81-7.95,16.63-14.22,31.23-22.73,2.65-1.45,13-7.38,15.49-8.84,6.3-3.58,11.33-6.72,16.24-10,6.8-4.48,12.85-9.07,23.55-17.69l2.14-1.68c22.41-18,32.74-25.07,46.21-29.89a201.13,201.13,0,0,1,19.9-5.6c.25-.11,18.76-4.36,24.17-5.71,25.06-6.27,40.67-12.65,50.12-22.16,7.3-7.28,12.46-15.67,21.65-33.14l2.65-5c11.21-21.38,18.13-31.9,28.71-40.19a81.61,81.61,0,0,1,19.39-11.64l5-2.24c7.93-3.47,12-6.5,16.36-13.21a83,83,0,0,0,5.67-10.86c5.79-13.21,14.48-22.39,25.18-28a50.91,50.91,0,0,1,23.3-5.93c8.81,0,15.87-.11,25.44-.67A336.81,336.81,0,0,0,578,181.35c6.3-1.12,12.34-2.35,17.88-3.81,16.87-4.47,25.69-5.6,41.42-6.49l2.77-.11a116.87,116.87,0,0,0,18.64-2.35c6.67-1.34,13.6-1.57,28.46-.79,11.33.56,16.11.68,21.66.12,7.17-.68,12.46-2.58,16.36-5.94,8.06-7.16,19.27-22.72,30.6-41.08Zm0,504.08c-1.64-5.14-2.77-11.75-4.16-22.61l-.25-2.24-.25-2.24c-2.27-17.57-3.9-24.62-6.93-27.42s-3.77-5.6-3.14-9.63c.12-.67.25-1.23.5-2.35.88-3.92,1-5.6.12-7.61-1.13-2.69-4.15-4.93-9.82-7.06-6.42-2.35-8.18-5.37-6.17-9.4a26.25,26.25,0,0,1,4.41-5.6c1.26-1.34,6.92-6.71,6.42-6.15,7.81-7.5,11.33-12.65,11.33-18.47A16.57,16.57,0,0,1,756,489.76v1.45a15.36,15.36,0,0,0-6.93,13c0,6.15-3.65,11.53-11.58,19.25.5-.45-5,4.81-6.42,6.16a21.23,21.23,0,0,0-4.29,5.37c-1.76,3.36-.25,5.82,5.54,7.95s9.2,4.7,10.46,7.61c1,2.24.88,4.14,0,8.28-.26,1.12-.38,1.68-.5,2.36-.63,3.69,0,6.26,2.77,8.73,3.4,3,5,10.07,7.3,28.1l.25,2.24.25,2.24c1,7.83,1.89,13.54,2.9,17.91V625Zm0-69.62c-1.77-3.47-5.54-11.09-6.3-12.54-1.26-2.8-1.51-4.26-1.14-5.82.26-.9,2.52-5.26,2.91-5.94a65.48,65.48,0,0,0,4.4-12.54V523a70.11,70.11,0,0,1-3.27,8.51c-.38.9-2.65,5-2.9,5.82-.38,1.23-.13,2.46,1.13,5.15.5,1.12,3.15,6.38,5,10.19v2.68Zm0-95.27a25.93,25.93,0,0,1-8.06,4.59c-.25.11-17.63,6.16-25.69,9.4-11.71,4.81-21,6.6-29,5.82-6.42-.56-11.33-2.46-18.64-6.6l-4-2.35q-3.4-2-6.8-3.69c-5-2.47-4-6.5,1.88-11.76,4.66-4.14,12.09-8.84,23.55-15.45l5.67-3.13c22.66-12.65,22.91-12.87,28.08-16.46,14.1-10.07,24.8-15.67,33.11-16.9v1.12c-8.06,1.23-18.38,6.72-32.36,16.68-5.16,3.7-5.41,3.81-28.2,16.57-1.89,1-3.78,2.13-5.67,3.14-11.46,6.49-18.76,11.19-23.42,15.33-5.41,4.82-6.3,8-2.14,10,2.14,1,4.16,2.13,6.92,3.7l4,2.35c7.06,4,12,5.82,18,6.49,7.68.68,16.75-1,28.33-5.71,8.19-3.35,25.44-9.4,25.69-9.4,3.78-1.56,6.42-3,8.56-5.26l.13,1.57Zm0-46.34v1.11c-8.31.34-15.24,3.47-24.81,10.19l-5.79,4.14a54,54,0,0,1-5.54,3.47c-1,.56-6.92,3.7-7.81,4.26-4.15,2.24-7.8,4.25-11.2,6.27s-6.93,4.25-10.33,6.6c-5.79,4.14-9.32,7.72-10.07,10.52-.76,3,1.89,5,8.81,6.16a70.14,70.14,0,0,0,38.4-5.15A79.71,79.71,0,0,0,749,447.66a49.14,49.14,0,0,0,6.8-8.28v2.12a45.89,45.89,0,0,1-5.8,6.95A77.75,77.75,0,0,1,728,462.33a71.18,71.18,0,0,1-39,5.26c-7.68-1.12-11-3.7-9.82-7.5.75-3,4.41-6.72,10.45-11.08,2.9-2.13,6.42-4.37,10.33-6.72,3.4-2,7-4,11.2-6.27.88-.45,6.8-3.58,7.81-4.25,1.64-.9,3.27-2,5.41-3.47,1-.68,4.91-3.47,5.8-4.15,9.7-6.83,17-10.07,25.56-10.41Zm0-173.07v1.12c-2.27-.22-5.42.22-9.82,1.79-12.59,4.25-17.38,5.71-24.18,7.61-2.27.67-3.27.9-4.91,1.35a46.23,46.23,0,0,1-8.44,1.34c-1.13.11-2.26.22-3.27.34-9.82,1-14.23,2.79-14.23,6.82,0,4.93,3.65,14.78,10.07,28.89a51.94,51.94,0,0,1,2.9,8.5c.38,1.35.76,2.58,1,3.92,2.39,8.51,4,12,7,13.1,2.77,1,5.92.67,9.45-.78,4.4-1.9,9.06-5.49,14.1-10.64,1.88-1.9,3.77-3.92,5.79-6.27l4-4.59c3.27-3.58,7.68-13.65,10.57-22.61v3.81c-2.9,8.06-6.67,16.23-9.57,19.47-.5.56-3.4,3.92-4,4.59-2,2.36-3.91,4.37-5.8,6.27-5.16,5.15-9.94,8.85-14.48,10.86-3.77,1.57-7.3,2-10.45.79-3.52-1.23-5.29-4.82-7.8-13.88-.38-1.35-.76-2.58-1-3.92a60.39,60.39,0,0,0-2.9-8.4c-6.42-14.33-10.07-24.18-10.07-29.33,0-4.93,4.78-6.83,15.36-7.95l3.4-.34c4.4-.44,6.55-.67,8.18-1.23s2.65-.78,4.91-1.45c6.68-1.9,11.46-3.36,24-7.5,4.16-1.34,7.56-1.9,10.08-1.68ZM.25,327C13,314.34,23,301,29.34,287.36c4.15-9.07,7.68-18,13.6-34.25l2-5.38c8.19-22.27,12.72-33.36,18.64-44.33,7.68-14.21,15.74-23.73,25.56-28.54,8.44-4.26,12.84-8.85,15.36-14.67a46.5,46.5,0,0,0,2.39-7.39c1.51-5.82,2.64-8.51,4.91-11.64,3-4,7.93-7.28,15.24-10.08,19.89-7.38,21-7.83,22.66-10.07.88-1.12,1-2.46.88-5,0-.78-.25-4.25-.25-4.48-.13-2-.25-4.14-.25-6.15,0-11.2.25-12.77,3-14.78a15.13,15.13,0,0,1,2.64-1.46,34.5,34.5,0,0,0,3.53-1.67,88.64,88.64,0,0,0,11.46-6.6c2.64-1.68,3.27-2.36,10.07-8.85,4.79-4.59,7.81-7.16,11.33-9.07,4.54-2.57,9.07-3.47,13.73-2.35,5.54,1.35,13.6,2.24,23.67,2.8,8.69.45,16.24.56,27.7.56a120,120,0,0,1,19.39,1.79c9.82,1.46,11.71,1.68,15.62,1.68A26.23,26.23,0,0,0,305.72,64c6.42-3.58,10.2-5.26,14.1-5.82,4.53-.67,6-.56,20.78,2.36,21.78,4.14,38.9,1.56,51.75-10.86,6.42-6.16,6.92-10,4.4-16.57a25.43,25.43,0,0,1-1.51-4.82c-.38-2.8.63-5.26,3.4-7.72,3.28-2.91,5.92-10.3,7.81-20.49H409c-2,10.86-4.79,18.59-8.56,22.06-2.27,2-3,3.8-2.65,5.93a16.14,16.14,0,0,0,1.39,4.37c2.77,7.27,2.26,12-4.91,18.8-13.6,13.1-31.6,15.79-54.15,11.53-14.34-2.69-15.73-2.91-19.89-2.35-3.53.56-7.05,2-13.22,5.48a29.26,29.26,0,0,1-14.86,3.7c-4,0-6-.22-16-1.79a112.89,112.89,0,0,0-18.89-1.68c-11.46,0-19-.11-27.82-.56-10.2-.56-18.39-1.46-24.18-2.8-7.05-1.68-12.84,1.57-22.54,10.86-6.92,6.6-7.68,7.27-10.45,9.18a80.29,80.29,0,0,1-11.84,6.71c-.88.45-3.27,1.46-3.52,1.68-1,.45-1.64.9-2.27,1.23-1.89,1.35-2,2.69-2,13,0,2,.12,3.92.25,6,0,.22.25,3.69.25,4.47.13,3.14-.13,4.82-1.38,6.38-2.15,2.8-2.9,3.14-23.93,10.86-6.92,2.58-11.33,5.6-14.1,9.18-2.14,2.8-3.15,5.26-4.53,10.86a49.39,49.39,0,0,1-2.39,7.61c-2.77,6.38-7.68,11.42-16.5,15.9-9.19,4.7-17,13.88-24.56,27.65-5.78,10.75-10.32,21.83-18.5,44l-2,5.38c-6,16.23-9.44,25.18-13.73,34.36C24.93,302.81,14.1,316.91.25,330.34V327Zm0,87.31v-.56H1.51c7.93,0,9.45,5.83,5.79,15a63.75,63.75,0,0,1-7,12.66v-2.13a71.77,71.77,0,0,0,5.92-10.86C9.57,419.9,8.31,415,1.51,415H.25V362.81c5.79-3,11.59-6.16,17.25-9.29C34.75,342.88,55,311.43,55,293.52c0-20.26,27.2-81.27,40.55-88.88,16-9.07,40.54-31.35,45.08-42.32,2.39-5.93,6.92-8.17,18.13-10.52,7.81-1.57,10.83-2.69,13.47-5.38,1.89-1.9,3.4-5.37,5.42-11.53.25-.9,2.39-7.5,3-9.51,4.53-13.55,9.19-20.71,17-22.84,3.15-.9,3.78-1.12,12.21-4.14,9.45-3.36,15.11-4.93,21.54-5.48a42.43,42.43,0,0,1,24.68,5.26c6.79,3.69,15.36,5.26,25.43,5.15,7.55-.12,15.36-1.24,24.93-3.14,2.27-.45,9.32-1.9,10.45-2.13a40.48,40.48,0,0,1,6.93-1c6.3,0,11.2-.11,17.88-.34,9.94-.33,19.64-1,28.71-2.13A153.22,153.22,0,0,0,398,89.22c23.8-7.39,41.05-20.48,42.44-30.9.37-2.91.5-3.36,3.52-12.42s4-14.45,3.4-20.38a23.13,23.13,0,0,0-1.89-7.16C443.6,14,442.22,7.84,441.21.22h1.13c1,7.28,2.4,13.1,4.41,17.69a25.6,25.6,0,0,1,1.89,7.5c.63,6.16-.5,11.76-3.53,20.82s-3.14,9.52-3.4,12.32c-1.38,11-19,24.29-43.19,31.79a166.75,166.75,0,0,1-27.82,5.48C361.63,96.94,351.94,97.61,342,98c-6.67.22-11.71.34-17.88.34a41.62,41.62,0,0,0-6.67,1c-1.14.23-8.06,1.68-10.45,2.13-9.7,1.9-17.5,3-25.19,3.14-10.2.22-19-1.46-26.06-5.27a40.41,40.41,0,0,0-23.8-5c-6.3.56-11.84,2.12-21.16,5.48-8.56,3-9.19,3.25-12.34,4.14-7.17,2-11.71,9-16.11,22.06-.63,2-2.77,8.62-3,9.51-2.14,6.38-3.65,9.85-5.66,12-2.77,2.91-6,4-15.11,5.93-9.82,2-14,4.15-16.24,9.52-4.66,11.19-29.34,33.7-45.59,42.76-13.47,7.17-40.42,67.84-40.42,87.77,0,18.24-20.52,50.15-38,60.9C15.61,356,7.93,360,.25,364.05V414.3Zm0-194.44v-1.23c9.32-4.26,18.39-11.42,27.45-21.27,4.79-5.15,17.88-21.05,19.9-23.06a56.9,56.9,0,0,1,9.32-7.17c1.38-.9,6.17-4,6.92-4.47,11.84-7.73,17.63-13.44,20.15-21.72,1-3.36,1.89-7.61,3.15-13.77.25-1.57,2.51-14,3.27-17.69C93.94,90.79,97.59,79.59,103,73.66c13.6-14.78,25.06-30.78,25.06-36.61,0-2.8.38-3.69,7.68-17.57.88-1.68,1.51-3,2.27-4.37,3.14-6.49,4.91-11.19,5.16-15h1.26C144.18,4,142.29,9,139.14,15.56c-.63,1.34-1.39,2.69-2.27,4.37-6.92,13.43-7.43,14.55-7.43,17.12,0,6.16-11.45,22.17-25.3,37.28-5.29,5.71-8.82,16.9-12.47,35.38-.76,3.69-2.9,16-3.27,17.68a126.63,126.63,0,0,1-3.15,13.88c-2.65,8.62-8.56,14.44-20.53,22.28L57.8,168a55.71,55.71,0,0,0-9.2,7.05c-1.89,1.9-15,17.8-19.89,22.95C19.27,208.22,10,215.6.25,219.86Zm0,405v-4.81a61.89,61.89,0,0,0,2,6.94c2.51,6.72,5.79,9.29,10.32,7.39,23.92-10,42.43-27,42.43-44.22,0-18.14,8.06-35.82,21.54-51.83a49.4,49.4,0,0,1,6.92-6.72,30,30,0,0,1,2.9-2L88.9,528c4.66-3,6.67-5.93,8.94-14.1,1-3.47,1.76-5.6,5.29-14.89l.75-2.13c4-10.74,5.79-16.79,5.29-20.82-.63-4.92-4.78-5.82-14.23-1.79a99.1,99.1,0,0,1-11.58,4.14c-17.5,5.26-34,6.5-53.77,6.05H25.18a54.59,54.59,0,0,0-19,3.35A24.45,24.45,0,0,0,0,491.1v-1.45a29.94,29.94,0,0,1,5.79-2.92,57.33,57.33,0,0,1,21.28-3.35h2.52c19.64.44,36-.9,53.26-6.05a119.35,119.35,0,0,0,11.33-4c10.08-4.25,15.37-3.25,16,2.69.5,4.36-1.13,10.41-5.28,21.38l-.76,2.13c-3.52,9.18-4.28,11.3-5.29,14.77-2.26,8.4-4.53,11.53-9.44,14.78l-2.52,1.57a23.53,23.53,0,0,0-2.77,2,44.43,44.43,0,0,0-6.8,6.49c-13.1,15.68-21,33-21,50.94S37.4,625.32,13.1,635.4c-5.42,2.24-9.32-.79-12.09-8.06-.25-.79-.5-1.57-.76-2.47Zm0-69.52v-2.8l1.89,3.7a61.09,61.09,0,0,1,5.42,18.81c.88,5.93,1,10.41,1.25,20.71s.63,14.32,2,16.79c1.64,2.91,4.66,2.57,10.45-1.68,21.53-16,27.45-25.64,27.45-43.21,0-8.06,1.39-13.88,4.66-19.82,2.9-5.26,4.66-7.38,16.87-21.94a82.45,82.45,0,0,1,9.57-9.85c1.39-1.23,2.9-2.35,4.41-3.47.5-.33.75-.56,1.13-.78a10.7,10.7,0,0,0,3.28-3.7,44.63,44.63,0,0,0,2.9-6.6l.5-1.34.5-1.23c.37-1,.63-1.68.88-2.46.5-1.68.88-3,1.13-4.14.5-2.47.13-3.92-1-4.59-2.9-1.8-11.71-.23-30,5.48-12,3.81-20.28,4.7-35.14,4.81-9.7.12-13.1.45-16.62,2.36-4.4,2.35-7.3,7.16-9.57,16-.63,2.47-1.26,4.7-1.89,6.72v-4.48L1,516.18c2.27-9.07,5.42-14.1,10.08-16.68,3.77-2.13,7.43-2.46,17.37-2.58,14.61-.11,22.79-.9,34.63-4.7,18.76-5.93,27.7-7.5,31.1-5.37,1.76,1,2.14,2.91,1.64,5.71-.25,1.45-.76,2.8-1.14,4.25l-.88,2.47-.5,1.23-.5,1.34a46,46,0,0,1-2.9,6.83,12.92,12.92,0,0,1-3.65,4l-1.13.9-1.26.9A32.5,32.5,0,0,0,80.71,517a92.37,92.37,0,0,0-9.44,9.74c-12.22,14.44-14,16.68-16.75,21.83C51.37,554.25,50,560,50,567.8c0,17.91-6.05,27.87-28,44.1-6.3,4.7-10.32,5-12.34,1.34-1.51-2.8-1.89-6.6-2.14-17.35-.25-10.3-.5-14.77-1.26-20.6A60,60,0,0,0,1,556.81l-.76-1.45ZM477.85.11h1.26L481,6.05c4.15,13,6.17,21.6,6.67,31.12a61.38,61.38,0,0,1-8.31,34.92c-9.82,16.9-25.81,29.67-45.58,38.18-15.61,6.71-32.86,10.3-45.58,10.3-8.56,0-21.66,1.56-47,5.14l-2.9.45c-30.85,4.48-39.79,5.6-47.22,5.6-4.4,0-5.16-.11-24.55-3.13-4.53-.67-7.93-1.23-11.33-1.68-25.43-3.36-39-1.35-40.29,8.84-.13.9-.25,1.9-.38,3.13l-.38,3c-1.38,12.2-2.52,17.58-5.41,22.39-3.65,5.94-9.82,8.85-19.64,8.85-12.85,0-16.25.67-19.52,3.58a118.85,118.85,0,0,1-10.33,9.74c-3.52,2.8-18,14.1-19.89,15.45-2.77,2.12-5.54,4.36-8.19,6.6-8.81,7.27-14.85,13.2-18.38,18-7.43,10.41-13.22,20.15-14.73,27-2.14,9.29,4.66,10.63,23.92,1.34q27.58-13.26,56-24.52c4.41-1.79,17.63-6.94,19.77-7.72,6.43-2.46,10.45-4.25,13.6-5.71l2.52-1.23,2.77-1.34c2.27-1,4.28-2,6.3-2.91,22.79-9.74,43.44-11.76,63.34-1.35,28.83,14.89,48.22,41.42,48.22,63.14,0,21.38-.88,28.1-6.54,37.17a57,57,0,0,1-6.17,7.94c-8.19,8.73-14.86,18.14-16.12,23.85-1.51,7.05,5.92,7.83,25.43,0,16.75-6.83,28.21-16.79,35.89-29.44a86.94,86.94,0,0,0,7.68-16.9c1.13-3.36,4-13.1,4.28-14a20.5,20.5,0,0,1,2.27-5.37c9.44-16.68,26.57-34.14,45.58-41.64,9.57-3.81,16.37-10.75,24.43-23.29,1-1.68,5.41-8.51,6.42-10.3,4.41-6.83,7.81-10.86,11.84-13.43,12.71-8.28,36.13-12.43,63.33-12.43,9.45,0,20.78-1.34,34.63-4,6.3-1.23,12.59-2.57,18.89-3.91-1.64.33,19.51-4.48,24.42-5.49,17.76-3.69,51.76-5.6,80.72-5.6,21.9,0,35-10.3,48.47-43.32,8.31-20.38,8.31-29.55,3.4-38.4L741.9,72A13.46,13.46,0,0,1,740,65.15c0-4.48,0-4.48,3.15-27.54.63-4.14,1-7.5,1.38-10.74A199.41,199.41,0,0,0,746.3,3.58V.22h1.26V3.58A205.77,205.77,0,0,1,745.8,27c-.38,3.25-.89,6.6-1.39,10.86-3.15,22.73-3.15,22.73-3.15,27.2a12.83,12.83,0,0,0,1.89,6.38c.25.56,1.51,2.58,1.51,2.69,5.17,9.18,5.17,18.69-3.4,39.29-13.6,33.36-27.2,44-49.73,44-29,0-62.71,1.9-80.46,5.61-4.92,1-26.07,5.82-24.43,5.48-6.3,1.46-12.59,2.69-18.89,3.92-13.85,2.69-25.31,4-34.88,4-26.94,0-50.11,4.14-62.58,12.2-3.78,2.46-7.05,6.38-11.46,13.1-1.13,1.68-5.41,8.62-6.42,10.3-8.18,12.65-15.11,19.81-25.06,23.73-18.76,7.39-35.76,24.63-45.07,41.2a27.25,27.25,0,0,0-2.14,5.26c-.26.9-3.15,10.64-4.29,14a81.72,81.72,0,0,1-7.8,17.13c-7.81,13-19.39,23.06-36.52,30-20.27,8.29-29,7.28-27.2-1.12,1.26-5.93,8.06-15.45,16.37-24.29a53.45,53.45,0,0,0,6-7.84c5.54-8.84,6.43-15.44,6.43-36.6S314,226,285.7,211.25c-19.65-10.19-39.79-8.29-62.2,1.34-3,1.34-6.05,2.69-8.94,4.14l-2.4,1.23c-4.4,2.13-9.06,4-13.72,5.82-2,.79-15.36,6.05-19.77,7.73q-28.51,11.25-56,24.51c-20,9.74-28.21,8.06-25.82-2.57,1.52-6.94,7.3-16.79,14.86-27.31,3.53-5,9.7-11,18.64-18.25,2.52-2.13,5.16-4.26,8.31-6.6,1.89-1.46,16.37-12.65,19.89-15.45a110.42,110.42,0,0,0,10.2-9.74c3.53-3.13,7.3-3.92,20.4-3.92,9.45,0,15.11-2.68,18.64-8.28,2.77-4.59,3.9-9.85,5.29-21.94l.38-3,.37-3.14c.76-6,5.67-9.51,14.1-10.74,6.8-1,15.74-.56,27.58,1,3.4.45,6.92,1,11.33,1.68,19.27,3,20.15,3.14,24.43,3.14,7.18,0,16.24-1.12,47-5.6l2.9-.45c25.31-3.7,38.4-5.15,47.09-5.15,12.59,0,29.59-3.58,45.08-10.19,19.64-8.4,35.38-20.93,45.08-37.72a60.59,60.59,0,0,0,8.18-34.37C486,28,484,19.38,480,6.5ZM495,.11h1.26c1,4.37,2.39,9.74,4.4,16.68,4.54,15.79,3.9,30.23-1,43.44A66.38,66.38,0,0,1,485.28,83.4a165.14,165.14,0,0,1-24.3,21c-14.23,10.07-29.46,17.35-45.33,20.59-9.44,1.91-18.89,3.36-28.46,4.6-4,.44-8.06.89-13,1.45l-11.83,1.23c-14.48,1.57-22,2.91-27.2,5-11.71,4.7-35.76,6.72-61.95,6.72a30.74,30.74,0,0,1-5.42-.45,80.29,80.29,0,0,1-11.45-2.58c-9.2-2.46-12.09-3.13-15.87-2.91-4.91.23-8.31,2.58-10.7,7.73s-3,8.4-4.15,16.79c-1.39,10.07-3.66,13.54-12.6,16a58,58,0,0,0-8.56,3,19.77,19.77,0,0,0-2.26,1.12l-1.64,1c-2.39,1.23-4.91,1.68-11.59,1.68-4,0-11.08-.67-12-.45-1.51.34-1-.11-8.94,7a87.69,87.69,0,0,1-7.93,6c-1.89,1.34-9.07,6.05-9.95,6.72a128.86,128.86,0,0,0-14,10.52c-6.17,5.6-8.57,10.19-7.06,14.22s5.17,4.92,11.21,3.13a73.07,73.07,0,0,0,9.82-3.92c1.89-.9,9.82-4.59,11.84-5.6q7.56-3.53,15.49-6.38c4.66-1.68,9.31-3.47,13.85-5.37,2.52-1.12,13.47-5.82,16.37-6.94,5.54-2.35,10.2-4.26,14.6-5.93,21.53-8.18,36.9-11.09,47.47-7.39l6.8,2.35c2.9,1,5.29,1.79,7.56,2.68,5.54,2,11.08,4.26,16.49,6.72,23.05,10.75,38.28,24.74,43.82,44.67,8.82,31.23,4.53,50.93-10.2,69.85-5,6.49-4.41,10.3.13,10.08,5.16-.34,12.84-5.6,19-14,3.9-5.37,6.42-11.75,10.07-24.07l2.14-7.16c.89-2.8,1.52-5,2.27-7.28,6.17-18.58,13.85-30.56,27.2-39,8.94-5.71,29.84-17.35,32.11-18.81,8.44-5.37,13.22-10.52,18-20.15,9.7-19.48,26.56-27.2,56-27.2,11.83,0,22.54-1.23,37.14-3.92,2.65-.44,5.17-.9,7.81-1.45,3-.56,5.16-.9,7.18-1.23A80.3,80.3,0,0,1,565.5,162c5.54,0,11.83-1.12,39.53-6.72l3.78-.78c20.53-4.15,32.24-6.05,39.92-6.05,1.88,0,3,0,8.06.11,9.82.12,15.48.12,21.78-.22,20.65-1.23,33.62-6.05,37.52-16.34a89.57,89.57,0,0,1,4.41-9.86c-.25.34,2.9-5.6,3.65-7.16,6.8-13.77,7.05-24.52-1.76-44.11a89.43,89.43,0,0,1-6.68-23.17c-2-13.43-1.76-25.86.13-45.11l.25-2.35h1.26l-.25,2.46C715.21,21.83,715,34.26,717,47.58a87.73,87.73,0,0,0,6.55,23c8.94,19.93,8.69,31,1.76,45-.75,1.57-3.9,7.5-3.65,7.16a102.61,102.61,0,0,0-4.41,9.74c-4,10.86-17.5,15.79-38.65,17-6.42.33-12.09.45-21.91.22-5-.11-6-.11-8.06-.11-7.43,0-19.14,1.9-39.54,5.93l-3.77.79c-28,5.6-34,6.71-39.79,6.71a77.19,77.19,0,0,0-11.84,1.24c-2,.33-4,.67-7,1.23-2.64.44-5.16,1-7.81,1.45-14.73,2.69-25.56,3.92-37.4,3.92-29,0-45.33,7.5-54.77,26.53-4.91,9.85-9.82,15.22-18.51,20.71-2.27,1.46-23.17,13.1-32.11,18.81-13,8.17-20.52,20-26.69,38.28-.76,2.24-1.39,4.48-2.27,7.28l-2.15,7.16c-3.78,12.54-6.3,18.92-10.32,24.4-6.3,8.73-14.36,14.22-20,14.55-5.91.34-6.67-4.7-1.13-11.75,14.48-18.58,18.64-38.06,9.95-69-5.54-19.48-20.4-33.25-43.19-43.88-5-2.35-10.33-4.48-16.37-6.72-2.27-.9-4.66-1.68-7.55-2.68l-6.8-2.36c-10.08-3.47-25.19-.67-46.47,7.39-4.4,1.68-9.06,3.58-14.6,5.94L192,212.47c-5.92,2.46-10.33,4.25-14,5.48a139.29,139.29,0,0,0-15.36,6.27c-2,.9-10,4.7-11.84,5.6a62.4,62.4,0,0,1-9.94,3.92c-6.68,2-10.83,1-12.85-3.81-1.89-4.48.88-9.51,7.3-15.33A132.47,132.47,0,0,1,149.45,204c1-.67,8.06-5.48,10-6.72a64.2,64.2,0,0,0,7.81-5.93c8.43-7.5,7.68-6.94,9.57-7.27,1.13-.23,8.43.44,12.21.44,6.55,0,8.81-.33,11-1.56l1.63-.9c.76-.45,1.51-.79,2.27-1.23a57.28,57.28,0,0,1,8.81-3c8.31-2.24,10.33-5.37,11.71-15.11,1.14-8.4,1.89-11.75,4.28-17,2.52-5.49,6.3-8.18,11.71-8.4,4-.23,6.93.33,16.37,2.91a97.69,97.69,0,0,0,11.33,2.57,42.61,42.61,0,0,0,5.17.34c26.06,0,50-2,61.44-6.72,5.42-2.24,13-3.47,27.58-5l11.84-1.23c4.91-.56,8.94-1,13-1.45,10.32-1.23,19.39-2.69,28.33-4.59,15.61-3.25,30.6-10.41,44.7-20.38a168.79,168.79,0,0,0,24.17-20.82,64.37,64.37,0,0,0,14-22.72c4.78-13,5.41-27.31,1-42.76-1.39-5.93-2.9-11.53-4.28-17.24Zm143.29,0h1.64a14.23,14.23,0,0,1-1.52,1.68c-5,5.6-8.68,8.84-12.34,10.75a13.4,13.4,0,0,1-6.3,1.57c-3,0-5.28.78-8.43,2.46L608,18.47a31.28,31.28,0,0,1-17.12,4.59c-7,0-12.59-1.46-20.27-4.48-1-.34-1.89-.78-2.9-1.23L565,16.23a33.17,33.17,0,0,0-5.29-1.68,17.54,17.54,0,0,0-4.15-.45c-2.9,0-5.41-.78-13.85-3.81l-2-.67c-6.3-2.24-10.2-3.13-13.23-3-3.65.22-5.54,2.24-5.54,6.83,0,23.28-6.54,56.42-15.23,64.14-9.57,8.51-33.37,26.53-42.94,32.58-16.62,10.52-39.28,22.61-55.53,28.1a140,140,0,0,1-16.74,4.48c-4.16.9-8.31,1.56-14.1,2.46-.63.11-11.09,1.68-14.48,2.24-6.17,1-11.71,1.9-17.63,3.13-25.94,5-31.6,5.6-48,5.6-3.14,0-3.65-.11-17.75-2.24l-7.68-1.11c-10.2-1.35-17.38-1.57-22.16-.23-5.67,1.57-7.43,5.15-4.66,11.76,2.52,5.93,6,9.62,11.08,12,4.15,1.9,8.56,2.91,17.38,4.14,11.83,1.68,13.72,2,19.51,3.25A99.06,99.06,0,0,1,315.42,192c10.45,5.15,18.39,12.88,25.19,23.4,3.4,5.27,12,21.61,13.22,23.74,4.28,6.6,7.93,7.38,13.72,2.24,6.3-5.49,13.1-9.4,26.57-15.79.63-.22,2.64-1.23,2.64-1.23,10.08-4.7,15-7.28,20-10.63,6.43-4.37,11-9.07,13.6-14.67,10.71-22.61,26.2-37.28,40.93-37.28h6.92c13.22.12,21.91,0,31.36-.33,17.25-.67,30-2.35,37-5.26a308,308,0,0,1,30.48-10.08c4.4-1.23,7.93-2.35,16-4.59,9.7-2.68,14-3.92,19.14-5.48,4.78-1.46,9.44-2.8,14.23-4.14s7.55-2.24,10.07-3.14a76.72,76.72,0,0,0,8.43-3.24c2.4-1.12,4.79-2.36,7.43-3.92,4.41-2.58,7.81-3.47,15.11-4.59l1.51-.23c7.18-1.12,11.34-2.57,16.12-6.27,9.82-7.83,10.83-26,4.79-49.81-2.14-8.62-2.65-21.61-2-39.74.25-6.94.63-13.88,1-20.82h1.26l-.25,3.47c-.38,7.16-.63,12.31-.89,17.46-.63,18-.12,30.9,2,39.4,6,24.29,5,42.76-5.29,50.94-4.91,3.91-9.32,5.37-16.62,6.6l-1.51.22c-7.3,1.12-10.45,2-14.73,4.48a79.28,79.28,0,0,1-7.56,4c-2.77,1.23-5.66,2.35-8.56,3.36-2.64.9-5.54,1.79-10.2,3.13s-9.44,2.8-14.23,4.14c-5.16,1.57-9.44,2.8-19.14,5.49-8.06,2.24-11.58,3.35-16,4.59-13.47,3.91-23,7-30.34,10.07s-20.15,4.59-37.53,5.37c-9.57.34-18.13.45-31.48.34h-6.92c-14.1,0-29.21,14.33-39.67,36.61-2.77,5.82-7.3,10.63-14,15.11-5,3.47-10.08,6-20.15,10.74l-2.64,1.24C381,233.17,374.35,237,368.18,242.47c-6.42,5.7-11.08,4.59-15.74-2.47-1.38-2.12-9.95-18.47-13.22-23.73-6.67-10.3-14.48-17.91-24.68-23a104,104,0,0,0-23.17-8.17c-5.67-1.34-7.55-1.57-19.39-3.25-9.07-1.23-13.47-2.23-17.75-4.25-5.29-2.46-9.07-6.49-11.71-12.65-3-7.16-1-11.53,5.41-13.21,5-1.34,12.34-1.23,22.79.23l7.81,1.11c13.85,2.13,14.48,2.24,17.5,2.24,16.37,0,21.91-.56,47.72-5.6,5.92-1.12,11.58-2.12,17.63-3.13,3.4-.56,13.85-2.13,14.48-2.24,5.79-.9,10.07-1.68,14.1-2.46a147.13,147.13,0,0,0,16.62-4.48c16.12-5.37,38.78-17.46,55.28-27.87,9.44-5.94,33.24-24,42.68-32.36,8.31-7.5,14.86-40.52,14.86-63.36,0-5.15,2.39-7.72,6.8-8.06,3.27-.22,7.3.79,13.85,3l2,.67c8.18,2.91,10.7,3.69,13.34,3.69a21,21,0,0,1,4.41.56,33.89,33.89,0,0,1,5.41,1.68l4.16,1.68,1.38.56c7.56,3,12.85,4.37,19.77,4.37A30,30,0,0,0,607,17.68c.25-.11,2.65-1.57,3.4-1.9,3.28-1.79,5.79-2.69,9.07-2.69a12.27,12.27,0,0,0,5.66-1.45c3.53-1.79,7.18-4.93,12-10.41L638.27.11ZM408.85,671.78h-2.52c.63-3.36,1.13-6.94,1.64-10.86.5-4.59,1-9.18,1.26-13.66.12-1.57.12-3-.5-8.17-.63-2.13-1.14-4.59-1.77-7.28-2.51-12.65-3.4-25.63-1.38-37.83a61.44,61.44,0,0,1,6.55-20.15A80.13,80.13,0,0,1,428,553.45c4.28-4,6.93-6.16,14.86-12.09,5.67-4.25,8.06-6.27,9.44-8.4a6.81,6.81,0,0,0,1.26-3.47c0-2,0-1.9-1-10.3-.5-4.14-.76-7.05-.89-10.07-.63-13.55,2-21.95,10.2-24.4,20-5.94,32.62-13.55,42.19-28.55,12-18.92,32.36-35.26,45.2-35.26,15.61,0,25.18-2.24,37-9.85,8.56-5.49,12-7.39,15.74-8.4,2.77-.67,4.78-.79,11.45-.79,2.4,0,4.41-.9,7.06-2.91,1.38-1.12,6.42-5.71,7.05-6.27,7.55-6.6,15.11-9.85,26.19-9.85,3.15,0,5.66,0,9.19.11,9.44.23,11.21.23,14.23-.78,3.78-1.23,6.92-3.36,18.63-12.54,10.08-7.95,13.48-10,28.84-18.47,1.76-1,3.27-1.79,4.66-2.69a84.87,84.87,0,0,0,12-8.4c5.16-4.36,10.07-8.84,14.61-13.32v3.36c-4.16,4-8.44,7.84-13,11.64a86.58,86.58,0,0,1-12.22,8.62c-1.38.9-2.9,1.68-4.78,2.69-15.11,8.4-18.51,10.41-28.46,18.25-12,9.4-15.11,11.53-19.39,12.87-3.4,1.12-5.29,1.23-15.11.9-3.53-.11-6-.11-9.19-.11-10.45,0-17.38,3-24.43,9.18-.5.45-5.67,5.15-7.18,6.38-3,2.35-5.66,3.47-8.68,3.47-6.43,0-8.31.11-10.83.78-3.4.9-6.68,2.69-15,8-12.34,7.95-22.54,10.3-38.53,10.3-11.58,0-31.48,15.9-42.93,34.14-9.83,15.56-22.92,23.51-43.45,29.67-6.67,2-9.06,9.51-8.56,22.16.13,2.91.38,5.82.88,9.85,1,8.51,1,8.51,1,10.53a8.33,8.33,0,0,1-1.51,4.59c-1.64,2.46-4.16,4.59-9.95,8.95-7.8,5.82-10.57,8-14.73,11.87a75.86,75.86,0,0,0-15.36,19.81,60.38,60.38,0,0,0-6.3,19.48c-1.89,12-1.13,24.74,1.38,37.17.5,2.68,1.14,5,1.64,7.16A22.34,22.34,0,0,1,412,643c-.26,6-.76,12.09-1.52,18-.5,3.92-1,7.5-1.63,10.75Zm-16.87,0h-1.26l.12-.34c3.9-8.06,5.42-13.21,5.42-20.93,0-4-.13-5.49-1-17.58-1-13.43-1.26-21.94-.63-31.68a120.22,120.22,0,0,1,7.3-36,113,113,0,0,1,5.67-12.42c4.4-7.95,8.56-13.88,13.1-18.58a72.92,72.92,0,0,1,5.54-5.15c.5-.45,3.77-3.14,4.65-3.92,7.18-6.27,9.45-12.88,9.45-32.69,0-21.05,3.65-26.64,19.89-31.57,1.39-.45,2.4-.78,3.53-1.12,2.64-.9,5.16-1.9,7.68-3A65.15,65.15,0,0,0,489.56,444c32.11-30.9,46.72-39.4,71-39.4,10.45,0,18.26-2.24,27.7-7.05,2.27-1.12,17.38-9.85,22.92-12.65,3.52-1.79,7.17-3.36,10.83-4.93,9.94-4,17.62-5,33.49-5.37,9.44-.23,13.47-.56,18-1.79a23.93,23.93,0,0,0,13.72-9.4c2.77-3.81,8.56-7.95,18.51-13.55,2-1.12,4.16-2.24,7.18-3.92,12-6.6,14.6-7.94,18.63-10.74a70.38,70.38,0,0,0,17.25-16.57c2.4-3.25,4.79-6.49,7-9.85v2.12c-2.51,3.59-4.28,6.05-6,8.29A70.18,70.18,0,0,1,732.33,336c-4.15,2.8-6.67,4.25-18.76,10.75-2.39,1.34-4.78,2.57-7.05,3.92-9.7,5.48-15.49,9.51-18.13,13.2a25.61,25.61,0,0,1-14.48,10c-4.66,1.23-8.69,1.56-18.26,1.79-15.74.33-23.17,1.34-33,5.26-3.65,1.45-7.3,3.13-10.83,4.93-5.41,2.68-20.52,11.41-22.79,12.65-9.57,4.92-17.63,7.16-28.33,7.16-23.8,0-38.16,8.28-70,39a67.15,67.15,0,0,1-18.51,13c-2.52,1.12-5,2.13-7.81,3.14-1.13.33-2.14.67-6.8,2.12-6.42,2-9.32,3.58-11.71,7.17-2.77,4.25-4.15,11.08-4.15,22.39,0,20-2.39,27-9.82,33.47-.89.78-4.16,3.47-4.66,3.92a71.55,71.55,0,0,0-5.42,5,82.76,82.76,0,0,0-13,18.36,111.43,111.43,0,0,0-5.66,12.32,117.94,117.94,0,0,0-7.3,35.71c-.5,9.62-.25,18.13.63,31.56.88,12.09,1,13.55,1,17.58,0,7.39-1.26,12.42-5.54,21.49Zm31.6,0h-1.26c0-5.26.12-10.53.37-16.8.38-7.16-.5-13.2-3.14-27.31l-.38-2.13c-2.65-14-3.53-21.6-2.52-29.66,1.26-10.3,6-18.7,15.11-25.41,27.7-20.38,37.52-33.81,37.52-49.93a37.48,37.48,0,0,0-1.26-9.18c-1.25-5.37-1.38-6.38-1.25-8.51.25-2.91,1.63-5.26,4.53-7.5,3.4-2.68,8.81-5.15,17.25-7.83,12.21-3.92,19.52-10.3,30.6-24.18l2.27-2.8c5.66-7.05,8.94-10.75,13.1-14.33A41.78,41.78,0,0,1,552.77,437c16.75-3.69,25.69-6.16,31.86-8.51a70.15,70.15,0,0,0,6.67-3,59,59,0,0,0,5.29-2.91c3.4-1.9,6.55-2.35,14.35-2.58,6.8-.22,9.95-.44,13.85-1.56a27,27,0,0,0,12-6.94c6.17-5.94,12.6-8.51,22.42-10,1.38-.22,2.39-.33,4.91-.67,8.69-1.12,12.47-1.9,17-4,5.67-2.8,8.56-4.93,29.59-22l3.9-3.25c12.21-9.74,20.27-15.45,26.95-18.47a47,47,0,0,0,14.1-9.63v1.68a45,45,0,0,1-13.6,9c-6.55,2.91-14.61,8.62-26.7,18.25l-3.9,3.24c-21.15,17.24-23.92,19.37-29.84,22.17-4.66,2.24-8.56,3.13-17.38,4.14-2.51.33-3.52.45-4.78.67-9.57,1.46-15.74,3.92-21.66,9.63a28.6,28.6,0,0,1-12.59,7.27c-4,1.12-7.18,1.46-14.1,1.68-7.56.23-10.58.67-13.73,2.35-1.76,1-3.52,2-5.29,2.91-2.14,1.12-4.4,2.13-6.8,3.14-6.3,2.46-15.23,4.92-32.1,8.62-12.22,2.69-19.27,8.51-30.73,23.06l-2.26,2.8c-11.21,14-18.64,20.49-31.23,24.52-8.31,2.68-13.73,5.14-16.87,7.61-2.65,2.12-3.78,4.14-4,6.71-.13,2,0,2.92,1.26,8.18a38.68,38.68,0,0,1,1.25,9.4c0,16.56-9.94,30.22-38,50.82-8.82,6.49-13.35,14.55-14.61,24.63-1,7.83-.12,15.33,2.52,29.33l.38,2c2.64,14.22,3.52,20.26,3.15,27.54-.26,6.49-.38,11.64-.38,17Zm-302.58,0h-2.52c.88-4.26,1.39-9.85,2-17.91.25-3.47.38-4.6.5-6.27,1.63-19.59,5-30.34,14.48-37.17,5.92-4.25,9.06-10,11-17.91a94.33,94.33,0,0,0,1.64-10.3c.88-6.16,1.51-9.07,2.77-11.64,1.76-3.47,4.78-5.26,9.32-5.26,18,0,48.48,10.18,67.49,22.61a190,190,0,0,0,39.91,19.14c16.37,5.26,27.58,4.93,31.23-1.9,2.14-4,2.39-4.59,3.27-6.49,3.66-7.5,5.92-13.66,6.55-19.59a32.2,32.2,0,0,0,0-6.94c-.38-3.13-1.76-5-5.16-8.28l-1.64-1.57a23.6,23.6,0,0,1-3-3.14,30.09,30.09,0,0,1-3.15-4.59l-1.38-2.35c-2-3.47-3.4-5.15-5.17-6.27-6.67-3.91-18.63-6.15-36-7.61-3.78-.33-7.55-.56-11.33-.78l-2.77-.23c-12.09-.78-19-1.79-24-3.58-17.63-6.6-43.57-29.55-43.57-41.3,0-5.94,2.14-10.64,6.93-15.79,2.52-2.69,14-13.1,16.11-15.11,5.67-5.6,12.85-10.64,22.29-16.46,3.53-2.12,18.64-10.74,22-12.87a50.07,50.07,0,0,0,7.93-6.05c1.89-1.67,8.81-7.94,8.94-8.17,9.07-8.17,16-13,24.8-16.12,4.29-1.45,10.2-3.13,22-6l14.86-3.7c5.29-1.34,10.7-2.68,16-4.14,25.69-6.94,42.81-13.54,51.37-20.6,11-9.18,14.86-15.45,19.77-29.1,2.52-6.94,3.9-10.08,6.42-14.22,12-19.81,36.14-44.11,54.78-50.94,17.75-6.49,24.43-13.1,24.43-20.26,0-3.24,3.4-9.4,8.56-15.33,6-6.94,13.34-12.77,21.15-15.9,15.74-6.5,42.18-11.31,59.69-11.31,6.67,0,12.34-1.68,20.65-5.48,11.58-5.27,12.71-5.71,17.12-5.71,13.1,0,40.42-2.91,57.67-6.72l4.91-1.12,4.41-1c3.27-.78,5.41-1.23,7.43-1.56a57.14,57.14,0,0,1,12.09-1.35,45.65,45.65,0,0,1,11,1.68c5.79,1.57,17.25-1,28.84-6.38a91.74,91.74,0,0,0,12.34-6.94v2.69c-14,9.06-32.49,15.33-41.93,12.76a45.22,45.22,0,0,0-10.2-1.57,51.9,51.9,0,0,0-11.46,1.23c-3.9.79-7.81,1.68-11.71,2.58l-4.91,1.12c-17.5,3.92-45,6.71-58.18,6.71-3.77,0-4.91.45-16,5.49-8.69,3.92-14.6,5.71-21.78,5.71-17.13,0-43.32,4.81-58.68,11.08-7.3,3-14.35,8.51-20.14,15.22-4.92,5.6-8.06,11.42-8.06,14,0,8.17-7.3,15.45-25.94,22.27-18,6.6-41.8,30.45-53.52,49.93-2.39,3.92-3.77,7-6.17,13.88-5,14-9.06,20.6-20.52,30.12-8.94,7.38-26.32,14.1-52.38,21.15-5.29,1.46-10.7,2.8-16,4.14-4.91,1.24-9.95,2.47-14.86,3.7-11.58,2.91-17.63,4.48-21.66,5.93-8.43,3-15.23,7.61-24.05,15.56-.12.11-7.05,6.49-8.94,8.17a47.42,47.42,0,0,1-8.31,6.27c-3.4,2.13-18.63,10.75-22,12.88-9.32,5.6-16.25,10.63-21.79,16.12-2.14,2.12-13.6,12.42-16,15.11-4.4,4.81-6.3,8.95-6.3,14.44,0,10.63,25.19,33,42.06,39.29,4.66,1.68,11.46,2.58,23.29,3.36l5.42.34c4,.22,6.42.44,8.68.56,17.76,1.56,30,3.8,37,8.06,2.27,1.34,3.78,3.24,6,7.05l1.38,2.35c.88,1.45,1.89,2.91,2.9,4.25a29.51,29.51,0,0,0,2.9,2.91c.25.23,1.39,1.35,1.64,1.57,3.65,3.47,5.29,5.82,5.79,9.52a36.4,36.4,0,0,1,0,7.38c-.75,6.16-3,12.54-6.8,20.27-.88,1.9-1.26,2.46-3.4,6.49-4.41,8.4-16.75,8.73-34.25,3.13a185,185,0,0,1-40.54-19.47c-19-11.75-49-21.83-66.36-21.83-6.3,0-8,3.36-9.57,14.89A99.2,99.2,0,0,1,148.83,593c-1.89,8.4-5.41,14.55-11.83,19.25-8.69,6.27-12,16.57-13.6,35.6-.13,1.68-.26,2.8-.5,6.27A141.89,141.89,0,0,1,121,671.78Zm10.2,0h-1.26c.38-1.57.76-3.25,1.13-5.15l1.39-6.27c3.15-14.89,5.29-22.28,8.44-26.87,2.14-3.13,4.65-6.16,10.2-12.31,10.32-11.65,13.72-16.23,13.72-20.94v-6.15c.25-5.6,1.89-9.18,5.79-10.53,4.91-1.68,13.1.45,25.31,7.17s22,12,32.61,17.57c1.64.9,18,9.4,22.29,11.76,2.64,1.45,5.41,2.91,8.06,4.36,17.38,9.52,49,5.6,58.3-8.73,4.53-7.05,5.66-9.51,9.82-19.37.5-1.11,1-2.35,1.51-3.47a40.53,40.53,0,0,1,5.16-8.5c11.71-15.68,18.77-29.22,18.77-41.09,0-4.14,1-7.38,4.28-16.68.63-1.79,1-3,1.38-4.14,4.53-13.66,3.78-21.38-5.41-26.87a32.43,32.43,0,0,0-12.59-4.25c-9.07-1-18.26,1.34-30.1,6.6-1.89.9-8.31,3.81-9.57,4.37-1.76.78-3.52,1.68-5.16,2.57l-5.54,3c-14.61,7.73-25.69,10.3-41.3,6.83-4.16-.9-7.81-1.56-16.5-2.91-16.62-2.68-23.55-4.25-29.34-7.27-7.81-4.15-9.44-10.08-3.65-18.59a108.76,108.76,0,0,1,18.13-20.48c3.4-3,6.93-5.82,10.45-8.62-.12,0,7.81-5.94,9.82-7.61,2.9-2.24,5.54-4.59,8.19-7.06,9.7-9.51,16.12-15,25.31-20.82,12.46-8,26.94-13.88,44.32-17.46,46.59-9.63,64.22-14.22,74-20,10.83-6.38,26.82-27.76,46.33-61.34,6.55-11.31,15.49-20.6,26.57-28.77,6.42-4.7,12.09-8.18,22-13.66,9.32-5.15,12.09-6.83,14.35-9.18a24.38,24.38,0,0,0,3.78-5.49c.75-1.45,3.65-7.27,3.78-7.61a82.44,82.44,0,0,1,5-8.62c8.19-12.31,20.15-20.15,39.54-23.28,16-2.58,25.06-3,37.4-2.58,4,.12,5.16.23,7.05.12,6.42-.12,12.22-1.12,20.9-4.26,26.07-9.29,48.86-13.43,74.54-13.43,3.78,0,7.56.11,13.23.56l2.64.22c15.74,1.12,22.79,1.12,31.86-.67a70.17,70.17,0,0,0,17.76-6v1.23A70.32,70.32,0,0,1,738.5,207c-9.32,1.8-16.5,1.8-32.23.68l-2.65-.23c-5.54-.33-9.32-.56-13.1-.56-25.56,0-48.1,4.14-74,13.44-8.81,3.13-14.73,4.25-21.4,4.36-1.89,0-3,0-7.18-.11-12.34-.45-21.15,0-37.15,2.57-19,3-30.59,10.75-38.65,22.73a84.57,84.57,0,0,0-4.91,8.51c-.13.33-3,6.15-3.78,7.61a25,25,0,0,1-3.9,5.71c-2.39,2.35-5.16,4.14-14.61,9.4-10.07,5.6-15.61,9-21.9,13.66-11.09,8.06-19.77,17.23-26.32,28.43C417,357,400.92,378.37,389.84,385c-10.07,5.94-27.7,10.53-74.54,20.26-17.13,3.59-31.48,9.4-43.82,17.24-9.07,5.82-15.49,11.2-25.06,20.6-2.64,2.47-5.41,4.93-8.31,7.17-2.14,1.68-10,7.61-9.82,7.61-4.16,3.13-7.3,5.82-10.45,8.51a106.83,106.83,0,0,0-18,20.26c-5.41,8.06-4,13.32,3.15,17.13,5.67,2.91,12.47,4.47,29.21,7.16,5.42.78,10.83,1.79,16.25,2.91,15.23,3.36,25.94.9,40.42-6.72l5.54-2.91c2.14-1.12,3.77-1.9,5.28-2.68,1.26-.56,7.56-3.47,9.57-4.37,12.09-5.37,21.41-7.72,30.85-6.72a33.1,33.1,0,0,1,13.1,4.37c9.82,5.82,10.7,14,5.92,28.1a37.92,37.92,0,0,1-1.51,4.14c-3.27,9.07-4.15,12.31-4.15,16.23,0,12.2-7.18,25.86-19,41.76a41.55,41.55,0,0,0-5,8.4c-.5,1-.89,2-1.52,3.36-4,9.85-5.28,12.42-9.82,19.59-9.7,15-42.05,19-60.06,9.18-2.64-1.46-5.41-2.92-8.06-4.37-4.28-2.24-20.65-10.86-22.29-11.76-10.57-5.6-20.64-11-32.61-17.57s-19.77-8.62-24.17-7.16c-3.4,1.11-4.79,4.25-5,9.51,0,1.34-.13,2.8,0,4.14v1.9c0,5-3.4,9.74-14.48,22.28-4.91,5.6-7.43,8.51-9.57,11.64-3,4.48-5.16,11.87-8.31,26.53L132.1,667l-.9,4.82Zm13.22,0h-1.26v-1.12c0-13.88,10.7-37.62,24.18-48.59a34.5,34.5,0,0,0,4.66-4.7,38.67,38.67,0,0,0,3.65-5.48c.5-.79,2.26-4.14,2.64-4.93,4-7.05,8.56-7.27,21.41.45l8.06,4.93c3.27,2,5.92,3.58,8.43,5.14,6.3,3.81,11.84,6.95,17,9.74,18,9.74,32.11,14.89,42.94,14.89,21.28,0,41.18-6.71,49.86-16.57,2-2.23,4-5.82,6.43-10.74,1-2.13,2-4.59,3.4-7.61l3.4-8.18c5.91-13.88,9.82-21.38,14.6-26.08,9.95-9.85,18.76-40.3,18.76-59,0-2.13.25-3.47,1.26-9.3a42.1,42.1,0,0,0,.88-5.71c.76-6.15.25-10.63-2.14-13.88-5.79-7.94-24.8-10.3-48.48-5.37a140.14,140.14,0,0,0-23.8,7.05c-6.54,2.69-21.53,10.86-20.77,10.53-8.44,4-16.37,4.59-31.23,1.45-37.27-7.95-38.28-9.63-19.26-30,21.9-23.4,59.3-51.72,71-51.72,12.47,0,67.75-13.43,82.86-20.15,12-5.26,30.6-23.73,46.33-42.42.88-1.12,17-24.18,24.18-33.14,11.83-14.66,22.92-25.19,34-30.78,9.19-4.7,16.62-11.53,23.67-20.94,2.39-3.24,13.22-19.7,16-22.83a16,16,0,0,1,5.67-4.37c17.75-6.94,30.47-10.08,49.36-10.08h36.51c5,0,9.32-.44,28.84-2.8l5.41-.67c12.47-1.45,20.9-2.12,27.45-2.12h7.56c23.42.22,35.88-.56,56.53-4.48a54.76,54.76,0,0,0,11.46-3.7v1.23a53.66,53.66,0,0,1-11.21,3.59c-20.65,4-33.24,4.7-56.78,4.59h-7.56c-6.55,0-14.86.67-27.2,2.12l-5.66.68c-19.65,2.35-23.8,2.8-29.09,2.8H581.86c-18.64,0-31.23,3.13-48.86,10.07a14.5,14.5,0,0,0-5.16,4c-2.77,3-13.47,19.48-16,22.72-7.18,9.63-14.73,16.57-24.05,21.27-10.83,5.49-21.91,15.9-33.49,30.45-7.18,9-23.3,32-24.18,33.14-15.87,18.81-34.63,37.28-46.84,42.65C368.05,404.57,312.65,418,299.93,418c-11.08,0-48.35,28.1-70,51.27-18.38,19.59-17.88,20.37,18.51,28.21,14.61,3.13,22.16,2.57,30.35-1.34-.88.44,14.23-7.84,20.9-10.53a138.8,138.8,0,0,1,24.05-7.16c24-5,43.57-2.69,49.74,5.82,2.51,3.58,3.14,8.17,2.26,14.55-.25,1.9-.63,3.81-1,5.71-1,5.71-1.26,7.05-1.26,9.07,0,18.92-8.82,49.59-19,59.67-4.66,4.59-8.56,12-14.35,25.74-.5,1-2.77,6.6-3.4,8.18-1.26,3.13-2.39,5.48-3.4,7.61-2.39,5-4.41,8.62-6.55,11-8.94,10.19-29.21,17-50.87,17-11.21,0-25.31-5.26-43.57-15-5.16-2.8-10.7-5.93-17.12-9.74-2.77-1.67-5.67-3.35-8.44-5.14L198.69,608c-12.21-7.39-15.86-7.16-19.51-.9-.5.78-2.14,4-2.65,4.81a34.75,34.75,0,0,1-3.77,5.6A30.75,30.75,0,0,1,168,622.3C154.75,633,144.3,656.44,144.3,670l.13,1.79Zm-37.4,0h-1.38a18.68,18.68,0,0,0,2.26-9c0-22.39,6-47,15.36-55.19,6.55-5.82,9.83-9.4,12.47-14.21,3.27-6,4.91-13.44,4.91-23.4,0-7.62,1.39-13,4.28-16.9,2.14-3,4.54-4.7,11.21-8.41a34.57,34.57,0,0,0,4.91-3.13c5.79-4.48,8.31-6.94,9.7-10.52,1.76-4.48,1.13-10.08-2.39-17.91a81.83,81.83,0,0,0-5-9.07l-1.13-1.9c-1.13-1.79-2.27-3.69-3.28-5.6-6.54-12-4.78-21.16,9.7-33.36a256.53,256.53,0,0,1,33.75-24.07c5-3,21.15-12.09,24.18-14,2.51-1.57,5.41-3.7,9.82-7.05,0,0,9.06-7.17,12-9.29a154.79,154.79,0,0,1,16.5-11.31c5.92-3.47,11.33-5.93,16.24-7.05,16.12-3.81,19.65-4.7,27.45-6.72,15.74-4,27.7-7.72,35.38-11.19a65.83,65.83,0,0,1,9.45-3.14c10.95-3,15.11-4.59,21.4-9.06,8.57-6.16,16.5-15.9,24.3-31.24,20.15-38.95,24.05-44.1,40.42-55.07,3.9-2.69,8.06-4.59,14.36-7.17l2.9-1.11c15-6.05,21.28-10,26.57-19.48,2.39-4.26,3.14-7.06,4.28-13.77,1-5.82,1.89-8.51,4.4-11.42,3.28-3.81,8.82-7.05,18.14-10.07,4.28-1.46,9.31-2.8,15.11-4.15,20.52-4.81,31.85-6,49.86-6.49,8.69-.22,12-.67,16-2.24a21.4,21.4,0,0,0,4.53-2.35,48.32,48.32,0,0,1,16.61-6.38c7.18-1.46,13.47-1.68,23.55-1.57h3c3.52,0,8.56-1.12,24.8-5.26,13.6-3.47,20.15-4.81,24.3-4.81a27.13,27.13,0,0,1,4.41.45l6.3,1c12.34,1.9,21.91,2.13,31.73-.22a46.92,46.92,0,0,0,25.56-15.9v1.79a48.43,48.43,0,0,1-25.18,15.22c-10,2.36-19.64,2.13-32.23.23l-6.3-1a25.8,25.8,0,0,0-4.28-.45c-4,0-10.45,1.35-24.81,5-15.49,3.92-20.52,5-24.3,5h-3c-10-.11-16.24.22-23.29,1.56a46.31,46.31,0,0,0-16.25,6.16,23.24,23.24,0,0,1-4.78,2.46c-4.16,1.68-7.56,2.13-16.37,2.36-17.88.44-29.09,1.67-49.61,6.49-5,1.12-10.08,2.57-15.11,4.14-9.07,3-14.48,6.16-17.5,9.74-2.39,2.8-3.28,5.37-4.16,11-1.13,6.83-1.89,9.74-4.4,14.1a33.8,33.8,0,0,1-12.22,12.76c-3.9,2.58-7.55,4.14-15,7.17l-2.9,1.11c-6.3,2.58-10.33,4.48-14.1,7.06-16.25,10.86-20,15.9-40.17,54.63-7.93,15.44-16,25.41-24.68,31.56-6.42,4.59-10.7,6.27-21.78,9.29a61.78,61.78,0,0,0-9.19,3c-7.81,3.47-19.77,7.16-35.64,11.3-9.06,2.35-18.26,4.59-27.45,6.72-4.78,1.12-9.94,3.47-15.86,6.94a173.31,173.31,0,0,0-16.25,11.31c-2.77,2.12-12,9.29-12,9.29a116.74,116.74,0,0,1-9.82,7.16c-3.15,1.9-19.26,11-24.3,14a254.23,254.23,0,0,0-33.62,24.06c-14,11.87-15.61,20.49-9.44,32,1,1.9,2.14,3.69,3.27,5.6l1.13,1.9a65.45,65.45,0,0,1,5,9.18c3.65,8.06,4.28,14,2.39,18.69-1.51,3.81-4.15,6.5-10.07,11a47.81,47.81,0,0,1-6.67,4.14c-4.91,2.8-7.18,4.37-9.2,7.17-2.64,3.69-4,8.84-4,16.23,0,10.08-1.64,17.69-5.17,23.84-2.77,5-6,8.74-12.72,14.56-8.94,8-14.85,32.35-14.85,54.51a18.05,18.05,0,0,1-2,8.62Zm355.71,0h-1.25l-1.39-6.5c-3.9-18.24-5-29.33-3.4-41.75a78.53,78.53,0,0,0,.63-17.13c-.25-5-.25-6.38.25-8.51,1-4.81,4.28-9.51,13.1-18.24,11.46-11.42,15.49-17.24,24.93-33.7,1.77-2.92,2.9-5,4.28-7.06a54.72,54.72,0,0,1,3.53-5c3.9-5.26,8.81-9.4,21.15-18.81,14.1-10.75,19.52-15.56,22.8-21.38a47.63,47.63,0,0,0,2.39-4.93c.63-1.45,1.26-3,1.89-4.47,4.53-11.09,10.07-15.56,28.83-19.93,6.3-1.46,25.81-5.71,26.95-5.93,20.4-4.59,31.85-8.29,42.18-14.1,7.43-4.26,7.3-4.26,34.88-18.48l3.27-1.67c12.85-6.72,21.53-11.42,28.59-15.68,3.77-2.24,7.42-4.59,11.08-7.05,2.64-1.9,5.41-3.8,8.06-5.71a120,120,0,0,1,20.27-11.53v1.23a112,112,0,0,0-19.52,11.09c.25-.12-6,4.25-8.06,5.7-3.65,2.47-7.3,4.82-11.08,7.17-7.18,4.25-15.74,8.95-28.71,15.67l-3.27,1.68c-27.45,14.33-27.45,14.22-34.76,18.47-10.45,5.93-22,9.63-42.56,14.22-1,.22-20.65,4.48-26.94,5.93-10.07,2.35-16.5,5-20.78,8.4-3.4,2.69-5,5.49-7.3,10.86l-1.89,4.59a47.3,47.3,0,0,1-2.51,5c-3.4,6.16-8.82,11-23.17,21.83-12.22,9.29-17.13,13.43-20.9,18.58a44,44,0,0,0-3.4,5c-1.26,2-2.52,4-4.28,6.94-9.57,16.57-13.6,22.5-25.19,34-8.56,8.62-11.83,13.21-12.72,17.8-.37,2-.37,3.36-.25,8.28a100.58,100.58,0,0,1-.63,17.35c-1.63,12.2-.38,23.29,3.4,41.42l1.51,6.27Zm-96.32,0h-2.65l1.77-4.82c1.26-3.69,2.39-7.61,3.4-11.64,3.27-14.22,4.15-26.42,4.15-46.23,0-6.38-2.39-11-5.16-11-3.65,0-8.81,6.26-13.73,19.14-12.34,31.68-28.45,46.68-54,46.68-28.21,0-36.9-1.46-61-11.31-4-1.68-8.06-3.58-11.83-5.6s-16.12-9.62-18.64-10.86c-5.29-2.68-8.81-3-12.21-1.12a16,16,0,0,0-2.39,1.68c-1.77,1.57-3.53,2.91-5.42,4.37-1.26.9-2.52,1.79-3.9,2.69l-1.26.9c-10.83,7.39-14.6,12.76-14.6,23.73a31.45,31.45,0,0,1-.13,3.36h-2.52a29,29,0,0,0,.13-3.36c0-11.75,4.15-17.69,15.23-25.52.89-.56,1.64-1.23,2.52-1.79s1.77-1.24,2.52-1.8c1.89-1.34,3.53-2.68,5.29-4.14a21,21,0,0,1,2.77-2c4.41-2.47,8.81-2,14.86,1,2.64,1.35,15.11,9,18.76,11A107.46,107.46,0,0,0,240,650.62c23.8,9.63,32,11.08,59.94,11.08,24.17,0,39.66-14.22,51.75-45.11C357,602.93,362.63,596,367.8,596c4.78,0,7.68,5.71,7.68,13.21,0,19.92-.76,32.24-4.16,46.68a110.6,110.6,0,0,1-3.52,11.86c-.38,1.35-.89,2.69-1.39,4Zm-188,0,.63-1a136.19,136.19,0,0,0,8.18-14.89c3.4-7,7.3-10.75,11.58-11.75,4.66-1.12,8.94.78,15.87,5.7s7.68,5.49,9.7,5.71,5.41,1.23,11.21,3.36c1.63.56,13.6,4.82,17.5,6.16s7.43,2.46,10.7,3.58c3.9,1.23,7.55,2.24,10.83,3.13h-4.29c-2.26-.67-4.53-1.34-6.92-2.12-3.65-1.12-7.18-2.35-10.7-3.58-3.9-1.35-15.87-5.6-17.5-6.16-5.67-2-8.94-3-10.83-3.25-2.39-.33-3.15-.78-10.32-5.93-6.55-4.7-10.58-6.49-14.74-5.49-3.9.9-7.43,4.37-10.83,11.2-2.64,5.26-5.41,10.41-8.56,15.45l-1.51-.12Zm142.15,0a40.16,40.16,0,0,0,14.23-7.06,50.05,50.05,0,0,0,6.68-7.05c1.26-1.68,2.64-3.47,4.28-5.6,1-1.45,2.14-2.91,3.15-4.36l.63-.9,1.13-1.68c1.26-1.9,2.64-3.7,4-5.49a9.63,9.63,0,0,1,3-2.8c1.26-.45,1.89.56,1.89,2.24v2.35a129.42,129.42,0,0,1-.88,18.25,50,50,0,0,1-3,11.86h-1.39a50.08,50.08,0,0,0,3.15-12,111.1,111.1,0,0,0,.88-18.14v-2.35c0-1.12-.13-1.23-.13-1.23-.5.11-1.25.9-2.51,2.35-1.39,1.79-2.77,3.58-4,5.37l-1.14,1.68-.63.9c-1,1.46-2.14,2.91-3.14,4.37-1.64,2.24-3,4-4.28,5.71a53.55,53.55,0,0,1-6.93,7.27,40.73,40.73,0,0,1-11.21,6.16l-3.77.11Zm-231.3,0H87.51c4.28-3.81,6.55-9.29,6.55-16.8,0-20.82,0-19.36,1.26-23.28a30.55,30.55,0,0,1,4.15-7.39c.5-.78,6.17-8.73,8.57-12.2,3.77-5.6,13.85-18.47,15.36-20.82,4.4-6.83,5.92-13.54,5.92-27.09,0-8.84,3.14-15.9,10.2-26.2l3.52-5.14c1.13-1.57,2.14-3.25,3.15-4.93,2-3.47,3.15-6.49,3.27-9.29.26-4.26-1.63-8.17-6.17-12.2-6.42-5.71-10.83-6.05-14.1-2.13-2.64,3.25-4.4,8.62-6.42,18.47-.25,1.12-1,5.15-1,5.15a75.28,75.28,0,0,1-2.64,10.75c-1.64,4.92-4.66,8.51-10.58,13.77L104.39,556C96.33,563.19,92.17,568.9,90,577.86L88.52,584c-1.13,4.59-2,7.84-2.9,11.08-4.66,15.34-12.21,29.11-28.46,50-9.7,12.43-13.85,21.16-13.72,26.53H42.18c-.12-5.82,4.16-14.55,14-27.2,16.24-20.93,23.67-34.48,28.2-49.7,1-3.24,1.77-6.49,2.9-11.08l1.52-6.16c2.14-9.17,6.42-15.11,14.6-22.38l4-3.59c5.79-5,8.56-8.5,10.2-13.2a78.14,78.14,0,0,0,2.64-10.65l1-5.15c2-10,3.77-15.45,6.55-18.92,3.77-4.59,9.06-4.25,16,1.9,4.78,4.26,6.8,8.51,6.54,13.1-.25,3-1.38,6-3.4,9.74-1,1.68-2,3.36-3.14,5l-3.53,5.15c-6.92,10.19-10.07,17.13-10.07,25.64,0,13.77-1.64,20.6-6,27.65-1.52,2.35-11.59,15.34-15.37,20.82-2.39,3.47-8.05,11.42-8.56,12.2a33.92,33.92,0,0,0-4,7.17c-1.26,3.69-1.26,2.35-1.26,22.94.38,7.28-1.76,12.88-5.67,16.8ZM390.72.11h1.38c-.5,1-1,2-1.51,3.14-4.91,10.18-6.93,16.9-6.93,28.21,0,8.5-2.64,13-8.31,14.66-4.4,1.23-7.17,1.12-22.16-.45-14.48-1.56-24.17-1.79-35.5-.11-7.81,2.8-32.62,7.84-40.42,7.84-14,0-46.34-3.25-68.12-7.84a30.31,30.31,0,0,0-21.28,2.8c-5.17,2.58-8.94,5.6-17.5,13.43-7.94,7.17-12,10.3-17.38,12.88-8.94,4.25-14.1,8.62-16.87,13.77-2.27,4.25-2.9,8.73-2.9,17.12,0,4.93-3.4,7.5-11.84,10.86.13-.11-3.78,1.46-4.78,1.9-11.09,4.59-16,9.29-16,18.47,0,14-6.17,21.5-21.78,31.35L73,171.61c-2.39,1.45-4.16,2.57-5.92,3.69-1.13.79-2.26,1.46-3.27,2.24C54.77,183.81,50,193.78,44.2,214.82c-.76,2.91-4.15,15.67-5.16,19.14-1.89,7.28-4.16,14.44-6.55,21.61-1.76,5-5.67,16.9-6.3,18.47-1.26,3.8-2,5.48-3.15,7s-8.69,10.19-15.86,20.49L.25,311.32v-2.13L6,300.9c5-6.94,10.33-13.76,15.87-20.37a65.91,65.91,0,0,0,3-6.83c.63-1.56,4.53-13.43,6.3-18.47,2.27-6.72,4.28-13.54,6.55-21.6,1-3.47,4.28-16.35,5.16-19.15,5.79-21.15,10.7-31.34,20-37.83a39.86,39.86,0,0,1,3.4-2.24c1.77-1.12,3.53-2.24,5.92-3.7L78,167.24c15.36-9.62,21.28-16.79,21.28-30.33,0-9.74,5.28-14.89,16.74-19.48,1.14-.45,5-2,4.79-1.9,8.18-3.25,11.21-5.6,11.21-9.85,0-8.51.63-13.1,3-17.58,2.9-5.37,8.31-9.85,17.37-14.21,5.29-2.47,9.32-5.6,17.88-13.33,7.94-7.16,11.84-10.18,17-12.87a32.63,32.63,0,0,1,22.29-2.91c21.78,4.59,53.89,7.84,67.87,7.84,7.68,0,32.36-5,40.17-7.84,11.46-1.68,21.15-1.34,35.88.11s17.5,1.68,21.54.56c5.16-1.45,7.42-5.37,7.42-13.54,0-11.76,2-18.7,8.31-31.8Zm31.6,0h1.26c0,6.27.38,12.88.75,21.72.63,10.86.76,16.34.76,24.18,0,11-5.92,19.59-16.5,26-8.18,4.93-18.76,8.4-30.6,10.41-4.66.56-11.83.67-28.58.22-8.44-.22-11.84-.22-15.61-.22A27.44,27.44,0,0,0,324.22,84c-1.13.33-5.66,1.9-7.05,2.35-8.31,2.57-17.12,3.92-31.22,3.92-10.2,0-17.13-1.57-28.33-5.49l-4-1.34c-15.75-5.48-26.82-5.82-46.85,1.23-14,4.93-22.79,10.3-28.07,16.57-3.9,4.81-5.42,8.73-7.43,17.69-1.51,6.83-2.4,9.74-4.41,13.54a16.61,16.61,0,0,1-8.94,8.06c-2.9,1.23-5.41,1.68-11.71,2.46-11.33,1.46-16.12,3.47-19.64,10.75-4.66,9.52-9.7,15.56-17.88,22.17-3,2.46-16.5,12.31-20,15-10.33,7.94-17.38,19.47-23.55,35.82-1.51,3.92-2.9,7.95-4.15,12,0,.11-2.9,9-3.66,11.3-10.7,32.35-22.54,59.33-32.86,68.51C20.9,321.62,18,324.75,11.33,333A132,132,0,0,1,.13,345.46v-1.68a177.21,177.21,0,0,0,12-13.43c5-6.16,7.93-9.4,11.58-12.54,10.2-9.07,21.91-35.94,32.61-68.06.76-2.35,3.66-11.2,3.66-11.31,1.51-4.7,2.77-8.4,4.15-12,6.17-16.57,13.35-28.21,23.93-36.27,3.52-2.68,17-12.54,20-15a60,60,0,0,0,17.62-21.71,18.41,18.41,0,0,1,9.07-8.85c3-1.34,5.79-1.9,12-2.68,5.67-.68,8.19-1.24,11-2.36a15.64,15.64,0,0,0,8.31-7.5c1.89-3.69,2.77-6.6,4.28-13.32,2-9.06,3.65-13.21,7.68-18.13,5.41-6.5,14.35-12,28.58-17,20.27-7.16,31.6-6.83,47.72-1.23l4,1.46c11.08,3.92,17.76,5.37,27.83,5.37,14,0,22.67-1.34,30.85-3.92,1.26-.45,5.92-2,7.05-2.35a30.22,30.22,0,0,1,10.07-1.57c3.78,0,7.18.12,17.76.34,14.48.34,21.65.34,26.19-.22,11.58-2,22-5.38,30.09-10.3,10.33-6.16,16-14.45,16-25,0-7.83-.25-13.32-.88-25.41-.63-8.28-.88-14.55-.88-20.71ZM118.48.11H121a32.09,32.09,0,0,1-3.78,10.64c-2.9,4.92-3.52,6.49-6.67,14.55a45.3,45.3,0,0,1-2.39,5.6c-2.77,5.26-7.43,9.85-16.5,16-10.07,6.82-18,18.58-25.18,35.26-3,6.94-11.08,28.65-12.08,31.34C51,121.57,46.09,127.73,34.76,140l-3.4,3.58c-7.56,8.18-11.84,13.55-14.74,19.15S7.68,173.85.38,178.55v-2.69c6.42-4.36,11.46-9.29,14-14.1,3.15-5.93,7.43-11.3,15.11-19.7l3.41-3.69c11.2-12.09,16-18.13,19.26-25.86,1.13-2.58,9.07-24.3,12.09-31.35C71.65,64,79.7,52.05,90.28,44.89,99,39,103.38,34.59,106,29.67a27,27,0,0,0,2.27-5.38c3-8.28,3.77-9.85,6.8-14.89a28,28,0,0,0,3.4-9.29Zm11.34,0h1.25c-2.14,9.29-3.65,14.22-5.66,17.13a66.18,66.18,0,0,0-5.16,9.18c-1.64,3.36-3,6.94-4.41,10.52a33.5,33.5,0,0,1-3,6.05c-5.54,4.7-11,9.74-16.12,14.89a66.34,66.34,0,0,0-9.07,10.85C86.5,70.86,85,75.45,83.1,83.29c-.75,3.24-4.66,19.25-5.67,23.62C72.9,125.38,69.12,136.8,65,142.73c-9.7,14-13.35,17.57-46.72,46a90.81,90.81,0,0,1-18,12.2v-1.23a86.63,86.63,0,0,0,17.12-11.65c33.24-28.32,36.9-32,46.47-45.78,4-5.82,7.8-17.24,12.34-35.49,1.13-4.36,4.91-20.37,5.66-23.62,2-8,3.4-12.54,4.66-14.77,1.51-2.8,4.79-6.6,9.19-11.09l3.65-3.58c3-2.91,6.3-5.82,9.45-8.73l4.28-3.81a114.4,114.4,0,0,1,6-15.11,71.15,71.15,0,0,1,5.29-9.4c1.89-2.8,3.4-7.61,5.42-16.57Zm-24.18,0H107c-2.64,5.26-7.55,10-14.35,13.77A66.93,66.93,0,0,1,62,21.94c-11.21,0-14.86,7.84-14.74,24.07,0,1.9,0,3.58.13,6.72.13,3.69.13,5,.13,6.71A74.28,74.28,0,0,1,45,77.91a58.34,58.34,0,0,1-2.77,7.84c-2.9,5.93-5.79,11.87-8.82,17.8q-12.46,24.69-25,49.14a58.63,58.63,0,0,1-8.06,12v-1.79A62.83,62.83,0,0,0,7.3,152.13q16-31.07,31.73-62.46c.63-1.35,1.26-2.47,3-6.6a71.87,71.87,0,0,0,4.28-23.62c0-1.68,0-3-.12-6.6-.13-3.14-.13-4.82-.13-6.72,0-7.61.63-13,2.65-17.13,2.39-5.26,6.8-8.06,13.47-8.06a64.71,64.71,0,0,0,30.1-8C98.34,9.4,103.13,5,105.64.11Zm355.84,0h1.26c2.39,11.2,2.77,14.22,2.9,20.49a123.26,123.26,0,0,1,.5,31.12c-1.26,9.85-3.9,17.91-8.31,23.73-14.23,18.47-50.12,32.69-83.61,32.69-6.42,0-13.22.33-20.52.9-10.33.9-20.53,2.12-30.73,3.58-27.2,3.69-34.88,4.48-45.71,4.48-8.68,0-15.36-1.23-27.32-4.37l-3.53-.9c-1.76-.45-3.14-.78-4.53-1.12-10.07-2.35-17.88-2.24-27.32.79A20.13,20.13,0,0,0,203,120.68c-2,3.47-3.15,6.82-5,14.32s-2.9,10.64-5,14.1a20,20,0,0,1-12.47,9.4c-4,1.12-8.06,2.36-12,3.81-8.19,3.13-12.72,6.27-17.38,11.75-1.63,2-1.26,1.46-6.8,8.85-2.51,3.36-5.91,6.49-10.7,10.19-2.51,2-13.47,9.85-16.24,12-9.32,7.17-15.86,13.55-20.9,21.38-5.29,8.18-9.82,20.49-14.23,37.28-1.13,4.14-2.14,8.51-3.27,13.55l-1.51,6.49-1.39,6.16c-2.26,10.07-3.52,14.89-4.78,18.24C62.7,331,49.48,355.41,37.14,365.49c-6.42,5.26-10.2,7.95-14,10l-3.66,1.79c-.5.23-12.08,4.93-17.75,7.5l-1.51.56v-1.22l1-.45c5.66-2.57,17.25-7.16,17.75-7.39,1.26-.56,2.39-1.11,3.53-1.67,3.65-2,7.43-4.59,13.72-9.74,12.22-10,25.31-34.15,33.87-56.87,1.26-3.25,2.39-8.06,4.66-18l1.39-6.15c1.51-6.72,3-13.44,4.78-20.15,4.41-16.9,8.94-29.22,14.36-37.5,5.16-7.95,11.83-14.56,21.15-21.72,2.77-2.13,13.72-10,16.24-12a55.12,55.12,0,0,0,10.45-10c5.54-7.39,5.17-6.94,6.93-9,4.78-5.6,9.44-8.84,17.88-12.09,3.27-1.23,7.18-2.46,12.09-3.91a18.77,18.77,0,0,0,11.71-8.85c2-3.36,3-6.49,5-14.55,1.77-7.05,2.9-10.41,5-14a21.94,21.94,0,0,1,12.22-9.74c9.7-3.14,17.75-3.14,28.07-.9,1.39.33,2.9.67,4.66,1.12l4.66,1.23c10.7,2.8,17.25,4,25.82,4,10.82,0,18.51-.9,45.58-4.48,10.2-1.46,20.4-2.69,30.72-3.58,7.43-.56,14.23-.9,20.65-.9,33.12,0,68.62-14.1,82.6-32.24,4.28-5.6,6.93-13.55,8.19-23.17a127.32,127.32,0,0,0,0-26.76c-.26-1.9-.38-3.81-.76-5.71,0-4.92-.38-7.61-2.77-18.92ZM24.05.11h1.26a86.4,86.4,0,0,1-6.8,18.14,32.6,32.6,0,0,0-3,16.68c.25,4.81.88,8.62,2.9,18a123.47,123.47,0,0,1,2.39,13.66c1.26,10,.25,18-3.53,25.52C12,102.43,6.3,112.62.25,122.58v-2.35c5.54-9.4,10.83-18.92,15.74-28.55,3.78-7.27,4.66-15.11,3.4-25-.5-3.81-1-7-2.39-13.55-2-9.51-2.64-13.32-2.9-18.24A33.07,33.07,0,0,1,17.25,17.8C20.65,11.19,21.66,8.28,24.05.11Zm353.2,0a79.71,79.71,0,0,1-6.17,12.54,50.52,50.52,0,0,0-6.18,13.43l-.5,2L364,29.78a9,9,0,0,1-.88,2.35c-.88,1.12-2.39,1.46-6.42,1.34,1.13,0-12.47-.33-18.89-.33a240.57,240.57,0,0,0-37.14,2.91c-21.28,3-22.29,3.13-29.84,2.8a61,61,0,0,1-10.08-1.23c-22.28-4.7-58.17-6.6-68.87-3.36a44.44,44.44,0,0,0-12,6.27c-2.77,1.9-5.54,4-8.18,6.16-1.76,1.34-11.58,9.51-13.6,11-1.76,1.34-10.33,8.28-11.08,9-1.89,1.46-3.78,2.91-5.79,4.37-6.3,4.48-11.21,6.94-15,6.94-4.4.11-5.41,0-6.42-.45-1.38-.67-1.89-1.9-1.38-4,.88-4,5.66-12.09,16.11-27.76a118,118,0,0,0,14.86-29.33A101.52,101.52,0,0,0,153.24.11h1.26c-1.38,8.17-1.89,10.86-3.78,16.57-3,9.29-7.8,18.92-15,29.55-10.45,15.45-15.11,23.51-16,27.43-.38,1.57-.13,2.35.75,2.8s1.64.33,4.41.33c4.91,0,9.7-2.35,15.74-6.71q2.64-1.85,5.67-4.37c.88-.67,9.32-7.61,11.2-9.07s11.71-9.51,13.6-11a88.68,88.68,0,0,1,8.31-6.15c4.66-3.14,8.82-5.38,12.34-6.38,11.09-3.25,47.1-1.35,69.64,3.35a55.88,55.88,0,0,0,9.82,1.23c7.3.23,8.43.12,29.59-2.8A243.51,243.51,0,0,1,338.09,32c6.55,0,20.15.34,18.89.34,3.65,0,4.78-.22,5.41-.9a5.22,5.22,0,0,0,.75-1.9l.38-1.57.5-2.12a54.48,54.48,0,0,1,6.3-13.66A69.78,69.78,0,0,0,376.24.11Zm-10.83,0c-7.43,20-12,24.63-24.94,24.63-5.66,0-12.84.34-36.13,1.68l-1.89.11c-19.65,1.12-29.59,1.57-36.27,1.57S250.57,27,230.8,24.41l-1.89-.23c-23.16-3-30.34-3.92-36-3.92A25.79,25.79,0,0,0,179.05,24c-.12.11-2.26,1.34-2.9,1.68a16.23,16.23,0,0,1-8.43,2.46c-3.53,0-5.16-1.68-5.16-4.7a27.39,27.39,0,0,1,.63-4.59c.25-.9,1.13-4.93,1.38-5.93A81,81,0,0,0,166.46.11H169a89.05,89.05,0,0,1-1.89,13.21c-.25,1-1.13,5-1.38,5.93a22.38,22.38,0,0,0-.63,4.15c0,1.9.63,2.46,2.64,2.46,2.52,0,4.41-.67,7.18-2.13a32.25,32.25,0,0,1,2.9-1.57c5-2.8,9.06-4.14,15.11-4.14,5.79,0,13,.79,36.39,3.92l1.89.22c19.51,2.58,29.46,3.7,36,3.7s16.5-.45,36-1.57l1.89-.11c23.29-1.34,30.47-1.68,36.26-1.68,11.33,0,15.24-3.81,22.29-22.39Zm-188,0h1.39c-2.65,4.37-3.28,5.71-3.53,6.94s.5,1.79,2.9,2.24,4.91.34,13.73.34a260.91,260.91,0,0,1,26.94,1.79c5,.56,10.08,1.23,16.5,2.13,30.22,4.14,28.33,3.91,33.75,3.91,30.22,0,65.22-2.46,76-7.72,3.65-1.79,6.3-5,8.31-9.63h1.39c-2,5-5,8.62-9.07,10.53C335.7,16,300.57,18.58,270.1,18.58c-5.54,0-3.53.23-34-3.91-6.42-.9-11.59-1.57-16.5-2.13a231.41,231.41,0,0,0-26.7-1.79c-8.81,0-11.46-.12-13.85-.45-3-.45-4.28-1.46-3.9-3.47C175.28,5.6,176,4.25,178.42.11Zm96.2,0c7.18,1.79,13.1,2.8,17.76,2.8,12.09,0,21-.78,28.2-2.8h3.78c-7.93,2.8-17.88,3.92-32,3.92-5.67,0-13-1.34-22-3.92ZM89.27.11c-3.65,3.7-8.81,6.05-15.11,7.28A71.28,71.28,0,0,1,57.92,8.51H55.66c-6.8,0-11.21-1.34-12.72-5.6a7.23,7.23,0,0,1-.5-2.8H43.7a5.08,5.08,0,0,0,.5,2.46c1.26,3.59,5.16,4.82,11.46,4.82h2.26a69.08,69.08,0,0,0,16-1.12C79.58,5.15,84.24,3.13,87.64,0h1.64ZM.25,232.84c9.19-.22,14.48,3.7,14.48,12.43,0,12.76-6.42,31.79-14.48,46.46v-2.58c7.43-14.22,13.22-31.9,13.22-43.88,0-8.06-4.66-11.53-13.22-11.31v-1.12Zm0,7.84a6.08,6.08,0,0,1,3.65,1.46c1.76,1.67,2,4.14,1.51,8.5l-.25,1.46c-.25,1.46-.37,2.91-.5,4.37,0,3.58-1.89,10.63-4.4,17.8v-3.81c1.88-5.71,3.14-11.09,3.14-13.88a29.25,29.25,0,0,1,.5-4.48l.25-1.46c.5-4,.25-6.26-1.13-7.61a4.73,4.73,0,0,0-2.77-1.12v-1.23Zm0,219.41v-1.68A23.34,23.34,0,0,0,4,453.15a113.09,113.09,0,0,0,5.79-13.32c9.82-26.31,9.82-29.78.25-34a17.72,17.72,0,0,0-9.82-1v-1.12a18,18,0,0,1,10.33,1.12c10.32,4.59,10.45,8.51.25,35.37-2.39,6.39-4,10.42-5.79,13.44A21,21,0,0,1,.25,460.09Zm42.31,46c2.14,0,3.78-.22,10.45-1.45l3-.56c10.45-1.8,16-1.46,18.26,2.57,1.76,3.13-.63,6.6-6,10.86-2,1.57-4.16,3.13-6.42,4.59-1.14.78-6.17,4-7.3,4.81a26.75,26.75,0,0,0-4.41,3.36,20.87,20.87,0,0,0-3.65,6.16c.12-.23-5,15.22-8.82,24.85-3.4,8.84-7,12-11.08,9.63-2.64-1.57-4.66-4.7-8.31-12.32A84.18,84.18,0,0,0,14,550.32c-5.79-9.18-4.91-26.76-.13-36.83a12.16,12.16,0,0,1,8.82-6.72c3.27-.78,6.17-.9,14.86-.78Zm0,2.24H37.78c-15.24-.11-18.64.67-21.28,6-4.54,9.52-5.42,26.31-.13,34.82,1.26,1.9,1.89,3.24,4.41,8.51,3.4,7,5.28,10.18,7.43,11.3s4.4-.9,7.3-8.4c3-8.28,6-16.57,8.81-24.85a20.94,20.94,0,0,1,4-6.72,22.11,22.11,0,0,1,4.91-3.8c1.13-.79,6.17-4,7.3-4.82,2.52-1.68,4.53-3.13,6.3-4.47,4.53-3.59,6.42-6.39,5.41-8.18-1.51-2.68-6.42-2.91-15.61-1.45l-2.9.56c-7,1.23-8.82,1.45-11.21,1.45ZM477.85,671.78c-4.41-13.77-4.78-15.79-4.78-21.27,0-3.7-.13-7-.5-12.65-.76-11.53-.76-15.11.37-19.15,1.51-5.26,5.29-7.94,12.22-7.94H517.9c5.16,0,6.54,2,7.43,7.94a6.47,6.47,0,0,0,.25,1.46c1,5.93,3.52,8.51,11.2,8.51,4.54,0,6.93.45,8.06,1.57,1,.9,1,1.56.5,4.36-1.13,5.93.63,9.85,9.45,15.45,7.93,5,14.6,6,20.77,3.81,4.79-1.68,8.44-4.7,15-11.2l1.38-1.34,1.39-1.34c1.13-1.12,2.26-2.13,3.4-3.25a43,43,0,0,1,12.09-7.5,70.76,70.76,0,0,1,7.17-2.91c7.68-3,11.33-5,14.73-8.51a34.71,34.71,0,0,1,8.44-6.72c4-2,6.93-2.35,17.25-2.35,7.56,0,13.35-4.82,22.66-16.79l3.53-4.48c1.39-1.68,2.39-3,3.53-4.26,9.94-11.3,24.42-11.64,38.65,1.12,6.93,6.16,12.85,21.72,17.13,43.1,3.15,15.45,5.29,33,5.66,44.56H746.3a294,294,0,0,0-5.67-44.44C736.35,606.4,730.56,591,723.76,585c-13.85-12.2-27.45-12-36.89-1.12-1,1.23-2.14,2.57-3.53,4.25l-3.52,4.48c-9.7,12.31-15.62,17.24-23.68,17.24-10.07,0-12.84.34-16.62,2.24a34.73,34.73,0,0,0-8.18,6.49c-3.65,3.7-7.43,5.71-15.24,8.85-2.39.9-4.78,1.9-7.05,2.91a48.39,48.39,0,0,0-11.71,7.27c-1.64,1.46-3.27,3-4.78,4.48l-1.39,1.34c-6.67,6.72-10.45,9.63-15.49,11.42-6.67,2.35-13.72,1.35-22-3.92-9.19-5.82-11.08-10.3-9.95-16.56.38-2.36.38-2.91-.12-3.47-.76-.79-2.91-1.12-7.18-1.12-8.31,0-11.33-2.91-12.47-9.4l-.25-1.46c-.88-5.37-1.89-6.94-6.17-6.94H484.78c-6.3,0-9.57,2.24-11,7-1.13,3.81-1.13,7.39-.25,18.81.38,4.25.5,8.51.5,12.76,0,5.38.38,7.39,4.78,21.27l-1-.11Zm17.25,0c-1.63-7.39-2-12-1.76-16.57a26.89,26.89,0,0,1,.25-2.69l.25-2.91c.38-4.25.63-7.84.63-12.54,0-5.48,1.89-8.73,5.29-9.4,3-.67,7.05.56,11.59,3.36,8.31,5,17.62,14.66,20.77,21.49,6,12.76,17.76,17.58,42.18,17.58,10.83,0,18-2.58,26.06-8.84,1.89-1.46,19-16.8,26.45-22.39,9.06-6.83,14.85-8.51,25.94-9.29,6.92-.56,10.07-1,14.35-2.69,5.79-2.24,11.84-6.16,18.76-12.65,9.32-8.73,16.62-10,22-4.82,4.15,4,6.92,11.87,8.56,22.62.88,5.82,1.13,8.62,2,19.48.26,4.25.26,5.93-1.13,20.15h-1.26c1.39-14.22,1.51-16,1.13-20.15-.75-10.75-1-13.66-2-19.37-1.64-10.64-4.28-18.25-8.31-22-4.79-4.59-11.21-3.47-20.15,4.81-7.17,6.6-13.22,10.64-19.14,12.87-4.53,1.68-7.68,2.24-14.6,2.69-11.08.79-16.62,2.47-25.44,9.07-7.43,5.6-24.55,20.93-26.44,22.39-8.18,6.38-15.74,9.07-26.82,9.07-24.93,0-37.14-4.93-43.44-18.25-3.15-6.72-12.21-16.12-20.4-21-4.28-2.57-8.06-3.69-10.58-3.24-2.77.56-4.28,3.24-4.28,8.4,0,4.81-.25,8.4-.63,12.65l-.25,2.91c-.13,1-.13,1.9-.25,2.57-.25,4.59.12,9.18,1.76,16.57l-1.13.23Zm143.17,0c3.15-3.7,11.21-13.21,13.72-16,6.93-7.84,16.37-13.88,24.43-15.56,8.82-1.9,14.48,1.68,14.48,10.3,0,4.48,0,5.82-.88,21.27h-1.26c.88-15.45.88-16.79.88-21.27,0-8-4.91-11-13-9.29-7.68,1.68-17,7.61-23.67,15.22-2.39,2.69-9.57,11.31-13.1,15.34ZM625.8,292.4a143.67,143.67,0,0,0,14.35,8.73c1.39.67,10.58,5.49,13,6.83,14.23,7.84,18.89,15,15.49,28.32-1.89,7.28-5.67,12.43-11.84,16.12-4.78,2.91-10.2,4.82-20.27,7.39-15.11,3.92-17.25,4.48-23.67,7a79,79,0,0,0-9.82,4.7c-14,7.95-24,8.62-35.26,3.7-4.53-2-21.66-12.32-21.66-12.32-2.14-1.23-4.28-2.35-6.54-3.47-20.15-9.85-43.19-27.09-43.44-35.71-.13-3.91,2.51-7.38,7.93-11.53,1.26-1,2.77-2,4.66-3.35.88-.56,4.28-2.92,4.91-3.36,5.67-3.81,9.06-6.5,11.71-9.52,14-15.45,33.37-32.13,43.31-36.16,15.24-6.15,24.93-6.49,34.5.12,4,2.8,7.06,7.27,10.83,15,.38.67,2.9,6,3.65,7.5,2,4,3.66,6.49,5.29,7.72a27.32,27.32,0,0,1,2.9,2.24Zm-4.28-.34c-2-1.56-3.78-4.14-6-8.62-.75-1.45-3.27-6.83-3.65-7.61-3.52-7.27-6.42-11.53-10.07-14.1-8.56-6-17.5-5.71-31.86.11-9.44,3.81-28.58,20.27-42.3,35.49-2.91,3.13-6.43,5.93-12.22,9.85l-4.91,3.36c-1.51,1-3,2.13-4.53,3.24-4.91,3.7-7.18,6.72-7.05,9.74.25,7.39,22.79,24.3,42.18,33.7,2.26,1.12,4.41,2.24,6.67,3.47.13.12,17.13,10.3,21.41,12.2,10.32,4.59,19.52,3.92,32.74-3.58a82.55,82.55,0,0,1,10.2-4.81c6.54-2.69,8.81-3.25,24-7.17,9.82-2.46,15-4.25,19.51-7.05a23.13,23.13,0,0,0,10.83-14.78c3-12.31-1-18.58-14.48-26-2.39-1.34-11.58-6-13-6.83a129.83,129.83,0,0,1-14.61-8.84,11.92,11.92,0,0,1-2.9-1.8ZM110.68,270.57a93.2,93.2,0,0,1,15.24-7.73,36.42,36.42,0,0,1,3.52-1.34l5.54-2.13a193.88,193.88,0,0,0,22.29-10.07c11.33-5.93,23-11.31,35.13-16.23,5.29-2.13,27.58-11,26.69-10.64,24.18-9.62,35.39-7.72,62.33,9.07a49.58,49.58,0,0,1,20.65,25.41c3.78,9.85,4.79,18.47,4.79,31.12,0,9.29-.88,14.55-4.66,21.27-5.29,9.4-15.49,18-32.24,26.31-30.72,15.11-48.85,30.78-66.48,53.51-11.08,14.33-60.19,49.48-82.1,60.56-26.7,13.43-59.56,24.51-82.1,24.51-12.59,0-18.51-5.37-18.64-15-.12-7.05,2.65-15.33,7.94-27.2,3.77-8.28,2.51-14.44-2.77-25-4-8.06-4.92-10.19-4.92-14s2.4-7.73,6.93-12.43c3.27-3.36,4.41-4.25,15-12.87,6.43-5.26,10.2-8.51,13.48-12.09,12-12.76,15.87-21.83,22.54-50.15,3.9-16.79,8.31-22.73,19-28.32,1-.56,4.91-2.47,5.91-3a42.91,42.91,0,0,0,6.93-3.59Zm.76.9c-2.27,1.34-4.54,2.69-6.8,3.8l-5.92,3c-10.33,5.37-14.61,11-18.51,27.53-6.68,28.55-10.7,37.73-22.79,50.6a128.83,128.83,0,0,1-13.6,12.09C33.24,377,32.23,378,29,381.29c-4.41,4.47-6.68,8.28-6.68,11.64,0,3.58.89,5.71,4.79,13.54,5.41,10.75,6.55,17.24,2.77,25.86-5.29,11.76-7.93,19.93-7.81,26.76.13,9.07,5.42,13.88,17.38,13.88,22.29,0,55-11.08,81.59-24.52,21.79-11.08,70.64-46.12,81.6-60.33,17.75-22.84,36-38.74,67-54,16.5-8.06,26.57-16.68,31.73-25.75,3.66-6.6,4.54-11.64,4.54-20.71,0-12.42-.88-20.93-4.66-30.67a49.15,49.15,0,0,0-20.27-24.85c-26.57-16.57-37.4-18.36-61.07-8.85.88-.33-21.41,8.51-26.7,10.64-2.14.9-4.15,1.79-6.17,2.57-9.82,4.14-19.51,8.73-28.83,13.66a207.26,207.26,0,0,1-22.41,10.07l-5.54,2.13c-1.26.45-2.39.9-3.53,1.34a111,111,0,0,0-15.23,7.72Zm-9.57,13.66c9.7-6.95,15.48-9.18,29.84-12.65,7.68-1.9,11.46-3.25,15.49-6.39,4.78-3.69,9.44-5,20-6.82,3.52-.56,4.66-.79,6.42-1.12,6.92-1.35,12-3.25,16.5-6.6,13.1-9.52,32-15.79,45.71-15.79,6.67,0,21.15,8.51,32.36,19.26,13.47,12.87,20.14,26.08,16,36.38s-14.36,20.82-29,31.23A203.69,203.69,0,0,1,223.5,341c-4.66,2.13-8.31,5.49-12.34,11.2-.88,1.23-14,22.61-20.15,31.12-7,9.62-19.39,19.47-38,31.34-3.78,2.46-7.68,4.81-11.59,7.16-.12.12-8.56,5.15-10.83,6.6-8.18,5-13,8.29-16.5,11-14.6,12-46.71,17.35-55,10.08-2.52-2.24-2.77-4.59-2.52-11.76.5-10.52-.63-16.23-6.3-22.94A42.42,42.42,0,0,0,41.42,407c-4.91-3.36-7.68-6.83-8.31-10.63C31.86,389,38,381.73,51,372.1c2-1.45,8.44-6.05,8.94-6.49a58.16,58.16,0,0,0,6.55-5.38c5.16-5.14,7.3-10.63,9.82-22.5.38-1.67.63-3.24,1-4.92.37-2.13.75-3.7,1.13-5.26.88-4.26,1.89-8.06,3-11.87,1.26-4.25,1.76-6.16,3-11.64.76-3.36,1.14-4.7,2-6.16,1.51-2.68,1.51-2.8,15.36-12.76Zm.75.9c-13.6,9.74-13.72,9.85-15.11,12.42-.75,1.34-1.13,2.58-1.89,5.82-1.26,5.49-1.76,7.39-3,11.65-1.13,3.8-2.14,7.61-3,11.86-.63,2.58-1.13,5.15-1.64,7.84l-.5,2.35c-2.52,12-4.78,17.57-10.07,22.95a59.52,59.52,0,0,1-6.68,5.48c-.5.34-6.92,5-8.94,6.49-12.59,9.4-18.51,16.35-17.37,23.29.63,3.47,3,6.72,7.81,9.85a38.83,38.83,0,0,1,9.06,8c5.79,6.94,6.93,12.87,6.55,23.62-.25,6.83,0,9.06,2.14,11,7.68,6.83,39,1.45,53.26-10.08,3.53-2.8,8.44-6,16.62-11.08l10.83-6.6c4.54-2.8,8.06-4.93,11.59-7.16,18.51-11.76,30.72-21.5,37.77-31,6.17-8.4,19.27-29.89,20.15-31.12,4.15-5.94,7.93-9.4,12.84-11.65a200.6,200.6,0,0,0,31.48-18.24c14.48-10.3,24.68-20.71,28.58-30.68s-2.51-22.72-15.74-35.26c-11.08-10.52-25.18-18.8-31.48-18.8-13.47,0-32,6.15-45,15.56-4.78,3.47-9.94,5.37-17,6.82-1.76.34-3,.56-6.42,1.12-10.32,1.79-14.86,3-19.39,6.6-4.16,3.25-8.06,4.7-16,6.6-14.23,3.47-19.9,5.6-29.47,12.43Zm164.57-3.93c0,8.51-.75,12.2-3.27,16-1.39,2-9.7,11.19-10.83,12.65-7.55,8.84-11.71,11.53-21.78,15.45a35.29,35.29,0,0,0-3.78,1.67A23.57,23.57,0,0,1,225,329c-.88.34-5.66,2.13-6.92,2.69-7.56,3.13-11.33,6.49-11.33,12,0,12.31-23.93,40.41-43.45,50.26-10.32,5.15-26.82,10.52-41.3,13.32-16.74,3.25-28.33,2.8-31-2.57-1.64-3.36-5.54-4.82-15.11-6.5l-.76-.11c-6-1.12-8.68-1.68-11.33-2.91-3.65-1.68-5.66-4.14-5.66-7.61,0-3,1.38-6.49,4-10.86,1-1.68,2.26-3.47,4-6-.25.22,3.53-4.93,4.66-6.5,8.44-12,12.34-20.71,12.34-30.45,0-20.6,14.1-37.38,34.63-48,6.55-3.47,11.58-3.69,19.14-2.35,6.3,1.12,7.68,1,9.32-1.68,5.66-8.84,8.81-10.63,20-10.63a25.34,25.34,0,0,0,13.22-3.59c2-1.12,10.95-6.94,13.85-8.62,11.58-6.71,14.23-7.83,31.73-13.32,8.69-2.8,19.14,1.46,28.08,10.19,8.31,7.95,14,18.47,14,26.42Zm-2.51,0c0-7.28-5.29-17.35-13.23-25-8.43-8.18-17.88-12-25.43-9.63-17.25,5.48-19.77,6.6-31.23,13.21-2.77,1.68-11.83,7.5-13.85,8.62a27.71,27.71,0,0,1-14.48,3.92c-10.2,0-12.59,1.34-17.75,9.51a7,7,0,0,1-5.42,3.47c-1.63.11-2.39.11-6.54-.67-6.93-1.23-11.46-1-17.38,2.13-19.9,10.07-33.49,26.19-33.49,45.9,0,10.3-4.16,19.36-12.85,31.68l-4.66,6.49c-1.76,2.46-2.9,4.25-4,5.82-2.51,4-3.77,7.16-3.77,9.74,0,4.7,3.65,6.38,15,8.4l.76.11c10.45,1.9,14.73,3.47,16.87,7.84,4,7.95,45.33,0,68.75-11.76,18.89-9.4,42.18-36.94,42.18-48.24,0-6.6,4.41-10.64,12.84-14,1.39-.56,6.17-2.35,6.93-2.68a20.91,20.91,0,0,0,2.27-1c1.13-.56,2.39-1.12,4-1.79,9.57-3.81,13.6-6.16,20.77-14.67,1.26-1.56,9.45-10.52,10.7-12.42,2.39-3.59,3-6.94,3-15ZM217.83,257c.13-.11,3-1.67,3.78-2a23.15,23.15,0,0,1,3-1.34c3.28-.9,6.43-.12,13.85,3.47,18.77,8.95,24.43,25.63,11.59,43.32-5,6.94-11.84,10.07-23.55,12.42-1.13.23-1.51.34-3.9.79-7.55,1.45-11.08,2.35-14.6,4a18,18,0,0,0-9.45,10.52c-9.94,27.88-24.8,48.47-45.71,56.31-20.65,7.72-26.56,9.52-35.25,10a49.71,49.71,0,0,1-19.39-3.24,55.59,55.59,0,0,1-7-2.91c-5-2.58-6.43-5.26-5.67-10.42.38-2.35,4.79-17.35,6-23.06.76-3.35,1.52-6.83,2.27-10.86.63-3.35,1.13-6.6,1.64-10,1.76-10.52,3.15-16,5.66-20.82a24.19,24.19,0,0,1,14.74-12.43c8.31-2.8,13.22-3.47,22.66-3.91,6-.34,8.44-.68,11.33-2.24a25.76,25.76,0,0,0,2.27-1.46,42.88,42.88,0,0,0,4.28-3.8c.75-.79,3-3.25,3.27-3.59,4.28-4.47,7.94-6.15,15.49-6.15,4.91,0,7.43-1,10.33-3.81-.26.22,3.52-3.47,4.91-4.7a35.22,35.22,0,0,1,8.56-5.6c1.89-.9,3.9-1.79,6.3-2.69A136.52,136.52,0,0,0,217.84,257Zm-18.25,9.3a38.73,38.73,0,0,0-8.31,5.37c-1.64,1.57-3.28,3.13-4.79,4.7-3.15,2.91-5.92,4.14-11.21,4.14-7.17,0-10.57,1.57-14.6,5.82-.25.34-2.52,2.8-3.28,3.58a34.14,34.14,0,0,1-4.4,3.92c-.88.56-1.64,1.12-2.52,1.57-3.15,1.68-5.79,2.13-12,2.46-9.32.45-14.1,1.12-22.29,3.92a23.18,23.18,0,0,0-14.1,11.87c-2.39,4.81-3.78,10.18-5.54,20.6l-.88,4.81-.88,5.15c-.76,4-1.39,7.5-2.27,10.86-1.38,5.82-5.66,20.71-6,23.06-.76,4.7.38,6.94,5,9.29a44.14,44.14,0,0,0,6.92,2.8,49.09,49.09,0,0,0,18.89,3.13c8.43-.33,14.23-2.12,34.88-9.85,20.4-7.61,35.13-28,44.95-55.63a18.8,18.8,0,0,1,10.07-11.2c3.65-1.79,7.18-2.8,15-4.25,2.39-.45,2.9-.56,3.9-.79,11.45-2.35,17.88-5.26,22.79-12,12.46-17.13,7.05-33.14-11.08-41.76-7.3-3.47-10.08-4.25-12.85-3.47a11.83,11.83,0,0,0-2.77,1.23c-.75.34-3.52,1.9-3.65,2a93.21,93.21,0,0,1-12.84,5.82c-2.27,1-4.28,1.9-6.17,2.8Zm-53.39,36.6c20.27-3.25,33.24-1.12,40.92,6.94,6.42,6.6,1.39,24-7.43,39.74-6,10.75-13.34,18.14-29.21,28.21-17.88,11.31-44.7,13.66-51.25,4.37-2.39-3.36-2.64-9.07-1.38-17.58,1-6.38,2.39-12,5.92-25.75l.12-.56c2-7.61,3-11.53,3.9-15.78,1.76-8.06,4.66-12.87,9.19-15.34,3.53-2,6.93-2.57,15.49-2.91a123.89,123.89,0,0,0,13.73-1.34Zm.25,1.12a95.56,95.56,0,0,1-13.72,1.12c-8.31.33-11.59.9-14.86,2.8-4,2.35-6.8,6.83-8.56,14.66-1,4.26-2,8.29-4,15.9l-.13.56c-3.65,13.66-4.91,19.37-5.92,25.64-1.26,8.28-1,13.88,1.14,16.9,6,8.62,32.1,6.38,49.48-4.59,15.61-10,22.79-17.24,28.71-27.76,8.69-15.34,13.6-32.47,7.68-38.63-7.43-7.72-19.9-9.73-39.79-6.6Zm20,5.6c8.94,0,13.47,3.47,14.1,9.74.5,4.48-.5,9.07-3.52,17.8-3.28,9.51-23.17,28.43-34.25,35-8.82,5.26-25.19,6.38-33.5,1.11-5-3.24-4.4-13.54,0-29.66.88-3.13,1.89-6.27,3-9.85,1.25-3.81,2.51-7.61,3.9-11.31l.5-1.34c1.88-5.37,6.42-8.73,13.47-10.41,5.54-1.34,12-1.68,22-1.46l4.91.12c4.92.22,6.81.22,9.33.22Zm0,1.12c-2.52,0-4.41,0-9.32-.11l-4.91-.12c-9.82-.22-16.24.12-21.65,1.46-6.68,1.57-11,4.7-12.6,9.63-.63,1.9-1.38,3.91-2,5.82-.88,2.46-1.64,4.7-2.27,6.83q-1.7,5.21-3,9.74c-4.28,15.56-4.91,25.63-.5,28.43,7.81,4.93,23.55,3.92,32-1.12,11-6.49,30.6-25.19,33.75-34.37,2.9-8.62,3.9-13.1,3.4-17.46-.63-5.71-4.53-8.73-12.84-8.73Zm-22.41,7.83a44.55,44.55,0,0,1,10.83,1.57c6.8,2,11,5.6,11,11.31,0,10.74-12,19.25-28.08,24.06-12.34,3.7-17.12-2-14.73-18.47A19.88,19.88,0,0,1,133.35,322a29.66,29.66,0,0,1,10.7-3.36Zm-.76,1.23a25.86,25.86,0,0,0-9.19,3,18.75,18.75,0,0,0-9.82,14.33c-2.39,15.78,1.76,20.71,13,17.35,15.74-4.7,27.32-12.88,27.32-22.95,0-5.15-3.77-8.4-10.07-10.19a40.1,40.1,0,0,0-10.32-1.56,1.19,1.19,0,0,0-.89,0Zm101.87-26.3c-3.4,11-18.76,11.08-33.62,3.69-12.84-6.27-17.38-20.15-6.3-25.63q2.83-1.35,5.67-3l2.52-1.45c1.63-.9,3.27-1.79,4.91-2.58,5.92-2.68,11.08-3.13,17.63-.78,11.58,4.14,13.85,15,9.19,29.78ZM219,265.64c-1.64.79-3.28,1.57-4.79,2.47l-2.51,1.45c-1,.56-1.89,1-2.77,1.57s-2,1.12-3,1.57c-9.94,4.92-5.79,17.68,6.3,23.62,14.23,7.05,28.71,6.94,31.86-3,4.53-14.33,2.39-24.62-8.44-28.43a20,20,0,0,0-16.62.78Zm22.41,13.55c0,6.38-3,10.07-8.31,11.19-4.15.9-9.57,0-14-2l-2.39-1a10,10,0,0,1-2-1c-5.17-2.68-5.17-5.6.37-12.2,8.57-10.18,26.32-8.06,26.32,5Zm-1.26,0c0-5.93-3.65-9.63-9.19-10.3a17.21,17.21,0,0,0-14.86,5.82c-5.16,6.16-5.16,8.28-.75,10.64.5.22,1.13.56,2,1l2.39,1c4.16,1.9,9.32,2.69,13.1,1.9,4.66-1,7.3-4.14,7.3-10.08ZM487.55,593.75c0-14.33,3-18.69,23.29-33.36a73.56,73.56,0,0,1,9.57-5.82,111.9,111.9,0,0,1,10.7-4.7c1.51-.56,3.15-1.12,5.16-1.9l4.92-1.79c11.83-4.25,17.25-7.5,20.9-13.43a74.78,74.78,0,0,0,4-7.62c.63-1.45,1.26-2.91,1.89-4.25l.38-.78.76-1.57c4-9,7.55-13.55,16-18.47a47.94,47.94,0,0,0,6.3-4.48,47.44,47.44,0,0,0,4.91-4.81c.38-.34,3.15-3.59,4-4.48,4.4-4.59,8.18-6.6,14.48-6.6,3.9,0,7-.67,12.09-2.35,6.8-2.24,8.18-2.58,11.33-2.47a14.41,14.41,0,0,1,9.06,4c1.64,1.46,6.93,6.5,8.19,7.62,6.42,5.6,11.83,7.72,22.41,7.72,5,0,10.2.22,15.24.56,20,1,27.57.67,31.85-2.46,8.69-6.5,14.61-3,14.61,8.73,0,12-10.83,22.39-23.92,22.39-6.05,0-10.45,1.57-11.71,4.14-1.39,2.8.88,6.83,7.55,11.87,17.13,12.65,14.1,23.28-9.57,23.28a30.31,30.31,0,0,0-18.38,5.82c-4.16,3-7.3,6.6-12.34,13.21l-1.89,2.46c-3.9,5.15-6.3,8-9.19,10.53-7.81,6.94-11.71,8.5-16.37,7.72l-1.26-.22a17.8,17.8,0,0,0-3.4-.45c-2,0-3,.78-10.33,6.94-6.17,5.26-10.2,7.61-14.85,7.61-1.64,0-4.41,1.34-8.19,3.92-1.64,1.12-3.4,2.35-5.67,4.14l-6.17,4.82c-1.88,1.45-3.77,2.91-5.66,4.25-11.71,8.51-19.65,11.42-25.44,7.28-3.4-2.47-5.16-5-5.79-8.18-.5-2.23-.38-4,.38-8.17,1.13-6.49.75-9.4-2.27-13-2.9-3.36-3.77-3.58-4.78-2.69-.25.34-1.76,1.79-2,2.13-2.77,2.8-6.17,4-11.33,3.13-5.79-.9-7-4.59-5.92-11.31l.26-1.79c.75-4.14.88-5.48.25-6.49s-2.39-1-6.55.45l-.88.33c-17.38,6.16-19.27,6.83-24.43,7.5-8.06.91-12.21-1.9-12.21-9Zm2.51,0c0,5.6,2.65,7.39,8.82,6.6,4.91-.56,6.8-1.23,23.92-7.28l1-.33c5.29-1.9,8.44-1.68,9.82.67.88,1.57.76,3.13-.13,7.84l-.25,1.68c-.88,5.6-.12,8.17,3.9,8.73,4.28.67,6.8-.23,8.94-2.47.68-.78,1.39-1.52,2.14-2.23,2.4-2.24,4.79-1.35,8.57,2.8s4,7.61,2.77,14.66c-1.26,7.61-.63,10.52,4.53,14.22,4.41,3.13,11.46.56,22.29-7.28,1.76-1.23,3.52-2.57,5.66-4.25l6.17-4.82c2.27-1.79,4.16-3.13,5.79-4.25,4.16-2.91,7.18-4.37,9.7-4.37,3.78,0,7.56-2.12,13.1-6.94l3.15-2.68a25.3,25.3,0,0,1,3-2.36c2.27-1.67,4.16-2.57,5.92-2.57a17.1,17.1,0,0,1,3.9.45,3.88,3.88,0,0,0,1.26.22c3.78.67,6.93-.56,14.1-7a69.29,69.29,0,0,0,8.94-10.19l1.89-2.46c5.29-6.83,8.56-10.52,12.84-13.66a32.26,32.26,0,0,1,20-6.38c21.28,0,23.42-7.83,8.06-19.25-7.43-5.49-10.2-10.53-8.18-14.44,1.76-3.47,7.18-5.38,14.1-5.38,11.58,0,21.4-9.29,21.4-20.15,0-10-3.65-12.09-10.57-6.94-4.91,3.7-12.6,4-33.62,3l-1.26-.11c-6.42-.33-10.07-.45-13.85-.45-11.21,0-17.38-2.35-24.18-8.4-1.26-1.11-6.67-6.15-8.18-7.61a11.78,11.78,0,0,0-7.43-3.36c-2.52-.11-3.9.23-10.2,2.36-5.17,1.67-8.69,2.46-13,2.46-5.42,0-8.56,1.68-12.59,5.82-.76.78-3.66,4-4,4.48a68.34,68.34,0,0,1-5,5,41.42,41.42,0,0,1-6.55,4.7c-7.93,4.7-11.2,8.85-15.11,17.47l-.75,1.56-.38.79c-.63,1.45-1.26,2.91-2,4.36-1.26,2.69-2.64,5.27-4.15,7.84-4,6.6-9.82,10.08-22.16,14.55l-4.91,1.79c-2,.68-3.53,1.24-5,1.9-3.53,1.35-7,2.92-10.45,4.59a96.62,96.62,0,0,0-9.32,5.6c-19.77,14.1-22.41,17.92-22.41,31.46Zm167.72-89.22c3.9,1.68,8.19,2.24,13.48,1.9a79.67,79.67,0,0,0,11.08-1.68c6.8-1.34,7.93-1.56,10.45-1.68,3.53-.22,6,.23,7.93,1.57s2.52,3,1.64,4.7-1.26,1.9-6.3,5.71c-4.41,3.25-6.3,5.37-6.3,8,0,8.17,1.64,11.19,9.82,17.46,4.91,3.69,7.43,7.61,6.67,10.75-1,3.58-6.29,5.6-15.86,5.6-9.07,0-16,5.15-25.18,16.45-.63.79-5,6.27-6.17,7.73a48.47,48.47,0,0,1-5.92,6.15,17.85,17.85,0,0,1-3.9,2.47c-3.53,1.45-6.3,1.79-12.34,1.9-9.7.33-13.73,1.68-18.89,8a54,54,0,0,1-5.92,6.27,57.78,57.78,0,0,1-10.83,7.5c-.12.11-13.47,6.94-18.63,9.85-4.79,2.68-8.19,2.24-10.33-.9-1.63-2.24-2.39-5-3.65-11.53-1-5.71-1.64-7.95-2.64-10-1.26-2.57-2.77-3.58-5-3.24-7.81,1.34-11.33,1.56-13.85.22-3-1.57-3.9-5.15-3.27-12,.25-2.24-1.26-3.24-4.79-3.36-2.77-.11-6.17.23-12.46,1.24l-.89.11c-10.07,1.68-13.47,1.9-16,.78-3.65-1.57-2-5.93,5.29-13.65,6.93-7.28,13.35-12.1,19.9-15.12,4.66-2.24,7.43-2.91,15.36-4.59,9.19-1.9,13.1-3.92,17.63-10.41,3.77-5.37,13.47-20.82,15.23-23.28,4.54-6.38,8.56-10.19,13.85-12.65a94.93,94.93,0,0,0,11.59-6.83l1.76-1.12c10-6.38,15.49-9,22.29-9,5.29,0,8.18,1.57,11.46,5.38.37.44,2.14,2.46,2.51,3a19.84,19.84,0,0,0,3.15,3.13,36.08,36.08,0,0,0,8.06,5.15Zm-.5,1a30.39,30.39,0,0,1-8.68-5.6,26.88,26.88,0,0,1-3.15-3.25c-.5-.56-2.14-2.46-2.52-3-3.15-3.58-5.67-4.92-10.45-4.92-6.42,0-11.84,2.46-21.53,8.73l-1.77,1.12a86,86,0,0,1-11.71,6.83c-5.16,2.35-9.06,6.15-13.47,12.31-1.76,2.46-11.58,17.91-15.23,23.28-4.79,6.83-8.94,9-18.51,11-7.69,1.67-10.46,2.35-15,4.47-6.3,3-12.59,7.73-19.52,14.89s-8.18,10.86-5.66,12c2.14.9,5.66.67,15.23-.9l.89-.11c6.42-1,9.82-1.46,12.84-1.23,4,.22,6.17,1.68,5.92,4.59-.63,6.49.25,9.62,2.64,11,2.14,1.12,5.41,1,13-.34,3-.56,5,.9,6.42,3.92,1,2.24,1.64,4.48,2.65,9.85l.12.45c1.13,6.38,1.89,9.07,3.4,11.19,1.89,2.58,4.41,2.91,8.56.56,5.17-3,18.51-9.85,18.64-9.85a55.59,55.59,0,0,0,10.7-7.27,47.51,47.51,0,0,0,5.79-6.16c5.42-6.72,9.82-8.06,19.77-8.4,5.92-.23,8.56-.56,12-1.9a14.46,14.46,0,0,0,3.53-2.24,39.94,39.94,0,0,0,5.79-6.05c1.26-1.45,5.54-6.94,6.17-7.72,9.44-11.53,16.62-16.9,26.19-16.9,9.07,0,13.85-1.79,14.61-4.7.63-2.58-1.77-6.16-6.3-9.63-8.57-6.49-10.33-9.85-10.33-18.36,0-3,2-5.26,6.8-8.84s5.29-4,6.05-5.26.25-2.24-1.26-3.36c-2.77-2.13-5.92-1.79-17.38.45a80,80,0,0,1-11.21,1.68c-5.28.11-9.94-.45-14-2.24ZM622,501.17c7.05-3.13,11.33-2.46,16.24,1.57.76.56,3.27,2.8,3.78,3.25,5.29,4.36,10.2,6.38,18,6.38,14.36,0,17.63,1.57,20.28,9.07.37.9,1.63,5.14,2.14,6.26a79,79,0,0,0,3.4,8.51c2.64,5.82,3.27,9.29,2.14,11.42-1,1.79-2.65,2.46-6.8,3.13a22.45,22.45,0,0,0-4.79,1,14.7,14.7,0,0,0-5.79,3,54.16,54.16,0,0,0-4.15,4.15c-.76.78-3.66,3.91-4.41,4.59C653,573,646.45,577.3,637.39,577.3c-4.79,0-8.82,1.45-13.35,4.47-2.26,1.57-14.6,11.53-19.14,14.67a90.18,90.18,0,0,1-11.33,6.6c-5.79,2.8-9.32,3.58-11.33,2.46-1.64-.9-2-2.35-2.39-6.16a10.54,10.54,0,0,0-.26-2c-.63-5.26-2.77-7.72-9.06-7.72-8.94,0-11.21-1.35-12.22-6.05-1.25-5.15-2.64-7.5-8.18-10.86-5-2.91-5.41-6-1.89-9.18,2.52-2.24,5.79-3.92,14.36-7.72,8.31-3.7,11.58-5.37,14-7.5a42.72,42.72,0,0,0,6.68-7.28,60.71,60.71,0,0,0,3.65-5.71l2.64-4.81c1.13-2,2.14-3.81,3.28-5.6,7.17-11.64,13-16.57,29.21-23.73Zm-28.21,24.29c-1.13,1.8-2.14,3.47-3.27,5.49l-2.65,4.81c-1.13,2-2.39,3.92-3.65,5.82a49.61,49.61,0,0,1-6.8,7.39c-2.52,2.24-5.79,3.92-14.35,7.73-8.31,3.69-11.59,5.37-14,7.5-2.9,2.57-2.64,4.92,1.76,7.5,5.92,3.47,7.56,6.15,8.82,11.53,1,4.14,2.64,5.15,11.08,5.15,6.92,0,9.57,2.91,10.2,8.73a19.36,19.36,0,0,1,.25,2c.25,3.47.63,4.7,1.89,5.26,1.51.79,4.66.12,10.07-2.46a94.37,94.37,0,0,0,11.08-6.49c4.41-3,16.75-13.1,19.14-14.67,4.79-3.13,9.07-4.7,14.1-4.7,8.56,0,14.86-4.14,23.67-13.43l4.41-4.59c1.39-1.46,2.77-2.8,4.28-4.14a14.41,14.41,0,0,1,6.3-3.25,41.24,41.24,0,0,1,5-1c3.77-.56,5.16-1.12,5.92-2.46,1-1.79.37-5-2.14-10.52a70.77,70.77,0,0,1-3.4-8.62c-.38-1.12-1.77-5.37-2.15-6.27-2.51-6.94-5.28-8.28-19-8.28-8.18,0-13.35-2.13-18.89-6.72-.5-.45-3.14-2.69-3.77-3.25-4.54-3.69-8.19-4.36-14.86-1.34-16.37,7.05-21.91,11.87-29.09,23.28Zm70.39,13.33c-3.78,7.27-21.16,17.12-33.62,17.12-6.68,0-9.57-3.35-8.94-8.84a26.72,26.72,0,0,1,4.91-11.87l1.89-2.57c.75-1,1.51-2,2.39-3,4.66-5.38,9.95-8.4,17.12-8.4,11.46,0,19.9,10.63,16.25,17.57Zm-1.14-.45c3.15-6.16-4.65-16-15.11-16-6.8,0-11.71,2.8-16.11,7.95-.76.9-1.51,1.79-2.39,2.91,0,0-1.52,2.13-1.89,2.57-2.14,2.92-4.41,7.73-4.79,11.31-.5,4.81,1.76,7.61,7.68,7.61,12.09,0,29.09-9.51,32.61-16.34Zm-87.76,23.17a18.71,18.71,0,0,1,7.43,2c2.64,1.68,2.77,4-.38,6.71-6.42,5.71-16.24,4.82-16.24-1.56.12-5.15,4-7.5,9.19-7.17Zm-.13,1.12c-4.53-.34-7.68,1.68-7.68,6.16,0,5.15,8.19,5.93,14,.67,2.52-2.24,2.52-3.81.5-5-1.51-1-4.28-1.56-6.8-1.79Zm37.28-252.88c5.79,2.69,21.78,9.18,24.42,10.52a28.18,28.18,0,0,1,8.82,6.27,56.64,56.64,0,0,1,4.78,5.82c3,4.26,0,8.62-7.81,13-6.3,3.58-15.36,7-27.7,11-6,1.9-24.68,7.5-26.56,8.06-8.31,2.57-18.76.11-31.6-6.6-4.91-2.58-10.08-5.6-16.25-9.52-2.77-1.79-12-7.83-13.47-8.84A100.46,100.46,0,0,0,516.26,333c-6-2.91-5.66-7.39.25-13.55,4.16-4.36,5.29-5.26,22.8-18.25,3.77-2.79,7.55-5.7,11.2-8.62,2-1.67,4-3.47,5.92-5.26,6.42-6,12.34-7.27,18.89-4.36a44.82,44.82,0,0,1,9.32,6.16c1.88,1.56,8.68,7.5,10.07,8.62,6.42,5.6,11.83,9.29,17.75,12Zm-.5,1c-6.17-2.79-11.59-6.49-18.14-12.08-1.26-1.12-8.18-7.06-10.07-8.62a42.82,42.82,0,0,0-9.07-6.05c-6-2.69-11.33-1.57-17.37,4.14-1.89,1.79-3.9,3.58-6,5.26-3.14,2.58-6.54,5.15-11.2,8.73-17.5,13-18.64,13.89-22.67,18.14-5.41,5.71-5.79,9.4-.63,11.87a102.47,102.47,0,0,1,11,6.49c1.51,1,10.7,6.94,13.47,8.84A185.76,185.76,0,0,0,557.43,357c12.72,6.49,22.79,8.95,30.6,6.49,1.89-.56,20.53-6.16,26.57-8.06,12.22-3.92,21.28-7.39,27.45-10.86,7.3-4.14,10-7.95,7.43-11.53a41.79,41.79,0,0,0-4.66-5.71,27.66,27.66,0,0,0-8.56-6c-2.64-1.35-18.51-7.95-24.3-10.53Zm-49,9a27.55,27.55,0,0,1,10.58.78c2.64.79,3.4,1,10.83,4.26A169.67,169.67,0,0,0,601,331c10.58,3.36,14.23,6.94,11.08,11-2.64,3.24-10.07,6.6-22.41,10.3-10.7,3.13-19.52,2.69-26.95-1-5.79-2.8-10.45-7.28-15.23-13.77-3.66-4.92-3.4-9.18.25-12.42,3-2.8,8.56-4.7,15.23-5.38Zm.26,1.12c-6.43.67-11.71,2.46-14.61,4.93-3.15,2.8-3.4,6.49,0,11,4.66,6.38,9.19,10.63,14.86,13.43,7.17,3.47,15.61,4,25.94.9,12.08-3.58,19.39-6.83,21.78-9.85s-.63-6.16-10.58-9.18a168.34,168.34,0,0,1-16.74-6.27c-7.3-3.13-8.06-3.47-10.7-4.14a25,25,0,0,0-9.95-.79Zm-308,239.45c0,5.37-1.76,8.51-5.54,10-2.9,1.12-5.66,1.35-13.6,1.35h-2.26c-11.59,0-21.41-8.51-21.41-17.35,0-8.51,13.35-11.76,24.8-6,3.53,1.68,5.29,2.13,10.83,3.13s7.18,2.47,7.18,9Zm-1.26,0c0-5.93-1.13-7-6.17-7.95-5.54-.9-7.55-1.34-11.2-3.24-10.83-5.38-23-2.35-23,5.15,0,8.17,9.32,16.23,20.15,16.23H236c7.68,0,10.45-.11,13.1-1.23,3.27-1.35,4.91-4,4.91-9Zm41.93-132c4.66-1.45,11-3,20.27-5,3.28-.67,20.78-4.47,25.94-5.6,24.68-5.48,39.67-10,48.1-15,18.76-11.19,46.46-38,55.15-53.51,2.77-5,5.79-7.16,9.7-6.94a19.5,19.5,0,0,1,5.42,1.35c1.51.56,3,1.23,4.4,1.9l1.64.67c6,2.57,10.58,3.8,15.87,3.8,9.06,0,12.59,3.47,10.57,8.85-1.76,4.59-7.43,10-14,13.43-10.46,5.6-14.86,19.37-14.86,37.61a11,11,0,0,1-5,9.4c-2.52,1.79-5.29,2.92-10.7,4.7l-1.26.45c-6.17,2-8.81,3.14-10.95,5-6.43,5.71-15.74,7.95-25.69,7.95-1.76,0-3.15,1-5,3.47-.38.45-1.63,2.24-1.89,2.46-3.4,4.37-6.17,6.38-10.7,6.38-9.82,0-13.47,1-27.45,7.73-6.54,3.13-11.08,4-18.51,4.14h-1.13c-6,.11-8.94.33-13.22,1.45a104,104,0,0,0-11.21,4c-2.77,1.12-13.22,5.6-12.84,5.49-9.82,4.14-16.75,6.72-23.8,8.51-15.61,3.91-23.42,2.46-34.5-4.59-3.27-2.13-3.4-4.93-1-8.51,1.89-2.8,4.91-5.71,10.2-10.08l2.27-1.79c4.91-4,5.66-4.59,7.43-6.16,2.9-2.57,3.9-3.91,6.92-8.5a21.38,21.38,0,0,1,7.93-7.95A53.38,53.38,0,0,1,295.9,428.3Zm.5,1.12a53.13,53.13,0,0,0-11.58,4.81c-3.53,2.13-5.17,3.92-7.56,7.5-3,4.7-4,6-7.05,8.73-1.76,1.57-2.52,2.24-7.43,6.27l-2.27,1.79c-5.16,4.26-8.18,7.17-9.94,9.86-2,3.13-1.89,5.37.75,7.05,10.83,6.83,18.26,8.28,33.5,4.36a160.06,160.06,0,0,0,23.54-8.4c-.37.12,10.2-4.36,12.85-5.48a94.14,94.14,0,0,1,11.33-4c4.41-1.23,7.43-1.46,13.6-1.57h1.13c7.18-.11,11.59-.9,17.88-4,14.1-6.83,17.88-7.95,28-7.95,4,0,6.55-1.79,9.7-5.93l1.89-2.46c2.14-2.69,3.78-3.92,6.05-3.92,9.57,0,18.63-2.24,24.68-7.72,2.26-2,5-3.25,11.33-5.26l1.26-.45c10.83-3.47,14.86-6.38,14.86-13,0-18.58,4.4-32.69,15.36-38.51,6.3-3.36,11.83-8.62,13.47-12.87,1.76-4.59-1-7.39-9.32-7.39-5.66,0-10.32-1.23-16.5-3.92-9.44-4.14-8.56-3.69-10.95-3.8-3.28-.12-5.79,1.68-8.44,6.38-8.81,15.78-36.64,42.65-55.65,53.95-8.56,5-23.67,9.52-48.48,15.12-5,1.12-22.67,4.92-25.94,5.6-9.19,2.24-15.49,3.8-20,5.26Zm21.15,4.48a61.24,61.24,0,0,0,9.07-.79c6.55-.9,8.31-1,10.7-.56,3.15.68,4.79,2.69,4.79,6.38,0,4.48-2.9,8.18-8.31,11.31-4,2.35-8.19,3.92-17.76,7.16l-.38.12-2.9,1a51.8,51.8,0,0,0-11.71,6.05l-1,.67c-10.33,6.6-16.88,9-29.09,9-6.3,0-8.69-2.24-7.3-6.27,1.13-3.14,4.53-7.39,9.82-12.43,1.64-1.57,3.27-3.13,5.16-4.81,4-3.47,14.1-11.87,14.36-12.09a20.33,20.33,0,0,1,1.76-1.46c4.28-3,7.3-3.47,17.88-3.24Zm0,1.12h-4.78c-10.33-.12-13.1.22-17,3a17.43,17.43,0,0,0-1.64,1.34c-.25.22-10.45,8.62-14.35,12.09-1.76,1.57-3.53,3.13-5.16,4.81-5.17,5-8.57,9.07-9.57,12.09-1.14,3.25.63,4.82,6,4.82,12,0,18.13-2.35,28.33-8.73l1-.68c5.16-3.35,8.06-4.92,12.09-6.26l2.89-1,.26-.11c9.44-3.14,13.6-4.7,17.63-7.06,5.16-2.91,7.8-6.27,7.8-10.41,0-3.24-1.26-4.81-3.77-5.26-2-.45-3.78-.22-10.21.56a72.8,72.8,0,0,1-9.57.79ZM459.22,384.3c-2.4,6.05-2.52,7.61-1.26,14.33,1.51,7.95-1.77,18.58-6.93,18.58a10.9,10.9,0,0,0-1.89.11h-.75a35.6,35.6,0,0,1-8.69-.22c-8.18-1.23-13.1-5.71-13.1-15,0-15.56,2.64-22.05,10.2-29.44A21.25,21.25,0,0,0,440,368.4c.75-1.11,3.52-5.7,3.4-5.6,5.54-9.06,9.7-12.87,15.36-11.64a18.84,18.84,0,0,1,4.53,1.79l1.77.9a22.53,22.53,0,0,0,3.9,1.79c.88.34,2.26.34,6,.34h.88c4,0,6.05.11,7.3.78,2,1,1.51,2.92-1.38,5.49-1.64,1.45-3.28,2.8-4.92,4.25-13.34,11.09-16.11,13.66-17.62,17.8ZM458,384c1.63-4.36,4.4-6.94,18-18.47,1.89-1.68,3.4-2.91,4.91-4.14,2.4-2.24,2.77-3.24,1.77-3.69s-3-.67-6.68-.56h-.88c-3.9.11-5.41,0-6.42-.34a18.79,18.79,0,0,1-4-1.9l-1.76-.9a16.72,16.72,0,0,0-4.16-1.68c-4.91-1.12-8.68,2.47-14,11.08.12-.11-2.65,4.48-3.4,5.6a23,23,0,0,1-3.28,4.37c-7.3,7.28-9.94,13.43-9.94,28.77,0,8.73,4.4,12.87,12.08,14a49.58,49.58,0,0,0,8.44.23,6.94,6.94,0,0,0,1.51-.11h1.26c4,0,7-10,5.67-17.24-1.64-7.17-1.52-8.74.88-15Zm-11.59,13.89c.76.56,3.15,2.12,3.15,2.12,2.52,1.79,2.52,3.7,0,7.17-4.66,6.27-11.08,3.47-11.08-5,0-4.25.63-6.38,2.64-6.72,1.39-.45,2.52.23,5.29,2.47Zm-1.76,1.67c-1.89-1.56-2.77-2.12-3-2s-.63,1.34-.63,4.59c0,6.6,3.4,8.06,6.55,3.92,1.88-2.58,1.88-3.14.5-4.15,0-.11-2.52-1.67-3.4-2.35ZM725.28,253.78a48.8,48.8,0,0,1,7.43-2.69l.37-.11a64.93,64.93,0,0,0,11.08-4c5.29-2.35,7.94-2.13,8.82.9.5,2.24.25,4.48-1.51,14.21-2.9,15.23-11.59,29.22-26.7,40.64-5.41,4-9.31,4.93-12.34,2.69-2.39-1.79-3.9-5.15-5.79-11.76-.38-1.23-1.76-6.49-2.14-7.83-1-3.47-2.14-6.94-3.4-10.3-3-7.61-3.78-12.09-2.64-14.44,1-2,2.64-2.47,7-2.69a25.16,25.16,0,0,0,3.77-.34l2.52-.33c.88-.11,1.51-.23,2.14-.34,1.39-.22,2.4-.45,3.4-.67a45.76,45.76,0,0,0,7.94-2.91Zm.63,1a54.56,54.56,0,0,1-8.44,3.14c-1,.22-2.14.45-3.53.67l-4.78.67c-1,.11-1.76.23-3.65.34-3.9.22-5.29.56-5.92,2.13-1,2-.25,6.26,2.64,13.65,1.26,3.47,2.52,6.94,3.4,10.41l2.14,7.84c1.89,6.38,3.28,9.63,5.42,11.19,2.39,1.79,5.66,1,10.7-2.68,14.86-11.2,23.42-25,26.19-40,1.76-9.4,2.14-11.75,1.51-13.77s-2.39-2.24-6.93-.22a65.32,65.32,0,0,1-11.2,4l-.38.11a31.82,31.82,0,0,0-7.17,2.46Zm-5.67,7.28a27.25,27.25,0,0,0,4.91-1.57c.38-.22,3.27-1.45,4.16-1.9,1.88-.78,3.77-1.45,5.91-2.12,3.4-1,5.8-.9,7.43.44,1.26,1,1.64,2.58,1.77,4.7v1.57c0,6.27-5.8,18.92-14.23,25.52-5.42,4.26-9.19,5.26-12.47,2.8-2.64-1.9-4.41-5.26-8.43-14.44-2.4-5.37-2.52-9.06-.89-11.42,1.39-1.9,3.66-2.68,7.3-3l1.64-.11a23.62,23.62,0,0,0,2.9-.45Zm-2.64,2.58-1.51.11c-3,.33-4.66.9-5.54,2-1.14,1.57-1,4.59,1.13,9.4,3.78,8.73,5.54,12,7.68,13.55s4.53.9,9.19-2.8c7.93-6.16,13.47-18.14,13.47-23.85v-1.45a4.05,4.05,0,0,0-1-3.14c-.76-.67-2.27-.67-4.91,0a58.71,58.71,0,0,0-5.67,2c-.88.34-3.65,1.68-4.15,1.9a31.29,31.29,0,0,1-5.42,1.79,16.4,16.4,0,0,1-3.27.45ZM430.76,165.12c-2,4.81-4.41,8.06-8.94,12.76l-3.27,3.36a44.45,44.45,0,0,0-3.28,3.58,49.69,49.69,0,0,0-5.92,8.4c-3.65,6.38-8.94,11.42-16.24,15.56-5.29,3.13-10.33,5.15-19.77,8.51-13.85,4.92-20.65,1.45-34.25-18.36-3.65-5.26-11.08-9.63-22.66-14.22-3.78-1.45-16.25-5.82-18.13-6.6-6.3-2.46-8.82-4.14-8.06-6.6s6.67-4.59,19.51-6.83c20.9-3.69,33.87-4.25,50.24-3.36,9.95.56,12.22.56,16-.33a28.06,28.06,0,0,0,7.55-2.91l3.53-1.9c12.46-6.83,16.24-9,21.78-11.09,7.55-3,13.35-3.69,17.5-1.56,9.19,4.7,9.82,8.62,4.41,21.6Zm-2.27-.79c5-12,4.54-14.89-3.27-18.8-3.4-1.68-8.31-1.12-15.24,1.67-5.28,2.13-9.19,4.15-21.53,11l-3.52,1.9a29,29,0,0,1-8.31,3.14c-4.29.9-6.55.9-16.75.33-16.12-.9-29-.33-49.61,3.36a105.52,105.52,0,0,0-13.6,3.14c-2.52.9-3.78,1.56-4,2.12s1.89,2,6.67,3.92c1.89.79,14.36,5.15,18.13,6.6,12,4.7,19.77,9.29,23.8,15,13.1,18.92,18.77,21.94,31.23,17.46,9.19-3.24,14.1-5.37,19.27-8.28,6.8-3.92,12-8.73,15.23-14.66a45.68,45.68,0,0,1,6.17-8.74l3.4-3.69,3.28-3.36c4.4-4.48,6.8-7.61,8.68-12.09Zm-8.43-.44c-9.95,14.32-23.3,24.39-41.93,28.2-9.82,2-15.74-.89-16.5-6.6-.63-4.92,2.9-10.18,7.55-10.18,3.78,0,7.05-1.9,19.39-10.3,1.89-1.23,3.28-2.24,4.66-3,5.54-3.59,9.82-5.83,13.6-6.83,7.05-1.9,11.71-2.35,14.36-1.35,3,1.35,2.64,4.59-1.14,10.08Zm-1-.56c3.4-4.93,3.65-7.5,1.51-8.4s-6.67-.34-13.35,1.45c-3.65,1-7.8,3.13-13.22,6.6-1.38.9-2.77,1.79-4.53,3-12.72,8.62-15.87,10.53-20.15,10.53-3.77,0-6.92,4.47-6.3,8.84.76,5,5.79,7.61,15,5.71,18.13-3.92,31.22-13.77,41.05-27.76ZM581,37.61c17.5,5.6,26.19,5.6,39.79,0,3.77-1.56,6.92-3.24,13.85-7.61s10.07-6.16,14-7.72c5.17-2.13,9.82-2.69,14.1-1.46,4.91,1.46,7.81,13.77,8.57,31.9.63,15.9-.63,32.35-3.15,38.29-2.27,5.48-7.43,9.18-14.48,11.19a57.28,57.28,0,0,1-16.37,2c-7.3,0-11.33,2.68-15.36,8.5-.5.68-1.89,2.92-2.14,3.25-2.27,3.25-3.78,4.81-6.17,5.49a39.66,39.66,0,0,0-4.92,1.9l-3,1.34c-1.26.56-2.39,1-3.4,1.45-8.06,3.47-14.73,5.26-21.66,5.26A25.83,25.83,0,0,0,563,138c-1.51,1.24-5.29,5-5.8,5.49-3.14,2.69-7.42,4.7-13.72,6.83-1.76.56-7.55,2.35-7.81,2.46l-2.64.9a18.13,18.13,0,0,1-3.4.9c-6.93,1.23-14-.56-22.67-4.92-1.63-.79-6.42-3.47-7.3-3.81-2.51-1.34-5.16-1.68-11.45-2.13l-2.15-.11c-6-.45-9.7-1.23-12.84-3.36-6.3-4-8.56-8.73-7.05-13.77,1.64-6,8.19-12.31,18.76-19.36,2.65-1.79,5.42-3.47,8.19-5.15-.38.22,5.41-3.25,6.67-4,3.4-2.13,6.05-4.37,16.12-13.43l1.38-1.24c4.41-4,7.43-6.6,10.2-8.73,3.65-2.8,5.92-6.6,9.45-14.55l.75-1.79c3.4-7.73,5.42-11.2,8.69-13.77,1.76-1.46,8.44-7.28,9.95-8.4,5-3.36,10.07-3,24.68,1.57Zm-.5,1.12c-14.23-4.48-18.89-4.81-23.42-1.68-1.51,1-8.06,6.83-9.95,8.29-3,2.46-5,5.82-8.31,13.32L538,60.45c-3.52,8.17-5.91,12.09-9.82,15-4,3.13-7.8,6.49-11.58,10-10.08,9.18-12.72,11.42-16.25,13.66-1.26.78-7.05,4.25-6.67,4-3.15,1.9-5.67,3.47-8.19,5.15-10.32,6.83-16.62,13-18.26,18.69-1.26,4.7.76,8.85,6.68,12.65,3,1.9,6.42,2.69,12.21,3.14l2.14.11c6.42.45,9.19.9,12,2.24.76.45,5.67,3,7.3,3.81,8.44,4.25,15.11,6,21.79,4.81a14.27,14.27,0,0,0,3.14-.9c.89-.34,1.77-.56,2.65-.9.38-.11,6.17-1.9,7.81-2.46,6-2,10.2-4,13.22-6.6.5-.45,4.28-4.26,5.79-5.49a27,27,0,0,1,18.51-6.94c6.55,0,13.1-1.79,21-5.15,1-.45,2-.9,3.4-1.45.12-.12,2.39-1.12,3-1.35a37.8,37.8,0,0,1,5-2c2-.56,3.52-2,5.54-5l2.14-3.24c4.28-6.16,8.68-9.07,16.49-9.07a56,56,0,0,0,15.87-2c6.8-2,11.58-5.37,13.72-10.52,2.39-5.71,3.65-22.17,3-37.84-.75-17.35-3.52-29.66-7.68-30.78s-8.31-.56-13.22,1.34c-3.78,1.57-6.92,3.25-13.85,7.61s-10.07,6.16-14,7.73c-13.72,5.71-22.66,5.71-40.54.11Zm17.88,23c6.8,0,9.44-.22,12.21-1.12,1.64-.45,12.59-5.37,18.76-7.83,2.39-.9,4.53-2.69,8.31-6.72,3.28-3.36,4-4.25,5.54-5.37,4.66-3.7,8.94-3.7,12.84,1.34,7.81,10,7.06,17.8.13,30.22-1.13,2-2.14,4-3.15,6.16-.38.9-1.26,3-1.38,3.25-.25.45-.38.9-.63,1.34-.76,1.23-2,2.46-5,5.26s-6.55,3.7-14.73,4.82c-2.27.33-2.77.44-3.78.56-7.55,1.23-12.09,3-15.36,6.82-4.53,5.15-10,8.4-18.89,12-.63.23-1.38.56-2.26.9l-2.27.9a73.39,73.39,0,0,0-9.7,4.37c-3.27,1.79-6,2.57-11.84,3.92-10.83,2.35-15.48,4.25-21.91,10.52s-12.84,8.51-20.9,7.5c-6.8-.9-13.34-3.36-29.71-10.64-7.93-3.58-8.06-8.73-1.89-15.22,4.28-4.37,4.41-4.59,24.43-18.36,10.2-7,16.37-11.86,20.9-16.68,3.15-3.36,5.29-6.38,6.3-9.29,6.92-20.49,15.74-24.63,28.71-17.46,2.51,1.34,8.31,5.15,9.06,5.48,4.16,2.46,8.06,3.35,16.24,3.35Zm0,2.24c-8.57,0-13.1-1-17.76-3.69-.75-.45-6.67-4.15-9.06-5.49-11.34-6.38-18.52-3-24.94,16.12-1.13,3.25-3.4,6.49-6.8,10.08-4.78,4.92-10.95,9.85-21.28,17-19.77,13.66-20,13.88-24,18.14-5.29,5.48-5.16,9,1.13,11.75,16,7,22.54,9.52,28.84,10.41,7.3.9,12.84-1,18.76-6.83,6.8-6.71,12-8.73,23.17-11.19,5.54-1.23,8.18-2,11.08-3.58a77.2,77.2,0,0,1,9.95-4.48l2.26-.9,2.27-.9c8.56-3.47,13.72-6.6,17.88-11.31,3.78-4.36,8.81-6.27,17-7.61,1-.22,1.51-.22,3.78-.56,7.68-1.12,10.83-2,13.34-4.25,3-2.69,4-3.7,4.66-4.82a3.6,3.6,0,0,0,.5-1c.13-.23,1-2.36,1.39-3.25a66.57,66.57,0,0,1,3.27-6.27c6.55-11.75,7.3-18.81.13-28-3-3.8-5.54-3.91-9.07-1a49.57,49.57,0,0,0-5.29,5.26c-4,4.25-6.3,6.27-9.19,7.39-6,2.35-17.12,7.27-18.89,7.83-3.14.91-6,1.13-13.09,1.13Zm-16,9.63c6.92,4.36,13,4.14,22.91,1,6.8-2.12,7.43-2.35,9.7-2.35,3.15,0,5.29,1.57,6.55,5,2.14,5.6-2.9,9.51-15.49,14.22-3.4,1.23-20.4,6.94-25.18,8.62-10,3.58-17.5,7.16-23.8,11.42-16.37,11-23.17,13.32-29.84,10.85a27.3,27.3,0,0,1-4.54-2.23l-2.51-1.46c-.88-.56-1.89-1-2.77-1.57-4.16-2.24-3.53-4.81,1.13-8.17,1.76-1.23,13.47-8.51,17-11.08,8.94-6.38,15-12.87,18.13-20.49,3.9-9.4,6.17-13.54,8.56-15,2.14-1.34,4.28-.56,7.81,2.13.76.67,4.28,3.47,5.16,4.14,2.52,1.79,4.66,3.36,7.18,4.93Zm-.76.9a77.53,77.53,0,0,1-7.18-5.15c-.88-.67-4.4-3.58-5.16-4.14-3.15-2.47-4.78-3-6.3-2-2.14,1.23-4.28,5.26-8.06,14.44-3.27,8-9.44,14.56-18.51,21-3.65,2.57-15.36,9.85-17,11.08-4,3-4.53,4.7-1.26,6.38l2.9,1.57,2.52,1.45a33.14,33.14,0,0,0,4.41,2.13c6.17,2.35,12.59.11,28.58-10.75,6.3-4.25,14-7.83,24.05-11.53,4.79-1.79,21.78-7.39,25.18-8.62,12-4.48,16.5-8.06,14.74-12.76-1.14-3-2.77-4.25-5.42-4.25-2,0-2.64.22-9.32,2.35-10.32,3.24-16.87,3.47-24.17-1.23Z"/></svg>