<svg id="Layer_1" data-name="Layer 1" xmlns="http://www.w3.org/2000/svg" viewBox="0 0 760 680"><defs><style>.cls-1{fill:#bde2e4;}</style></defs><title>bg-pattern-about</title><g id="Group_61" data-name="Group 61"><path id="Path_233" data-name="Path 233" class="cls-1" d="M132.39,164.23c-25.4,5.59-54.57,12.08-80.26,5.05-11-3.06-28.42-4.78-49.85-5.59v-1.8c1.32.09,2.46.09,3.78.18a8.84,8.84,0,0,1,9.35-7.84c4.91.27,8.78,4.24,8.5,8.92,11.61,1,21.24,2.35,28.32,4.24,23.13,6.13,47.4,2,70.63-3a5.52,5.52,0,0,1,4.53-5.77A5.81,5.81,0,0,1,134,162c7.55-1.62,15.1-3.33,22.75-4.69a428.81,428.81,0,0,1,70.91-6v-.36l3.49.36c37.49,0,75.25,3.79,114,7.67,15.68,1.62,31.54,3.15,47.5,4.5,25.21,2.17,51.45,3,77.8,3s53-.63,78.84-1.35c13.12-.36,26.72-.81,40.5-1.26,19.54-.64,39.47-1.27,58.92-1.8-7.27-.9-14.26-2.17-21.44-3.52-17.27-3.16-35.69-6.58-61.18-5.5-31.53,1.44-62.88,2.43-94.41,3.06s-63.07.9-94.89.63c-9.92-.09-34.37-4.68-63.17-10-39.75-7.39-87.71-16.32-115.76-16.86-9.72-.18-20-.45-30.21-.81a5.82,5.82,0,0,1-11.24-.36c-2-.09-4.06-.09-5.94-.18-9.35-.27-18.13-.54-25.3-.72-7.46-.18-18.13,1.17-29.18,3a5.58,5.58,0,0,1-5.38,5.05,5.76,5.76,0,0,1-5.67-3.24,22.74,22.74,0,0,1-2.36.36c-12.55,2.07-24.07,4-30.59,4-.94,0-2,.09-3,.09a5.85,5.85,0,0,1-11.42.36c-3.59.09-7.46.18-11.62.37-7.17.18-15.1.45-23.41.72v-1.8c8.31-.27,16.24-.45,23.41-.72,10.48-.27,19.36-.55,26.06-.82h.1c6.32,0,17.84-1.89,30.21-4.05.76-.09,1.51-.27,2.17-.36v-.18l1.51-.09c14.45-2.44,29.56-4.78,39.28-4.51,7.27.18,16,.45,25.3.81,15,.45,31.73,1,46.83,1.35h0c48.25-6.85,96.88,1,147.67,9.1,42.58,6.85,86.77,13.89,133.23,12.71l17-.54c10.38-7,26.06-13.34,43.71-18.66a525.56,525.56,0,0,1,67.7-15,220.72,220.72,0,0,1,34.64-2.62c-66.94-17.49-102.44-4.42-137.57,8.56-27.28,10.1-54.47,20.1-95.83,16-11.24-1.17-41.07-12.17-68.17-22.27-23.41-8.65-44.66-16.58-49.85-16.58a.94.94,0,0,1-.47-.09c-34.84,5-73,8.2-116.23,3.06-11.05-1.26-19.54-2.16-27-2.79-6-.45-11.14-.72-16.24-1a5.81,5.81,0,0,1-11.24.9c-12.46,1.9-29.83,6-48.24,10.46-23.7,5.68-49,11.72-67.89,13.79v-1.8c18.7-2.07,43.9-8.11,67.41-13.7,16.81-4.05,32.67-7.84,45-9.91H87c-9.63.27-21.15-1.08-30.4-2.17-1.89-.18-3.69-.45-5.1-.63-8.88-1-17.38-2-25.59-3.06-2,.18-4.53.54-6.23.72l-2.55.27c-5.95.9-10.67,1.35-14.83,1.62v-1.8c4-.27,8.5-.63,14-1.17-2.55-.36-5-.9-7.56-1.44-2.07-.46-4.25-.91-6.42-1.27V87q3.54.67,6.8,1.35c2.27.46,4.54,1,6.8,1.36a5.85,5.85,0,0,1,6.24-4.33,5.65,5.65,0,0,1,5.18,5.4c1.13.09,2.36.18,3.3.36,6.7.81,13.69,1.63,20.87,2.44,1.7.18,3.4.36,5.1.63,1.22.18,2.45.27,3.68.45.09-.09.09-.18.19-.27,22.1-19,85.55-15.15,116-13.25l3.69.27C190,82,206.79,84.72,224,88.6c13.87,3.15,28,6.94,38.71,10.82.75.27,1.6.63,2.36.9,21.81-2.35,42.3-5.86,61.84-9.2,19.07-3.25,37.29-6.4,55-8.12A288.2,288.2,0,0,1,411,81.65a5.85,5.85,0,0,1,11.52.09c9.54.18,19.08.63,28.9,1.08,26.72,1.27,55.51,2.62,90.16-.63.1-.09.19-.09.38-.09h.38c3.59-.36,7.18-.72,10.86-1.17,35.41-4.15,59.48-4.06,84.88-4.06,17,.09,34.65.09,56.74-1.08h0l8-.54c13.69-.81,40.22-2.25,54.76-3.06V74c-14.54.81-41.07,2.25-54.67,3.06L695,77.5h0c-22.09,1.26-39.75,1.17-56.84,1.17-25.11-.09-49-.09-83.84,3.88,7,.63,13.12,1.62,18.79,2.61,1,.18,2.08.37,3.78.64s3.58.63,5.57,1c2.17.36,4.34.72,6.42,1.08a7.52,7.52,0,0,1,8.68-5.41,7.44,7.44,0,0,1,6.33,7.3,132.59,132.59,0,0,0,14.92.27l2-.09c6.52-.27,14.16-.09,22.47.18A40.75,40.75,0,0,1,649.14,88c22.28-6.58,54.76-4.6,81.67-3,6.61.36,12.84.81,18.5,1a60.59,60.59,0,0,1,8.4.9v1.8a62.16,62.16,0,0,0-8.4-.9c-5.76-.18-12-.63-18.6-1-27.47-1.62-60.9-3.6-82.9,3.52l16.62.81c15.67.81,31.82,1.62,45.41,1.35,11-.18,18.23.09,24.65.27a224.8,224.8,0,0,0,23.22-.09v1.8c-6.13.36-10.85.45-15.48.36a7.51,7.51,0,0,1-7.74,6.67,7.41,7.41,0,0,1-7.37-7.12c-4.72-.09-10.2-.18-17.18-.09-12.09.18-26.15-.45-40.13-1.08a5.79,5.79,0,0,1-11.42-.54c-14.07-.72-27.29-1.26-37.49-.9l-2,.09c-14.63.54-25.3-1.27-36.73-3.25-1.7-.27-3.3-.54-5.57-1-.85-.18-2.26-.36-3.78-.63a165.92,165.92,0,0,0-29-3.07,7.63,7.63,0,0,1-15,1.09c-29.08,1.8-54,.72-77.43-.45-23.79-1.09-45.88-2.17-69.11.08-13.22,1.27-26.81,3.34-40.69,5.68,12.84.81,34.74,4.06,57.87,7.58,27.1,4,55.9,8.47,73.74,9.28,2.18.09,4.35.09,6.61.09a7.65,7.65,0,0,1,15-.09c13.31-.27,26.81-.36,38,2.62.09,0,.09,0,.18.08,27-7.66,58.54-11.08,105.85.9,2.36.64,6.13,1.81,8.31,2.53,20.58.45,39.46,3.15,56.17,5.5s30.88,4.42,42.4,3.52h.28q5.86-.08,11.71-.73v1.8a111.87,111.87,0,0,1-11.71.73h-.19c-11.71.9-26.06-1.18-42.77-3.61-27-3.88-60-8.57-96.31-2.89-12.93,2-26.72,4.69-40.22,7.76a5.63,5.63,0,0,1-4.53,6,5.92,5.92,0,0,1-6.52-3.25c-5.47,1.44-10.85,2.89-16,4.42-16.14,4.87-30.59,10.55-40.69,16.77,22.47-1,43.81-2.53,65.71-4.06,8.12-.54,16.43-1.17,24.74-1.71a7.38,7.38,0,0,1,7.18-7.13,7.63,7.63,0,0,1,7.93,6.22c8.59-.54,17.37-1,26.53-1.44,25.68-1.17,82.43-3,126.9-4.33v1.8c-20.21.64-43,1.36-64.2,2a7.43,7.43,0,0,1-7.55,6.85,7.54,7.54,0,0,1-7.56-6.4c-19.35.63-36.35,1.26-47.49,1.8-23.51,1.08-45.13,2.61-66.37,4.15-28.42,2.07-56.09,4-86.4,4.77-46.64,1.18-90.83-5.86-133.5-12.71q-15.72-2.56-31.16-4.86a5.83,5.83,0,0,1-11.33-1.63c-32-4.41-63.26-6.94-94.23-3.87,28.7,2.07,70.53,9.82,106,16.4,28.61,5.32,53.07,9.92,62.79,10,31.82.27,63.35,0,94.89-.63s62.88-1.71,94.42-3.07c25.68-1.17,44.28,2.26,61.65,5.5,13.32,2.44,25.87,4.78,40.41,4.78v.09c33.14-.72,64.3-.9,89.79.09v1.8c-5.94-.27-12.27-.45-18.78-.54a7.65,7.65,0,0,1-15.11-.09c-18.88-.09-39.37.18-60.62.72a7.49,7.49,0,0,1-7.74,6.4,7.66,7.66,0,0,1-7.36-6c-19.27.54-39,1.17-58.35,1.71-13.7.46-27.29.9-40.51,1.27-25.87.72-52.4,1.44-78.93,1.35s-52.78-.81-78-3c-16.15-1.35-31.91-3-47.49-4.5-36-3.61-71.1-7.13-105.94-7.67A5.9,5.9,0,0,1,228,153.2a418,418,0,0,0-70.81,6C148.91,160.54,140.6,162.43,132.39,164.23ZM261,100.5A333.92,333.92,0,0,0,223.6,90.13c-17.09-3.79-33.8-6.58-43.53-7.12l-3.68-.27c-29.74-1.8-91.3-5.68-113.68,12a181.49,181.49,0,0,0,24,1.44H99.91c10.29,0,18.22-.09,25.78.09.94,0,1.89.09,2.83.09,1.32,0,2.55,0,3.59.09a.37.37,0,0,1,.28.09c4.34.18,8.78.45,13.69.81,7.46.63,16,1.53,27.1,2.8,6.8.81,13.5,1.35,20.11,1.8a5.85,5.85,0,0,1,11.43.54,440.52,440.52,0,0,0,56.27-2Zm268.52,10.36c-10.86-2.34-23.6-2.07-36.16-1.8-7,.09-13.88.27-20.4,0-17.93-.81-46.83-5.22-73.92-9.37-16.15-2.43-31.73-4.78-43.9-6.31-4.82-.54-16.53-1.8-21.72-1.8l-6.14,1.08c-10.57,1.8-21.43,3.7-32.57,5.32,9.06,2.34,26.53,8.83,45.41,15.78,27,10,56.75,21,67.7,22.08.38,0,.76.09,1.14.09a9.07,9.07,0,0,1,17.65.9c30.78,0,53.44-8.38,76.2-16.76C511.48,116.91,520.26,113.66,529.51,110.86ZM89.62,212.28a153.26,153.26,0,0,1-20.77.72A125.11,125.11,0,0,1,56,211.92a83.52,83.52,0,0,1-9.35-2.34,232.84,232.84,0,0,0-44.38-8.66v-1.8A235,235,0,0,1,47,207.78a85.42,85.42,0,0,0,9.44,2.43,113,113,0,0,0,12.46,1.08,149.11,149.11,0,0,0,20.49-.72c19.45-2,30.4-5.23,41.73-8.56,18.42-5.41,37.87-11.18,96.4-12.71,14.07-.36,27.86-1.08,41.55-1.9,28-1.53,55.52-3.06,84.22-1.08,9.53.63,23.41.72,39.18.81,30.4.18,67.51.45,92.44,4.69,1.51.27,2.83.54,4.34.81h0l.19.09c12.55,2.35,23.6,5.32,34.37,8.3,18.22,4.95,35.6,9.73,57.87,10.81,7.27.37,14.92.55,24,.46s19.63-.64,32.95-1.72c19.07-1.53,35-4.14,49.76-6.49,23.7-3.78,44.28-7,69.2-5v1.8c-2.83-.27-5.57-.36-8.31-.54a7.7,7.7,0,0,1-15.1,0c-15.3.63-29.74,2.89-45.6,5.41-14.73,2.35-30.78,4.87-49.85,6.49-1.42.09-2.74.18-4.06.36a10.45,10.45,0,0,1-10,10.46,10.65,10.65,0,0,1-11.43-9.28c-2.64.09-5.19.18-7.64.18-9.16.09-16.81-.09-24.08-.46-22.47-1.08-40-5.86-58.35-10.9-7.55-2.08-15.3-4.15-23.42-6a5.91,5.91,0,0,1-6.61,2.7,5.63,5.63,0,0,1-4.24-5c-1.51-.27-2.93-.63-4.54-.9-13.12-2.26-29.74-3.34-47-4a5.86,5.86,0,0,1-10.95-.36c-11.71-.27-23.41-.36-34.18-.45-15.77-.09-29.74-.18-39.28-.81-28.6-1.89-56.08-.36-84,1.17-13.6.72-27.38,1.53-41.54,1.89-58.26,1.54-77.61,7.3-95.84,12.63A198,198,0,0,1,89.62,212.28ZM667.55,10.45a390.27,390.27,0,0,1,38.9,9.2c16.33,4.41,32,8.74,51.17,10.36v1.8c-19.35-1.62-35.21-5.95-51.64-10.46-5.67-1.53-11.33-3.06-17.28-4.6a5.77,5.77,0,0,1-6.52,2.62,5.52,5.52,0,0,1-4.24-5.14c-3.5-.72-7-1.44-10.67-2.07-24.74-4.24-61.85-4.52-92.16-4.69-14.72-.09-27.75-.18-37.2-.72a7.65,7.65,0,0,1-15-.73c-24-.81-47.3.46-71.1,1.72-13.6.72-27.38,1.53-41.54,1.89-58.26,1.53-77.62,7.3-95.84,12.62C303,25.59,292,28.92,272.31,30.91a153.26,153.26,0,0,1-20.77.72c-8.4-.27-14.73-1.27-17.09-2l.57-1.71c2.26.72,8.31,1.62,16.52,1.89A149.16,149.16,0,0,0,272,29.1c19.45-2,30.4-5.23,41.73-8.56,18.41-5.32,37.86-11.09,96.4-12.62C424.23,7.56,438,6.83,451.71,6c28-1.53,55.52-3.06,84.22-1.08,9.54.64,23.42.73,39.18.82C605.52,5.93,642.62,6.2,667.55,10.45ZM383.16,568.18c-10.67-1.35-20.58-2.52-29.74-3.7a5.67,5.67,0,0,1-6.42,4.33,5.6,5.6,0,0,1-5-5.77c-27.66-3.33-49.28-5.5-68.83-6.49a7.57,7.57,0,0,1-8.31,6.13,7.37,7.37,0,0,1-6.7-6.58c-24.83-.36-48,1.71-78.74,6.49a8.75,8.75,0,0,1-7.55,9.1,9,9,0,0,1-10-6.13c-1.61.27-3.12.54-4.82.81-8.21,1.44-16.43,3.25-24.64,5-24.74,5.5-49.47,10.91-74,6.49a33.58,33.58,0,0,1-4.44-.9h0c-10.86-3.16-29-5-51.65-6v-1.8c22.76.9,41.08,2.79,52.12,6.13a100.71,100.71,0,0,0,23.79,2.43,7.39,7.39,0,0,1,7.46-6.67,7.64,7.64,0,0,1,7.56,5.77c12.84-1.44,25.87-4.24,38.8-7.12,8.22-1.8,16.43-3.61,24.74-5,88-15.5,113.3-12.35,226.7,1.71,12.56,1.54,26.15,3.25,40.69,5l3.59.45c30.31,3.7,94.23,1.63,161.83-.54,19.55-.63,39.47-1.26,58.92-1.8-7.27-.9-14.26-2.16-21.43-3.51-17.28-3.16-35.69-6.58-61.19-5.5-31.53,1.44-62.88,2.43-94.41,3.06s-63.07.9-94.89.63c-9.92-.09-34.37-4.69-63.17-10-39.75-7.4-87.71-16.32-115.75-16.86-15.3-.27-32.3-.81-47.4-1.35-9.35-.27-18.13-.54-25.3-.81-10.39-.27-27.2,2.52-42.59,5.13-12.55,2.08-24.07,4.06-30.59,4.06h0c-5.1.18-11.71.36-19.45.63a5.61,5.61,0,0,1-5.76,5.14,5.73,5.73,0,0,1-5.76-4.78c-5.85.18-12,.36-18.5.54v-1.8c8.31-.27,16.24-.45,23.41-.72,10.48-.27,19.36-.54,26.06-.81h.1c6.32,0,17.84-1.89,30.21-4,7.08-1.17,14.45-2.43,21.43-3.42a5.55,5.55,0,0,1,4.54-5.23,5.73,5.73,0,0,1,6.8,4,82.63,82.63,0,0,1,10.2-.45c7.27.18,16,.45,25.3.72,13.21.45,27.66.9,41.26,1.17a7.39,7.39,0,0,1,7.55-7.12,7.51,7.51,0,0,1,7.55,6.13c45.13-4.6,90.74,2.7,138.14,10.27,42.58,6.85,86.77,13.89,133.22,12.71l17-.54c10.38-7,26.06-13.34,43.71-18.66,4.16-1.26,8.5-2.43,12.94-3.6l-1.51.36a7.3,7.3,0,0,1,5.55-8.72l.11,0a7.65,7.65,0,0,1,9.07,5.14c13.88-3.24,28.13-5.95,41.45-8A222.05,222.05,0,0,1,641,520.76c-68.57-18-109.74-7.75-150.34,2.53-30,7.57-59.86,15.05-100.08,10.91-10.67-1.08-28.33-5.41-44.66-9.38-15.67-3.87-30.12-7.39-35.6-7.39h-.19c-14.92-.54-31.54-1.17-48.06-2a9,9,0,0,1-17.84-.9c-29.56-1.53-56.75-3.34-71.38-5-11-1.26-19.55-2.16-27-2.8-2.46-.18-4.72-.27-7-.36a7.38,7.38,0,0,1-7.55,6.49,7.52,7.52,0,0,1-7.56-6.31c-17.84,1.27-33.32,5.68-53.62,10.55-23.7,5.59-49,11.63-67.89,13.7V529c18.69-2.07,43.9-8.11,67.41-13.7,16.81-4.06,32.67-7.84,45-9.91H86.69c-9.63.27-21.15-1.09-30.4-2.17-1.89-.18-3.68-.45-5.1-.63q-11.89-1.35-22.94-2.7H28c-.19,0-.38-.09-.57-.09l-.47-.09a75.23,75.23,0,0,0-7.65.54c-6.89.72-12.46,1.26-17.19,1.53V500c4.44-.27,9.64-.72,16-1.44-5.47-.72-10.76-1.44-16-2.07v-1.89c4.06.54,8,1.08,11.52,1.53,6.14.81,11.14,1.44,13.88,1.89,7.84,1,15.68,1.9,24,2.8,1.7.18,3.4.36,5.1.63,9.16,1.08,20.68,2.43,30.12,2.16H99.91c10.29,0,18.22,0,25.78.18,7,.18,13.4.54,20.39,1.08,7.37.64,15.77,1.45,26.63,2.7-12.47-6.67-44.1-10.63-64.77-13.25-7.56-1-13.69-1.71-16.9-2.34-1.51-.27-2.93-.63-4.25-.9-14.35-3-21.72-4.42-37.67-5.5-5-.36-11.43-1.35-17.66-2.35-7.18-1.08-14.16-2.25-19-2.34h0c-.28,0-4.15.18-10.1.45v-1.8c4.25-.27,7.55-.36,9.16-.45.09,0,.19-.09.38-.09a109.72,109.72,0,0,1,14.25,1.44,7.69,7.69,0,0,1,8.88-5.59,7.37,7.37,0,0,1,6.14,7.85c2.92.45,5.76.72,8.21.9,16.15,1.08,23.51,2.61,38,5.59,1.32.27,2.73.54,4.25.9,3.21.63,9.25,1.44,16.8,2.34,22.57,2.88,58.16,7.3,68.36,15.32a.09.09,0,0,1,.09.09h0c17.19,1.8,47.21,3.7,78.37,5.23,19,.9,38.43,1.72,55.71,2.35h.37c18.32.63,34,1,44,1,15.87,0,36.92-.09,57.69-1.26,16.05-.9,31.91-2.44,45.32-5.05a7.24,7.24,0,0,1,5.76-7.84,7.7,7.7,0,0,1,8.88,4.68c3.87-.81,10.38-2.52,18.22-4.6,19.35-5,46.74-12.26,62.13-14.06,35.4-4.15,59.48-4.06,84.88-4.06,17,0,34.65.09,56.74-1.17l7.93-.45c6.33-.36,15.3-.9,24.65-1.35a7.61,7.61,0,0,1,15.1-.81c5.57-.27,10.86-.63,15-.81v1.8c-14.54.81-41.08,2.25-54.67,3.06l-7.93.45h0c-18.32,1-33.62,1.18-48.16,1.18.66.18,1.32.27,2.17.45,5.76,1.17,13.6,2.52,14.73,2.7l.57.09a229.71,229.71,0,0,0,23.13,1.8h0l1.51.09c2.08.09,5.48.09,9.63.09,13.13,0,34.47,0,52.6,2.52,2.17.27,4.34.63,6.42.9v1.8c-2.18-.27-4.44-.63-6.7-.9-17.94-2.52-39.28-2.52-52.31-2.52-4.25,0-7.65,0-9.73-.09l-1.51-.09h0a233.25,233.25,0,0,1-23.32-1.8l-.56-.09c-1.23-.18-9.16-1.54-14.92-2.8-1.23-.27-2.27-.54-3.3-.72-1.32-.36-3.21-1-4.35-1.44h-2.84c-8.88,0-17.66-.09-26.82.09a7.7,7.7,0,0,1-15,.45c-12.74.54-26.62,1.53-43,3.43l-2.36.27c12.56.54,22.19,2.25,31.35,3.78,11.24,2,21.81,3.79,36.35,3.25l2-.09c11.71-.45,27.38.36,43.62,1.17,15.68.81,31.82,1.62,45.42,1.35,11-.18,18.22.09,24.64.27a225,225,0,0,0,23.23-.09v1.8a226.75,226.75,0,0,1-23.32.09c-6.33-.18-13.6-.45-24.55-.27-13.69.27-29.93-.63-45.51-1.35-16.24-.81-31.82-1.62-43.43-1.17l-2,.09c-14.64.54-25.3-1.27-36.73-3.25a237.52,237.52,0,0,0-29.84-3.7,5.74,5.74,0,0,1-5.76,4.33,5.67,5.67,0,0,1-5.47-4.51c-15.2,3-34.56,8.11-49.38,12-10.86,2.89-19.26,5.05-21.63,5.32-15.39,4.33-36.16,6.49-57,7.66s-41.92,1.27-57.79,1.27c-7.36,0-18-.18-30.59-.55,6.33,1.36,14,3.25,21.9,5.23,16.24,4,33.8,8.3,44.38,9.38l3.21.27a7.64,7.64,0,0,1,15,.81c31.06.54,56-5.68,81.1-12,40.6-10.19,81.76-20.55,150-2.8,1.79.46,4.44,1.54,6.42,2.08,1.6,0,3.11.09,4.72.18a7.58,7.58,0,0,1,15,.9c13.13,1.08,25.49,2.88,36.82,4.41,16.62,2.35,30.88,4.42,42.4,3.61h.28a114.64,114.64,0,0,0,11.71-.72v1.8a111.86,111.86,0,0,1-11.71.72h-.19c-11.71.9-26.06-1.17-42.77-3.61-27-3.87-60-8.56-96.31-2.88-21.9,3.43-46.17,8.47-67.41,14.87-16.14,4.87-30.59,10.55-40.69,16.77,22.47-1,43.81-2.52,65.71-4.06,21.15-1.53,42.77-3.06,66.38-4.14,20.39-1,60.42-2.26,98.29-3.43a7.45,7.45,0,0,1,7.17-6.31,7.59,7.59,0,0,1,7.84,5.86c4.62-.18,9.25-.27,13.6-.45V546c-44.47,1.35-101.12,3.07-126.8,4.33-23.51,1.08-45.13,2.61-66.38,4.14-28.42,2-56.08,4-86.39,4.78-46.64,1.17-90.83-6-133.5-12.8-47-7.57-92.16-14.78-136.72-10.36,28.7,2.07,70.53,9.82,106,16.4,28.61,5.32,53.06,9.92,62.79,10,31.82.27,63.35,0,94.89-.63s62.88-1.72,94.42-3.07c25.68-1.17,44.28,2.35,61.65,5.5,13.31,2.44,25.87,4.78,40.41,4.78v.09c33.14-.72,64.3-.9,89.79.09v1.8c-25.87-1.08-57.59-.81-91.3-.09a7.66,7.66,0,0,1-15,.36c-20.39.54-41.17,1.17-61.65,1.8-41.17,1.35-81,2.62-112.74,2.53a7.66,7.66,0,0,1-15.11-.18c-13.78-.27-25.58-.82-34.36-1.9l-3.59-.45C408.94,571.43,395.53,569.72,383.16,568.18ZM89.62,619.66a153.26,153.26,0,0,1-20.77.72c-8.31-.27-14.73-1.26-17.19-2h0c-19-5.86-34.93-8.93-49.38-10.1v-1.8c14.64,1.26,30.69,4.32,49.85,10.18a52,52,0,0,0,9.35,1.45,9.43,9.43,0,0,1,18.79.45c2.93-.09,6-.27,9.07-.63,19.45-2,30.4-5.23,41.73-8.57,18.41-5.41,37.86-11.18,96.4-12.71,14.07-.36,27.85-1.08,41.54-1.89,28-1.54,55.52-3.07,84.22-1.08,21.72,1.44,63.55,8.92,98.76,15.14,10,1.8,19.45,3.52,27.48,4.87,24.17,4.15,45.13,4.42,67.51,4.6,11,.09,22.47.27,34.74.81,7.27.36,14.92.54,24,.45s19.64-.63,33-1.71c19.07-1.53,35-4.15,49.75-6.49,23.7-3.79,44.29-7,69.21-5v1.8c-3.21-.27-6.42-.45-9.53-.54a10.48,10.48,0,0,1-10.67,9.64,10.64,10.64,0,0,1-10.67-9.2c-12.56.9-24.83,2.89-38,5-14.73,2.34-30.78,4.87-49.85,6.49-13.32,1.08-23.89,1.62-33.05,1.71s-16.81-.09-24.08-.45c-12.27-.63-23.6-.72-34.65-.81-2.07,0-4.15,0-6.32-.09a10.74,10.74,0,0,1-21.34-.54,306.86,306.86,0,0,1-40.13-4.06c-8.5-1.44-17.75-3.15-27.47-4.86-9.07-1.63-18.51-3.34-28.05-5a7.58,7.58,0,0,1-8.87,5.5,7.34,7.34,0,0,1-6-8.11c-21.9-3.7-42.4-6.76-55.52-7.67-28.61-1.89-56.08-.45-84,1.08-13.6.73-27.38,1.54-41.55,1.9-58.25,1.53-77.61,7.3-95.83,12.62C120.3,614.34,109.26,617.58,89.62,619.66ZM2.28,633.09v-1.8c10.86-.54,20.59-.54,35.13-.45H50.63c9.44.27,20.86-1.08,30.11-2.16,1.7-.18,3.4-.37,5.1-.64,18.51-2.07,35-4.23,50.89-6.31,36.17-4.77,68.65-9.1,111.32-10a7.59,7.59,0,0,1,7.46-6.58,7.43,7.43,0,0,1,7.55,6.31h10.86c9.54.09,19.36.27,29.93.9,10.77.63,22.29,1.53,35.5,3.06,15.49,1.8,42.77,9,62.13,14.07,10.95,2.88,19.26,5,21.43,5.22h.19a170.91,170.91,0,0,0,18.32,3.88,7.58,7.58,0,0,1,8.59-5.41,7.39,7.39,0,0,1,6.42,7.39c7.55.81,15.49,1.45,23.42,1.8,20.77,1.18,41.82,1.27,57.69,1.27,19.35,0,60.61-1.36,100-3.34,33.43-1.62,65.62-3.7,82-5.59,16.9-2,27.95-3,38.14-3.51V633c-10.1.54-21.15,1.53-37.86,3.51-9.82,1.17-25.3,2.35-43.34,3.43a7.61,7.61,0,0,1-15,.81c-7.65.45-15.67.81-23.7,1.26-30.21,1.44-61.56,2.61-83.18,3.07a7.67,7.67,0,0,1-15.11.27h-1.89c-15.86,0-36.82-.09-57.78-1.27s-41.64-3.42-57-7.66c-2.36-.18-10.76-2.43-21.62-5.32-19.26-5.05-46.55-12.26-61.94-14.06-13.12-1.53-24.73-2.53-35.31-3.07s-20.39-.81-29.93-.9c-56.18-.45-93.94,4.51-137,10.28-15.86,2.07-32.48,4.33-50.89,6.31-1.42.18-3.21.36-5.1.63-9.25,1.08-20.77,2.44-30.4,2.17H37.41C22.87,632.55,13.14,632.46,2.28,633.09Zm51-37.86c-22.94,0-36.26.63-51,1.62v-1.8c14.73-1,28.05-1.63,50.89-1.63h0c15.68-.27,56.84-5,85.74-8.47,5-.54,9.63-1.08,13.78-1.62,31.72-3.61,62.69-1.36,94.7.9,37.86,2.7,77.14,5.5,120.1-1.27,21.43-3.42,54.95-2.61,89.79.27,42.58,3.52,87.34,10.19,115,16.14a7.49,7.49,0,0,1,8.5-5.14,7.32,7.32,0,0,1,6.33,7.84c28,3.34,68.64.37,102.44-2.34a7.65,7.65,0,0,1,14.82-1.17c6.14-.45,11.9-.9,17.19-1.26,9.63-.54,17.56-1.18,24.73-1.63,4-.27,7.65-.54,11.34-.72v1.8c-3.59.27-7.28.45-11.15.72-7.08.45-15,1.09-24.73,1.63-8.22.54-17.94,1.26-28.33,2.07-39.46,3.15-89.7,7.12-118.3.72-27.29-6.12-73.84-13.25-118.12-16.84-34.84-2.89-68.17-3.71-89.41-.28-43.25,6.86-82.52,4-120.48,1.27-31.82-2.26-62.79-4.51-94.32-.9-4.06.45-8.69,1-13.79,1.62-28.7,3.34-69.68,8.11-85.73,8.47ZM9.65,649.5a.49.49,0,0,1-.38-.18l-7,.72v-1.8c22.66-2.44,44.1-4.69,62-6.49l5.1-.54c18.88-2,30.59-3.34,42.2-3.52a7.56,7.56,0,0,1,7.74-6.22,7.41,7.41,0,0,1,7.27,6.49c7.17.45,15.2,1.26,25.4,2.53,12.84,1.62,25.4,3.24,41.63,2.79a7.43,7.43,0,0,1,7.46-6.4,7.65,7.65,0,0,1,7.46,5.41c4.72-.45,9.63-1.08,15-2,17.19-2.7,44-1.45,68.36-.27,7.56.36,14.92.72,21.62.9a7.51,7.51,0,0,1,7.46-6.31,7.39,7.39,0,0,1,7.56,6.49h1.7c20.77-.54,47.4,3.78,73.27,8,24.17,4,47.77,7.75,65.24,7.39,21.81-.45,44,2.08,65.33,4.51,18.23,2.07,35.88,4.06,52,4.06,14.16,0,89.6-8,158.81-15.42l12.56-1.35v1.8l-12.37,1.35-17.85,1.89a7.37,7.37,0,0,1-7,7.4,7.59,7.59,0,0,1-8.12-5.86c-46.64,5-91.3,9.55-113.67,11.26a10.73,10.73,0,0,1-21.34.37c-13.79-.55-28.33-2.17-43.43-3.79-21.25-2.43-43.44-5-65.06-4.51-17.66.36-41.35-3.51-65.62-7.39-2-.36-4-.63-5.95-1a7.7,7.7,0,0,1-8.31,5,7.32,7.32,0,0,1-6.51-7.3c-9.35-1.45-18.6-2.7-27.38-3.52a17.69,17.69,0,0,1-3.5,1c-28.42,8.93-54.95,7.67-82,6.31-1-.09-2-.09-3-.18a7.48,7.48,0,0,1-8.3,6,7.36,7.36,0,0,1-6.7-6.67A263.88,263.88,0,0,0,213,651.84l-2.55.27c-27.94,3.16-46.54,4.24-72.6,5.77l-1,.09a597.06,597.06,0,0,1-73.27.09C44.3,656.8,25.32,654.19,9.65,649.5Zm54.29,6.85c25.3,1.71,51.55,1.08,73-.09l1-.09c26-1.54,44.57-2.62,72.52-5.77l2.54-.27c19.74-2.26,38.34-1.35,56.75-.45,26.63,1.26,52.78,2.52,80.54-5.95a189.45,189.45,0,0,0-19.93-.72c-10.29.27-24-.36-38.52-1.08-24.36-1.18-51-2.44-68,.27-32.95,5.22-52.12,2.7-72,.18-34.56-4.42-47.4-2.89-82.24.72l-5.1.54C49.68,645.17,32.3,647,13.89,649c14.74,3.87,32.11,6.22,50.05,7.38ZM89.62,414.66a153.26,153.26,0,0,1-20.77.72c-8.4-.27-14.83-1.17-17.19-2-.56-.18-1.32-.36-1.89-.54-18.12-5.5-33.51-8.38-47.58-9.56v-1.8c14.16,1.18,29.74,4.15,48.15,9.74.57.18,1.32.36,1.89.54h0l.19.09c2.36.72,8.4,1.62,16.43,1.89A149.16,149.16,0,0,0,89.34,413c19.45-2,30.4-5.23,41.73-8.56,18.41-5.41,37.86-11.18,96.4-12.71,14.07-.36,27.85-1.08,41.54-1.89,28.05-1.54,55.52-3.07,84.22-1.09,8.88.63,22.38.9,37.77,1.18,32.76.72,74.4,1.62,100.08,6,17.57,3,31.44,6.13,44,8.83C567.28,412,589.94,417,638.56,413c19.08-1.53,35-4.14,49.76-6.49,23.7-3.78,44.28-7,69.21-5v1.8c-24.83-2.16-45.32,1.08-68.92,4.87-14.73,2.35-30.78,4.87-49.86,6.49-39.46,3.25-61.93.63-86.11-4.32a7.68,7.68,0,0,1-9.25,4.77,7.28,7.28,0,0,1-5.47-7.93c-1-.27-2.18-.45-3.21-.72-12.56-2.8-26.44-5.86-43.9-8.84-14.73-2.52-34.84-3.87-55.43-4.77a7.51,7.51,0,0,1-8,6.4,7.26,7.26,0,0,1-7.08-6.94c-10.1-.27-20.11-.55-29.37-.73-15.48-.36-28.89-.63-37.86-1.17-28.61-1.89-56.08-.45-84,1.08-13.6.73-27.38,1.54-41.54,1.9-58.26,1.53-77.62,7.3-95.84,12.62A195.13,195.13,0,0,1,89.62,414.66ZM54,372.2h0c-11-3.33-29.08-5.23-51.74-6.13v-1.8l10.48.54-.66-.09-5.67-1.08a5.78,5.78,0,0,1,6.8-4.32,5.45,5.45,0,0,1,4.53,5.86c15.49,1.08,28,2.79,36.36,5.31h0c21.24,5,42.86,1.9,64.58-2.7a8.6,8.6,0,0,1,6.42-9.64,9.08,9.08,0,0,1,11,5.86c6.8-1.53,13.6-3,20.4-4.15,84.88-15,135.3-7.93,206.58,2.17,17.38,2.43,36,5,56.37,7.57C450,373.3,516.1,370.77,586,368c22.09-.9,44.66-1.71,66.47-2.43-7.84-1.17-15-3.15-23.23-5-17.94-4-36.92-8.11-63.35-4.87-29.65,3.52-58.73,6.4-89.51,7a596.65,596.65,0,0,1-99.23-5.95c-5.2-.73-14.64-2.35-26.72-4.33-41.83-6.94-115.48-19.29-153-20-12.65-.27-26.34-.64-39.28-1.09l1.32.09a5.73,5.73,0,0,1-6.32,5A5.64,5.64,0,0,1,148,331c-8.6-.27-16.62-.54-23.33-.72-10.38-.27-27.19,2.53-42.58,5.14-11.9,2-22.85,3.79-29.46,4a9,9,0,0,1-17.75.54l-9.34.27c-7.18.18-15.11.45-23.42.72v-1.8c8.31-.27,16.24-.45,23.42-.72,10.48-.27,19.35-.54,26.06-.81h.09c6.33,0,17.85-1.9,30.21-4.06,15.49-2.62,32.39-5.41,43-5.14,7.27.18,16,.45,25.3.72,15,.45,31.73,1,46.84,1.35h0c48.24-6.85,96.87,1,147.66,9.1,25.3,4.06,51.18,8.2,77.8,10.64A5.84,5.84,0,0,1,428.1,346a5.58,5.58,0,0,1,5.66,5.14,418.68,418.68,0,0,0,44.1,1.17l17-.54c10.38-7,26.06-13.34,43.71-18.66a525.93,525.93,0,0,1,67.7-15,220.93,220.93,0,0,1,34.65-2.62c-27.38-7.21-50.42-9.82-70.81-9.82a10.73,10.73,0,0,1-21.34,1.08c-21.15,2-39.75,6.67-58.16,11.27-30,7.57-59.86,15.05-100.08,10.9-10.67-1.08-28.33-5.4-44.66-9.37-15.67-3.88-30.12-7.39-35.6-7.39h-.75a9,9,0,0,1-17.94-.63h.09c-12-.45-24.45-1-36.82-1.63-33.52-1.62-65.72-3.7-82-5.59-11.05-1.26-19.55-2.16-27-2.79-2.55-.18-4.91-.36-7.18-.54a9,9,0,0,1-17.75.18c-12.65,1.62-31.16,6-50.8,10.82-23.7,5.68-49,11.72-67.88,13.79V324c18.69-2.07,43.9-8.11,67.41-13.7,16.81-4.06,32.67-7.84,44.94-9.92H86.6c-9.63.27-21.15-1.08-30.4-2.16-1.89-.18-3.68-.45-5.1-.63-8.31-.9-16.24-1.89-24-2.89a72.37,72.37,0,0,0-8.59.63c-6.61.73-11.9,1.18-16.43,1.45V295c4-.27,8.5-.63,14-1.18-.66-.09-1.32-.27-2-.36a80.89,80.89,0,0,0-11.8-1.53H2.1v-1.8h.18a73.36,73.36,0,0,1,12.09,1.53c1.13.18,2.27.45,3.4.63s3,.64,4.53.82c1.7-.37,5-1.18,6.8-1.54,8.31-1.35,18.32-2.43,28.23-3.24,12.75-1,25.49-1.54,35.12-1.35,14.36.27,28.61,0,42.87-.27,16.52-.27,33.05-.64,49.76-.09,14.82.45,27.66,1.53,40.32,3.06a5.69,5.69,0,0,1,6.23-4.6,5.56,5.56,0,0,1,5.2,5.91s0,.09,0,.13l-.47-.09c9.34,1.35,18.88,2.8,29.36,4.51l4.06.63c10.67,1.71,25.59,3,41.07,4.24,24.65,2.07,51.08,4.23,65.53,8.74a35.73,35.73,0,0,1,3.49,1.17,5.21,5.21,0,0,1,1.61.9c9.91-.18,20.49-.45,31.06-1.08,20.77-1.17,41.45-3.34,56.75-7.66h.18a116.85,116.85,0,0,0,11.71-2.7l-1.51-.27h0c-39.56-7.67-85.26-15-132.94-20.83A5.73,5.73,0,0,1,340.3,283a5.6,5.6,0,0,1-5-5.77c-10.48-1.26-21-2.34-31.53-3.43-2.65-.27-5.29-.54-7.93-.72a5.79,5.79,0,0,1-6.52,4.69,5.6,5.6,0,0,1-5-5.77c-47.77-4.32-95.83-6.67-140-6.13-2.74,0-5.57.09-8.5.09h-7.37c-.09.09-.09.09-.18.09-2.18.9-3.69,1.54-5.1,2.08-13.7,5.67-19.83,8.2-38.9,8.2-8.88,0-17.57-.55-26.25-1-8.31-.45-16.53-.9-24.65-.9a118.55,118.55,0,0,0-11.9.72c-3.21.27-6.23.55-9.34.64h0c-.29,0-4.16.18-10.1.45v-1.8c4.44-.27,7.74-.36,9.25-.45.09,0,.19-.09.28-.09a88.47,88.47,0,0,0,9.63-.64c3.78-.36,7.65-.72,12.09-.72,8.12,0,16.33.45,24.74.9,8.59.45,17.27,1,26.15,1,18.7,0,24.74-2.53,38.15-8l1.51-.63c-29.08-.18-64.4-1.44-96.21-3.42-8.88-.55-17.47-1.18-25.59-1.8v-1.8c8.12.63,16.8,1.26,25.77,1.8,22.19,1.35,46,2.43,68.27,3a5.74,5.74,0,0,1,5.76-4.51,5.63,5.63,0,0,1,5.66,4.78c9.92.18,19.36.27,27.95.27a60.27,60.27,0,0,1,17.28-10.19,5.38,5.38,0,0,1,3-5.86,6,6,0,0,1,7.74,2.35c28.8-7.93,69.3-7.12,110.94-4.51v-.09l1.42.18c11.33.72,22.75,1.53,34.08,2.44,44.76,3.33,87.34,6.49,114.34.81,3.21-.63,6.42-1.36,9.16-2,1.23-.27,2.36-.54,3.4-.72-10.95-.72-22-1.53-33-2.25-66-4.42-133.51-9-189.5-15.15-62-6.85-122.84,8.48-148.24,14.79a79.13,79.13,0,0,1-11.52,2.42,5.6,5.6,0,0,1-5.1,4.5,5.68,5.68,0,0,1-6-3.78c-5.1.27-11.62.63-18.7,1-7.27.36-15.1.81-22.56,1.17v-1.8c7.46-.36,15.2-.81,22.47-1.17,8.59-.45,16.33-.9,21.71-1.17,9.07-.45,9.54-.54,19.17-3,22.75-5.68,73.83-18.48,129-16.31a5.8,5.8,0,0,1,6.33-4.87,5.58,5.58,0,0,1,5.19,5.5c2.84.18,5.67.45,8.5.72,41.83,4.6,90.17,8.29,139.46,11.72a7.61,7.61,0,0,1,15,1.08c11.61.81,23.23,1.62,34.84,2.34,17.37,1.18,34.56,2.35,51.46,3.52,17.09,1.17,33.42,2.7,49.38,4.15,29.55,2.7,57.4,5.23,85.73,5.5,30.87.27,62.6-1.54,93-3.61a7.45,7.45,0,0,1,7.18-6.31,7.62,7.62,0,0,1,7.74,5.32c8.4-.54,16.71-1.08,24.83-1.62,2.08-.09,17.28-1,34.37-1.9v1.8c-17,.9-32.1,1.72-34.28,1.9-5.94.36-12.08.72-18.22,1.17,2.55.54,5.85,1,8.4,1.44,10.95,1.89,26.34,3.61,44.09,5.05v1.8c-17.46-1.44-32.66-3.07-43.71-5-3.78-.63-12.18-2.16-15.39-2.88l-3.3.18c-33,2.25-68,4.5-102,4.32a5.6,5.6,0,0,1-5.86,4.78,5.69,5.69,0,0,1-5.57-5c-25.4-.63-50.61-2.88-77.14-5.32-15.86-1.44-32.1-2.88-49.38-4.14L443,246.63h0c-.28.09-4.25,1-9.25,2.07-3,.63-6.33,1.35-9.16,2-27.19,5.68-70,2.53-114.91-.81-8-.63-16-1.17-24.07-1.71a5.93,5.93,0,0,1-6.24,3.6,5.84,5.84,0,0,1-4.91-4.32c-56.55-3.52-110.84-3.79-136.24,16.5,2.08,0,4.06,0,6-.09,12.75-.18,25.87-.09,39.19.27h-.38a9,9,0,0,1,17.94.63C234.74,266,269.49,268.53,304,272c15.49,1.53,30.88,3.24,46,5.14a.86.86,0,0,1,.66-.27c2,0,15.77-.81,18.13-.9,7.84-.36,17.56-1.35,27.85-2.53,21.06-2.52,44-6.31,56-8.65,25-4.87,49.76-5,74.12-2,22.28,2.7,44.19,7.84,66,14.06,2.65.72,5,1.8,7.46,2.61,13.22-.45,25.4-.45,37.77-.36,17,0,34.65.09,56.74-1.17l7.93-.45c13.69-.81,40.23-2.25,54.77-3.06v1.8c-14.54.81-41.08,2.25-54.67,3.06l-7.93.45h0c-11.8.63-22.38,1-32.29,1.08,1.7.45,3.58.9,5.47,1.27,4.53,1,9.16,1.79,11,2.16a198.36,198.36,0,0,0,26,2.52c2.26.09,4.62.27,6.8.36,5.19.36,10.48.64,15.77,1,10,.63,20.11,1.35,29.83,1.8v1.8c-9.91-.46-20-1.09-30-1.8-5.29-.37-10.58-.73-15.77-1-2.36-.18-4.63-.27-6.8-.36A204.56,204.56,0,0,1,678.41,286c-1.89-.36-6.51-1.17-11-2.17s-8.78-2.07-10.57-3H646a7.67,7.67,0,0,1-15.3,0c-22.94,0-45.7.27-77.8,4.06l-2.36.27c12.56.54,22.19,2.25,31.35,3.78,11.24,2,21.81,3.79,36.35,3.25l2-.09c11.71-.45,27.38.36,43.62,1.17,15.68.81,31.82,1.62,45.42,1.35,11-.18,18.22.09,24.64.27a219.52,219.52,0,0,0,23.23-.09v1.8a221.22,221.22,0,0,1-23.32.09c-4.91-.18-10.29-.36-17.47-.36a7.67,7.67,0,0,1-15.11.09c-11.8-.09-24.83-.72-37.57-1.44-16.24-.81-31.82-1.62-43.44-1.17l-2,.09c-14.63.54-25.3-1.27-36.73-3.25-11.14-1.89-23-4-40.12-4h-.19c-15.3,3-35.22,8.2-50.23,12.17-10.86,2.88-19.26,5-21.63,5.31-15.39,4.33-36.16,6.5-57,7.67-1.14.09-2.27.09-3.4.18a5.64,5.64,0,0,1-5.39,5.5,5.76,5.76,0,0,1-6.13-5c-15.77.54-30.78.54-42.87.54-7.36,0-18-.18-30.59-.54,6.33,1.35,14,3.24,21.9,5.23,16.24,4,33.8,8.29,44.38,9.37,31,3.16,55.61-.63,79.12-5.95a7.25,7.25,0,0,1,5.57-7.93,7.64,7.64,0,0,1,9,4.42c1.89-.45,3.78-1,5.66-1.44,40.6-10.19,81.77-20.56,150.13-2.8,2,.54,5.29,1.53,7.36,2.07,20.4.45,39.09,3.16,55.52,5.5,16.62,2.35,30.88,4.42,42.39,3.61h.29A114.64,114.64,0,0,0,757,324v1.8a114.64,114.64,0,0,1-11.71.72h-.19c-11.71.9-26.06-1.17-42.77-3.61-27-3.87-60-8.56-96.31-2.88-21.9,3.42-46.17,8.47-67.41,14.87-16.15,4.87-30.59,10.55-40.7,16.77,22.47-1,43.81-2.52,65.72-4.06,21.15-1.53,42.77-3.06,66.37-4.14,25.69-1.18,82.43-3,126.9-4.33v1.8c-18.22.54-38.42,1.17-57.78,1.8a7.65,7.65,0,0,1-15,.45c-22,.72-41.64,1.44-54.1,2.07-23.51,1.08-45.13,2.62-66.38,4.15-28.42,2.07-56.08,4-86.39,4.78-46.64,1.17-90.83-5.86-133.5-12.71-46.84-7.49-91.87-14.7-136.25-10.37,39.66,2.34,104.43,13.16,142.76,19.56,12.09,2,21.53,3.61,26.63,4.33a600.76,600.76,0,0,0,98.85,5.86c30.59-.63,59.67-3.52,89.32-7,26.72-3.16,45.89,1,64,5,4.34,1,8.68,1.89,12.93,2.7,1.61.27,3.59.63,5.85,1.08a7.53,7.53,0,0,1,8.5-5.32,7.26,7.26,0,0,1,6.33,7.57l2.36.27c33.9-1,65.81-1.35,91.77-.54v1.8c-5.85-.18-12.08-.36-18.5-.45-.47,5.5-5.48,9.64-11.33,9.37a10.59,10.59,0,0,1-10-9.37c-36.82.18-79.78,1.8-121.8,3.42a7.6,7.6,0,0,1-15,.64c-25.78,1-50.89,2-73.84,2.61h2.08a7.45,7.45,0,0,1-7.59,7.3h-.06a7.37,7.37,0,0,1-7.55-6.94c-31.63.63-58.07.45-74.4-1.53-20.68-2.53-39.18-5.14-56.46-7.58-71.1-10-121.42-17.12-206-2.16-8.21,1.44-16.43,3.24-24.64,5.05C106.14,372.38,80,378.25,54,372.2Zm431.86-73.47c1.61-.45,3.4-.9,5.2-1.35,19.35-5.05,46.73-12.26,62.12-14.06,16.15-1.89,29.93-2.89,42.59-3.43-22.76-6.67-45.8-12.26-69.12-15.05-24.26-2.89-48.72-2.89-73.55,2-12,2.35-35,6.13-56.08,8.66-10.2,1.26-20,2.16-27.86,2.52-1.51.09-5.66.36-9.63.54,24.27,3.15,47.78,6.58,70.25,10.28a5.77,5.77,0,0,1,6-3.79,5.68,5.68,0,0,1,5.2,5.59c13.6,2.34,26.72,4.69,39.27,7.12h0c.48.09,3,.45,4.44.63a7.55,7.55,0,0,0,1.14.36ZM355.12,311.44c6.7,0,14.26,0,22.28-.09-13.78-4.68-41-6.94-66.37-9-15.58-1.26-30.5-2.52-41.26-4.24l-4.06-.63c-28.61-4.6-50.51-8.11-80.35-9-16.62-.54-33.14-.18-49.66.09-14.26.27-28.52.54-42.87.27-9.54-.18-22.28.36-34.93,1.35-9.73.81-19.45,1.89-27.67,3.15,6.89.81,14,1.72,21.34,2.53,1.7.18,3.4.36,5.1.63,9.16,1.08,20.68,2.43,30.12,2.16H100c10.29,0,18.22,0,25.77.18,1,0,1.89.09,2.83.09,1.33,0,2.55,0,3.59.09a.39.39,0,0,1,.29.09c4.34.18,8.78.45,13.69.81,7.46.63,16,1.54,27.1,2.8,16.33,1.89,48.53,4,81.95,5.59,19.07.9,38.52,1.71,55.71,2.34h.28C329.44,311.08,345.11,311.44,355.12,311.44ZM14.46,229.68a5.83,5.83,0,0,1-5.66-4.24l-6.61.27v-1.8c10.86-.54,20.58-.54,35.12-.45H50.53c9.44.27,20.87-1.08,30.12-2.16,1.7-.18,3.4-.36,5.1-.63,18.51-2.07,35-4.24,50.89-6.31,36.16-4.78,68.64-9.1,111.41-10.1V204l2.08.27c7.55-.18,15.49-.18,23.79-.18,9.54.09,19.36.27,29.93.9,7.08.36,14.64,1,22.66,1.71a5.67,5.67,0,0,1,6.33-4.6A5.58,5.58,0,0,1,338,208c.47.09.85.09,1.32.18,2.18.27,4.63.63,7.18,1.08h.09c10.3,0,20.4-.72,30.6-1.44,23.7-1.62,47.4-3.33,72.41,4l2.65.81c7.55,2.16,15.1,4.6,22.75,7.12,19.55,6.31,39.66,12.71,59.86,15.33a7.35,7.35,0,0,1,6.8-5,7.52,7.52,0,0,1,7.84,6c.85,0,1.79.09,2.64.09h.29c21.71-.45,53.91-1.63,85-3.16,33.43-1.62,65.62-3.7,82-5.59,16.9-2,28-3,38.14-3.51v1.8c-10.1.54-21.15,1.53-37.86,3.51-16.33,1.9-48.62,4-82,5.59-39.46,1.9-80.82,3.34-100.08,3.34-15.86,0-36.82-.09-57.78-1.26s-41.64-3.43-57-7.67c-2.36-.18-10.77-2.43-21.62-5.32-19.26-5-46.55-12.26-61.94-14.06-13.13-1.53-24.74-2.52-35.31-3.06s-20.4-.82-29.93-.9H259.48a5.82,5.82,0,0,1-6.42,4.32,5.55,5.55,0,0,1-4.82-4.14c-42.68,1-75.15,5.22-111.22,10-15.87,2.07-32.48,4.33-50.89,6.31-1.42.18-3.21.36-5.1.63-9.26,1.08-20.78,2.44-30.4,2.17H20.23A5.91,5.91,0,0,1,14.46,229.68Zm362.85-20.19c-7.37.54-14.73,1-22.09,1.26,14.72,3.06,32.57,7.75,46.35,11.36,11,2.88,19.27,5,21.44,5.23h.19a180.23,180.23,0,0,0,22.09,4.41,6.29,6.29,0,0,1,7.08-4.32,6.16,6.16,0,0,1,5.29,5.86c7.27.72,14.82,1.35,22.38,1.71,18.31,1,36.72,1.17,51.74,1.17-19.36-2.79-38.53-9-57.13-15-7.64-2.44-15.3-5-22.75-7.13l-2.74-.81c-24.74-6.94-48.34-5.32-71.85-3.69ZM79.89,388.34c-11,1.08-20.58,1.8-26.62,1.89h0c-22.94,0-36.26.63-51,1.62v-1.79c14.73-1,28.05-1.54,50.89-1.54h0c15.68-.27,56.84-5,85.74-8.47,5-.54,9.63-1.08,13.78-1.62,19-2.17,37.67-2.26,56.56-1.45a7.53,7.53,0,0,1,7.55-6.31,7.41,7.41,0,0,1,7.55,7.13c7.65.45,15.3,1,23,1.53,26.25,1.89,53.06,3.78,81.29,2.52a5.55,5.55,0,0,1,5.2-4.6,5.77,5.77,0,0,1,6.13,4c9-.63,18.23-1.71,27.57-3.16,21.44-3.42,54.95-2.61,89.79.27,44.38,3.7,91,10.73,118.4,16.95,28.24,6.4,78.28,2.44,117.65-.72,10.38-.81,20-1.62,28.42-2.07,9.63-.54,17.56-1.17,24.73-1.63,4-.27,7.65-.54,11.33-.81v1.8c-3.58.27-7.27.45-11.14.72-7.08.46-15,1.09-24.73,1.63-8.22.54-17.94,1.26-28.33,2.07-16.9,1.35-35.69,2.8-53.91,3.61a7.66,7.66,0,0,1-15.11.45c-18.88.36-36.25-.45-49.28-3.43-27.29-6.22-73.84-13.25-118.12-16.86-34.84-2.88-68.17-3.7-89.41-.27-43.25,6.85-82.52,4-120.48,1.26-31.82-2.25-62.79-4.5-94.32-.9-4.06.46-8.69,1-13.79,1.63-14.44,1.71-32,3.7-48,5.41a5.9,5.9,0,0,1-11.43,1.17Zm-14.25-193a8.75,8.75,0,0,1-9.07-7.66c-1.13.09-2.26.09-3.21.09h0c-22.94,0-36.25.63-51,1.62v-1.8c14.73-1,28-1.62,50.89-1.62h0c15.67-.27,56.84-5.05,85.73-8.47,5-.54,9.63-1.08,13.79-1.63,31.72-3.6,62.69-1.35,94.7.9,11.8.81,23.79,1.72,35.87,2.26a7.68,7.68,0,0,1,14.92.54c22.19.54,45.13-.27,69.21-4.06,21.43-3.42,54.95-2.61,89.79.27,18.32,1.53,37,3.61,54.57,5.95a10.65,10.65,0,0,1,11.9-7.66,10.37,10.37,0,0,1,9.16,10.73c16.53,2.61,31.35,5.32,42.68,7.84,27.38,6.22,75.16,2.61,114-.45a7.43,7.43,0,0,1,7.18-7.12,7.52,7.52,0,0,1,7.84,5.95c6-.45,11.8-.9,17.09-1.18,9.63-.54,17.56-1.17,24.73-1.62,4-.27,7.65-.54,11.33-.81v1.8c-3.59.27-7.27.45-11.14.72-7.08.45-15,1.08-24.74,1.62-8.21.46-17.93,1.27-28.32,2.08-39.47,3.15-89.7,7.12-118.31.72-27.28-6.13-73.83-13.25-118.11-16.86-34.84-2.88-68.17-3.7-89.41-.27-43.25,6.85-82.53,4.06-120.48,1.26-15.86-1.17-31.54-2.25-47.12-2.61a5.66,5.66,0,0,1-5.75,5,5.74,5.74,0,0,1-5.76-5,319.34,319.34,0,0,0-35.79,1.89c-4.06.45-8.68,1-13.78,1.62-8.69,1-18.51,2.17-28.42,3.25a5.53,5.53,0,0,1-5.38,5.23,5.81,5.81,0,0,1-5.95-4c-9.82,1.08-19.26,2-27.38,2.7l2.45-.09A8.66,8.66,0,0,1,66,195.33Zm64.3,273.87c-14.54-1.62-27.95-4.32-49.19-11-5.67-1.71-11.14-3.42-15.77-4.6a51.56,51.56,0,0,0-11-1.89h0l-7.46.36c-5.38.27-13.13.72-21.72,1.17-7.27.36-15.11.81-22.56,1.17v-1.8c7.45-.36,15.2-.81,22.47-1.17,8.59-.45,16.33-.9,21.71-1.17,4.06-.18,6.8-.36,7.56-.36h0c.66,0,1.41.09,2.17.09.09,0,.19-.09.28-.09a242.92,242.92,0,0,0,24.17-3.34c12.65-2.25,19.54-3.42,47.4.82,8.31,1.26,16.71,2.61,25.4,4,43.71,6.85,92.62,14.43,122.27,15.06a9.15,9.15,0,0,1,9.35-8.84,9.34,9.34,0,0,1,9.53,8.48c13-.82,24.74-2.71,36.54-4.61,31-4.95,62.88-10,121.61,2.71,11.05-2.8,21.9-5.23,32.2-6.86-8.31-1.35-23.51-3.42-41.17-5.77-21.62-2.88-47-6.31-68.16-9.64-35.13-5.41-58.07-8.39-82.34-9.92s-49.94-1.71-90.54-1.62H192.26a9,9,0,0,1-17.75.09c-33.8.09-62.7-.36-75.06-6.49a1.16,1.16,0,0,1-.48-.45c-4.25.54-8.5,1-12.84,1.53-1.41.18-3.21.36-5.1.63-9.25,1.08-20.77,2.44-30.4,2.17H22.3a5.63,5.63,0,0,1-5.76,5.23,5.75,5.75,0,0,1-5.76-5.14c-2.83.09-5.57.18-8.5.36v-1.8c10.86-.54,20.59-.54,35.13-.45H50.63c9.44.27,20.86-1.08,30.11-2.17l5.1-.54c18.51-2.07,35-4.23,50.89-6.31,43.06-5.68,80.92-10.73,137.29-10.27,9.53.09,19.35.27,29.93.9,10.76.63,22.28,1.53,35.5,3.06,22.75,2.7,42.49,7.66,62.31,12.71,17.19,4.33,34.47,8.66,53.82,11.54a5.8,5.8,0,0,1,6.23-4.15,5.63,5.63,0,0,1,5.2,5.68c6.32.72,12.84,1.26,19.64,1.62,9.25.46,18.5.64,27.1.73,8.4.09,16.61.09,23.79.09,19.36,0,60.62-1.36,100-3.34,33.42-1.62,65.62-3.7,82-5.59,16.9-2,27.95-3,38.15-3.51v1.8c-2.55.09-5.2.27-8,.54a7.46,7.46,0,0,1-7.18,6.49,7.57,7.57,0,0,1-7.64-5.14c-4.54.45-9.45,1-15,1.62-16.33,1.9-48.62,4-82,5.59l-30,1.35a10.76,10.76,0,0,1-21.24.81c-20.4.73-38.05,1.18-48.91,1.18-7,0-15,0-23.89-.18-8.69-.09-17.85-.36-27.19-.72-33.24-1.54-59.39-8.12-85.36-14.7-19.73-5.05-39.37-10-62-12.62-.47-.09-.94-.09-1.41-.18a5.84,5.84,0,0,1-11.24-1.17c-8.12-.81-15.58-1.35-22.66-1.71-10.67-.64-20.39-.82-29.93-.9-47.21-.37-81.48,3.06-116.79,7.57a5.6,5.6,0,0,1-5.2,5.5,5.78,5.78,0,0,1-6.13-4c-2.93.36-5.86.81-8.88,1.17-11.14,1.44-22.75,3-35,4.51,14.35,5.86,47,5.68,83.94,5.5,5.48,0,11.14-.09,16.71-.09,31.54-.09,54,0,73.93.81a5.72,5.72,0,0,1,5.76-4.87,5.62,5.62,0,0,1,5.66,5.41l5.29.27c21.53,1.35,41.92,3.79,70.63,8.11a5.82,5.82,0,0,1,11,1.63c.29,0,.57.09.85.09,21.06,3.24,46.46,6.67,68.17,9.64,22.38,3,40.88,5.5,46.45,6.76,12.94-1.71,24.84-2.16,34.84-.54,53,8.39,114.16,4.24,169.86.54,9.54-.63,18.88-1.26,28-1.8,2.08-.09,17.28-1,34.37-1.89v1.8c-17,.9-32.1,1.71-34.27,1.89-9.16.55-18.51,1.18-28,1.8l-16.24,1.09h5.57a10.78,10.78,0,0,1-21.44,1c-46.64,2.79-95.07,4.24-138.32-2.62-7.74-1.26-16.9-1.17-26.72-.27a7.26,7.26,0,0,1-6.61,7.3,7.66,7.66,0,0,1-8.31-5.31c-34,5.58-72.32,18.66-92.62,25.15-20.49,6.58-39.56,12.62-54.48,15.95-21.72,5-62.6-5.41-100.55-15-25.21-6.4-49-12.44-65-13.43-4.35-.27-8.31-.46-12-.73-4-.27-7.65-.45-11.15-.63a9,9,0,0,1-9.91,7.41,9.08,9.08,0,0,1-7.36-9Zm41.07,1c16.05,1,40,7,65.24,13.44,37.67,9.55,78.37,19.83,99.61,15.05,1.7-.36,3.59-.81,5.38-1.26a7.2,7.2,0,0,1,5.57-8.11,7.82,7.82,0,0,1,9,4.14c10.58-3.06,22.19-6.76,34.47-10.63,18.88-6,39.09-12.44,58.63-17.58-56.18-11.63-87.15-6.76-117.36-1.9-17.28,2.8-34.28,5.5-55.52,5.05-12.27-.27-27.95-1.71-45-3.78a5.83,5.83,0,0,1-11.23-1.45c-21.43-2.79-44.57-6.4-66.38-9.82-8.78-1.35-17.37-2.7-25.4-4-27.57-4.23-34.36-3-46.83-.81-4.81.9-10.57,1.89-18.6,2.8.95.27,2,.45,3,.72,4.72,1.17,10.2,2.88,15.87,4.6,33.51,10.45,47.3,11.27,77.7,13,3.68,0,7.74.26,11.9.53ZM279.68,78.32a9,9,0,0,1-9.35-7.48c-23.32-.27-49-2.34-71.28-4.15-10.39-.81-19.92-1.62-28.14-2.07-4.34-.27-8.31-.45-12-.72-24.45-1.44-38.24-2.17-60.14-7.84-1.32.45-4.53,1.35-4.82,1.44-8.4,2.34-26.62,6.49-44.09,9.91-15.67,3.07-30.69,5.68-37.48,6v.09c-.29,0-4.16.18-10.1.45v-1.8c3.49-.18,6.32-.36,8.12-.45l.47-.09c5.66,0,21.81-2.7,38.71-6,19.07-3.78,39-8.2,46-10.45-4.53-1.27-9.35-2.62-14.73-4.33-15.3-4.78-22.66-6.13-31.63-6.22a5.72,5.72,0,0,1-5.66,4.51A5.63,5.63,0,0,1,38,45c-3.69.18-7.94.54-13,.81-7.27.36-15.11.81-22.57,1.17V45.14c7.46-.45,15.2-.81,22.47-1.17C52,42.53,55.16,40.82,81.5,49a265.62,265.62,0,0,0,35.69,9,1,1,0,0,1,.47-.18c4.25,0,12-1.72,21.53-3.88,15.67-3.52,36.26-8.11,55-8.11,9.82,0,20.59-.36,31.45-.72A5.62,5.62,0,0,1,231.25,40a5.76,5.76,0,0,1,5.94,4.69c1.23-.09,2.46-.09,3.69-.18,17.94-.73,35.5-1.45,49.47-1.27,25.87.45,56-4.32,85.07-8.92,14.16-2.26,28-4.42,41.17-5.95a5.55,5.55,0,0,1,5.19-5.68A5.7,5.7,0,0,1,428,27.21c7-.63,13.69-1,20-1h2.08c24.64,0,40,1.36,57.69,2.89,18.5,1.62,32.85,3.88,47.3,6.4a7.55,7.55,0,0,1,8.68-5.32A7.3,7.3,0,0,1,570,38.29c10.67,2,22,4.06,35.69,6.22,11,1.72,21.81,3.52,31.07,4.87A10.79,10.79,0,0,1,658,51.18c12.65-.72,25.21-1.53,37.48-2.34,9.54-.63,18.89-1.26,28-1.8,2.07-.09,17.27-1,34.36-1.9v1.8c-13.6.73-26,1.45-31.53,1.72a7.46,7.46,0,0,1-7.18,6.49,7.62,7.62,0,0,1-7.83-5.5l-15.87,1.08c-12.65.81-25.68,1.71-38.71,2.43h-.09c-33.14,1.9-67.13,2.89-99.23.55a5.82,5.82,0,0,1-6.05,4,5.62,5.62,0,0,1-5.28-5c-7.08-.72-14.07-1.53-20.87-2.61-11-1.71-25.21-2.34-41.26-2.16a10.49,10.49,0,0,1-9.91,9.46,10.64,10.64,0,0,1-11.33-8.74c-8.78.45-17.75,1-26.91,1.8-17.47,1.44-35.31,3.42-52.22,5.68a7.36,7.36,0,0,1-6.42,7.66,7.61,7.61,0,0,1-8.5-5.59c-19.92,2.89-37.67,6.13-51,9.1-8.21,1.89-18.32,2.89-29.36,3.25A9.29,9.29,0,0,1,279.68,78.32Zm37.39-12.71c27.29-6.22,74-13.25,118.4-17,34.93-2.88,68.45-3.7,89.79-.27,36.64,5.77,77.23,5.59,117.17,3.7-10.48-1.26-23.6-3.51-37.29-5.68-14.07-2.25-28.7-4.77-41.36-7.3A471.58,471.58,0,0,0,507.42,31c-17.47-1.53-32.86-2.88-57.5-2.88h-2.08c-20.87,0-46.17,4.05-72.23,8.2-15.39,2.43-31,4.86-46.07,6.58a5.53,5.53,0,0,1-5.39,5.59,5.79,5.79,0,0,1-6-4.51,268.87,268.87,0,0,1-27.95,1.16c-14-.27-31.44.46-49.38,1.27C224.73,47,208.4,47.76,194,47.76c-18.5,0-39,4.6-54.57,8C133.34,57.13,128,58.4,123.61,59c10.67,1.44,21.15,2.07,35.31,2.88,3.3.18,6.8.36,10.48.63a9,9,0,0,1,17.75,1.26c3.87.27,7.84.64,11.9.9C238.61,68.05,288.84,72,317.07,65.61ZM89.71,36.05a8.91,8.91,0,0,1-9.44-6.5q-6.8.81-14.16,1.36c-13.31,1.08-23.89,1.62-33,1.71S16.35,32.53,9,32.17c-2.27,0-4.53-.09-6.7-.18v-1.8l6.8.27c7.27.36,14.92.54,24,.45S52.71,30.28,66,29.19c19.07-1.53,35-4.14,49.75-6.49C153.35,16.66,182.9,12,235,28l-.57,1.71c-51.64-15.86-80.91-11.18-118.3-5.23-5.76.9-11.8,1.9-18.13,2.8A8.91,8.91,0,0,1,89.71,36.05Zm529-20.38a7.35,7.35,0,0,1-7.18-7.5c0-.05,0-.11,0-.16l7.65.36,7.64.36A7.76,7.76,0,0,1,618.73,15.67Z"/></g></svg>