<svg id="Layer_1" data-name="Layer 1" xmlns="http://www.w3.org/2000/svg" viewBox="0 0 490 490"><defs><style>.cls-1{fill:#d5c5ad;}</style></defs><title>circles-bg-contact</title><path class="cls-1" d="M460,127.64c-13.57-18.49-30.85-35.67-50.8-50.83A215,215,0,0,0,337.8,27.64C266.67-2.3,190.15.78,132.77,34A259.77,259.77,0,0,0,78.06,64.23C38.6,92.75,22.86,139.72,15.13,187.44c-15.31,37.64-17.71,74-7.26,108.62A177.63,177.63,0,0,0,55.8,400.87c22.92,24.35,53.11,43.25,87.17,55.4,40.56,20.08,85.94,29.2,129.5,26.15a235.4,235.4,0,0,0,38-5.85c35.5-8.87,78.84-34.82,113.2-68,20.44-19.65,36.1-40.47,45.28-59.89,13.08-27.69,16.72-60.2,14.59-92.47C494.7,205.91,487.13,164.74,460,127.64Zm-3.58,2.69c23.46,32.19,31.86,67.59,25.59,109.73a332.73,332.73,0,0,0-24.79-90.43A255.77,255.77,0,0,0,426.41,96.9,229.14,229.14,0,0,1,456.4,130.33Zm19.48,138c-9.46,34.1-23.21,76.76-45.89,104.83-49,60.71-113,92.24-190.41,93.9a268.65,268.65,0,0,1-94.31-14.92,250.42,250.42,0,0,1-28.3-16.3C73,406.61,35,357.05,15.09,303.42c-1-2.67-1.89-5.34-2.72-8a199.88,199.88,0,0,1-.28-37.22l.41-4.91c1.73-20.47,3.6-42.53,7.13-64.42q3.48-8.46,7.85-17C45.16,137,72.69,89.59,104,60.91a172.75,172.75,0,0,1,30.33-22.39A258.56,258.56,0,0,1,214.19,20a261.25,261.25,0,0,1,101,12.65A317,317,0,0,1,404,78.36c19.93,20.22,36.39,44.83,48.84,73.27,12.67,28.9,23.48,66.87,26,105.1Q477.52,262.46,475.88,268.33ZM221,12.9A255.16,255.16,0,0,1,335.85,32.1,208.55,208.55,0,0,1,378.6,56.38,329.79,329.79,0,0,0,316.38,28.2a266.41,266.41,0,0,0-138.41-8A216.88,216.88,0,0,1,221,12.9ZM80.79,68.17a258.55,258.55,0,0,1,27.75-17.44q-3.9,3.21-7.63,6.64C69.28,86.45,41.22,134.43,23.36,169.49l-.18.37C31.79,129.71,47.71,92,80.79,68.17Zm-69,143.65c-1.61,14-2.76,27.84-3.84,41l-.41,4.91q-.46,5.64-.64,11.19A153.43,153.43,0,0,1,11.8,211.82Zm47.34,185.8a172.16,172.16,0,0,1-42.91-79.24c20.18,46.84,53.62,89.51,92,117.08A203.8,203.8,0,0,1,59.14,397.62ZM464.65,346.7c-9,19-24.34,39.27-44.25,58.5-33.84,32.61-76.25,58.31-111,66.75-40.86,10-85.23,7.92-126.87-5a276.81,276.81,0,0,0,57.23,4.79c4.88-.15,9.58-.29,14.45-.63,72.27-5.06,132.69-36.9,179.23-95,22.6-27.94,36.37-69.69,46-103.71C479.46,298.56,475.25,324.26,464.65,346.7Z"/></svg>