<svg id="Group_51" data-name="Group 51" xmlns="http://www.w3.org/2000/svg" viewBox="0 0 94 72"><defs><style>.cls-1{fill:#c7c7c7;}</style></defs><title>drinks</title><path class="cls-1" d="M66.79,54.56l.21,0c.76,0,.92-.55,1-1l.07-.65a1.1,1.1,0,0,0-1-1.2H67a1.1,1.1,0,0,0-1.09,1l-.07.64A1.12,1.12,0,0,0,66.79,54.56Z"/><path class="cls-1" d="M66,62.45h.1a1.07,1.07,0,0,0,1.06-1l.49-4.94a1,1,0,0,0-.86-1.17h-.17a1.1,1.1,0,0,0-1.09,1L65,61.25A1.11,1.11,0,0,0,66,62.45Z"/><path class="cls-1" d="M71.83,40.31A3.73,3.73,0,0,0,70.77,38l-7.15-7.23A3.7,3.7,0,0,0,61,29.69H61a3.61,3.61,0,0,0-2.57,1.09L57,32.2l-1.4-1.42A3.7,3.7,0,0,0,53,29.69h0a3.61,3.61,0,0,0-2.57,1.09l-.49.5-6.67-7.6A3,3,0,0,0,39,23.42a14.63,14.63,0,0,0-3.05,17.85,3.06,3.06,0,0,0-.28,1.61l2.09,21a3,3,0,0,0,3,2.71H67.83a3,3,0,0,0,3-2.71l2.1-21A2.62,2.62,0,0,0,71.83,40.31ZM42.72,27.09l.34-.31,4.67,5.32-8.2,1.83a9.31,9.31,0,0,1,2.8-6.48S42.45,27.35,42.72,27.09Zm3.92,7.49L43.23,38a3.84,3.84,0,0,0-.92,1.54h-1a9.06,9.06,0,0,1-1.55-3.45Zm-9,5.17a12.36,12.36,0,0,1,2.77-14.61l.08-.07a.86.86,0,0,1,1.2.11c-.16.13-.33.27-.48.41a11.42,11.42,0,0,0-3.64,6.6,11.59,11.59,0,0,0,1.21,7.36A2.27,2.27,0,0,0,37.6,39.75ZM68.68,63.68a.83.83,0,0,1-.83.75H40.76a.83.83,0,0,1-.83-.75l-2.09-21a.81.81,0,0,1,.73-.91h3.74a3.84,3.84,0,0,0,.92,1.54l1.38,1.4a1.08,1.08,0,0,0,1.53,0,1.1,1.1,0,0,0,0-1.54l-1.42-1.44a1.58,1.58,0,0,1,0-2.18l7.15-7.22A1.53,1.53,0,0,1,53,31.89h0a1.6,1.6,0,0,1,1.08.45l1.41,1.42-.61.61a1.1,1.1,0,0,0,0,1.54,1.08,1.08,0,0,0,1.49,0l3.55-3.59a1.49,1.49,0,0,1,1-.44h0a1.55,1.55,0,0,1,1.08.44l7.15,7.22a1.59,1.59,0,0,1,0,2.19L62.09,49a1.54,1.54,0,0,1-2.16,0l-7.15-7.22a1.59,1.59,0,0,1-.44-1.09,1.61,1.61,0,0,1,.44-1.1L54.35,38a1.09,1.09,0,0,0,0-1.54,1.06,1.06,0,0,0-1.49,0L51.26,38a3.73,3.73,0,0,0,0,5.25l4.21,4.27L54.06,49a1.45,1.45,0,0,1-1.08.44A1.56,1.56,0,0,1,51.9,49l-3.72-3.76a1.07,1.07,0,0,0-1.52,0,1.1,1.1,0,0,0,0,1.51l3.72,3.75A3.62,3.62,0,0,0,53,51.57h0a3.59,3.59,0,0,0,2.57-1.09L57,49.07l1.4,1.41A3.62,3.62,0,0,0,61,51.57h0a3.57,3.57,0,0,0,2.57-1.09l7.08-7.15Z"/><path class="cls-1" d="M78.54,16.71h0a3.61,3.61,0,0,0-2.67-1.19H33.1L29.45,6.13c.38-.08.77-.14,1.14-.18A12.66,12.66,0,0,1,40,8.64a7.87,7.87,0,0,1,.62.53l.17.15-3.13,4a1.08,1.08,0,0,0,.23,1.51,1.06,1.06,0,0,0,1.45-.17l4-5a3.47,3.47,0,0,0-.54-4.84l0,0A17.35,17.35,0,0,0,18.23,7.61a17.74,17.74,0,0,0,2.86,24.76,3.71,3.71,0,0,0,2.12.75,3.57,3.57,0,0,0,2.71-1.32L29.72,27l4,40.71a3.6,3.6,0,0,0,3.58,3.27H71.06a3.6,3.6,0,0,0,3.58-3.27l4.8-48.14A3.66,3.66,0,0,0,78.54,16.71Zm-56.13,14A15.62,15.62,0,0,1,19.9,9,15.27,15.27,0,0,1,41.4,6.43a1.28,1.28,0,0,1,.49,1L41.31,7a14.82,14.82,0,0,0-21,2.48,15.13,15.13,0,0,0-3.18,8.26v0a.54.54,0,0,0,0,.18,15.11,15.11,0,0,0,5.63,12.69l.29.22.21.16A1.3,1.3,0,0,1,22.41,30.69Zm7-6.82h0L25,29.5c-.28-.19-.56-.4-.83-.62a12.93,12.93,0,0,1-4.85-9.79l9.76,1.29.35,3.47Zm.51-7.17v0a3.44,3.44,0,0,0-.8,1.46l-9.68-1.27a12.88,12.88,0,0,1,8-10.15l3.57,9.15A3.77,3.77,0,0,0,29.9,16.7Zm47.41,2.61v.05h0L72.51,67.45a1.47,1.47,0,0,1-1.44,1.32H37.35a1.44,1.44,0,0,1-1.42-1.32L31.12,19.31a1.46,1.46,0,0,1,1.28-1.6H75.88a1.44,1.44,0,0,1,1.43,1.45Z"/></svg>