<svg xmlns="http://www.w3.org/2000/svg" viewBox="0 0 174.741 171.768">
  <defs>
    <style>
      .cls-1 {
        fill: #bee2e4;
      }

      .cls-2 {
        fill: #d5c5ad;
      }

      .cls-3 {
        fill: #c4b892;
      }
    </style>
  </defs>
  <g id="Group_171" data-name="Group 171" transform="translate(-176.983 -35.213)">
    <g id="Group_14" data-name="Group 14" transform="matrix(0.998, -0.07, 0.07, 0.998, 177, 46.488)">
      <path id="Path_24" data-name="Path 24" class="cls-1" d="M116.88,120.362c-5.859,4.8-9.828,10.551-17.01,13.837-11.591,5.308-22.8,2.974-34.329-1C56.6,130.1,47.023,128.651,39.34,122.9c-6.8-5.115-13.415-10.42-20.28-15.472C13.14,103.074,6.842,99.285,3.253,92.59.042,86.716-.524,79.7.359,73.072S3.511,60.058,5.717,53.741c1.7-4.8,2.27-10.234,4.475-14.719,2.647-5.37,7.12-10.235,11.53-14.152,5.8-5.181,12.222-9.541,17.829-14.659C50.514.291,68.34-1.544,82.386,1.043a79.517,79.517,0,0,1,28.658,11.365c5.227,3.41,7.368,9.032,10.39,14.211,3.9,6.506,10.014,8.842,15.178,13.957,6.676,6.568,8.5,15.79,6.924,24.761-3.594,20.278-8.386,41.251-25.522,54.141A13.842,13.842,0,0,0,116.88,120.362Z" transform="translate(10.61 10.889)"/>
      <g id="Group_8" data-name="Group 8" transform="translate(0 0)">
        <path id="Path_25" data-name="Path 25" class="cls-2" d="M85.407,160.885a85.482,85.482,0,0,1-51.9-18.056C19.274,131.777,7.5,113.9,2.023,95.08-2.258,80.362.2,65.138,9.4,49.786c6.805-11.372,17.327-26.85,28.6-35.886C58.859-2.906,90.291-4.618,118,9.463,135.2,18.24,148.044,33.4,155.1,53.295c6.61,18.57,10.321,47.375-.769,67.212-3.529,6.318-9.262,12.951-16.57,19.08h0c-12.285,10.362-27.4,18.072-39.5,20.222A78.987,78.987,0,0,1,85.407,160.885ZM79.266,1.764c-14.173,0-28.472,3.859-40.316,13.4C27.8,24.073,17.466,39.362,10.724,50.67,1.777,65.58-.683,80.362,3.471,94.637c5.413,18.507,16.937,36.066,30.981,46.928,18.2,14.146,41.947,20.4,63.553,16.664,11.842-2.024,26.646-9.67,38.742-19.843,7.119-6,12.726-12.447,16.192-18.638,10.838-19.4,7.127-47.631.643-65.885-6.925-19.518-19.457-34.36-36.336-42.948A85.319,85.319,0,0,0,79.266,1.764Z"/>
      </g>
      <g id="Group_9" data-name="Group 9" transform="translate(1.206 2.402)">
        <path id="Path_26" data-name="Path 26" class="cls-2" d="M78.344,154.252c-1.638,0-3.212-.063-4.85-.125-24.125-1.2-46.547-11.74-59.9-28.161C2.388,112.134-2.018,95.142.82,76.7l.252-1.642C4.415,53.2,8.641,25.97,28.989,13.269a88.568,88.568,0,0,1,80.628-6.523c19.462,8.082,36.089,21.47,45.723,36.818,8.942,14.274,10.009,29.624,3.392,48.26-4.034,11.371-9.705,25.585-18.148,34.683C123.636,144.957,102.658,154.247,78.344,154.252ZM75.6,1.574a86.548,86.548,0,0,0-45.8,13.085C10.089,26.918,5.927,53.765,2.584,75.306l-.252,1.642c-2.775,17.941,1.5,34.553,12.462,48.006,13.1,16.105,35.017,26.4,58.764,27.593,25.951,1.258,48.126-7.843,65.955-27.113,8.253-8.908,13.862-22.933,17.833-34.178l.756.253-.756-.253c6.429-18.131,5.361-33.038-3.266-46.871C144.7,29.291,128.26,16.092,109.112,8.2A87.307,87.307,0,0,0,75.6,1.574Z" transform="translate(0 0)"/>
      </g>
      <g id="Group_11" data-name="Group 11" transform="translate(76.224 97.213)">
        <g id="Group_10" data-name="Group 10">
          <path id="Path_27" data-name="Path 27" class="cls-3" d="M.945,1.642h0A4.14,4.14,0,0,1,2.079.442,2.838,2.838,0,0,1,3.653,0,3.31,3.31,0,0,1,5.1.252a2.789,2.789,0,0,1,.945.758,3.447,3.447,0,0,1,.5,1.2,11.462,11.462,0,0,1,.126,1.579v5.5H5.793v-5.5a6.512,6.512,0,0,0-.063-1.137A2.107,2.107,0,0,0,5.417,1.7a1.519,1.519,0,0,0-.63-.632A2.246,2.246,0,0,0,3.59.82,2.391,2.391,0,0,0,2.2,1.2a2.36,2.36,0,0,0-.819.948,4.2,4.2,0,0,0-.378,1.263A11.379,11.379,0,0,0,.881,4.8V9.286H0L0,.126H.882V1.642Z" transform="translate(0 0.063)"/>
          <path id="Path_28" data-name="Path 28" class="cls-3" d="M8.88,9.41H8V7.768H7.935a2.527,2.527,0,0,1-.63.758,3.2,3.2,0,0,1-.819.569,5.9,5.9,0,0,1-.945.379A5.5,5.5,0,0,1,4.533,9.6,4.522,4.522,0,0,1,1.2,8.212,4.56,4.56,0,0,1,.314,6.7a5.859,5.859,0,0,1,0-3.79A4.564,4.564,0,0,1,1.2,1.389,3.759,3.759,0,0,1,2.582.379,4.508,4.508,0,0,1,4.409,0,4.468,4.468,0,0,1,6.425.441,3.851,3.851,0,0,1,7.936,1.767H8V.188h.882l0,9.223ZM4.409.947a3.728,3.728,0,0,0-1.449.316,3.082,3.082,0,0,0-1.134.885,3.1,3.1,0,0,0-.693,1.264A3.716,3.716,0,0,0,.881,4.864,4.257,4.257,0,0,0,1.133,6.38a4.07,4.07,0,0,0,.693,1.263,3.922,3.922,0,0,0,1.134.884,3.776,3.776,0,0,0,3.023,0,3.082,3.082,0,0,0,1.134-.885,4.419,4.419,0,0,0,.693-1.327,4.373,4.373,0,0,0,.252-1.579A3.715,3.715,0,0,0,7.81,3.283a3.885,3.885,0,0,0-.756-1.2,3.738,3.738,0,0,0-1.134-.821A3.1,3.1,0,0,0,4.409.947Z" transform="translate(10.015 -0.002)"/>
          <path id="Path_29" data-name="Path 29" class="cls-3" d="M.315,0H1.386l2.9,3.726L7.181,0H8.252l-3.4,4.3,3.715,4.8H7.494L4.219,4.926,1.006,9.1H0l3.717-4.8Z" transform="translate(21.353 0.312)"/>
          <path id="Path_30" data-name="Path 30" class="cls-3" d="M4.724,0a4.59,4.59,0,0,1,1.89.379,4.883,4.883,0,0,1,1.512,1.01A4.9,4.9,0,0,1,9.133,2.9,4.625,4.625,0,0,1,9.51,4.8a4.628,4.628,0,0,1-.378,1.9A4.905,4.905,0,0,1,8.124,8.21,4.889,4.889,0,0,1,6.612,9.221a4.592,4.592,0,0,1-1.89.379A4.506,4.506,0,0,1,2.9,9.222a4.883,4.883,0,0,1-1.512-1.01A4.9,4.9,0,0,1,.377,6.7a4.629,4.629,0,0,1,0-3.664A4.9,4.9,0,0,1,1.385,1.516,4.889,4.889,0,0,1,2.9.5,2.785,2.785,0,0,1,4.724,0ZM4.661.82a3.8,3.8,0,0,0-1.512.316,3.292,3.292,0,0,0-1.2.885,4.365,4.365,0,0,0-.819,1.264A4.354,4.354,0,0,0,.818,4.8a3.755,3.755,0,0,0,.315,1.453,3.365,3.365,0,0,0,.819,1.263,4.213,4.213,0,0,0,1.2.884,3.8,3.8,0,0,0,1.512.316A4.376,4.376,0,0,0,6.234,8.4a4.35,4.35,0,0,0,1.26-.821,3.369,3.369,0,0,0,.819-1.264A4.354,4.354,0,0,0,8.629,4.8,4.408,4.408,0,0,0,8.314,3.22,4.361,4.361,0,0,0,7.5,1.957a3.354,3.354,0,0,0-1.26-.821A3.354,3.354,0,0,0,4.661.82Z" transform="translate(31.621 0.12)"/>
          <path id="Path_31" data-name="Path 31" class="cls-3" d="M4.85,1.894a1.855,1.855,0,0,0-.63-.758A1.636,1.636,0,0,0,3.275.884a1.835,1.835,0,0,0-.567.126,1.372,1.372,0,0,0-.5.316,2.748,2.748,0,0,0-.378.442.941.941,0,0,0-.126.569,1.371,1.371,0,0,0,.315.884,2.587,2.587,0,0,0,.819.505c.315.126.693.253,1.071.442a5.573,5.573,0,0,1,1.071.505,2.049,2.049,0,0,1,.819.821,2.572,2.572,0,0,1,.315,1.326,2.169,2.169,0,0,1-.252,1.137,2.267,2.267,0,0,1-.63.884,2.372,2.372,0,0,1-.945.569,3.558,3.558,0,0,1-1.134.19A3.2,3.2,0,0,1,1.132,8.97,3.1,3.1,0,0,1,0,7.2L.88,6.948A2.805,2.805,0,0,0,1.7,8.275a2.241,2.241,0,0,0,1.449.505A1.993,1.993,0,0,0,4.6,8.211a2,2,0,0,0,.567-1.453,2.277,2.277,0,0,0-.126-.695,3.5,3.5,0,0,0-.378-.505,2.55,2.55,0,0,0-.567-.316c-.189-.063-.441-.189-.63-.253l-.945-.379a4.01,4.01,0,0,1-.882-.505,3.306,3.306,0,0,1-.63-.695A1.606,1.606,0,0,1,.755,2.4a2.542,2.542,0,0,1,.189-.948A2.97,2.97,0,0,1,1.512.695,3.571,3.571,0,0,1,2.331.189,2.522,2.522,0,0,1,3.275,0,2.394,2.394,0,0,1,4.661.441a2.227,2.227,0,0,1,.945,1.074Z" transform="translate(43.274 0.055)"/>
        </g>
      </g>
      <g id="Group_13" data-name="Group 13" transform="translate(19.292 45.884)">
        <g id="Group_12" data-name="Group 12">
          <path id="Path_32" data-name="Path 32" class="cls-3" d="M48.745,43.056q.472-.284.567.379c.063.126,0,.253-.063.505a1.322,1.322,0,0,1-.252.379l-.378.569-.378.569a1.071,1.071,0,0,1-.378.379h-.189a1.081,1.081,0,0,1-.378.758,1.789,1.789,0,0,0-.63.569,2.992,2.992,0,0,1-.63.632.912.912,0,0,0-.441.695.909.909,0,0,0-.693.442,2.712,2.712,0,0,1-.63.569,1.107,1.107,0,0,0-.315.253.58.58,0,0,0-.252.379c0,.126-.063.19-.126.19a.73.73,0,0,0-.63.253.98.98,0,0,1-.5.379,15.609,15.609,0,0,1-1.953,1.137,21.733,21.733,0,0,1-2.142.885,11.672,11.672,0,0,1-2.142.379,6.036,6.036,0,0,1-2.142-.189l-1.7-.568a4.541,4.541,0,0,1-1.512-.884c-.252-.253-.567-.442-.819-.695a4.469,4.469,0,0,0-.882-.632,1.671,1.671,0,0,1-.378-.316,1.321,1.321,0,0,1-.252-.379c-.252-.442-.5-.947-.756-1.39a9.308,9.308,0,0,1-.63-1.39,2.94,2.94,0,0,0-.567-1.263.978.978,0,0,1-.189-.379,1.805,1.805,0,0,0-.126-1.011c-.126-.316-.315-.568-.441-.821a1.873,1.873,0,0,1-.126-.632,2.786,2.786,0,0,0-.126-.632c-.189-.695-.378-1.326-.567-2.021-.189-.632-.441-1.326-.692-2.021-.189-.442-.378-.947-.567-1.39s-.441-.884-.693-1.39a4.29,4.29,0,0,0-2.2-2.021,1.786,1.786,0,0,1-.693-.505,5.268,5.268,0,0,1-.5-.758,2.022,2.022,0,0,1-.189-.884,1.273,1.273,0,0,1,.252-.821,3.838,3.838,0,0,1,.441-.632.926.926,0,0,1,.756-.442c.189-.063.252-.126.252-.19a1.051,1.051,0,0,1,.63-.884,2.049,2.049,0,0,0,.819-.632,7.567,7.567,0,0,1,.693-.758c.252-.253.5-.442.756-.7l.756-.758a2.834,2.834,0,0,0,.63-.821.444.444,0,0,1,.315-.253,1.015,1.015,0,0,0,.441-.253c.063-.126.189-.253.252-.379a3.31,3.31,0,0,0,.63-.695,2.524,2.524,0,0,1,.756-.632c.189,0,.252-.063.252-.19a.978.978,0,0,1,.5-.695,1.129,1.129,0,0,0,.567-.632c.126-.19.189-.253.378-.253a.822.822,0,0,0,.567-.695.348.348,0,0,1,.189-.316,4.13,4.13,0,0,0,1.134-.948,7.53,7.53,0,0,1,.945-1.137l.945-.948a3.587,3.587,0,0,0,.756-1.137c.063-.063.063-.126.189-.126.063,0,.189-.063.252-.063q.378-.095.378-.379a.574.574,0,0,1,.5-.632.518.518,0,0,0,.315-.316c.126-.442.315-.695.63-.758.126,0,.189-.063.189-.253,0-.316.189-.569.63-.758.063-.063.063-.063.126-.063s.063-.063.126-.126a9.544,9.544,0,0,1,1.134-1.643A9.544,9.544,0,0,0,39.682,8.63c.315-.569.693-1.137,1.008-1.643a7,7,0,0,0,.756-1.706,3.086,3.086,0,0,1,.252-.695,1.35,1.35,0,0,0,.189-.758,1.24,1.24,0,0,0-.189-.884,2.988,2.988,0,0,0-.63-.632,4.211,4.211,0,0,0-1.134-.442,1.27,1.27,0,0,0-1.2.316l-.063.063a.062.062,0,0,0-.063.063,6.6,6.6,0,0,0-1.449.442,3.763,3.763,0,0,0-1.008.506,7.648,7.648,0,0,0-.882.632,11.176,11.176,0,0,0-1.008.885,21.088,21.088,0,0,0-2.394,2.338c-.756.821-1.449,1.706-2.205,2.527-.441.569-.882,1.074-1.26,1.579a15.158,15.158,0,0,0-1.134,1.643,8.494,8.494,0,0,1-.693.885,1.928,1.928,0,0,0-.5,1.011,2.219,2.219,0,0,1-.315.505,1.921,1.921,0,0,1-.5.505c-.252.379-.441.758-.693,1.074a9.522,9.522,0,0,0-.63,1.074,15.126,15.126,0,0,1-.819,1.327,3.608,3.608,0,0,0-.693,1.39,1.979,1.979,0,0,1-.315.632c-.126.19-.252.442-.378.632-.252.569-.5,1.074-.756,1.643s-.5,1.074-.756,1.516a2.881,2.881,0,0,0-.5,1.2,4.045,4.045,0,0,1-.5,1.2,8.445,8.445,0,0,0-.693,1.516,12.509,12.509,0,0,0-.5,1.642,1.491,1.491,0,0,0-.126.505.477.477,0,0,1-.252.442l-.126.126a2.131,2.131,0,0,1-.252,1.39,2.168,2.168,0,0,0-.315,1.39,2.694,2.694,0,0,1-.126.695c-.063.253-.189.442-.252.695a.625.625,0,0,0-.126.379,4.723,4.723,0,0,1-.252,1.642c-.126.569-.315,1.074-.441,1.579-.189.695-.315,1.39-.5,2.085a13.133,13.133,0,0,1-.63,2.085c-.189.442-.315.758-.441.758a2.856,2.856,0,0,1-.882.063,2.812,2.812,0,0,1-1.26-.252,3.994,3.994,0,0,0-1.134-.379.8.8,0,0,1-.567-.442,1.09,1.09,0,0,1-.126-.758,5.434,5.434,0,0,0,.126-1.453,2.942,2.942,0,0,1,.378-1.453c.063-.063.063-.063.063-.126a4.445,4.445,0,0,1,.189-1.832,18.14,18.14,0,0,0,.441-1.769c.189-.758.315-1.579.5-2.4s.378-1.642.5-2.4c.063-.253.126-.442.189-.695a3.086,3.086,0,0,1,.252-.695,1.193,1.193,0,0,0,.126-.758.7.7,0,0,1,0-.505.731.731,0,0,1,.315-.442c.063,0,.126-.063.126-.19a6.751,6.751,0,0,1,.378-1.958c.189-.632.378-1.327.567-1.958.189-.758.315-1.453.5-2.211.189-.695.378-1.453.5-2.211l.378-1.137a2.8,2.8,0,0,0,.126-1.263.641.641,0,0,0-.567.126c-.567.316-1.2.632-1.764.885-.63.253-1.2.506-1.764.758a10.041,10.041,0,0,1-1.449.632,14.4,14.4,0,0,0-1.449.632c-.378.19-.756.316-1.134.506a8.912,8.912,0,0,0-1.134.506c-.567.316-1.134.632-1.638.948a12.566,12.566,0,0,0-1.512,1.2,12.12,12.12,0,0,0-.882.948,6.005,6.005,0,0,0-.63,1.074,10.1,10.1,0,0,0-.63,1.453,2.467,2.467,0,0,0,.063,1.642,3.943,3.943,0,0,0,.63,1.011,1.9,1.9,0,0,0,1.071.505c.189,0,.315,0,.378.063a.48.48,0,0,1,.378.505.5.5,0,0,1-.441.569H3.017A3.021,3.021,0,0,1,1.191,30.3,2.476,2.476,0,0,1,.246,28.6,3.359,3.359,0,0,0,.057,27.9a1.114,1.114,0,0,1-.063-.379,3.034,3.034,0,0,0,.441-1.263A4.2,4.2,0,0,1,.814,25a5.259,5.259,0,0,1,1.2-1.643A9.514,9.514,0,0,0,3.334,21.9a1.307,1.307,0,0,1,.63-.379,5.539,5.539,0,0,0,.63-.379,13.842,13.842,0,0,1,1.764-1.137A16.964,16.964,0,0,0,8.185,19a9.477,9.477,0,0,1,1.386-.7,2.926,2.926,0,0,0,1.26-.821,1.131,1.131,0,0,1,.567-.253,4.339,4.339,0,0,0,.63-.253c.441-.253.819-.442,1.26-.7.378-.253.819-.506,1.26-.758a5.578,5.578,0,0,0,1.071-.758,6.881,6.881,0,0,1,1.071-.821,1.192,1.192,0,0,0,.252-.569,6.5,6.5,0,0,0,.252-.884,2.68,2.68,0,0,1,.378-.884.679.679,0,0,0,.126-.379c0-.126.063-.316.063-.442a1.149,1.149,0,0,1,.378-.884.575.575,0,0,0,.252-.505.851.851,0,0,1,.126-.569,4.718,4.718,0,0,0,.441-.758l.378-.758a4.152,4.152,0,0,1,.756-1.074,12.112,12.112,0,0,1,.945-.885,1.842,1.842,0,0,1,1.386-.442,2.853,2.853,0,0,1,1.449.505,1.366,1.366,0,0,1,.441.379,1.888,1.888,0,0,1,.693,1.642c-.063.442-.189.884-.252,1.327a9.231,9.231,0,0,1-.441,1.2A6.48,6.48,0,0,1,23.3,11.792c-.378.569-.819,1.074-1.26,1.643-.126.063-.189.19-.252.442a4.025,4.025,0,0,1-.378,1.137,1.935,1.935,0,0,0-.126,1.2.231.231,0,0,1-.126.316c-.126.063-.189.19-.252.253a16.979,16.979,0,0,1-.441,1.706,8.294,8.294,0,0,0-.378,1.706.607.607,0,0,0-.189.632.93.93,0,0,1-.252.758.957.957,0,0,0,.5-.632,1.874,1.874,0,0,1,.126-.632,1.325,1.325,0,0,0,.378-.505c.126-.19.189-.379.315-.569.378-.695.756-1.39,1.2-2.085s.819-1.39,1.26-2.022l.945-1.516c.315-.505.693-.948,1.008-1.453.756-.948,1.512-1.959,2.394-2.969a9.143,9.143,0,0,1,1.071-1.137A9.844,9.844,0,0,0,29.856,6.8a5.693,5.693,0,0,1,.567-.632c.189-.19.441-.379.63-.569.315-.316.693-.632,1.008-.948A7.174,7.174,0,0,0,33.069,3.7a15.347,15.347,0,0,1,1.575-1.264c.567-.379,1.071-.7,1.638-1.074a8.677,8.677,0,0,1,1.89-.885A11.527,11.527,0,0,1,40.187.039a2.7,2.7,0,0,1,1.008,0,2.633,2.633,0,0,1,.945.252,3.066,3.066,0,0,0,.441.189,2.672,2.672,0,0,1,1.449.758c.378.379.693.821,1.071,1.263a1.506,1.506,0,0,1,.378.695c.063.253.126.568.189.821a4.274,4.274,0,0,1-.189,2.527c-.315.821-.567,1.579-.819,2.337-.189.379-.378.695-.567,1.074a5.609,5.609,0,0,0-.5,1.074,2.475,2.475,0,0,1-.63,1.011,3.855,3.855,0,0,0-.756,1.011c-.693.948-1.386,1.959-2.142,2.843-.756.948-1.512,1.832-2.268,2.78C36.656,20,35.459,21.265,34.2,22.592l-1.764,1.769c-.63.569-1.2,1.2-1.827,1.769a25.076,25.076,0,0,1-1.89,1.769c-.63.569-1.26,1.2-1.89,1.832-.189.19-.441.379-.63.569a6.7,6.7,0,0,1-.693.569c-.315.253-.5.442-.5.569s.126.316.441.568a4.12,4.12,0,0,1,.819,1.011,10.988,10.988,0,0,0,.693,1.137,5.724,5.724,0,0,1,.819,1.642,14.482,14.482,0,0,1,.5,1.769c.252.884.5,1.769.692,2.59.189.884.378,1.705.5,2.59.063.442.189.947.252,1.39a11.026,11.026,0,0,1,.315,1.39c.126.316.189.632.315.947l.378.947a6.035,6.035,0,0,0,1.2,1.958,9.4,9.4,0,0,0,1.7,1.453c.126.126.189.126.252.126a3.406,3.406,0,0,1,1.575.379,2.1,2.1,0,0,0,1.638.126,1.383,1.383,0,0,1,.5-.063,1.225,1.225,0,0,0,.5.063h.252a1.2,1.2,0,0,1,1.071-.442,1.5,1.5,0,0,0,1.134-.316,4.073,4.073,0,0,1,1.008-.569,5.959,5.959,0,0,0,1.071-.569,14.807,14.807,0,0,0,1.575-1.2c.441-.442.945-.885,1.386-1.39.378-.442.819-.948,1.134-1.39a9.045,9.045,0,0,0,1.008-1.516A1.746,1.746,0,0,1,48.745,43.056ZM11.015,41.1c.126.063.252.063.315-.063v-.126c0-.063-.063-.126-.063-.253-.063.126-.063.253-.126.253C11.015,40.979,11.015,41.042,11.015,41.1Zm.194-22.93c.063-.063.063-.063.063-.126l-.063-.063v.189Zm.374,21.1c.189.126.252.126.315.126s.063-.063.126-.126v-.126L11.9,39.02c0-.063-.063-.063-.126-.126-.063.063-.126.126-.189.126l-.252-.253c.063.126,0,.253,0,.316-.063.063,0,.19.126.253Zm0-1.642h0c-.063.063-.063.063-.063.126s0,.063.063.063c0-.063.063-.063,0-.19Zm.188,2.59a.479.479,0,0,0,.063-.253l-.252-.505c-.063.063-.063.126-.063.253v.063A1.356,1.356,0,0,1,11.771,40.22Zm1.2-1.39c.063-.063.126-.063.126-.126s.063-.063.126-.126c-.063-.063-.126-.126-.126-.189a.231.231,0,0,0-.189-.063c-.126,0-.126-.063-.126-.189h.189c.063,0,.126,0,.189-.126-.063-.063-.126-.063-.126-.126a.231.231,0,0,0-.189-.063v.316h-.378a2.471,2.471,0,0,1-.378-.126c0-.126-.063-.189-.126-.126l.063.063a.221.221,0,0,1,.063.126v.19l.252.253h.378a1.069,1.069,0,0,1,.126.316Zm-.881-3.664a.383.383,0,0,0,0,.505H12.4A5.825,5.825,0,0,0,12.087,35.167Zm.062,6.127c.126-.126.126-.19,0-.379Q11.96,41.2,12.149,41.294Zm-.126-1.263c.063.063.063.063.126.063s.063,0,.126-.063h-.063a.118.118,0,0,0-.189,0Zm.379-4.043v-.063c-.063-.063-.063-.063,0,.063-.126-.063-.126-.063-.126,0l.063.063Zm0,5.306c.126.126.252.126.378-.063,0-.126,0-.19-.063-.189C12.59,41.041,12.527,41.1,12.4,41.294Zm.568-6.759a.236.236,0,0,0-.378,0c.063.063.063.126.063.253h.378v-.253Zm0-2.716h0l.063.126.063-.063C13.032,31.882,13.032,31.819,12.969,31.819Zm0,11.813.126-.126-.126-.126v.253ZM13.1,31.5c.063,0,.063,0,.126.063h.063c-.063-.126-.126-.126-.189-.063Zm.314,3.474c.063-.063.063-.063.126-.063s.063,0,.126-.063c-.063-.063-.063-.126-.126-.253-.063-.063-.063-.189-.126-.253h-.378c.063.126.126.189.126.253A3.738,3.738,0,0,0,13.41,34.977Zm0,4.232c.063-.063.063-.126.126-.126s.063-.063.126-.126a.236.236,0,0,0-.378,0c0,.063,0,.126,0,.126C13.22,39.146,13.283,39.146,13.409,39.209Zm-.126-1.832h.126v-.063h0C13.346,37.314,13.283,37.314,13.283,37.377Zm.19-2.906c.063-.063.126-.063.252,0,.126,0,.189,0,.252-.063v-.253h-.252a.251.251,0,0,0-.252.126Zm0,5.938h0c.063,0,.063,0,.126-.063V40.22C13.535,40.283,13.472,40.346,13.472,40.41Zm.063,2.337.063-.126-.063-.063c0,.063-.063.063,0,.19Zm.446-25.962c-.063,0-.126,0-.126-.063l-.063.063.126.126Zm.375,14.466a.327.327,0,0,1-.252.126c-.063.063-.189.063-.252.126h.315c.063-.063.126-.126.189-.126.063-.063.126-.063.252-.126Zm-.442,4.99h0c.063-.063.063-.126,0-.126v-.063c-.063.063-.063.063-.063.126Zm.629,4.8a1.105,1.105,0,0,0-.378-.063c-.063,0-.126.063-.189.126.063.063.063.126.063.253-.063.126,0,.19.063.316h.189Zm-.5-24.509c.063-.063.063-.063.063-.126h-.063v.126Zm.565,9.286-.126.063.063.063h.126c0-.126,0-.126-.063-.126Zm-.128,9.1c.126.126.252.126.378-.063a.136.136,0,0,1-.126-.126c-.063-.063-.063-.126-.126-.126A.483.483,0,0,0,14.481,34.914Zm.379-7.58h0c-.063-.063-.063-.063-.063-.126h-.252c-.063,0-.063,0-.063.063,0,.126,0,.126.063.126h.126A.231.231,0,0,1,14.86,27.333Zm.125,6.57h.441l-.063-.063a.062.062,0,0,0-.063-.063h-.315c-.063-.063-.126-.063-.189-.126a.869.869,0,0,0-.252-.189.625.625,0,0,1,.126.379c0,.126,0,.19.063.253Zm-.19,3.348h0c0-.063,0-.063-.063-.126-.063,0-.063,0-.063.063C14.732,37.188,14.732,37.251,14.8,37.251Zm.192-13.076c-.063.063-.063.063-.063.126l.063.063v-.189Zm.44,6.064a.231.231,0,0,0-.189-.063.475.475,0,0,1-.252-.063,1.078,1.078,0,0,1,.063.442Zm.314,5.622h-.126a3.732,3.732,0,0,0-.378.253.2.2,0,0,1,.063.126c0,.063.063.063.063.126a.872.872,0,0,0,.189-.253c.063-.063.126-.19.189-.253h0Zm-.5-19.9c.126.126.189.126.378,0Q15.335,15.679,15.24,15.963Zm.251,5.938c-.063,0-.063,0-.126.063l.063.063h.063c0-.063.063-.063,0-.126Zm.187,8.78c-.063.063-.126.126-.189.126a.233.233,0,0,0-.063.19h.567l-.126-.126a.062.062,0,0,0-.063-.063c-.063,0-.063,0-.063-.063l-.063-.063c.189,0,.252-.063.189-.126l-.189.126ZM15.552,33.9c.126,0,.189-.063.126-.126l-.063.063a.062.062,0,0,0-.063.063h-.126c0,.126,0,.126.063.126C15.552,34.092,15.552,34.029,15.552,33.9Zm.126-.884c.063-.063.063-.126.063-.253,0-.063,0-.19,0-.316a.991.991,0,0,1-.252.063s0,.063,0,.126c.063.063.126.126.126.189A.232.232,0,0,0,15.678,33.018Zm0-1.769-.126.126.063.063c.063-.063.063-.063.126-.063Zm-.06-15.6c.063,0,.063-.063.126-.126.126,0,.126-.063.126-.126l-.126.126C15.618,15.521,15.555,15.584,15.618,15.647Zm.438,13.392c-.126-.126-.189-.126-.378,0Q16.056,29.228,16.057,29.039Zm-.25-7.391c.063,0,.063,0,.126-.063,0-.126,0-.19-.063-.253h-.126l.063.316Zm.693,1.074a.8.8,0,0,1-.378.063.277.277,0,0,0-.315.063l.126.126a1.069,1.069,0,0,1,.126.316h.189a.329.329,0,0,0,.126-.253A.409.409,0,0,1,16.5,22.722Zm-.251-6.759c-.063.063-.063.063-.189.063s-.126.126-.126.253a.869.869,0,0,0,.252.189c.063.063.189.126.252.189a.329.329,0,0,0,.126-.253.329.329,0,0,1,.126-.253c-.063-.126-.126-.189-.126-.253-.063-.063-.063-.189-.126-.253C16.311,15.71,16.311,15.836,16.248,15.963Zm-.316,3.727q0,.095,0,.189c0,.063.063.126.126.189l.441-.442V19.5l.378-.19a.232.232,0,0,1-.063-.189h-.63c-.126.126-.126.19-.063.253s.126.126.126.189l-.126.126C16,19.563,15.932,19.626,15.932,19.69Zm.062,5.559a.4.4,0,0,1,.378,0,.567.567,0,0,0,.315-.063v-.316h-.378a.567.567,0,0,0-.315.063c0,.063,0,.126,0,.126C15.931,25.122,15.994,25.185,15.994,25.248Zm.251,2.779a1.237,1.237,0,0,0,.063-.442c-.063-.063-.126-.063-.126-.126l-.126-.126c0,.063,0,.063,0,.126s0,.063,0,.126c.063.063.126.126.126.189C16.12,27.838,16.12,27.9,16.246,28.028Zm0,1.327c-.126-.126-.189-.126-.378,0Q16.151,29.544,16.245,29.354ZM15.993,33.4c.063-.063.063-.126.126-.126.063-.063.063-.126.126-.19h-.252C15.867,33.145,15.867,33.271,15.993,33.4Zm0,1.579h0c.063-.063.063-.126,0-.126v-.063c-.063,0-.063,0-.063.063A.2.2,0,0,1,15.992,34.976Zm.19-3.348h.252a.382.382,0,0,1-.189-.379C16.056,31.313,16.056,31.5,16.182,31.629Zm-.061-9.349h0c.063.063.126.063.126,0,0-.126,0-.19-.063-.253h-.126v.253Zm.062,6.443h0c.063-.063.063-.063.126-.063l-.063-.063c-.063,0-.126.063-.063.126Zm.947-11.371a.327.327,0,0,0-.252-.126.477.477,0,0,1-.252-.126c-.126.126-.189.19-.189.253v.379c.063.063.126.126.126.189v.316l-.189.19-.189.19.189.189c.063.063.126.063.252.063a.329.329,0,0,0,.126-.253.48.48,0,0,1,.126-.253c-.063-.126-.063-.189.063-.253s.189-.126.126-.253l-.189-.189c.063-.063.063-.063.063-.126s.063-.063.126-.126C17.13,17.479,17.13,17.415,17.13,17.352Zm-.695,8.717c0-.063,0-.126-.063-.126,0,.063,0,.063-.063.063s-.063,0-.063.063c0,.126,0,.19.063.189h.126v-.19Zm-.189,1.453h.189c.063,0,.126,0,.189-.126C16.435,27.4,16.309,27.4,16.246,27.523Zm.692,3.158A.939.939,0,0,0,17,30.239a.492.492,0,0,1-.252-.253.118.118,0,0,1-.189,0c-.063-.063-.126,0-.189.063.063.126.063.189.126.253s.063.126.126.189a.2.2,0,0,1,.126-.063.22.22,0,0,1,.126-.063.474.474,0,0,0,.063.316Zm-.249-15.539h-.252a.2.2,0,0,1,.063.126c0,.063,0,.063.063.126h.189C16.878,15.331,16.815,15.2,16.689,15.141ZM16.5,24.554c.063.063.063.063.126.063s.063.063.126.126c0-.19,0-.316.063-.379h-.189c-.063.063-.063.063-.126.063C16.5,24.427,16.5,24.49,16.5,24.554Zm.5,4.927h.378c.063,0,.063-.063.063-.19h-.63l-.126-.126a.372.372,0,0,0-.126.316.9.9,0,0,0-.126.379.688.688,0,0,0,.5,0c0-.063,0-.126,0-.126A.479.479,0,0,0,17,29.481Zm-.376-8.465a.119.119,0,0,1,0-.19c.063-.063,0-.126-.126-.126A.231.231,0,0,0,16.625,21.016Zm0,0c.126.126.189.126.378.063a.941.941,0,0,0-.063-.379c-.126.126-.126.19-.126.19-.063.063-.063.063-.126,0C16.625,20.953,16.562,20.953,16.625,21.016Zm.5,2.716c-.126-.063-.252-.063-.315.126-.189,0-.189.063-.126.126l.126-.126C17,23.8,17.065,23.8,17.128,23.732Zm0,3.158a.475.475,0,0,1-.252.063c-.063-.063-.126,0-.189.063.063.063.126.126.126.189.063.063.063.126.126.189h.189Zm-.377-4.8q.283.284.378,0A.4.4,0,0,0,16.751,22.09Zm.063,1.137h0c.063,0,.126,0,.126-.063l-.063-.063c0,.063,0,.063-.063.126Zm.755,2.842a.2.2,0,0,1,.126-.063c.063,0,.063-.063.126-.126,0-.126-.063-.126-.252-.126-.063.063-.126.063-.189.126s-.126.063-.252.063L17,25.817c0-.063-.063,0-.126.063,0,.063,0,.063,0,.126s0,.063,0,.126h.693ZM17,16.721c0,.126,0,.19.063.189l.126.126a.237.237,0,0,0,0-.379H17Zm.124,8.78q.283.189.378,0c-.063-.063-.126-.063-.126-.126-.063-.063-.126-.126-.189-.126C17.191,25.311,17.128,25.438,17.128,25.5Zm.44,3.6.189-.19c.063-.063.063-.126.126-.19a.23.23,0,0,0-.315-.126c-.063.063-.126.063-.126.126l-.126.126h.126c-.189.063-.189.126-.126.126s.063-.063.126-.126c.063.063.126.063.126.126A.088.088,0,0,0,17.568,29.1Zm.189-2.527a.475.475,0,0,1-.252.063.231.231,0,0,0-.189.063c.063.063.126.126.189.126.063.063.126.063.189.126q0-.095,0-.19A.49.49,0,0,1,17.758,26.575Zm-.439-11.433c0,.19,0,.316.063.379a.471.471,0,0,0,.315-.063.474.474,0,0,0-.063-.316Zm.126-.505h0c-.063.063-.063.126,0,.126l.063-.063Zm.375,12.7c-.063.063-.126.063-.126.126l-.126.126c.126.126.189.126.378,0C17.821,27.522,17.821,27.459,17.821,27.333Zm.189-2.211q-.189-.284-.378,0Q17.821,25.406,18.01,25.122Zm-.188-5.053c-.126.063-.126.063-.126.126.063.063.126,0,.126-.126.189,0,.252-.063.126-.126Zm.061,8.149c.126,0,.189-.063.126-.126l-.126.126c-.126.063-.189.063-.126.126C17.757,28.343,17.82,28.343,17.883,28.217Zm.443-12.508a.475.475,0,0,1-.252-.063c-.063-.063-.189,0-.252.126C18.075,15.9,18.2,15.9,18.327,15.71ZM17.884,24.3l.126.063.063-.063-.126-.126C17.884,24.237,17.884,24.237,17.884,24.3Zm.315,1.769c-.063-.126-.063-.126-.126-.126h-.189C17.947,26.069,18.073,26.069,18.2,26.069Zm.315.758a1.072,1.072,0,0,0,.378-.379l-.063-.126H18.01V26.7c-.063.063-.063.126-.126.19.126.189.252.189.315,0C18.262,26.764,18.325,26.764,18.514,26.827Zm-.375-13.96-.126.063c0,.063,0,.063.063.126l.063-.063a.062.062,0,0,0,.063-.063l-.063-.063Zm.124,8.528c-.063,0-.126,0-.126-.063l-.063.063.126.126Zm-.063.884h0c-.063,0-.126,0-.126.063s0,.063.063.126v-.063A.2.2,0,0,0,18.2,22.279Zm-.127,3.285h.252a.237.237,0,0,0,0-.379c-.063.063-.063.126-.126.19S18.073,25.5,18.073,25.564Zm.633-14.276a.492.492,0,0,0-.5.063,1.105,1.105,0,0,0,.378.063Zm-.441,1.327c.126.126.315.063.567-.063a1.105,1.105,0,0,0-.378-.063C18.39,12.488,18.327,12.551,18.264,12.614Zm.817,8.843c-.063-.063-.063-.063-.063-.126s-.063-.063-.063-.126l.189-.19q-.283-.379-.378-.379c-.063.063-.063.126-.063.253a.381.381,0,0,1-.063.253h-.378a1.79,1.79,0,0,1,.5.695.2.2,0,0,1,.126-.063.2.2,0,0,0,.126-.063v-.253Zm-.692-4.99c0,.063,0,.063.063.126l.063-.063a.062.062,0,0,0,.063-.063c-.063,0-.063,0-.126-.063C18.516,16.4,18.453,16.468,18.39,16.468Zm.062,5.812c0,.063,0,.126.063.126v-.126Zm0,2.274v.126H18.7c0-.063,0-.126-.063-.126Zm.191-11.37h0c.063-.063.063-.063.126-.063l-.063-.063c-.063,0-.063,0-.063.126Zm.063.253h-.126v.19c0,.063,0,.126.063.126l.126-.126A.277.277,0,0,0,18.705,13.435Zm.378.884c-.189-.189-.315-.189-.5,0C18.768,14.509,18.894,14.509,19.083,14.32Zm-.316,3.538c-.063-.063-.063-.063-.126-.063l-.063.126.063.063Zm-.19,5.369h0c.063,0,.126,0,.126-.063L18.64,23.1c0,.063,0,.063-.063.126Zm.127-2.969.189.189c.063,0,.063,0,0,.063,0,.063,0,.063.063.063.189-.126.189-.19,0-.379H18.7Zm.253-6.822.189.379c.126.063.189.126.252.126.063.063.189.063.252.126.315-.19.5-.253.5-.316a.872.872,0,0,0,.189-.253c-.252-.126-.441-.189-.567-.253-.126,0-.189.063-.189.126a.231.231,0,0,1-.189.063c-.063-.063-.126-.063-.252-.126Zm0,8.907h0q.189.095.189,0h.126v-.126h-.252l-.063.063Zm.442-4.548c.063-.063.126-.063.252,0a.567.567,0,0,0,.315-.063c-.063-.126-.126-.126-.189-.126a.118.118,0,0,1-.189,0l-.189-.189c-.063-.063-.126,0-.252.063Zm-.316,6.759h.378l-.378-.379q0,.095,0,.19T19.081,24.553Zm.065-7.77c0,.063,0,.063.063.126l.063-.063a.22.22,0,0,0-.126-.063Zm.252,2.211c0-.063,0-.126-.063-.126l-.063.063v.063Zm.188,3.853c0-.063,0-.063-.063-.126H19.27v.126Zm-.062-4.169a1.107,1.107,0,0,0,.315-.253c0-.126,0-.19-.063-.253-.063.063-.126.126-.189.126s-.126.063-.189.063Zm.254-8.275c-.126-.126-.189-.126-.315,0q0,.095,0,.19c0,.063.063.126.063.253.063-.19.063-.253.126-.316A.136.136,0,0,0,19.777,10.4Zm.252,2.148a.231.231,0,0,0-.189-.063.475.475,0,0,1-.252-.063.8.8,0,0,1,.063.379c.126,0,.189,0,.189-.063C19.9,12.677,19.9,12.614,20.028,12.551Zm-.442,3.159q.283.284.378,0A.4.4,0,0,0,19.587,15.709Zm.442-4.8a.2.2,0,0,1-.063-.126c0-.063-.063,0-.126.063l.063.063c0-.063,0-.063.126,0,0,.063.063.126.126.189a.2.2,0,0,1,.063.126c0,.063,0,.063.063.126a3.612,3.612,0,0,0,.441-.253l-.252-.253h-.441Zm0-.821h0c.063.063.063.063.063.126h.126l-.189-.126Zm0,12.255h0c.063-.063.063-.063.126-.063l-.063-.063c0,.063-.063.063-.063.126Zm.192-13.518h0c0,.063,0,.063.063.126h.126C20.344,8.824,20.281,8.824,20.218,8.824Zm-.064,5.685a.4.4,0,0,0,.378,0Q20.248,14.414,20.154,14.509Zm.631-7.265a.475.475,0,0,1-.252-.063c-.063-.063-.189,0-.252.126C20.533,7.371,20.659,7.371,20.785,7.244Zm-.191,8.212c.189-.19.189-.316,0-.505C20.406,15.141,20.406,15.33,20.594,15.456Zm.064-5.306c0-.063,0-.063-.063-.126-.063,0-.063,0-.063.063a.22.22,0,0,0,.126.063Zm.059,21.541c.126.126.189.063.378-.063a.119.119,0,0,1,0-.19.232.232,0,0,0-.063-.189.471.471,0,0,0-.315.063l.189.189Q20.717,31.6,20.717,31.691Zm.068-23.309h0c.063-.126.063-.126,0-.126l-.063.063a.062.062,0,0,0,.063.063Zm0,22.3c0,.063-.063.063,0,0-.063.063-.063.126,0,.126v.063c.063-.063.063-.063.126-.063l-.063-.063C20.78,30.743,20.78,30.743,20.78,30.68ZM21.037,9.2q-.189.095-.189.19c0,.063,0,.063,0,.126s0,.063,0,.126c.063-.063.126-.063.252-.126.063-.063.189-.063.252-.126a.2.2,0,0,0,.063-.126c0-.063,0-.063.063-.126h.378l.252-.253.252-.253V8.507c0-.063-.126-.063-.252-.063.063-.063,0-.063,0-.063-.063.063-.252.19-.63.569-.063-.063-.126-.063-.189-.126-.063.063-.063.126-.063.253C21.037,9.076,21.037,9.139,21.037,9.2Zm.126,2.4a.493.493,0,0,1,.252-.253.471.471,0,0,0-.567,0c0,.126,0,.19.063.253Zm-.252-1.011c0,.063,0,.126.063.126v-.126ZM21.1,30.175c-.126.126-.126.19,0,.379A.237.237,0,0,0,21.1,30.175ZM21.6,7.244a1.105,1.105,0,0,0-.378-.063c-.063,0-.126.063-.189.126A.634.634,0,0,0,21.6,7.244Zm-.572,23.688c0,.063,0,.063.063.126h.315A.934.934,0,0,0,21.788,31v-.253c-.063-.063-.126-.063-.126-.126l-.126-.126a1.069,1.069,0,0,0-.126.316A.621.621,0,0,1,21.032,30.933Zm.382-20.656c-.063-.063-.063-.063-.126-.063l-.126.063.063.063h.063C21.351,10.276,21.351,10.276,21.414,10.276Zm-.128,10.17c.126-.126.126-.19,0-.379A.237.237,0,0,0,21.286,20.447Zm.691,11.56a.136.136,0,0,1,.126-.126l-.441-.442V31.5s0,.063,0,.126a.2.2,0,0,1,.063.126.221.221,0,0,1,.063.126.231.231,0,0,1-.189.063c-.063,0-.126.063-.252.126.063.063.126.063.126.126l.126.126c.063.063.126.063.126.126s0,.063.063.126a.2.2,0,0,1-.126.063c-.063,0,0,.063.063.126l.126-.19h.063c.126-.063.126-.126.126-.253C21.851,32.133,21.914,32.07,21.977,32.006ZM21.541,5.349c-.063.063-.126.126-.189.126a.236.236,0,0,0,.378,0c0-.063,0-.063,0-.126s0-.063,0-.126l-.063.063C21.6,5.286,21.6,5.286,21.541,5.349Zm.314,5.875c.063-.126.063-.19,0-.253s-.063-.126-.126-.189l.126-.126q-.189-.189-.567,0a.63.63,0,0,1,.252.316A.443.443,0,0,0,21.855,11.224Zm-.441-1.263h.5c0-.126-.063-.189-.189-.126s-.189,0-.252-.126h-.063Zm.437,19.9a.5.5,0,0,0-.315.379v.126h.315c0-.126,0-.19,0-.253C21.977,29.985,21.914,29.922,21.851,29.859Zm.257-23.12-.126-.126c-.063-.063-.126-.063-.189-.126,0,.126,0,.19-.063.253A.236.236,0,0,0,22.108,6.739ZM21.791,18.93h0c.063.063.063.063.063.126h.126l-.189-.126Zm.063,1.137h0c.063-.063.063-.063.063-.126-.063,0-.063,0-.126-.063-.063,0-.063,0-.063.063Zm.754,10.549-.126-.063H22.1a.894.894,0,0,0-.378.126h.252c.063.063.063.063.063.126s.063.063.063.126c.063-.063.126-.063.252,0,.063.063.189,0,.252-.063v-.253Zm-.563-20.277c.063-.126.063-.253-.126-.316a.119.119,0,0,1,0,.19C21.855,10.276,21.918,10.276,22.044,10.339ZM22.3,5.6c-.063-.126-.189-.126-.378-.126.063.126.126.126.189.126H22.3c0,.19.063.189.126.126l-.063-.063L22.3,5.6Zm.058,23.688a.118.118,0,0,1-.189,0c-.063-.063-.126,0-.189.063,0,.063,0,.126.063.126l.126.126h.189C22.481,29.543,22.481,29.416,22.355,29.29Zm.194-23.309-.126.063v.379a.2.2,0,0,0-.063.126.221.221,0,0,0-.063.126h.252c.126-.063.189-.126.252-.126.063.063.063.126.063.253s0,.19,0,.253c-.252,0-.252.063-.126.126,0-.063.063-.063.126-.126.063,0,.126,0,.126-.063.063-.063.063-.126.126-.19.126-.126.126-.19.126-.19l-.063-.063a.062.062,0,0,0-.063-.063c.063-.063.063-.126.126-.19s.063-.126-.063-.253H22.8C22.8,5.917,22.675,5.918,22.549,5.981Zm-.194,25.773h0c.063-.063.063-.063.126-.063l-.063-.063a.062.062,0,0,1-.063-.063v.19Zm1.454-24.51a.28.28,0,0,0-.378.126,1.322,1.322,0,0,1-.252.379,2.057,2.057,0,0,0-.441,1.074,3.1,3.1,0,0,1-.441,1.2,1.109,1.109,0,0,0,.756-.632,5.879,5.879,0,0,1,.315-.632c.126-.19.252-.442.378-.632a.842.842,0,0,0,.189-.505C24,7.5,23.935,7.37,23.809,7.244ZM22.3,7.749c0,.063,0,.126.063.126V7.749Zm.122,22.362v-.126l-.063.063c-.063.063,0,.126.063.063C22.355,30.174,22.355,30.111,22.418,30.111Zm-.064,2.59c0-.063,0-.063.063-.126v-.126c-.063.063-.126.126-.063.253Zm.13-21.477c.189,0,.189-.063.126-.126l-.126.126c-.126.063-.189.063-.126.126C22.359,11.413,22.422,11.35,22.485,11.224Zm.06,17.371c0,.063,0,.126-.063.126.063,0,.063,0,.063.063,0-.063,0-.063,0-.19Zm.881,3.348c.063-.063.063-.126.063-.253,0-.063,0-.19,0-.253a.872.872,0,0,0,.189-.253,1.381,1.381,0,0,1-.189-.316c.063-.063.126-.126.126-.19h-.252l-.126.126c0,.063-.063.063-.126.126v.695Zm-.062-3.348h.252a.231.231,0,0,0,.189-.063,1.38,1.38,0,0,0-.189-.316.567.567,0,0,0-.315.063c0,.063,0,.126,0,.126A.232.232,0,0,1,23.363,28.595Zm.192-12.76h.063c.063-.063.063-.063-.063,0,.063-.126.063-.126,0-.126l-.063.063c.063,0,.063,0,.063.063Zm.254-10.044-.126.063v.063h0c.063,0,.126,0,.126-.063.063,0,0-.063,0-.063Zm-.13,22.425H23.8c.063-.063.126-.126.189-.126s.126-.063.189-.126c-.126-.126-.315-.126-.567-.063v.316Zm.126,1.706h0c-.063-.063-.063-.063-.063-.126-.063,0-.063,0-.063.063.063.126.063.126.126.063Zm.255-14.339c.126.126.189.126.378,0Q24.153,15.3,24.059,15.582Zm.186,14.529h0c-.063-.063-.063-.063-.126-.063l-.126.063.063.063h.063C24.182,30.111,24.182,30.111,24.245,30.111Zm-.19,3.917c.189.063.252.063.315,0s.063-.126.126-.19l-.189-.379-.126.126c-.063,0-.063,0-.126.063Zm.5-4.3c-.126-.126-.189-.126-.378,0Q24.465,29.921,24.56,29.732Zm-.252-.758h0l.063.126.063-.063c-.063,0-.126,0-.126-.063Zm-.064,3.98h.5l.189.189V33.08l-.189-.379H24.5c-.063,0-.126.063-.189.126v.126ZM25,26.51c-.126.063-.189.126-.315.126a.445.445,0,0,0-.252.316.119.119,0,0,1,0,.19.232.232,0,0,0,.063.189,1.025,1.025,0,0,0,.378-.19.475.475,0,0,0,.063-.316.4.4,0,0,1,.378,0,.277.277,0,0,0,.315-.063l-.315-.316A.471.471,0,0,0,25,26.51Zm-.567,1.832h0Zm.062,6.38c.063-.126.063-.19.126-.253s.063-.126.126-.19a.416.416,0,0,0-.378.063q0,.095,0,.19C24.433,34.6,24.433,34.659,24.5,34.722Zm.315.632c.126-.063.189-.063.252,0a.231.231,0,0,0,.189-.063v-.316c-.126.063-.189.063-.252,0a.378.378,0,0,0-.252.063c0,.063,0,.126,0,.126C24.748,35.227,24.811,35.291,24.811,35.354Zm0-3.537c0,.063,0,.126.063.126,0-.063,0-.063.063-.063v-.063Zm.441,1.642a.475.475,0,0,1-.252.063c-.063-.063-.126,0-.189.063l.315.316h.063c.063,0,.063,0,.126-.063v-.379Zm0-19.014v-.126H25l-.063.063c0,.063,0,.063.063.126h.252Zm-.317,12.7c0,.063.063.126.126.189h.252c-.063-.063-.063-.063-.063-.126s-.063-.063-.063-.126h-.252Zm0,1.832.252.253c.063.063.126.189.189.253a1.357,1.357,0,0,0-.063-.379c-.063-.189-.063-.316-.126-.379l-.126.126ZM25,36.554c.063-.063.063-.063.126-.063l-.063-.063A.062.062,0,0,0,25,36.364v.19Zm.194-23.12-.126.063c.063,0,.063,0,.063.063h.126c0-.126,0-.126-.063-.126Zm.373,23.815a.475.475,0,0,1-.252.063c-.063-.063-.126,0-.189.063,0,.063,0,.126.063.126.063.063.126.063.189.126h.252v-.379Zm-.247-24.257h0q0,.095,0,.19l.063-.063A.2.2,0,0,0,25.319,12.992Zm.126.948h-.126c0,.063,0,.126.063.126Zm-.129,13.392c.063.126.189.126.315.126-.063-.126-.063-.126-.126-.126Zm.125,7.2c.189.189.252.253.315.253s.126-.063.252-.126v-.253c.063-.063.063-.063.126-.063.063-.063.126-.126.189-.126q0,.284.378.379v-.379h-.378c0-.126-.063-.126-.252-.126-.126,0-.189.063-.126.126v.189H25.5Zm.126-.632c-.126.063-.126.126-.063.19l.063-.19c.189,0,.189-.063.126-.126Zm.315,1.263-.126.126-.126.126a.688.688,0,0,0,.5,0V35.1h-.252Zm-.252,1.516c.126.126.189.126.378,0Q25.724,36.4,25.629,36.68Zm.254-11.118c-.126.126-.126.19,0,.379A.237.237,0,0,0,25.884,25.562Zm.255-13.139.189-.19a.2.2,0,0,1-.063-.126.2.2,0,0,0-.063-.126l-.378.379L25.76,12.3c.063.063.063.063.063.126V12.36a.492.492,0,0,0,.252.253l.252.253q0-.095,0-.19v-.126Zm-.257,26.784h0c.063-.063.063-.126,0-.126v-.063c-.063,0-.063,0-.063.063A.221.221,0,0,0,25.881,39.207Zm.441-1.642v-.126H26.07v.126H26.2c-.063.063,0,.063.126,0Zm-.252.569.126-.126H26.07v.063c-.063-.063-.063,0,0,.063Zm.5-3.411a1.063,1.063,0,0,1-.315.126l.315.316c.126-.126.252-.19.315-.253a.2.2,0,0,1-.063-.126v-.126c-.063,0-.126,0-.126.063Zm-.064,4.927h0c-.063-.063-.126-.063-.126,0V39.9h.126Zm.195-27.857.063-.063a.062.062,0,0,0,.063-.063l-.063-.063-.189-.189q0,.095,0,.19t0,.19Zm.058,24.446a.237.237,0,0,0,0-.379c-.126,0-.189,0-.252.063v.126c0,.063,0,.063,0,.126h.252Zm.125,2.843a.8.8,0,0,0-.378-.063v.253c.063,0,.126,0,.126-.063Zm-.315,1.9h0c.063-.063.063-.063.126-.063l-.063-.063a.062.062,0,0,1-.063-.063c0,.063,0,.063-.063.126A.062.062,0,0,1,26.573,40.975Zm.822-15.6a.2.2,0,0,1-.063-.126c0-.063-.063,0-.126.063.063.063.126.126.189.063v.19a.49.49,0,0,1-.441-.189l-.252.253.126.126c0,.063.063.063.126.126.063-.063.126-.063.252,0a.378.378,0,0,0,.252-.063v-.253a.118.118,0,0,1,.189,0,.231.231,0,0,0,.189-.063c-.063-.063-.063-.126-.063-.253a.2.2,0,0,1-.126.063C27.521,25.309,27.458,25.373,27.4,25.373ZM27.71,26.7c-.63-.126-.945-.063-1.008.063v0l.189.379h.378l.378-.379V26.7Zm-.819,1.516a.518.518,0,0,0,.315-.316.118.118,0,0,0-.189,0h-.189c0-.126-.063-.189-.126-.126l.126.126.063.316c-.126.063-.189.126-.126.126C26.765,28.342,26.828,28.342,26.891,28.215Zm-.062-3.158c-.126.063-.126.126-.126.126a.136.136,0,0,0,.126-.126c.126,0,.189-.063.126-.126l-.063.063Zm.124,10.107h0c-.063.126-.063.126,0,.126l.063-.063-.063-.063Zm.125,7.2c.063,0,.126,0,.126-.063l-.126-.126c-.126,0-.189,0-.189.063v.126Zm0-4.232a.237.237,0,0,0,0,.379A.237.237,0,0,0,27.078,38.133Zm.252-1.769h-.252v.126h.252l.063-.063v-.063C27.33,36.427,27.33,36.364,27.33,36.364Zm0,.379h-.252l-.063.126.063.063c0,.063,0,.063.063.063h.252v-.253ZM27.14,41.8h0v-.063h-.063c-.063,0-.063,0-.063.063Zm.126-2.4h.189l.126-.126.126-.126-.126-.126c-.063,0-.063-.063-.126-.126a.2.2,0,0,1-.126.063c-.063,0-.063,0-.126.063l.063.379c-.189,0-.189.063-.126.126Zm.321-28.489c.126,0,.189-.063.126-.126l-.063.063c-.063,0-.063,0-.063.063a.518.518,0,0,0-.315.316l.126.063h.189Zm.119,32.6c-.126,0-.189,0-.252-.063l-.063.126c.063,0,.063,0,.063.063s0,.063.063.063h.252V43.5Zm-.252,1.137c.063,0,.063,0,.126-.063l-.063-.063c-.063.063-.063.063-.063.126Zm.256-18.382v-.126l-.063.063c-.063,0,0,.063.063.063Zm.187,11.5c-.189-.189-.252-.189-.315,0A.28.28,0,0,0,27.9,37.754Zm-.253,6.191a1.226,1.226,0,0,0,.441.063.894.894,0,0,0,.378-.126.4.4,0,0,1-.378,0A.4.4,0,0,0,27.644,43.944Zm.2-33.416c.063-.19.063-.253.126-.316s.126-.063.126-.126c-.126-.126-.189-.126-.315,0A1.237,1.237,0,0,0,27.839,10.528Zm.246,32.342c0-.063,0-.063-.063-.126s-.126-.063-.126,0H27.77v.126c.063.063.126.063.315,0Zm.381-17.561a.471.471,0,0,0-.567,0A.471.471,0,0,0,28.466,25.309Zm-.378,1.453c.126.126.189.126.378,0a.474.474,0,0,1-.063-.316A.745.745,0,0,0,28.088,26.762Zm0,12.886h0c.063.063.126.063.126,0,0-.126,0-.19-.063-.253h-.126v.253Zm0,3.664q.283.379.378.379a.118.118,0,0,0,.189,0c-.063-.063-.063-.126-.063-.253.063-.063,0-.189-.126-.253a.118.118,0,0,1-.189,0C28.211,43.249,28.148,43.249,28.085,43.312Zm.062,2.779.126-.126-.126-.126V45.9c-.063.126-.063.126,0,.189ZM28.341,23.1c0,.063-.063.063,0,0l.063.126.126-.126Q28.341,23.193,28.341,23.1Zm.378.505a.237.237,0,0,0,0,.379c.126,0,.189,0,.252-.063a.474.474,0,0,0-.063-.316Zm.121,22.488c.063-.063.126-.126.189-.126.063-.063.063-.063.063-.126a.231.231,0,0,0-.189-.063c-.063.063-.126.126-.189.126-.063.063-.063.063-.063.126A.231.231,0,0,0,28.84,46.092Zm.819.758c.063.126.126.126.126.126l-.126-.126a.28.28,0,0,0-.378-.126c.063.126.126.126.189.126A.118.118,0,0,1,29.659,46.849Zm-.121-24.888.126.063.063-.063h-.063c-.063-.063-.063-.063-.126,0Zm.314,3.158a.236.236,0,0,0-.378,0A.236.236,0,0,0,29.852,25.119ZM29.6,47.481c.063,0,.063,0,.126-.063l-.063-.063c-.063,0-.126.063-.063.126ZM30.23,23.73c-.189-.126-.315-.063-.378.063A.416.416,0,0,0,30.23,23.73Zm.693-2.148a.236.236,0,0,0-.378,0A.236.236,0,0,0,30.924,21.582Zm.126-1.074c-.063,0-.063,0-.126.063l.063.063h.063c0-.063,0-.126,0-.126Zm.126,2.021c.126-.126.126-.19,0-.379-.063.063-.126.063-.126,0-.063,0-.063,0-.126.063l.126.126C31.049,22.466,31.112,22.529,31.175,22.529Zm-.195,27.794c.063,0,.063,0,.126-.063l-.063-.063c-.063,0-.063,0-.063.126Zm.195-29.563h0c-.063.063-.063.126,0,.126v.063c0-.063,0-.063.063-.063v-.063C31.176,20.824,31.176,20.824,31.176,20.76Zm.189-.695c0,.063-.063.063,0,0q0,.095,0,.19l.126-.126ZM31.3,21.392l.126.126.063-.126Zm.507-15.54c0-.063-.063-.063-.126-.063l-.063.126c.063,0,.063,0,.063.063Zm.249,15.982h-.252a1.029,1.029,0,0,0,.189.379l.315-.126Zm.315-2.021c-.063-.063-.063-.126,0-.253a.381.381,0,0,0-.063-.253h-.252a4.321,4.321,0,0,0-.063.758.479.479,0,0,0,.126.253c.063-.063.063-.126.063-.253,0-.063,0-.19,0-.253.063-.063.063-.063.126-.063C32.31,19.876,32.31,19.876,32.373,19.813Zm-.252-.758c-.063,0-.063,0-.126.063l.063.063h.063c0-.063,0-.063,0-.126Zm-.069,31.584c.063,0,.063,0,.126-.063l-.063-.063c-.063.063-.063.063-.063.126Zm.324-45.482c.126.126.189.063.378-.063C32.565,5.031,32.439,5.031,32.376,5.158Zm.369,45.734c.063-.063.126-.063.252-.063-.063-.063-.063-.126-.126-.189s-.063-.126-.126-.189C32.681,50.639,32.618,50.765,32.744,50.892ZM32.88,4.463c.063,0,.126,0,.126-.063-.063,0-.063,0-.126-.063v.126Zm0,17.814V22.4L33,22.276c.063,0,.063-.063.126-.126s.063-.126.126-.126.063-.063.063-.126c-.063-.063-.063-.063-.126-.063s-.063-.063-.126-.126a.329.329,0,0,0-.126.253.48.48,0,0,1-.126.253v.063Zm.757-4.169a.475.475,0,0,1-.252.063.231.231,0,0,0-.189.063c.126.063.189.189.378.316a.233.233,0,0,0,.063-.19C33.633,18.3,33.57,18.233,33.633,18.107Zm-.322,33.1.063-.126-.063-.063q0,.095,0,.19Zm.51-32.216a.237.237,0,0,0,0,.379C33.947,19.244,33.947,19.181,33.822,18.991ZM33.878,51.9c-.063-.063-.063-.063-.126-.063l-.063.063Zm.006-32.09a.236.236,0,0,0,.378,0C34.136,19.686,34.073,19.686,33.884,19.812Zm.063-1.642c-.063.253-.063.379.063.505.126,0,.189,0,.252-.063v-.19c-.063-.063-.126-.063-.126-.126C34.074,18.233,34.011,18.17,33.948,18.17Zm.434,33.037h0c0-.063,0-.126,0-.126a.062.062,0,0,1-.063-.063c0,.063,0,.063-.063.126h.063A.062.062,0,0,0,34.382,51.207Zm.2-30.953-.126.126v.19h.126v-.316Zm.183,31.837c0-.063,0-.063-.063-.126h-.252v.126c.063,0,.189.063.315,0Zm.07-33.164.126.126v-.126Zm.63-2.969c-.126.063-.189.126-.252.126-.063.063-.189.063-.252.126a.38.38,0,0,0,.5,0Zm-.378,2.021h0c.063-.063.063-.063.063-.126s0-.063-.063-.063v.189Zm.308,33.732c.063,0,.126,0,.126-.063-.063,0-.063,0-.063-.063H35.39c0,.063-.063.063,0,.126Zm.2-33.606c0,.063,0,.126,0,.126,0,.063,0,.063,0,.126a.2.2,0,0,0-.063.126.221.221,0,0,0-.063.126c.126.126.189.126.315,0,0-.063,0-.126,0-.253C35.648,18.3,35.648,18.233,35.585,18.107Zm.063,1.516-.126-.063-.063.126c.063,0,.063,0,.063.063Zm.182,32.785v-.126h-.252l-.063.063.126.126A.231.231,0,0,0,35.831,52.407Zm-.056-35.69c.126.189.126.253.063.316l-.189.19c.063.063.126.063.126.126l.126.126a.8.8,0,0,0,.063-.379c0-.126,0-.19,0-.316H35.9Zm.126-1.263q0,.095,0,.19a.232.232,0,0,0,.063.189h.252c0-.126.063-.19.126-.379a.546.546,0,0,1,.189.379,3.067,3.067,0,0,1,.441-.19c0,.126.063.189.126.126l-.126-.126a.119.119,0,0,1,0-.19c.063-.063,0-.126-.063-.189-.126-.126-.252-.189-.252-.063l-.189.19h-.315C36.027,15.264,35.964,15.327,35.9,15.453Zm.192-13.329a.231.231,0,0,1,.189-.063c.063,0,.126-.063.189-.126-.063-.126-.126-.189-.126-.126a.894.894,0,0,1-.378.126v.126c.063,0,.063,0,.126.063Zm0,12.571h0c.063.063.063.063.063.126l.063-.063c-.063-.063-.063-.126-.126-.063ZM36.4,52.217c.126.063.252.063.315-.126a.118.118,0,0,1-.189,0Zm.262-49.967.063-.126L36.6,2l-.063.063C36.6,2.125,36.659,2.188,36.659,2.251Zm.053,49.9a.118.118,0,0,1,.189,0c.063.063.126,0,.126-.126C36.9,51.965,36.775,51.965,36.712,52.154Zm.2-36.006c0-.063,0-.063-.063-.126l-.063.063v.063Zm.441-2.085a2.015,2.015,0,0,1-.378.442c.063.063.126.126.126.189s.063.126.126.189c.126.063.189.063.252-.063L37.35,14.7a.547.547,0,0,0,.189-.379C37.539,14.19,37.476,14.126,37.35,14.063Zm-.441,2.4c0,.063,0,.063.063.126l.126-.126-.063-.063C36.972,16.4,36.972,16.464,36.909,16.464Zm0,1.39c.126.126.189.126.378,0A.236.236,0,0,0,36.908,17.854Zm.5-4.232c-.189-.126-.252-.063-.315.063C37.224,13.748,37.35,13.747,37.413,13.621Zm.378.758c-.063-.063-.126-.126-.189-.126a.232.232,0,0,1,.063.189A.2.2,0,0,0,37.791,14.379Zm.378.568a.475.475,0,0,1-.252.063.378.378,0,0,0-.252.063.893.893,0,0,0,.378.126h.315a.329.329,0,0,0,.126-.253.48.48,0,0,1,.126-.253l-.063-.063h-.252C38.169,14.695,38.169,14.821,38.169,14.948Zm-.378,1.011h0c-.063-.063-.063-.063-.126-.063l-.063.063Zm.5-3.664h-.252a.477.477,0,0,0-.252.126l.126.126c.063,0,.063.063.126.126.063-.063.063-.126.126-.126.126-.063.189-.126.126-.253.189,0,.189-.063.126-.126Zm-.124-10.8c0-.126,0-.19,0-.253a.252.252,0,0,0-.126-.253h-.126a.475.475,0,0,0,0,.569C37.982,1.493,38.045,1.493,38.171,1.493Zm.06,14.529c.063,0,.063-.063.126-.126h-.378v.253l.126-.126A.087.087,0,0,0,38.231,16.021Zm.127-2.906h0c-.063-.063-.126-.063-.126,0h-.063c.063,0,.063,0,.063.063h.063C38.295,13.116,38.295,13.116,38.358,13.116Zm.44,2.274a.231.231,0,0,0-.189-.063h-.252c-.063.253.063.316.315.316,0-.063,0-.063.063-.126A.2.2,0,0,1,38.8,15.39ZM39.24,10.9c.126-.063.189-.126.252-.126.063-.063.189-.063.252-.126a.474.474,0,0,0-.5-.063Zm.125,4.548c0-.063,0-.063-.063-.126l-.063.063v.063Zm-.133,36.069a.38.38,0,0,0,.5,0V51.4c0-.063,0-.063,0-.126h-.252c-.063.063-.063.126-.126.126A.136.136,0,0,0,39.232,51.522Zm.756.063.126-.126c.063,0,.063-.063.126-.126-.126-.126-.189-.126-.378,0a.119.119,0,0,1,0,.19C39.925,51.522,39.925,51.585,39.988,51.585Zm-.056-37.27c0,.063.063.063,0,0,.063.063.063.063.063.126l.063-.063c0-.063,0-.063-.126-.063Zm.253-5.054c-.126.19-.063.316.063.379A.685.685,0,0,0,40.185,9.262Zm-.064,3.853h0c.063.063.063.063.126.063l.063-.063h-.063c-.063-.063-.063-.063-.126,0Zm.252.442c.063,0,.063-.063.126-.126h-.378v.316l.126-.126C40.311,13.557,40.311,13.557,40.374,13.557Zm-.126-1.137a.236.236,0,0,0,.378,0,.571.571,0,0,0-.063-.316.2.2,0,0,1-.126.063c-.063,0-.063,0-.126.063v.19Zm.5-3.6c-.063-.063-.189-.063-.378.063C40.626,8.946,40.752,8.946,40.752,8.82ZM40.628.734,40.5.608l-.063.063C40.5.734,40.5.734,40.5.8Zm.313,7.517c-.063,0-.126,0-.126.063l.126.126L41,8.377C40.941,8.314,40.941,8.314,40.941,8.251Zm0,4.422q0,.189,0,.19c0,.063,0,.063,0,.126a.8.8,0,0,0,.378-.063.474.474,0,0,1-.063-.316h-.315Zm.315-.758q-.283.19,0,.379C41.382,12.167,41.382,12.1,41.256,11.915Zm.379-5.054c-.126.126-.126.19,0,.379Q41.729,6.956,41.635,6.861Zm.253-5.812q0,.095,0,.19t0,.19c.063.063.063.126.126.189a.232.232,0,0,1,.063.189c.063.063.063.126,0,.253,0,.063,0,.19,0,.253a.683.683,0,0,1,.315-.063c.126-.126.126-.19,0-.253-.063-.063-.126-.126-.063-.189,0-.063.063-.063.126-.126l-.441-.442c.063.063.063,0,.126-.063C42.077.986,42.014.986,41.888,1.05Zm.062,6.127c-.126.126-.126.19,0,.379A.237.237,0,0,0,41.95,7.177Zm.126-1.327h0c.063.063.063.063.063.126l.063-.063c0-.063-.063-.126-.126-.063Zm.819.884a3.222,3.222,0,0,0-.63-.063c-.063,0-.126.063-.189.126A1.28,1.28,0,0,0,42.894,6.735Zm-.756,2.906h0c.063-.063.063-.063.063-.126l-.063-.126c0,.063,0,.063-.063.063v.063A.2.2,0,0,1,42.138,9.641Zm.252-1.832.126.126.126.126a.2.2,0,0,0,.063-.126c0-.063,0-.063.063-.126-.063-.063-.126-.063-.189-.126s-.126-.126-.189-.126v.126S42.39,7.745,42.39,7.809Zm.316-5.433a.37.37,0,0,0-.315.126c.189.063.252,0,.315-.126.126,0,.189-.063.126-.126Zm1.2.442h-.315a.872.872,0,0,0-.189.253c-.063.063-.126.19-.252.253l.189.189c.063.063.063.126,0,.253l-.378-.189c-.126.126-.189.253-.252.316a.321.321,0,0,0,.315.253.346.346,0,0,1,.315.189h.378a.544.544,0,0,1,.378-.19c.063,0,.063-.063.126-.253a1.106,1.106,0,0,1-.315-.253c-.126-.063-.252-.189-.378-.253a.87.87,0,0,0,.252-.19C43.714,2.944,43.777,2.881,43.9,2.818ZM42.58,4.334c.126,0,.189,0,.252.063l.063-.126-.063-.126H42.58v.189Zm.063.884a.233.233,0,0,0-.063.19c0,.063.063.126.126.189C42.769,5.408,42.769,5.282,42.643,5.219Zm.062,3.411q.283.284.378,0A.4.4,0,0,0,42.705,8.63Zm.757-7.391a.354.354,0,0,0-.567,0,.232.232,0,0,1,.063.189c-.063.063,0,.126.063.189.063-.063.126-.063.252-.126.063-.063.189-.063.252-.126V1.239Zm-.5,5.117.063.063a.062.062,0,0,0,.063.063V6.356c-.063,0-.063-.063-.063-.126C43.021,6.292,42.958,6.292,42.958,6.356Zm.567-.253c.063.063.126.126.189.126.063.063.126,0,.252-.126-.126-.063-.189-.189-.378-.316V5.471c.126,0,.189-.063.126-.126l-.126.126H43.4l-.189.19a.475.475,0,0,0-.063.316c.063.063.063.063.126.063s.063.063.126.126ZM43.147,2.06c0,.063,0,.063.063.126s.126.063.126,0h.126V2.06Zm.5,6.569c.189.189.252.189.315,0A.28.28,0,0,0,43.65,8.63Zm.379-4.3L43.9,4.46c0,.063-.063.063-.126.126a.2.2,0,0,1,.063.126c0,.063,0,.063.063.126h.378c.063-.063.126-.126.189-.126h.63c0,.126.063.189.126.126L45.1,4.713h.063c-.126-.126-.189-.189-.315-.189-.126-.063-.189-.063-.252-.126h-.567Zm.126,1.706a.236.236,0,0,0,.378,0A.236.236,0,0,0,44.154,6.04Zm.063,2.021c0-.063.063-.063,0,0C44.28,8,44.28,8,44.28,7.935s0-.063-.063-.063v.19Zm.253-4.738-.126.126.126.063c0-.126,0-.126,0-.19Zm.251,2.4c.063,0,.063,0,.126-.063,0-.063,0-.063-.063-.063a.221.221,0,0,0-.063.126Z"/>
          <path id="Path_33" data-name="Path 33" class="cls-3" d="M10.816,14.1a1.114,1.114,0,0,0-.5.569,1,1,0,0,1-.378.569c-.315.379-.63.695-.945,1.074-.315.316-.63.695-.945,1.011a4,4,0,0,1-.756.632c-.189.126-.252.19-.315.19a2.949,2.949,0,0,1-.882.885c-.378.19-.693.379-1.071.569-.126.063-.189.126-.252.126a.486.486,0,0,1-.756.19,1.631,1.631,0,0,1-1.071.127A6.866,6.866,0,0,1,1.87,19.72,2.076,2.076,0,0,1,.3,17.889C.17,17.32.107,16.815.044,16.309a6.622,6.622,0,0,1,0-1.579,1.4,1.4,0,0,0,.063-.505,1.958,1.958,0,0,1,.126-.505.975.975,0,0,0,.126-.695,1.806,1.806,0,0,1,.126-1.011A4.182,4.182,0,0,0,.8,11.066a2.985,2.985,0,0,1,.378-.948,2.713,2.713,0,0,0,.315-1.011c.063-.063.063-.063.063-.126A4.071,4.071,0,0,0,2.5,7.4,3.387,3.387,0,0,1,3.51,5.886,1.5,1.5,0,0,1,4.9,5.443a2.251,2.251,0,0,1,.693.253,5.817,5.817,0,0,1,.63.316A.85.85,0,0,1,6.6,6.9c-.126.379-.252.821-.378,1.263a4.2,4.2,0,0,1-.567,1.2c-.063.19-.126.316-.189.505a1.193,1.193,0,0,0-.126.505,1.491,1.491,0,0,0-.126.505.64.64,0,0,1-.252.442.329.329,0,0,0-.126.253,1.221,1.221,0,0,1,0,.821,3.571,3.571,0,0,0-.252.758,2.582,2.582,0,0,0-.126.442v1.769a17.8,17.8,0,0,1-.063,1.832,1.61,1.61,0,0,0,.126.442c.126.442.441.632,1.008.442a3.571,3.571,0,0,0,.819-.506c.252-.19.441-.442.693-.632a7.564,7.564,0,0,0,.693-.758,7.569,7.569,0,0,1,.693-.758c.378-.379.693-.758,1.008-1.137s.567-.758.945-1.137a13.877,13.877,0,0,0,1.26-1.453c.378-.505.819-1.011,1.2-1.516a2.97,2.97,0,0,0,.567-.758,1.542,1.542,0,0,1,.693-.569c.189-.126.378-.063.567.126.126.189.063.316-.126.505a1.137,1.137,0,0,0-.252.569c-.063.19-.189.316-.5.316a.136.136,0,0,0-.126.126c0,.063-.063.19-.063.253a.628.628,0,0,1-.378.505h-.252a1.075,1.075,0,0,1-.378.632c-.189.19-.315.379-.5.569a1.382,1.382,0,0,1-.567.632.765.765,0,0,0-.378.758A.322.322,0,0,1,10.816,14.1Zm-9.2-1.451c-.126-.126-.189-.126-.315,0A.285.285,0,0,0,1.619,12.645ZM1.493,14.6c.063-.063.126-.063.126-.126l.126-.126a.4.4,0,0,0-.378,0v.126C1.493,14.54,1.493,14.54,1.493,14.6Zm.252,1.326h0L1.682,15.8l-.126.126Q1.745,15.835,1.745,15.93Zm0-3.853.378-.19c0,.126.063.189.126.126-.063,0-.063-.063-.126-.126v-.253c-.252-.063-.378-.063-.441,0v.253C1.62,11.95,1.683,12.014,1.746,12.077Zm0-1.642a.571.571,0,0,1,.063.316h.252c0-.126,0-.19-.063-.253H1.746Zm.692,2.274a.492.492,0,0,0-.5.063.841.841,0,0,0,.315.063C2.312,12.835,2.375,12.771,2.438,12.708ZM2,14.73c.063.063.063.063.126.063h.189c0,.189.063.189.126.126l-.126-.126C2.186,14.667,2.123,14.667,2,14.73Zm0,1.2c.063,0,.063-.063,0,0,.063-.063.063-.126,0-.126l-.063.063C2,15.867,2,15.867,2,15.93ZM2,17H2v-.126c0,.063,0,.063-.063.063A.062.062,0,0,1,2,17Zm.252-1.516h0l-.126.063c.063,0,.063,0,.126.063Zm-.126.821c.063.063.063.063.126.063h.189A.276.276,0,0,0,2.123,16.309ZM2.563,18.2a.118.118,0,0,1,.189,0,.231.231,0,0,0,.189-.063c-.189-.063-.252-.126-.315-.126a1.063,1.063,0,0,0-.315.126c0,.126,0,.19.063.253.063-.063.126-.063.126-.126C2.437,18.2,2.5,18.2,2.563,18.2ZM2.5,9.739a1.382,1.382,0,0,1-.189.316l.189.126a1.382,1.382,0,0,1,.189-.316ZM2.752,16.5c-.063-.126-.063-.126-.126-.126H2.438C2.5,16.5,2.564,16.562,2.752,16.5ZM2.5,18.646h0V18.52l-.063.063C2.5,18.583,2.5,18.583,2.5,18.646Zm.378-2.78c0,.063-.063.063-.126.063A.2.2,0,0,1,2.69,15.8c0-.063-.063,0-.126.063l.063.063a.22.22,0,0,0,.126.063l.063.126c.063.063.126.126.189.126s.126.063.189.126a.119.119,0,0,1,0,.19c0,.063,0,.063.126,0a.848.848,0,0,0,.063-.316c0-.063-.063-.063-.126-.126a.231.231,0,0,0-.189-.063A.2.2,0,0,1,3,15.93c0-.063,0-.063-.063-.126l-.063.063Q2.973,15.772,2.879,15.867Zm-.126-1.642c0,.063,0,.063.063.126.063,0,.063,0,.063-.063s0-.126-.126-.063Zm.126.505c0-.063,0-.126-.063-.126l-.063.063.126.063Zm.064-6.506c.063.063.063.063.063.126h.063c-.063-.126-.063-.126-.126-.126ZM3.2,7.086c-.063,0-.063,0-.126.063,0,.126,0,.19.063.253h.126L3.2,7.086Zm0,8.212c-.063,0-.063,0-.126.063,0,.126,0,.19.063.189h.126L3.194,15.3Zm0,2.085c-.063,0,.063-.063.378-.126-.126-.063-.189-.063-.252-.126s-.063-.063-.126-.063C3.067,17.193,3.067,17.319,3.193,17.383Zm.38-8.4c-.063-.126-.189-.126-.315-.126.063.063.063.063.126.063S3.51,8.981,3.573,8.981Zm0,1.137c-.063-.126-.189-.126-.315-.126.063.126.063.126.126.126Zm.189,1.706c-.126-.126-.189-.126-.378,0a.232.232,0,0,1,.063.189h.126ZM3.7,16.056c.063-.19.063-.379-.063-.442-.126,0-.189,0-.252.063v.189c.063.063.126.063.126.126C3.571,15.993,3.634,16.056,3.7,16.056Zm-.189-1.074c-.126.19-.063.253.063.316A.474.474,0,0,0,3.509,14.982Zm-.062-4.611c.189.063.378.063.441-.063v-.253H3.573ZM3.825,9.3c.063-.063.063-.126.126-.126.063-.063.063-.063.063-.126H3.573V9.3Zm-.252,1.39c.063,0,.063.063,0,0,.063,0,.126,0,.126-.063l-.063-.063c0,.063,0,.063-.063.126Zm.567-1.2h0c.063-.063.063-.063.063-.126L4.14,9.234,4.077,9.3C4.077,9.423,4.077,9.486,4.14,9.486Zm.126.632c-.126.126-.126.19,0,.379.063-.063.063-.126.126-.126.063-.063.063-.063.063-.126H4.328C4.328,10.118,4.328,10.118,4.266,10.118ZM6.724.01A1.146,1.146,0,0,1,7.858.579,1.387,1.387,0,0,1,8.11,1.842a1.894,1.894,0,0,1-.252.505,3.757,3.757,0,0,1-.252.505,2.058,2.058,0,0,1-1.134.7,1.872,1.872,0,0,1-1.323-.063,1.237,1.237,0,0,1-.567-.568,4.663,4.663,0,0,1-.252-.884,1.093,1.093,0,0,1,.315-.821C4.771,1.085,4.834.958,4.9.9A1.092,1.092,0,0,1,5.716.137,4.883,4.883,0,0,1,6.724.01Zm-1.2,1.516c-.126-.126-.189-.126-.378,0,.063.063.063.126.063.253a.2.2,0,0,1,.126-.063c.063,0,.063,0,.126-.063V1.527ZM5.274,6.58h0c-.063.063-.063.063-.063.126s0,.063.063.063V6.58Zm0,.948L5.337,7.4l-.063-.063V7.4c-.063,0-.063.063,0,.126Zm0-1.453a.571.571,0,0,1,.063.316h.252c0-.126,0-.19-.063-.253H5.274ZM5.842.769a1.377,1.377,0,0,1,.315-.19A.479.479,0,0,1,6.094.326a.327.327,0,0,1-.252.126A.477.477,0,0,0,5.59.579c.063.063.126.063.126.126C5.779.706,5.842.706,5.842.769Zm.441.253a.492.492,0,0,0,.5-.063A.841.841,0,0,0,6.472.895C6.409.958,6.346.958,6.283,1.021Zm.441.884c.063-.063.063-.126.126-.126s.063-.063.063-.126A.871.871,0,0,1,6.724,1.4.383.383,0,0,0,6.724,1.906ZM7.1.579A.63.63,0,0,0,6.85.263c-.126.126-.126.19,0,.316Zm.5.189A1.375,1.375,0,0,1,7.291.579H7.1c0,.063,0,.126,0,.253a.381.381,0,0,0,.063.253.118.118,0,0,1,.189,0,.231.231,0,0,0,.189-.063C7.543.958,7.606.895,7.606.768Z" transform="translate(35.664 18.474)"/>
          <path id="Path_34" data-name="Path 34" class="cls-3" d="M17.195,6.01a.477.477,0,0,1,.252.442.233.233,0,0,0-.063.19.233.233,0,0,1-.063.19,6.692,6.692,0,0,0-.63.758,2.006,2.006,0,0,1-.756.7c-.189.126-.315.253-.5.379a3.607,3.607,0,0,1-.5.442,3.516,3.516,0,0,1-1.26.885,7.522,7.522,0,0,0-1.386.758,2.253,2.253,0,0,1-.693.253h-.756a4.679,4.679,0,0,1-1.89-.063.849.849,0,0,0-.567,0A1.155,1.155,0,0,0,8,11.444a10.992,10.992,0,0,0-.63,1.2,5.938,5.938,0,0,1-.756,1.137.451.451,0,0,0-.189.379,3.713,3.713,0,0,1-2.457,2.022c-.189.063-.315.063-.5.126s-.315.126-.5.19a1.037,1.037,0,0,1-1.2.063,2.233,2.233,0,0,0-.567-.253.979.979,0,0,1-.5-.379,3.475,3.475,0,0,1-.441-1.516,7.76,7.76,0,0,1-.126-1.2c-.063-.379-.063-.758-.126-1.2,0-.19,0-.379.063-.442.189-.126.189-.253.126-.379a1.235,1.235,0,0,1,0-.948C.25,9.929.313,9.55.376,9.235V8.6a.679.679,0,0,1,.063-.695c.126-.126.189-.253.126-.379a1.317,1.317,0,0,1,.063-.695c.063-.19.126-.442.189-.632s.126-.442.189-.632a1.08,1.08,0,0,0,0-.632,3.012,3.012,0,0,0,.5-1.137,3.458,3.458,0,0,1,.378-1.137A3.872,3.872,0,0,0,2.2,1.907a1.8,1.8,0,0,1,.567-.884C2.9.9,2.9.833,2.9.833A1.158,1.158,0,0,1,3.653.138,4.849,4.849,0,0,1,4.6.011,1.158,1.158,0,0,1,5.732.516,1.166,1.166,0,0,1,5.921,1.78a4.234,4.234,0,0,0-.315,1.2,8.147,8.147,0,0,1-.252,1.2,12.3,12.3,0,0,0-.441,2.085c-.126.695-.189,1.39-.315,2.085a5.277,5.277,0,0,0-.189,1.39,9.807,9.807,0,0,0-.063,1.39,3.085,3.085,0,0,1-.063.758,1.544,1.544,0,0,0,0,.758,6.146,6.146,0,0,1,.063,1.074A3.753,3.753,0,0,0,4.6,14.793a11.665,11.665,0,0,0,.882-.885,5.461,5.461,0,0,0,.63-1.011.842.842,0,0,1,.315-.379c.126,0,.189-.063.189-.126a1.74,1.74,0,0,1,.5-.948,1.8,1.8,0,0,0,.5-.884c.063-.126.063-.19,0-.253l-.189-.189a3.894,3.894,0,0,1-.5-2.463V7.022a1.849,1.849,0,0,1,.126-.569c.063-.19.063-.316.126-.505a1.586,1.586,0,0,1,.315-.505c.126-.126.126-.19.126-.19a2.138,2.138,0,0,1,.567-1.2,12.123,12.123,0,0,0,.882-.948A1.756,1.756,0,0,1,10.2,2.726a.94.94,0,0,1,.882.442,2.19,2.19,0,0,1,.126,1.137,4.4,4.4,0,0,1-.315.821,1.592,1.592,0,0,0-.126.948c.063.126,0,.19-.126.253a.631.631,0,0,0-.252.316c-.189.442-.378.948-.567,1.39a12.889,12.889,0,0,0-.567,1.39q-.284.474-.189.569a3.5,3.5,0,0,0,.5.253,2.081,2.081,0,0,0,1.512,0,11.493,11.493,0,0,1,1.575-.379,2.117,2.117,0,0,1,1.008-.632,1.793,1.793,0,0,0,1.008-.821.646.646,0,0,1,.378-.316,1.13,1.13,0,0,0,.441-.316,2.971,2.971,0,0,0,.567-.758,2.97,2.97,0,0,1,.567-.758l.189-.19A.8.8,0,0,1,17.195,6.01ZM.943,9.8Zm.377,2.906Zm.189,1.579Zm.5-.821-.126-.126c-.063,0-.063-.063-.126-.063,0,.126,0,.19-.063.19ZM1.7,4.876c.063,0,.063,0,.126-.063l-.063-.126L1.7,4.749Zm.251,4.359c0,.063,0,.126-.063.126-.063.063-.063.063,0,.126.063-.063.126-.126.126-.19.063-.063.063-.126.126-.19,0-.063,0-.063.063-.063h.063c.063-.063.063-.063.126-.063s.063-.063.126-.19l-.252.253H2.14v.063A.78.78,0,0,0,1.951,9.234Zm0-3.348a.088.088,0,0,0,0-.126c-.063,0-.063-.063-.126-.126a.119.119,0,0,1,0,.19A.22.22,0,0,0,1.952,5.886Zm-.064,4.359c.063.063.063.063.063.126s.063.063.189,0a.941.941,0,0,0-.063-.379A1.091,1.091,0,0,0,1.888,10.245ZM2.14,7.4h0l-.189-.063c0,.063,0,.063.063.063Zm0,5.622A.2.2,0,0,0,2.2,12.9c0-.063,0-.063.063-.126l-.126-.063C1.95,12.835,1.95,12.961,2.139,13.024ZM2.077,8.16h0l.252.063V8.16ZM2.2,11.319c0,.063-.063.063-.126.126l.126.126.126-.126Zm.82-4.864a4.006,4.006,0,0,1-.441-.126A4.007,4.007,0,0,0,2.14,6.2l-.063.063c0,.126.063.126.126.126A.762.762,0,0,0,3.022,6.455ZM2.2,15.046c.126.126.189.126.252.126a1.063,1.063,0,0,0,.315-.126C2.517,14.919,2.328,14.856,2.2,15.046Zm.254-10.3Zm0,8.654Zm0-9.981c0,.063.063.063,0,0ZM2.769,14.54a.2.2,0,0,1-.063-.126.221.221,0,0,1-.063-.126c-.126.316-.063.379.126.253Zm0-7.391a.788.788,0,0,0,.252.695h.252c.063,0,.189-.063.252-.063-.189-.126-.315-.189-.378-.379-.126-.189-.189-.253-.189-.316A.487.487,0,0,0,2.77,7.149Zm.377,4.8c-.063-.063-.063-.063-.063-.126H2.958v.126h.063c.063.063.063,0,.126,0ZM3.022,5.318c.189.063.252,0,.126-.126Zm.441-2.211a.231.231,0,0,1-.189.063c-.063,0-.126.063-.189.063.189.189.252.189.315.126S3.464,3.233,3.464,3.107ZM3.209,15.425ZM3.716,1.906a1.758,1.758,0,0,1-.378.063c-.063,0-.063.063-.126.253.063-.063.126-.126.189-.126C3.527,2.033,3.59,1.969,3.716,1.906ZM3.525,9.992h.189c-.063-.063-.063-.063-.126-.063H3.4c.063.063.063.063.126.063Zm-.064,4.043h.126a.4.4,0,0,1,0-.379.37.37,0,0,0-.189-.442v.442A1.114,1.114,0,0,1,3.462,14.035Zm.127-5.559Zm.125,6.7h0c.063-.063,0-.063,0,0ZM3.9,5.254c.063-.063.063-.063.126-.063L3.9,5.065Zm.063,2.085h0l.126.063-.126-.063ZM4.031,3.8c.126.063.189-.063.252-.19-.063-.063-.126-.126-.189-.126A.689.689,0,0,0,4.031,3.8Zm4.6,4.547a1.622,1.622,0,0,0,.63-1.011A4.024,4.024,0,0,1,9.636,6.2a2.127,2.127,0,0,0,.315-.884c.063-.316.126-.632.189-.884a.811.811,0,0,0-.252-.884,2.229,2.229,0,0,1-.567.695,1.109,1.109,0,0,1-.252.316c-.063.126-.189.253-.252.379-.063.253-.126.569-.189.821a4.771,4.771,0,0,1-.378.821,2.486,2.486,0,0,0-.189.884A3.9,3.9,0,0,1,8,8.349a.663.663,0,0,0,.315.568.679.679,0,0,0,.126-.379C8.5,8.538,8.565,8.412,8.628,8.349Z" transform="translate(46.545 21.44)"/>
          <path id="Path_35" data-name="Path 35" class="cls-3" d="M10.816,14.1a1.114,1.114,0,0,0-.5.569,1,1,0,0,1-.378.569c-.315.379-.63.695-.945,1.074-.315.316-.63.695-.945,1.011a4,4,0,0,1-.756.632c-.189.126-.252.19-.315.19a2.949,2.949,0,0,1-.882.885c-.378.19-.693.379-1.071.569-.126.063-.189.126-.252.126a.486.486,0,0,1-.756.19,1.631,1.631,0,0,1-1.071.127A6.867,6.867,0,0,1,1.87,19.72,2.076,2.076,0,0,1,.3,17.889C.17,17.32.107,16.815.044,16.309a6.623,6.623,0,0,1,0-1.579,1.4,1.4,0,0,0,.063-.505,1.958,1.958,0,0,1,.126-.505.975.975,0,0,0,.126-.695,1.806,1.806,0,0,1,.126-1.011A4.182,4.182,0,0,0,.8,11.066a2.985,2.985,0,0,1,.378-.948,2.713,2.713,0,0,0,.315-1.011c.063-.063.063-.063.063-.126A4.071,4.071,0,0,0,2.5,7.4,3.387,3.387,0,0,1,3.51,5.886,1.5,1.5,0,0,1,4.9,5.443a2.252,2.252,0,0,1,.693.253,5.816,5.816,0,0,1,.63.316A.85.85,0,0,1,6.6,6.9c-.126.379-.252.821-.378,1.263a4.2,4.2,0,0,1-.567,1.2c-.063.19-.126.316-.189.505a1.193,1.193,0,0,0-.126.505,1.491,1.491,0,0,0-.126.505.64.64,0,0,1-.252.442.329.329,0,0,0-.126.253,1.221,1.221,0,0,1,0,.821,3.569,3.569,0,0,0-.252.758,2.58,2.58,0,0,0-.126.442v1.769a17.8,17.8,0,0,1-.063,1.832,1.611,1.611,0,0,0,.126.442c.126.442.441.632,1.008.442a3.571,3.571,0,0,0,.819-.506c.252-.19.441-.442.693-.632a7.566,7.566,0,0,0,.693-.758,7.566,7.566,0,0,1,.693-.758c.378-.379.693-.758,1.008-1.137s.567-.758.945-1.137a13.879,13.879,0,0,0,1.26-1.453c.378-.505.819-1.011,1.2-1.516a2.97,2.97,0,0,0,.567-.758,1.542,1.542,0,0,1,.693-.569c.189-.126.378-.063.567.126.126.189.063.316-.126.505a1.137,1.137,0,0,0-.252.569c-.063.19-.189.316-.5.316a.136.136,0,0,0-.126.126c0,.063-.063.19-.063.253a.628.628,0,0,1-.378.505h-.252a1.075,1.075,0,0,1-.378.632c-.189.19-.315.379-.5.569a1.382,1.382,0,0,1-.567.632.765.765,0,0,0-.378.758C11.068,14.033,11,14.1,10.816,14.1Zm-9.2-1.451c-.126-.126-.189-.126-.315,0A.281.281,0,0,0,1.619,12.645ZM1.556,14.6c.063-.063.126-.063.126-.126l.126-.126a.4.4,0,0,0-.378,0v.126C1.556,14.54,1.556,14.54,1.556,14.6Zm.252,1.326h0L1.745,15.8l-.126.126C1.745,15.867,1.745,15.867,1.808,15.93Zm0-3.853.378-.19c0,.126.063.189.126.126-.063,0-.063-.063-.126-.126v-.253c-.252-.063-.378-.063-.441,0v.253C1.683,11.95,1.683,12.014,1.809,12.077Zm0-1.642a.571.571,0,0,1,.063.316h.252c0-.126,0-.19-.063-.253H1.809Zm.629,2.274a.492.492,0,0,0-.5.063.841.841,0,0,0,.315.063C2.312,12.835,2.375,12.771,2.438,12.708ZM2,14.73c.063.063.063.063.126.063h.189c0,.189.063.189.126.126l-.126-.126C2.249,14.667,2.123,14.667,2,14.73Zm.063,1.2h0c.063-.063.063-.126,0-.126L2,15.867C2.06,15.867,2.06,15.867,2.06,15.93ZM2.06,17h0v-.126c0,.063,0,.063-.063.063A.062.062,0,0,1,2.06,17Zm.252-1.516h0l-.126.063c.063,0,.063,0,.126.063C2.249,15.551,2.249,15.488,2.312,15.488Zm-.189.821c.063.063.063.063.126.063h.189A.25.25,0,0,0,2.123,16.309Zm.5,1.895a.118.118,0,0,1,.189,0A.231.231,0,0,0,3,18.141c-.189-.063-.252-.126-.315-.126a1.063,1.063,0,0,0-.315.126c0,.126,0,.19.063.253.063-.063.126-.063.126-.126C2.5,18.2,2.563,18.2,2.626,18.2ZM2.565,9.739a1.383,1.383,0,0,1-.189.316l.189.126a1.381,1.381,0,0,1,.189-.316ZM2.752,16.5c-.063-.126-.063-.126-.126-.126H2.438A.23.23,0,0,0,2.752,16.5Zm-.189,2.148h0V18.52l-.063.063Zm.315-2.779c0,.063-.063.063-.126.063A.2.2,0,0,1,2.69,15.8c0-.063-.063,0-.126.063l.063.063a.22.22,0,0,0,.126.063l.063.126c.063.063.126.126.189.126s.126.063.189.126a.119.119,0,0,1,0,.19c-.063.063,0,.063.126,0a.847.847,0,0,0,.063-.316c0-.063-.063-.063-.126-.126a.231.231,0,0,0-.189-.063A.2.2,0,0,1,3,15.93c0-.063,0-.063-.063-.126l-.063.063Zm-.063-1.642c0,.063,0,.063.063.126.063,0,.063,0,.063-.063-.063-.063-.063-.126-.126-.063Zm.063.505c0-.063,0-.126-.063-.126l-.063.063.126.063Zm.064-6.506c.063.063.063.063.063.126h.063c0-.126,0-.126-.126-.126ZM3.2,7.086c-.063,0-.063,0-.126.063,0,.126,0,.19.063.253h.126L3.2,7.086Zm0,8.212c-.063,0-.063,0-.126.063,0,.126,0,.19.063.189h.126L3.194,15.3Zm0,2.085c-.063,0,.063-.063.378-.126-.126-.063-.189-.063-.252-.126s-.063-.063-.126-.063A.209.209,0,0,0,3.193,17.383Zm.443-8.4c-.063-.126-.189-.126-.315-.126.063.063.063.063.126.063S3.573,8.981,3.636,8.981Zm0,1.137c-.063-.126-.189-.126-.315-.126.063.126.063.126.126.126Zm.126,1.706c-.126-.126-.189-.126-.378,0a.232.232,0,0,1,.063.189h.126ZM3.7,16.056c.063-.19.063-.379-.063-.442-.126,0-.189,0-.252.063v.189c.063.063.126.063.126.126C3.571,15.993,3.634,16.056,3.7,16.056Zm-.189-1.074c-.126.19-.063.253.063.316C3.635,15.172,3.635,15.045,3.509,14.982Zm-.062-4.611c.189.063.378.063.441-.063v-.253H3.636ZM3.888,9.3c.063-.063.063-.126.126-.126.063-.063.063-.063.063-.126H3.636V9.3Zm-.252,1.39h0c.063,0,.126,0,.126-.063L3.7,10.56c0,.063-.063.063-.063.126Zm.5-1.2h0c.063-.063.063-.063.063-.126L4.14,9.234,4.077,9.3A.49.49,0,0,1,4.14,9.486Zm.189.632c-.126.126-.126.19,0,.379.063-.063.063-.126.126-.126.063-.063.063-.063.063-.126H4.391C4.391,10.118,4.328,10.118,4.328,10.118ZM6.724.01A1.146,1.146,0,0,1,7.858.579a1.387,1.387,0,0,1,.252,1.263,1.894,1.894,0,0,1-.252.505,3.757,3.757,0,0,1-.252.505,2.058,2.058,0,0,1-1.134.7,1.872,1.872,0,0,1-1.323-.063,1.237,1.237,0,0,1-.567-.568,4.663,4.663,0,0,1-.252-.884,1.093,1.093,0,0,1,.315-.821C4.771,1.085,4.834.958,4.9.9A1.092,1.092,0,0,1,5.716.137,5.5,5.5,0,0,1,6.724.01Zm-1.2,1.516c-.126-.126-.189-.126-.378,0,.063.063.063.126.063.253a.2.2,0,0,1,.126-.063c.063,0,.063,0,.126-.063V1.527ZM5.274,6.58h0c-.063.063-.063.063-.063.126s0,.063.063.063V6.58Zm0,.948L5.337,7.4l-.063-.063V7.4c-.063,0-.063.063,0,.126Zm.063-1.453a.571.571,0,0,1,.063.316h.252c0-.126,0-.19-.063-.253H5.337ZM5.905.769A1.378,1.378,0,0,1,6.22.579.479.479,0,0,1,6.157.326a.327.327,0,0,1-.252.126.477.477,0,0,0-.252.126c.063.063.126.063.126.126C5.842.706,5.842.706,5.905.769Zm.441.253a.492.492,0,0,0,.5-.063A.841.841,0,0,0,6.535.895C6.472.958,6.409.958,6.346,1.021Zm.378.884c.063-.063.063-.126.126-.126s.063-.063.063-.126A.871.871,0,0,1,6.724,1.4.383.383,0,0,0,6.724,1.906ZM7.165.579A.63.63,0,0,0,6.913.263c-.126.126-.126.19,0,.316Zm.5.189A1.375,1.375,0,0,1,7.354.579H7.165c0,.063,0,.126,0,.253a.381.381,0,0,0,.063.253.118.118,0,0,1,.189,0,.231.231,0,0,0,.189-.063A.479.479,0,0,1,7.669.768Z" transform="translate(60.986 18.469)"/>
          <path id="Path_36" data-name="Path 36" class="cls-3" d="M18.392,4.529a9.966,9.966,0,0,0-.945,1.516c-.252.505-.567,1.011-.882,1.516-.189.316-.441.695-.63,1.011a7.551,7.551,0,0,0-.5,1.011c-.063.063-.126.19-.252.316l-.252.126a2.267,2.267,0,0,1-.252.695c-.126.19-.315.379-.441.569-.189.19-.315.379-.5.569a2.956,2.956,0,0,0-.315.632,3.088,3.088,0,0,0-.882,1.137A7.27,7.27,0,0,1,11.65,14.7l-.5.505a1.7,1.7,0,0,1-.5.442c-.5.379-1.008.821-1.512,1.2a7.391,7.391,0,0,1-1.7.948,1.479,1.479,0,0,1-.5.126.419.419,0,0,0-.315.253.327.327,0,0,1-.252.126,5.09,5.09,0,0,0-1.386,0,2.256,2.256,0,0,1-1.386-.252,2.938,2.938,0,0,0-.63-.316,1.883,1.883,0,0,1-.63-.253A3.617,3.617,0,0,1,.816,16.092,6.182,6.182,0,0,1,.123,14.2,11.7,11.7,0,0,1,.5,9.144,8.155,8.155,0,0,1,.88,7.817c.126-.442.315-.821.441-1.263a8.577,8.577,0,0,1,.63-1.327c.252-.442.5-.821.756-1.264A15.333,15.333,0,0,1,3.59,2.7c.315-.379.693-.758,1.071-1.137A4,4,0,0,1,6.047.678,4.85,4.85,0,0,1,7.685.235a3.386,3.386,0,0,0,.63-.19.872.872,0,0,1,.567,0A2.7,2.7,0,0,1,10.96.74a4.8,4.8,0,0,1,.756,1.2,2.239,2.239,0,0,1,.126,1.453c-.063.19-.063.316-.126.505a.879.879,0,0,0,0,.569.382.382,0,0,1-.189.379.665.665,0,0,0-.252.695v.19a.221.221,0,0,1-.063.126.569.569,0,0,0-.378.379,1.134,1.134,0,0,1-.315.442c-.315.379-.693.695-1.071,1.074a9.006,9.006,0,0,1-1.26.885A7.292,7.292,0,0,1,5.1,9.522a.542.542,0,0,0-.5.442c-.063.253-.063.569-.126.821-.063.316-.126.569-.189.821-.063.19-.126.316-.189.505a.7.7,0,0,0,0,.505.283.283,0,0,1,0,.316,1.964,1.964,0,0,0-.252,1.453,6.138,6.138,0,0,1,.189,1.453,1.038,1.038,0,0,0,.5.758,1.4,1.4,0,0,0,1.008.189.531.531,0,0,1,.441,0h.441a4.71,4.71,0,0,0,1.008-.253c.315-.126.63-.316.882-.442.315-.19.693-.442,1.008-.632A5.087,5.087,0,0,0,10.2,14.7a1.971,1.971,0,0,1,.693-.569.979.979,0,0,0,.5-.758c.063-.126.126-.19.252-.19.315-.063.5-.316.63-.695,0-.063,0-.126.063-.126a2.531,2.531,0,0,0,.882-.948,5.937,5.937,0,0,1,.756-1.137c.252-.379.441-.758.693-1.137A5.937,5.937,0,0,1,15.431,8l.756-1.137c.252-.379.441-.821.63-1.137a9.25,9.25,0,0,1,.567-.821,2.959,2.959,0,0,0,.5-.884.553.553,0,0,1,.441-.379c.189-.063.315-.063.378.063a.3.3,0,0,1,.063.379A1.067,1.067,0,0,0,18.392,4.529ZM.754,11.733h0c-.063-.063-.126-.063-.126,0,0,.126,0,.19.063.189H.816v-.19Zm.882.189.378-.19c-.063-.063-.063-.126-.126-.189s-.063-.126-.126-.189c-.126,0-.189,0-.252.063.063.063.063.063.063.126s.063.063.063.126l-.126.126v.126C1.635,11.86,1.635,11.86,1.635,11.923Zm.253-3.79c-.063,0-.126,0-.126.063.063,0,.063,0,.126.063-.063-.063,0-.063,0-.126Zm.567-1.516H2.2a.378.378,0,0,0-.252.063c.063.063.126.063.189.126s.126.063.252.126A.571.571,0,0,1,2.455,6.616ZM2.014,8.827c0-.063,0-.063-.063-.126l-.063.063v.063Zm.315,1.39c.126-.126.063-.253-.063-.379H2.077c.063.063.063.126.126.126C2.2,10.091,2.266,10.091,2.329,10.217Zm.189,2.211c0-.063,0-.126-.063-.126-.063-.063-.189-.063-.378-.063l-.063.126c0,.126,0,.19.063.253l.189-.19h.252ZM2.139,14.2h0V14.07l-.063.063C2.139,14.134,2.139,14.134,2.139,14.2Zm.128-8.465v.19a.232.232,0,0,0,.063.189c.063-.063.126-.063.126-.126s.063-.063.126-.063q.378-.19.378-.379c-.063-.063-.126-.126-.126-.189-.063-.063-.063-.126-.126-.189v.316Zm.251,5.117c.063.126.063.126.126.063.063,0,0-.063-.126-.063,0-.126-.063-.189-.126-.126Zm.19-4.485c0-.063,0-.063-.063-.126-.126,0-.189,0-.189.063v.126l.252-.063Zm-.064,6.38c.063-.126.063-.253-.126-.316a.119.119,0,0,1,0,.19Zm.126-.695a.841.841,0,0,0,.315.063c.063,0,.063-.063.126-.126v-.126c-.063,0-.126-.063-.252-.126-.063.063-.063.126-.126.126C2.832,11.923,2.769,11.986,2.769,12.049Zm.062,4.485h0c-.063-.063-.063-.063-.063-.126l-.063.063v.063c.063,0,.063.063.126,0Zm.128-9.286c0,.063-.063.063,0,0v.126c.063,0,.063,0,.063-.063ZM2.9,8.575V8.7h.252l.063-.063-.126-.126H2.9Zm0,.884c.126.189.189.189.315,0C3.085,9.333,3.022,9.333,2.9,9.459ZM3.021,11.1c0-.063,0-.126-.063-.126l-.063.063.126.063Zm-.064,3.916h0c.063-.063.063-.063.126-.063,0-.063,0-.063-.063-.063-.126,0-.126,0-.063.126Zm.064-3.537a.3.3,0,0,0,.378.063v-.253Zm.314,4.611v-.126c-.126,0-.189,0-.252-.063l-.063.063.126.126ZM3.148,4.848c-.063.063-.063.063-.063.126-.063.063,0,.063.063.126V4.848Zm1.07,2.463c-.063.063-.063.063-.126.063s-.063.063-.126.126c.126.126.189.126.315,0C4.282,7.374,4.282,7.311,4.219,7.311ZM4.093,5.353c-.063.063-.063.063-.063.126l.063.063v-.19Zm.441-.316c-.126,0-.189.063-.189.126.063.063.063.063.126.063s.063.063.126.126C4.66,5.226,4.66,5.1,4.534,5.037Zm.252.505c-.063,0-.126-.063-.252-.126-.063.063-.063.126-.126.126l-.126.126c.189.063.252.126.315.126s.063-.063.126-.126V5.542Zm0-1.453c-.189-.126-.252-.126-.315,0C4.6,4.216,4.723,4.216,4.786,4.089Zm.189.758c0-.063,0-.126,0-.253a.479.479,0,0,0-.126-.253c-.063.063-.063.126-.126.126L4.6,4.595c.063.063.126.063.126.126C4.849,4.847,4.912,4.847,4.975,4.847Zm0-1.769c.126-.063.189-.063.252,0a.378.378,0,0,0,.252-.063c0-.063,0-.126,0-.126s0-.063,0-.126H5.228a.378.378,0,0,0-.252.063Zm.441,1.453a.87.87,0,0,0-.252.19.327.327,0,0,1-.252.126q.094.379.378.379L5.416,5.1c0-.063.063-.063.126-.126a.119.119,0,0,1,0-.19c.063-.063,0-.126-.063-.189H5.416ZM9.574,2c-.315.19-.63.316-.882.506A1.494,1.494,0,0,0,8,3.331c-.063.126-.189.253-.252.379a1.675,1.675,0,0,0-.315.379,3.162,3.162,0,0,0-.441.505,5.565,5.565,0,0,0-.378.632l-1.2,2.148a1.894,1.894,0,0,0-.252.505,1.3,1.3,0,0,0,0,.695.869.869,0,0,1,.756-.19.873.873,0,0,0,.693-.126l1.134-.569a5.71,5.71,0,0,0,1.008-.7c.378-.316.693-.695,1.008-1.011a4.21,4.21,0,0,0,.756-1.264,4.134,4.134,0,0,0,.315-1.263,2.283,2.283,0,0,0-.252-1.263C10.2,1.814,9.952,1.751,9.574,2ZM5.038,3.584c0,.063,0,.063.063.126l.063-.063c-.063,0-.063-.063-.126-.063Zm.252-.126c0,.063.063.063,0,0h.126c-.063,0-.063,0-.063-.063A.062.062,0,0,1,5.29,3.457Zm.5.379c-.126-.126-.189-.126-.315,0A.28.28,0,0,0,5.794,3.836Zm.756-.569-.126.126c-.063,0-.063.063-.126.126a.232.232,0,0,0,.063.189h.315a.478.478,0,0,1-.063-.253A.232.232,0,0,0,6.55,3.268Zm0-1.011v.126c.063,0,.063,0,.126-.063l.189-.19H6.487v.126Zm.5-.569c.126.126.189.126.315,0,0-.126,0-.19-.063-.253-.063.063-.126.063-.252.063Zm.315-.632c.063.063.063.063.126.063s.063,0,.063-.063Zm.441.758A1.377,1.377,0,0,1,7.5,2c.126.126.189.126.378.063C7.873,2,7.81,1.878,7.81,1.815ZM8.818.361c.063.063.063.063.063.126.063,0,.063,0,.063-.063,0,0,0-.063-.126-.063Zm.063.253h0q0,.095,0,.19C8.944.74,8.944.74,8.944.677ZM9.7.74A1.105,1.105,0,0,0,9.322.677C9.259.677,9.259.74,9.2.8,9.322.867,9.448.8,9.7.74Z" transform="translate(70.732 23.737)"/>
          <path id="Path_37" data-name="Path 37" class="cls-3" d="M10.6,16.469a.535.535,0,0,0-.126.379.382.382,0,0,1-.189.379.868.868,0,0,0-.5.632,1.159,1.159,0,0,1-.441.632c0,.063,0,.126-.063.126-.378.442-.819.948-1.2,1.453a2.922,2.922,0,0,1-1.638,1.011,2.806,2.806,0,0,1-1.764-.189,2.581,2.581,0,0,1-1.26-1.2c-.189-.316-.315-.695-.5-1.011a2.868,2.868,0,0,1-.189-1.011c.063-.569.126-1.137.189-1.642a4.612,4.612,0,0,1,.441-1.516A3.31,3.31,0,0,0,3.739,13.5l.378-.948a16.942,16.942,0,0,0,.756-1.516c.189-.505.441-1.011.63-1.516A1.29,1.29,0,0,0,5.566,8.7a1.075,1.075,0,0,0-.756-.379,7.3,7.3,0,0,1-1.134-.252c-.378-.126-.756-.189-1.134-.316a3.19,3.19,0,0,1-1.008-.568A3.32,3.32,0,0,1,.779,6.3,5.222,5.222,0,0,1,.339,5.48,1.805,1.805,0,0,1,.213,4.469V4.406L.15,4.343a2.109,2.109,0,0,1-.063-1.39,7.546,7.546,0,0,1,.5-1.263A2.981,2.981,0,0,1,2.8.047c.063-.063.126-.063.252,0H3.3C3.93-.08,4.371.236,4.623.931a2.787,2.787,0,0,1,.126.632,1.369,1.369,0,0,1-.063.695,10.739,10.739,0,0,0-.252,1.39,4.131,4.131,0,0,1-.5,1.39c-.126.19-.063.316.126.442a2.383,2.383,0,0,0,.819.379c.315.063.567.189.819.253a1.882,1.882,0,0,1,.63.253,1.071,1.071,0,0,0,.63,0,.327.327,0,0,1,.252.126c.063.063.189.126.252.189a6.1,6.1,0,0,0,.567.442A1.7,1.7,0,0,1,8.779,8a2.234,2.234,0,0,1,.063,1.137.8.8,0,0,0-.063.379q0,.189,0,.379a.822.822,0,0,1-.126.632c-.126.063-.126.126-.126.19a1.754,1.754,0,0,1-.063.569.641.641,0,0,1-.378.442,4.309,4.309,0,0,1-.5,1.516,10.1,10.1,0,0,0-.63,1.453,3.569,3.569,0,0,1-.252.758c-.126.253-.189.442-.315.695a4.2,4.2,0,0,0-.378,1.263,9.453,9.453,0,0,0-.126,1.327.7.7,0,0,0,.315.632.7.7,0,0,0,.693-.063,2.524,2.524,0,0,0,.756-.632,9.288,9.288,0,0,0,.63-.821,2.271,2.271,0,0,0,.441-.632c.126-.19.252-.442.378-.632l1.134-1.706,1.134-1.706c.126-.19.252-.316.378-.505a1.9,1.9,0,0,0,.252-.632,1.325,1.325,0,0,1,.378-.505.983.983,0,0,0,.378-.505,8.049,8.049,0,0,1,.819-1.2,3.1,3.1,0,0,0,.693-1.264.972.972,0,0,1,.252-.379,1.322,1.322,0,0,0,.252-.379c.189-.253.378-.569.567-.884s.378-.569.567-.884c.063-.126.126-.19.189-.316.252-.253.441-.316.63-.126a.546.546,0,0,1,.189.379.391.391,0,0,1-.126.442,4.487,4.487,0,0,0-.63.884l-.567.948-.756,1.137-.756,1.137c-.189.253-.315.505-.5.758s-.315.505-.5.758a9.045,9.045,0,0,1-1.008,1.516,8.063,8.063,0,0,0-.945,1.579.726.726,0,0,0-.5.632C11.108,16.216,10.919,16.406,10.6,16.469ZM.78,3.648a.354.354,0,0,0,.567,0c-.063-.126-.126-.189-.252-.189A.378.378,0,0,1,.843,3.4C.843,3.521.843,3.648.78,3.648Zm.441-.884c0,.063,0,.063-.063.126v.063c.063,0,.063,0,.126-.063a.2.2,0,0,1-.063-.126Zm.5-.505c.063-.063.126-.063.252-.063.063,0,.126-.063.063-.19H1.662c-.063.063-.126.126-.189.126-.063.063-.126.063-.189.126v.126c0,.063.063.126.063.189a.873.873,0,0,1,.189-.253C1.662,2.384,1.725,2.321,1.725,2.258Zm0-.758ZM2.8,6.68Zm.19-3.537v.695a.906.906,0,0,0,.252.632A2.419,2.419,0,0,0,3.8,3.331c.063-.379.063-.821.126-1.263.063-.19-.063-.316-.315-.379a.389.389,0,0,0-.441.126c-.063.063-.063.126-.126.19a.233.233,0,0,0-.063.19.7.7,0,0,1,0,.505Zm.5-2.4c0,.063,0,.063.063.126L3.615.8,3.489.742Zm.248,17.371h.441a.456.456,0,0,0,.378-.253l-.126-.126c-.063.063-.126.063-.126.126l-.126.126A4.008,4.008,0,0,0,3.738,18.113Zm.191-10.8.126-.063H3.929v.063Zm.313,8.907c-.063-.126-.126-.189-.378-.253v.442A.449.449,0,0,0,4.242,16.218ZM4.118,6.742Zm.628,10.675q-.283-.284-.378,0Zm.694-5.18c.063,0,.063-.063-.063-.126a.493.493,0,0,0-.252.253c-.063.126-.063.19-.126.316A1.474,1.474,0,0,0,5.439,12.238ZM5.187,16.66c.189-.126.189-.19.126-.316-.189-.063-.252,0-.315.126Zm0,1.137c-.063,0-.126,0-.126-.063V17.8ZM5.755,7.058c.126-.063.126-.126.063-.19-.189,0-.189.063-.126.126l.063.063Zm1.2,3.1c-.063.063-.063.063-.063.126h.063Zm.063.695H6.888c0,.063,0,.063.063.063l.063-.063Zm.756-1.958c-.126-.126-.252-.189-.378-.126C7.519,8.953,7.645,8.953,7.771,8.889Zm.063,1.137c0-.063,0-.126,0-.126V9.837a.2.2,0,0,1-.126.063.22.22,0,0,1-.126.063C7.645,10.09,7.77,10.153,7.834,10.026Zm.5-1.642a.2.2,0,0,1-.126.063.22.22,0,0,1-.126.063.2.2,0,0,0,.126.063c.063,0,.063.063.126.063A.193.193,0,0,0,8.338,8.384Z" transform="translate(85.888 22.029)"/>
          <path id="Path_38" data-name="Path 38" class="cls-3" d="M.06,13.543A9.353,9.353,0,0,1,0,12.216a2.238,2.238,0,0,1,.378-1.2.4.4,0,0,0,0-.379.667.667,0,0,1,.252-.821c.063-.063.126-.126.126-.19a3.82,3.82,0,0,1,.378-1.2L1.7,7.289c.126-.19.189-.379.315-.569a1.7,1.7,0,0,1,.441-.505,2.072,2.072,0,0,0,.378-.505,2.016,2.016,0,0,1,.882-1.137.493.493,0,0,0,.252-.253A3.325,3.325,0,0,1,4.976,3.056a9.7,9.7,0,0,0,1.2-1.074A15.749,15.749,0,0,1,7.685.845a5.779,5.779,0,0,1,1.827-.7A4.932,4.932,0,0,1,11.653.086a2.986,2.986,0,0,1,1.763,1.2c.126.126.189.253.315.379a2.138,2.138,0,0,1,.378.379c.252-.253.5-.569.756-.821a2.879,2.879,0,0,1,.756-.758A2.434,2.434,0,0,1,16.755.148a1.439,1.439,0,0,1,1.071.189,2,2,0,0,1,.63.884,1.574,1.574,0,0,1-.063,1.2c-.189.442-.315.948-.5,1.39a6.458,6.458,0,0,1-.567,1.39,1.021,1.021,0,0,0-.189.569.645.645,0,0,1-.315.505c-.063.063-.063.126-.063.253a.726.726,0,0,1-.063.632,2.248,2.248,0,0,0-.252.569,31.107,31.107,0,0,0-.945,3.222,19.469,19.469,0,0,0-.442,3.348,6.147,6.147,0,0,0,.063,1.074,3.307,3.307,0,0,0,.378,1.011,2,2,0,0,0,2.771.5A3.166,3.166,0,0,0,19.209,16a6.379,6.379,0,0,1,.819-1.011,2.856,2.856,0,0,0,.693-1.074,10.233,10.233,0,0,1,.63-1.137,6.375,6.375,0,0,0,.756-1.453A16.185,16.185,0,0,1,22.8,9.811a6.857,6.857,0,0,0,.5-1.2,10.559,10.559,0,0,1,.5-1.263,2.105,2.105,0,0,1,.378-.632.879.879,0,0,0,.126-.695c-.063-.126.063-.19.252-.316a.554.554,0,0,1,.5-.126c.189.063.252.126.252.253V6.21a3.457,3.457,0,0,1-.378,1.137,8.973,8.973,0,0,0-.5,1.137c-.189.442-.315.948-.5,1.39a7.873,7.873,0,0,1-.63,1.263,4.045,4.045,0,0,0-.5,1.2,1.433,1.433,0,0,1-.693,1.011,5.168,5.168,0,0,1-.693,1.453,15.329,15.329,0,0,0-.882,1.264,6.3,6.3,0,0,1-1.638,1.769,1.678,1.678,0,0,1-.63.379c-.252.063-.441.19-.693.253-.126.126-.315.126-.567.063-.063-.063-.126-.063-.252-.126a.191.191,0,0,0-.252,0,1.08,1.08,0,0,1-1.134.127,4,4,0,0,0-1.134-.379,2.777,2.777,0,0,1-1.008-.379,3.085,3.085,0,0,1-.819-.758A7.051,7.051,0,0,1,11.4,14.362a7.711,7.711,0,0,1-.063-2.085,10.431,10.431,0,0,1,.378-2.021v-.19c-.189.126-.315.19-.5.316a1.377,1.377,0,0,0-.315.505.668.668,0,0,1-.378.442,2.742,2.742,0,0,0-.441.379c-.252.316-.567.632-.819.948a6.486,6.486,0,0,1-.945.885.58.58,0,0,1-.252.379c-.126.063-.252.19-.378.253s-.315.126-.378.253a1.322,1.322,0,0,0-.252.379,15.34,15.34,0,0,1-1.764.885,5.015,5.015,0,0,1-1.953.569A2.152,2.152,0,0,1,2.2,16.069a4.469,4.469,0,0,1-.882-.632L.564,14.49C.249,14.427.123,13.985.06,13.543ZM.5,13.038h0l.063.126c0-.063,0-.063.063-.063C.564,13.038.564,13.038.5,13.038Zm.441-1.9c-.063.063-.063.063-.126.063l.126.126.063-.063C1.006,11.206.943,11.206.943,11.142Zm0,2.59h0c0,.063,0,.063.063.126,0-.063,0-.063.063-.063A.2.2,0,0,0,.942,13.732Zm.189-.821c-.126.063-.126.126,0,.253a.471.471,0,0,0,.315-.063l-.126-.126A.231.231,0,0,0,1.131,12.911Zm.315-2.716c0,.063,0,.063-.063.126,0,.063,0,.063.063.063v-.189Zm.567,1.958c-.189-.126-.252-.126-.315,0A.281.281,0,0,0,2.013,12.153Zm-.063-2.021h0a.329.329,0,0,1-.126.253c.063.063.126.063.126.126s.063.063.063.126a.871.871,0,0,1,.252-.19c.063-.063.189-.126.252-.19H2.266c-.063-.063-.126-.063-.126-.126s-.063-.063-.126,0c-.063,0-.063,0-.126.063C1.888,10.068,1.888,10.132,1.951,10.132Zm.5-3.032c-.063.063-.126.126-.189.126-.063.063-.063.126-.063.253.063.063.063.063.063.126s.063.063.126.126L2.518,7.6c.063,0,.063-.063.126-.126,0-.126,0-.19-.063-.189C2.518,7.226,2.455,7.162,2.455,7.1Zm-.064,3.79c.126.063.189,0,.315-.063C2.517,10.7,2.391,10.7,2.391,10.889Zm1.071.252a8.268,8.268,0,0,1-.5,1.327,3.452,3.452,0,0,0-.315,1.39,1.886,1.886,0,0,0,.126.884c.063.126.378.126.882.126a1.48,1.48,0,0,0,1.26-.19l.945-.569a8.48,8.48,0,0,0,.882-.7A16.05,16.05,0,0,0,8.5,11.583c.567-.632,1.071-1.327,1.638-2.022a5.519,5.519,0,0,1,.5-.632,6.626,6.626,0,0,0,.5-.695c.189-.253.315-.505.5-.758a5.274,5.274,0,0,0,.5-.758c.126-.19.252-.316.378-.505a1.07,1.07,0,0,0,.189-.632v-.19a.136.136,0,0,1,.126-.126c.315-.19.441-.379.441-.632a1.607,1.607,0,0,1,.126-.758.419.419,0,0,0-.063-.379,2.216,2.216,0,0,0-.315-.505l-.378-.379a.462.462,0,0,0-.378-.126,1.674,1.674,0,0,1-.756.19,3.545,3.545,0,0,0-.756.253A15.114,15.114,0,0,0,8.44,4.508Q7.4,5.361,6.361,6.4A12.037,12.037,0,0,0,4.407,9.057c-.189.316-.315.695-.5,1.011A7.721,7.721,0,0,0,3.462,11.142ZM2.9,9.373h0c-.063.126-.063.126,0,.126l.063-.063L2.9,9.373Zm.5-.316h0c-.063.063-.063.063-.126.063,0,.063,0,.063.063.063.063-.063.063-.063.063-.126Zm.945-1.516c-.063.063-.063.063-.063.126h.063V7.541ZM4.66,4c-.126.126-.126.19,0,.316A.283.283,0,0,0,4.66,4ZM5.731,2.93h0l.063.126.063-.063C5.794,2.993,5.794,2.93,5.731,2.93ZM6.3,4.572c-.126-.063-.189-.063-.252-.126s-.063-.063-.126-.063a.283.283,0,0,0,0,.316.231.231,0,0,1,.189-.063A.231.231,0,0,0,6.3,4.572Zm.252-2.653h0c-.063.063-.063.126,0,.126v.063c.063-.063.063-.063.063-.126Zm.378.821a.119.119,0,0,0,0,.19l.441.442a.8.8,0,0,1-.063-.379c.063-.126,0-.19-.126-.253Zm.189-.316c-.126,0-.189.063-.126.126l.126-.126c.189,0,.189-.063.126-.126Zm.315,1.39c0-.063,0-.126-.063-.126,0,.063,0,.063-.063.063v.063c.063,0,.063.063.126,0Zm.63-.379c-.126-.063-.252-.063-.315.063,0,.063,0,.063,0,.126s0,.063,0,.126c.063-.063.126-.126.189-.126C8.062,3.561,8.062,3.5,8.062,3.434Zm-.189-.568c-.063.063-.063.063-.063.126l.063.126c0-.063,0-.063.063-.063A.232.232,0,0,1,7.873,2.866Zm.315-.442c-.126,0-.189,0-.189.063v.126h.189l.063-.063A.221.221,0,0,0,8.188,2.424ZM9.2.844c-.063-.063-.252-.063-.5.063A1.105,1.105,0,0,0,9.07.971ZM8.881,2.171H8.755c.063,0,.063,0,.063.063Zm3.4,7.264c.063.063.126.063.126.126.063.063.063.063.126.063a.233.233,0,0,0,.063-.19A.281.281,0,0,0,12.281,9.435Zm.251,3.79c0,.063,0,.126-.063.126-.063.063,0,.063.126.126C12.658,13.414,12.6,13.351,12.532,13.225Zm0,2.337c0-.063.063-.063,0,0q.095-.19,0-.19c0,.063,0,.063-.063.063V15.5C12.532,15.5,12.532,15.5,12.532,15.562Zm.063-1.011c.063,0,.063,0,.126-.063l-.063-.063-.063.126Zm.441.126.063-.126-.063-.063c-.063.063-.063.063,0,.19C12.973,14.614,12.973,14.677,13.036,14.677Zm.126,0c0,.063,0,.126,0,.126v.126h.315c-.063-.126-.063-.189,0-.253s0-.126-.063-.189c-.063.063-.126.063-.126.126A.22.22,0,0,1,13.162,14.677ZM13.6,5.9l-.126-.126-.126-.126c-.126.126-.126.19,0,.316A.378.378,0,0,0,13.6,5.9Zm-.316,6.633.126-.063c-.063,0-.063,0-.063-.063a.221.221,0,0,0-.063.126Zm0,3.853c.063-.063.063,0,.126,0,.063.063.063,0,.126-.063C13.414,16.193,13.351,16.257,13.288,16.383Zm.253-2.969c-.063.063-.063.063-.126.063,0,.063,0,.063.063.063,0-.063.063-.063.063-.126Zm0,2.021h0l.063-.126c-.063,0-.063,0-.126.063Zm.695-10.549c-.189-.126-.252-.063-.315.063C13.983,5.012,14.109,5.012,14.235,4.886Zm-.317,8.528a.118.118,0,0,1,.189,0c.063.063.126,0,.189-.063,0-.063,0-.126-.063-.126l-.126-.126a.231.231,0,0,1-.189.063Zm.125,3.664.315-.126c-.063-.063-.126-.063-.189-.126a.231.231,0,0,0-.189-.063C13.917,16.825,13.917,16.951,14.043,17.078ZM14.3,12.4h0v.126c.063,0,.063,0,.063-.063A.062.062,0,0,1,14.3,12.4Zm.252-1.39c.063.063,0,.063,0,.126-.063.063,0,.063.063.126C14.737,11.14,14.737,11.076,14.548,11.013Zm.316-7.391q-.283-.189-.378,0A.236.236,0,0,0,14.865,3.623ZM14.61,16h0l-.063-.126-.063.063A.22.22,0,0,1,14.61,16Zm.065-10.676h0c-.063,0-.126,0-.126.063s0,.063.063.126C14.612,5.454,14.675,5.391,14.675,5.328Zm.379-3.222c-.126.126-.126.19,0,.316C15.243,2.3,15.243,2.233,15.054,2.106Zm.5.442c-.063.063-.063.063-.063.126s0,.063.063.063v-.19Zm.252-.884c0,.063,0,.063.063.126h.252c0-.063,0-.063-.063-.126,0-.063-.063-.063-.252,0Zm.063.758h0c-.063.063-.063.063-.063.126.063,0,.063,0,.063.063a.119.119,0,0,0,0-.19Zm.188,3.537c0-.063.063-.063,0,0,.063-.063.063-.063.063-.126-.063,0-.063,0-.126-.063l-.063.063Zm.757-4.927c-.126-.126-.189-.126-.378,0A.236.236,0,0,0,16.818,1.032ZM16.566.653c-.126,0-.126.063-.063.126.063,0,.063-.063.063-.126.126-.063.189-.063.126-.126C16.692.527,16.692.59,16.566.653Zm.188,3.664h0c0-.063,0-.126-.063-.126s-.063,0-.063.063ZM17.07.653c-.063.063-.063.063-.126.063V.843l.126-.19Z" transform="translate(98.511 21.543)"/>
        </g>
      </g>
      <path id="Path_39" data-name="Path 39" class="cls-3" d="M.081,1.769a2.321,2.321,0,0,0,1.7,1.074,1.544,1.544,0,0,0,1.386-.19,1.828,1.828,0,0,0,.693-1.137.7.7,0,0,0,0-.505A1.132,1.132,0,0,0,3.546.568,1.221,1.221,0,0,0,2.475,0,.471.471,0,0,0,2.16.063,3.058,3.058,0,0,0,1.4.126C.4.189-.234.948.081,1.769Z" transform="translate(67.512 99.868)"/>
      <path id="Path_40" data-name="Path 40" class="cls-3" d="M.039,1.921c.189.821,1.26,1.2,2.267,1.073h.063a1.835,1.835,0,0,0,.567-.126,1.212,1.212,0,0,0,.63-1.706A2.634,2.634,0,0,0,3.188.657V.594A1.157,1.157,0,0,0,2.307.089,2.23,2.23,0,0,0,1.362.026,1.6,1.6,0,0,0,.039,1.921Z" transform="translate(128.843 99.703)"/>
    </g>
  </g>
</svg>
