<svg id="Layer_1" data-name="Layer 1" xmlns="http://www.w3.org/2000/svg" viewBox="0 0 174.47 170.85"><defs><style>.cls-1{fill:#bee2e4;}.cls-2{fill:#d5c5ad;}.cls-3{fill:#c4b892;}</style></defs><title>logo-footer</title><g id="footer-logo"><path id="Path_24" data-name="Path 24" class="cls-1" d="M136.24,132.61c-5.51,5.17-9.06,11.16-16,14.92-11.18,6.07-22.52,4.54-34.29,1.39-9.13-2.44-18.78-3.22-26.83-8.38C52,135.93,45,131.13,37.83,126.6,31.63,122.68,25.09,119.37,21,113c-3.61-5.61-4.66-12.52-4.24-19.17s2.23-13.13,4-19.56c1.36-4.88,1.54-10.31,3.43-14.92,2.26-5.51,6.38-10.65,10.5-14.84,5.42-5.55,11.52-10.32,16.75-15.79C61.7,18.08,79.34,15,93.53,16.6a79.82,79.82,0,0,1,29.35,9.28c5.45,3,8,8.45,11.35,13.38,4.35,6.19,10.6,8.08,16.1,12.79,7.12,6.06,9.58,15.08,8.63,24.09-2.16,20.38-5.48,41.53-21.66,55.51A13.7,13.7,0,0,0,136.24,132.61Z"/><g id="Group_8" data-name="Group 8"><path id="Path_25" data-name="Path 25" class="cls-2" d="M96.36,165a85.7,85.7,0,0,1-53-14.3c-15-10-27.94-26.89-34.71-45.19C3.36,91.15,4.75,75.87,12.85,60c6-11.76,15.39-27.86,26-37.61,19.61-18.13,50.82-22,79.43-10,17.75,7.51,31.61,21.66,40,40.91,7.88,18,13.59,46.29,3.92,66.75-3.07,6.52-8.32,13.5-15.18,20.09h0C135.53,151.3,121,160,109.09,163A79.29,79.29,0,0,1,96.36,165ZM79.13,7.47C65,8.46,51,13.28,39.88,23.58,29.39,33.2,20.16,49.09,14.23,60.78,6.35,76.2,4.93,91,10.07,104.92c6.68,18,19.4,34.61,34.15,44.41,19.13,12.77,43.24,17.32,64.51,12.11C120.39,158.6,134.62,150,146,139.05c6.68-6.46,11.82-13.24,14.84-19.63,9.45-20,3.78-47.76-4-65.43-8.26-18.88-21.79-32.74-39.21-40.09A85.6,85.6,0,0,0,79.13,7.47Z"/></g><g id="Group_9" data-name="Group 9"><path id="Path_26" data-name="Path 26" class="cls-2" d="M90.23,161.16c-1.64.12-3.21.16-4.85.22-24.13.49-47.21-8.41-61.66-23.78C11.58,124.66,6,108.1,7.54,89.6L7.68,88C9.49,66,11.8,38.71,31.19,24.69a88.83,88.83,0,0,1,79.91-12.1c20,6.67,37.47,18.79,48.15,33.35,9.9,13.55,12,28.71,6.75,47.66-3.23,11.57-7.89,26.07-15.67,35.68C134.72,148.78,114.46,159.46,90.23,161.16ZM76.84,9.84A86.74,86.74,0,0,0,32.1,26C13.31,39.55,11,66.49,9.2,88.1l-.13,1.64c-1.52,18,3.91,34.19,15.77,46.77C39,151.58,61.58,160.27,85.34,159.8c26-.56,47.42-11.14,63.84-31.5,7.61-9.42,12.22-23.73,15.39-35.16l.77.19-.77-.19c5.14-18.45,3-33.16-6.53-46.29-10.4-14.33-27.71-26.28-47.34-32.78A87.59,87.59,0,0,0,76.84,9.84Z"/></g><g id="Group_11" data-name="Group 11"><g id="Group_10" data-name="Group 10"><path id="Path_27" data-name="Path 27" class="cls-3" d="M83.82,104h0a4.15,4.15,0,0,1,1.05-1.27,2.85,2.85,0,0,1,1.54-.55,3.29,3.29,0,0,1,1.46.15,2.65,2.65,0,0,1,1,.69,3.31,3.31,0,0,1,.59,1.15,12,12,0,0,1,.23,1.56l.38,5.46-.87.06-.39-5.46a6,6,0,0,0-.14-1.12,2.07,2.07,0,0,0-.38-.92,1.45,1.45,0,0,0-.67-.58,2.21,2.21,0,0,0-1.22-.17,2.42,2.42,0,0,0-1.35.47,2.31,2.31,0,0,0-.75,1,4.33,4.33,0,0,0-.29,1.28,10.75,10.75,0,0,0,0,1.39l.31,4.45-.87.06-.64-9.09.88-.06.11,1.51Z"/><path id="Path_28" data-name="Path 28" class="cls-3" d="M102.25,110.42l-.88.07-.11-1.63h-.07a2.49,2.49,0,0,1-.57.8,3.61,3.61,0,0,1-.78.62,6.35,6.35,0,0,1-.91.44,5.71,5.71,0,0,1-1,.2,4.52,4.52,0,0,1-3.42-1.15,4.46,4.46,0,0,1-1-1.44,5.79,5.79,0,0,1-.26-3.76A4.43,4.43,0,0,1,94,103a3.86,3.86,0,0,1,1.31-1.1,4.76,4.76,0,0,1,3.84-.21,4,4,0,0,1,1.6,1.21h.06l-.11-1.57.88-.06.64,9.15Zm-5-8.08a3.74,3.74,0,0,0-1.42.41A3.55,3.55,0,0,0,94.11,105a3.61,3.61,0,0,0-.15,1.46,4.28,4.28,0,0,0,.36,1.49,3.94,3.94,0,0,0,.78,1.2,3.72,3.72,0,0,0,1.19.8,3.8,3.8,0,0,0,3-.21,3.08,3.08,0,0,0,1.07-1,4.73,4.73,0,0,0,.74-3,3.71,3.71,0,0,0-.35-1.42,3.92,3.92,0,0,0-.84-1.14,3.78,3.78,0,0,0-1.19-.74,3.18,3.18,0,0,0-1.53-.2Z"/><path id="Path_29" data-name="Path 29" class="cls-3" d="M104.38,101.2l1.07-.07,3.15,3.49,2.62-3.9,1.07-.07-3.09,4.5,4,4.5-1.07.08-3.56-3.91-2.91,4.36-1,.07,3.37-5Z"/><path id="Path_30" data-name="Path 30" class="cls-3" d="M119,100a4.72,4.72,0,0,1,1.9.24,4.61,4.61,0,0,1,2.69,2.34,4.91,4.91,0,0,1,.27,3.76,4.77,4.77,0,0,1-4.2,3.19,4.44,4.44,0,0,1-1.84-.25,4.66,4.66,0,0,1-2.69-2.33,4.71,4.71,0,0,1,2.08-6.32A2.78,2.78,0,0,1,119,100Zm0,.82a3.92,3.92,0,0,0-1.49.42,3.37,3.37,0,0,0-1.13,1,4.12,4.12,0,0,0-.94,2.84,3.76,3.76,0,0,0,.42,1.42,3.3,3.3,0,0,0,.9,1.19,4.28,4.28,0,0,0,1.26.8,3.78,3.78,0,0,0,1.53.2,4.15,4.15,0,0,0,2.75-1.32A3.38,3.38,0,0,0,123,106a4,4,0,0,0,.21-1.53,3.86,3.86,0,0,0-4.23-3.67Z"/><path id="Path_31" data-name="Path 31" class="cls-3" d="M130.86,101a1.93,1.93,0,0,0-.68-.71,1.67,1.67,0,0,0-1-.18,1.76,1.76,0,0,0-.55.17,1.27,1.27,0,0,0-.48.34,3.19,3.19,0,0,0-.35.47,1,1,0,0,0-.08.57,1.37,1.37,0,0,0,.37.86,2.6,2.6,0,0,0,.86.44c.32.1.7.2,1.09.36a6.53,6.53,0,0,1,1.11.43,2,2,0,0,1,.87.76,2.55,2.55,0,0,1,.41,1.29,2.27,2.27,0,0,1-.18,1.15,2.31,2.31,0,0,1-.56.92,2.41,2.41,0,0,1-.91.63,3.27,3.27,0,0,1-1.11.26,3.18,3.18,0,0,1-2.06-.48,3.1,3.1,0,0,1-1.25-1.68l.86-.31a2.87,2.87,0,0,0,.91,1.26,2.29,2.29,0,0,0,1.48.4,2,2,0,0,0,1.88-2,.76.76,0,0,0,0-.15,2.34,2.34,0,0,0-.17-.68,3.13,3.13,0,0,0-.42-.47,2.58,2.58,0,0,0-.58-.28c-.2,0-.45-.15-.65-.2l-1-.31a4.25,4.25,0,0,1-.91-.44,3.22,3.22,0,0,1-.68-.65,1.64,1.64,0,0,1-.32-1,2.62,2.62,0,0,1,.12-1,3.09,3.09,0,0,1,.52-.79,3.33,3.33,0,0,1,.78-.55,2.4,2.4,0,0,1,2.34.08,2.29,2.29,0,0,1,1,1Z"/></g></g><g id="Group_13" data-name="Group 13"><g id="Group_12" data-name="Group 12"><path id="Path_32" data-name="Path 32" class="cls-3" d="M74,94.77c.3-.22.5-.1.59.33.08.12,0,.25,0,.51a1.29,1.29,0,0,1-.23.39l-.33.59-.34.59a1,1,0,0,1-.35.4l-.19,0a1.06,1.06,0,0,1-.32.77,1.81,1.81,0,0,0-.59.61,2.9,2.9,0,0,1-.59.67.94.94,0,0,0-.39.72.92.92,0,0,0-.66.49,2.8,2.8,0,0,1-.58.61,1,1,0,0,0-.3.27.59.59,0,0,0-.23.4c0,.12,0,.19-.11.19a.71.71,0,0,0-.61.3,1,1,0,0,1-.47.41,15.69,15.69,0,0,1-1.87,1.26,22.15,22.15,0,0,1-2.07,1,11.85,11.85,0,0,1-2.11.53,6.21,6.21,0,0,1-2.15,0l-1.73-.45a4.43,4.43,0,0,1-1.57-.77c-.27-.23-.6-.4-.87-.63a4.16,4.16,0,0,0-.92-.57,1.58,1.58,0,0,1-.68-.64c-.28-.42-.56-.91-.85-1.33a9.47,9.47,0,0,1-.72-1.33,3,3,0,0,0-.65-1.22,1,1,0,0,1-.22-.36,1.79,1.79,0,0,0-.2-1,7.8,7.8,0,0,0-.49-.79,1.84,1.84,0,0,1-.17-.62,2.51,2.51,0,0,0-.17-.61c-.24-.68-.47-1.29-.71-2s-.53-1.29-.83-2c-.22-.42-.44-.91-.66-1.34s-.5-.84-.79-1.33a4.28,4.28,0,0,0-2.33-1.85,1.73,1.73,0,0,1-.73-.45,4.89,4.89,0,0,1-.55-.72A2,2,0,0,1,44,85a1.31,1.31,0,0,1,.19-.84,3.91,3.91,0,0,1,.4-.65.93.93,0,0,1,.72-.5c.19-.07.24-.14.24-.2a1,1,0,0,1,.57-.92,2.13,2.13,0,0,0,.77-.69,8,8,0,0,1,.64-.8c.23-.26.46-.47.7-.74l.7-.8a2.75,2.75,0,0,0,.57-.86.44.44,0,0,1,.3-.28.92.92,0,0,0,.42-.28c.06-.13.17-.26.23-.39a3.51,3.51,0,0,0,.58-.74,2.56,2.56,0,0,1,.71-.68c.18,0,.24-.08.23-.2a1,1,0,0,1,.45-.72,1.12,1.12,0,0,0,.52-.67c.12-.2.18-.27.36-.28a.8.8,0,0,0,.52-.73.32.32,0,0,1,.17-.32,4.28,4.28,0,0,0,1.06-1,7.93,7.93,0,0,1,.86-1.2l.88-1a3.42,3.42,0,0,0,.67-1.19c.06-.06.06-.13.18-.13s.19-.08.25-.09c.25-.08.36-.21.35-.4a.57.57,0,0,1,.46-.66.52.52,0,0,0,.29-.34c.09-.44.26-.71.57-.79.13,0,.19-.08.17-.27s.15-.57.58-.79c.06-.07.06-.07.12-.07s.06-.07.12-.14a9.26,9.26,0,0,1,1-1.71,9.2,9.2,0,0,0,1-1.71c.27-.58.61-1.17.89-1.7a6.78,6.78,0,0,0,.63-1.75,3.31,3.31,0,0,1,.2-.7,1.38,1.38,0,0,0,.14-.77,1.2,1.2,0,0,0-.25-.86,2.9,2.9,0,0,0-.67-.59,4.73,4.73,0,0,0-1.16-.36,1.28,1.28,0,0,0-1.18.4l-.06.07a.05.05,0,0,0-.05.06h0a6.11,6.11,0,0,0-1.42.54,3.8,3.8,0,0,0-1,.57,9.1,9.1,0,0,0-.83.68,12.16,12.16,0,0,0-1,1,21,21,0,0,0-2.22,2.49c-.7.87-1.33,1.8-2,2.66-.4.6-.8,1.13-1.15,1.66a14.5,14.5,0,0,0-1,1.71,8.31,8.31,0,0,1-.63.92,2,2,0,0,0-.43,1,2.18,2.18,0,0,1-.28.52,1.82,1.82,0,0,1-.46.53c-.23.4-.39.79-.62,1.12a9.54,9.54,0,0,0-.55,1.11c-.22.47-.46.93-.72,1.37a3.59,3.59,0,0,0-.6,1.44A2,2,0,0,1,46,75c-.11.2-.22.46-.33.65-.21.58-.42,1.1-.64,1.69a14.08,14.08,0,0,1-.65,1.55,2.85,2.85,0,0,0-.41,1.23,3.76,3.76,0,0,1-.42,1.22,8.6,8.6,0,0,0-.58,1.56,11.77,11.77,0,0,0-.39,1.66,1.52,1.52,0,0,0-.09.51.48.48,0,0,1-.22.46l-.11.13a2.18,2.18,0,0,1-.16,1.4,2.13,2.13,0,0,0-.22,1.4,2.73,2.73,0,0,1-.07.7c0,.25-.16.45-.21.71a.64.64,0,0,0-.1.38,4.6,4.6,0,0,1-.13,1.65c-.09.57-.24,1.09-.33,1.6-.14.7-.22,1.4-.36,2.1a12.64,12.64,0,0,1-.48,2.11c-.16.46-.26.78-.39.79a3.15,3.15,0,0,1-.87.12,2.74,2.74,0,0,1-1.27-.16,3.89,3.89,0,0,0-1.16-.3.81.81,0,0,1-.6-.4,1.08,1.08,0,0,1-.17-.74,5.42,5.42,0,0,0,0-1.45,2.87,2.87,0,0,1,.28-1.47c0-.07,0-.07,0-.13A4.34,4.34,0,0,1,36,92.14a18.13,18.13,0,0,0,.32-1.79c.13-.77.2-1.59.33-2.42s.26-1.65.33-2.41c.05-.26.1-.45.14-.71a3.31,3.31,0,0,1,.2-.7,1.2,1.2,0,0,0,.08-.77.64.64,0,0,1,0-.49.72.72,0,0,1,.29-.47c.06,0,.12-.07.11-.19a6.53,6.53,0,0,1,.24-2c.14-.64.28-1.34.43-2s.21-1.47.34-2.23.27-1.49.35-2.24l.29-1.15a2.68,2.68,0,0,0,0-1.26.61.61,0,0,0-.55.16c-.55.36-1.16.71-1.7,1s-1.16.59-1.71.88a9.77,9.77,0,0,1-1.4.73,13.32,13.32,0,0,0-1.4.73c-.36.21-.73.36-1.09.57a9.63,9.63,0,0,0-1.1.58c-.54.35-1.08.71-1.56,1.06a11.65,11.65,0,0,0-1.43,1.29c-.28.32-.56.66-.81,1a6,6,0,0,0-.55,1.11A9.77,9.77,0,0,0,25.62,82a2.42,2.42,0,0,0,.18,1.63,3.83,3.83,0,0,0,.7,1,1.86,1.86,0,0,0,1.1.43c.19,0,.31,0,.38,0a.47.47,0,0,1,.41.47.5.5,0,0,1-.39.59h0l-.38,0a3,3,0,0,1-1.88-.69,2.47,2.47,0,0,1-1.06-1.63,3.41,3.41,0,0,0-.23-.68,1,1,0,0,1-.09-.34,3.07,3.07,0,0,0,.35-1.29A4,4,0,0,1,25,80.19a5,5,0,0,1,1.08-1.71,9.08,9.08,0,0,0,1.22-1.54,1.29,1.29,0,0,1,.6-.42,4,4,0,0,0,.6-.42,13.55,13.55,0,0,1,1.68-1.25,16.85,16.85,0,0,0,1.75-1.13,9.91,9.91,0,0,1,1.33-.79,2.89,2.89,0,0,0,1.2-.9,1.05,1.05,0,0,1,.55-.29,4.85,4.85,0,0,0,.61-.29c.42-.29.78-.5,1.21-.78s.78-.56,1.2-.84A5.8,5.8,0,0,0,39,69a7.07,7.07,0,0,1,1-.89,1.11,1.11,0,0,0,.21-.58,5.54,5.54,0,0,0,.19-.9,2.7,2.7,0,0,1,.32-.9.76.76,0,0,0,.1-.39c0-.12,0-.31,0-.44a1.15,1.15,0,0,1,.31-.9.59.59,0,0,0,.22-.52.84.84,0,0,1,.09-.58,5.27,5.27,0,0,0,.39-.79l.32-.77a3.78,3.78,0,0,1,.68-1.12,11.25,11.25,0,0,1,.88-.95,1.83,1.83,0,0,1,1.35-.53,2.77,2.77,0,0,1,1.48.4,1.2,1.2,0,0,1,.46.34,1.88,1.88,0,0,1,.81,1.58c0,.45-.13.89-.16,1.34a8.94,8.94,0,0,1-.36,1.22,6.36,6.36,0,0,1-.87,1.89c-.34.59-.75,1.12-1.14,1.71-.13.08-.18.2-.23.46a4.2,4.2,0,0,1-.29,1.16,1.89,1.89,0,0,0,0,1.2.23.23,0,0,1-.09.31h0c-.12.07-.17.2-.23.27-.08.58-.19,1.15-.32,1.72a7.78,7.78,0,0,0-.26,1.73.58.58,0,0,0-.14.64.94.94,0,0,1-.2.77,1,1,0,0,0,.45-.67,1.91,1.91,0,0,1,.08-.63,1.31,1.31,0,0,0,.34-.53c.12-.19.17-.39.28-.58.33-.72.66-1.43,1-2.16s.72-1.43,1.12-2.09l.83-1.57c.28-.52.63-1,.91-1.51.68-1,1.37-2,2.18-3.12a8.7,8.7,0,0,1,1-1.2,9.77,9.77,0,0,0,.92-1.32,5.7,5.7,0,0,1,.52-.67c.18-.2.42-.41.59-.61s.65-.67.94-1a6.94,6.94,0,0,0,.94-1,15.89,15.89,0,0,1,1.47-1.37c.54-.41,1-.76,1.56-1.18a8.78,8.78,0,0,1,1.82-1,12.47,12.47,0,0,1,2-.58,2.86,2.86,0,0,1,1-.07,2.69,2.69,0,0,1,1,.19,3,3,0,0,0,.45.15,2.79,2.79,0,0,1,1.5.65c.4.35.74.77,1.15,1.18a1.47,1.47,0,0,1,.42.67c.08.24.17.55.25.8a4.25,4.25,0,0,1,0,2.52c-.26.84-.46,1.61-.66,2.38-.16.39-.32.71-.49,1.1a5.42,5.42,0,0,0-.42,1.1,2.49,2.49,0,0,1-.56,1,3.92,3.92,0,0,0-.68,1.06c-.63,1-1.25,2-1.94,3s-1.38,1.92-2.06,2.91c-1,1.4-2.15,2.74-3.31,4.14l-1.64,1.88c-.58.61-1.11,1.27-1.69,1.88S53.63,80.52,53,81.12s-1.18,1.28-1.76,1.95c-.17.2-.41.41-.59.61a6.25,6.25,0,0,1-.65.61c-.3.27-.47.48-.46.6s.15.3.48.53a4.46,4.46,0,0,1,.89,1,10.1,10.1,0,0,0,.77,1.08A5.92,5.92,0,0,1,52.62,89a15.35,15.35,0,0,1,.62,1.72c.31.86.62,1.72.87,2.52s.5,1.67.68,2.54c.09.43.25.93.35,1.36a12.55,12.55,0,0,1,.41,1.36c.15.3.23.61.38.92l.44.91a6,6,0,0,0,1.34,1.86,9.3,9.3,0,0,0,1.79,1.32c.14.12.2.11.26.11a3.37,3.37,0,0,1,1.6.27,2.17,2.17,0,0,0,1.64,0,1.24,1.24,0,0,1,.5-.1,1.39,1.39,0,0,0,.5,0l.25,0a1.2,1.2,0,0,1,1-.51,1.5,1.5,0,0,0,1.1-.4,4.14,4.14,0,0,1,1-.63,6.1,6.1,0,0,0,1-.64,15.29,15.29,0,0,0,1.48-1.3c.41-.47.88-.94,1.29-1.48s.75-1,1-1.46a9.38,9.38,0,0,0,.9-1.57A1.68,1.68,0,0,1,74,94.77Zm-37.74.69c.13.05.26,0,.31-.09v-.12c0-.07-.07-.12-.08-.25,0,.13,0,.26-.11.26A.19.19,0,0,0,36.28,95.46Zm-1.4-22.77c0-.07,0-.07,0-.13l-.07-.06ZM36.72,93.6a.58.58,0,0,0,.32.11c.07,0,.06-.07.12-.14v-.12L37,93.33c0-.06-.07-.06-.14-.12s-.11.14-.18.14l-.27-.23c.07.12,0,.25,0,.31s0,.19.14.24ZM36.61,92h0c-.06.07-.06.07-.06.13s0,.07.07.06.06-.07,0-.19ZM37,94.53a.47.47,0,0,0,.05-.26l-.29-.48c-.06.07,0,.13,0,.26v.06a1.19,1.19,0,0,1,.28.42Zm1.11-1.46c.05-.07.12-.08.11-.14s.06-.07.12-.13-.14-.12-.14-.18a.19.19,0,0,0-.19-.05c-.13,0-.13-.06-.14-.18H38c.06,0,.12,0,.18-.14s-.13-.06-.14-.12a.25.25,0,0,0-.19-.05l0,.31-.38,0a2.66,2.66,0,0,1-.38-.1c0-.13-.08-.18-.13-.12l.06.06a.21.21,0,0,1,.07.12l0,.19.27.23.37,0a.85.85,0,0,1,.15.3Zm-1.14-3.58a.38.38,0,0,0,0,.5l.31,0a5.46,5.46,0,0,0-.36-.48Zm.49,6.08c.12-.14.11-.2,0-.38-.11.2-.11.33,0,.38Zm-.21-1.25c.06.06.06.06.13.06s.06,0,.12-.07h-.08a.11.11,0,0,0-.16,0l0,0Zm.09-4v-.06c-.07-.06-.07-.06,0,.06-.13,0-.13,0-.12,0l.06.06Zm.37,5.27c.14.12.26.11.37-.09s0-.19-.07-.18-.19.07-.3.27Zm.1-6.75a.24.24,0,0,0-.34,0l0,0c.07.06.07.12.08.25l.38,0,0-.25Zm-.19-2.69h0l.07.12.06-.07c-.07,0-.08-.06-.14,0Zm.82,11.72.12-.13-.14-.12,0,.25Zm-.72-12c.06,0,.06,0,.13,0h.06C37.81,85.71,37.75,85.72,37.69,85.79Zm.56,3.42c0-.06,0-.06.12-.07s.06,0,.12-.07-.07-.12-.14-.24-.08-.19-.15-.24l-.37,0c.07.12.14.18.14.24a2.42,2.42,0,0,0,.27.36Zm.29,4.2c.06-.06.06-.13.12-.13s.06-.07.11-.14a.24.24,0,0,0-.33,0l0,0v.13c-.07.06,0,.06.12.11Zm-.25-1.81h.12v-.06h0c-.06,0-.12,0-.12.08Zm0-2.89c.06-.07.13-.07.26,0s.18,0,.24-.08v-.25l-.26,0a.24.24,0,0,0-.24.14Zm.42,5.89h0c.06,0,.06,0,.12-.08V94.4a.33.33,0,0,0-.12.2Zm.22,2.31.06-.13-.07-.06c0,.06-.06.07,0,.19Zm-1.37-25.8c-.06,0-.12,0-.13,0l0,.07.13.11Zm1.39,14.33a.33.33,0,0,1-.24.15c-.06.06-.19.07-.25.14l.32,0c.06-.07.11-.14.18-.14s.12-.07.24-.14Zm-.09,5h0c0-.07,0-.13,0-.13v-.06c-.06.07-.06.07,0,.13Zm1,4.72a1,1,0,0,0-.38,0c-.07,0-.12.07-.18.14s.07.12.08.25,0,.18.08.3h.19ZM37.59,70.86c.06-.07.06-.07.06-.13h-.07ZM38.8,80l-.12.08.07,0h.13C38.87,80,38.87,80,38.8,80Zm.51,9c.14.12.26.11.37-.09a.14.14,0,0,1-.13-.12c-.07,0-.07-.12-.14-.11a.54.54,0,0,0-.11.32Zm-.15-7.55h0c-.07-.06-.07-.06-.07-.12l-.25,0c-.07,0-.07,0-.06.06s0,.13.07.13H39a.23.23,0,0,1,.17-.08ZM39.74,88l.44,0-.06-.06a.09.09,0,0,0-.07-.06h0l-.32,0c-.06-.06-.13-.06-.19-.12a1,1,0,0,0-.27-.17.67.67,0,0,1,.15.37c0,.13,0,.19.08.25Zm0,3.34h0c0-.07,0-.07-.07-.12s-.07,0-.06.06.06.07.12.06Zm-.72-13c-.06.07-.06.07-.06.13l.07.06v-.19Zm.86,6a.21.21,0,0,0-.2-.05.45.45,0,0,1-.25,0,1.12,1.12,0,0,1,.09.44Zm.7,5.55H40.5a3.44,3.44,0,0,0-.36.28.19.19,0,0,1,.07.12c0,.07.07.06.07.12a.78.78,0,0,0,.17-.26c.06-.07.12-.2.17-.26h0ZM38.75,70.21c.13.12.2.11.38,0-.21-.18-.34-.17-.39,0Zm.66,5.87c-.06,0-.06,0-.12.07l.07.06h.06C39.42,76.15,39.48,76.14,39.41,76.08Zm.8,8.7c-.06.07-.11.14-.18.14a.27.27,0,0,0-.05.19l.57,0L40.41,85a.06.06,0,0,0-.06-.06h0c-.07,0-.07,0-.07-.06l-.07-.06c.19,0,.25-.08.18-.14l-.18.14Zm.1,3.21c.13,0,.19-.08.12-.14l-.06.07a.06.06,0,0,0-.06.06h-.12c0,.13,0,.13.07.13s.05,0,0-.12Zm.07-.89a.34.34,0,0,0,0-.26l0-.3a.73.73,0,0,1-.25.08v.13c.07.06.14.12.14.18a.23.23,0,0,0,.06.18Zm-.13-1.76-.11.14.06.06c.06-.07.06-.07.12-.07ZM39.09,69.87c.06,0,.06-.06.12-.13s.12-.07.11-.13l-.11.13C39.08,69.75,39,69.82,39.09,69.87Zm1.37,13.26c-.13-.11-.2-.11-.37,0,.26.11.38.1.37,0Zm-.76-7.31c.06,0,.06,0,.12-.07s0-.19-.08-.25h-.13Zm.76,1a.78.78,0,0,1-.37.09.28.28,0,0,0-.31.09l.13.12a.85.85,0,0,1,.15.3h.19a.36.36,0,0,0,.11-.26.4.4,0,0,1,.1-.33Zm-.72-6.69c-.06.07-.06.07-.18.08s-.12.13-.11.26a1.06,1.06,0,0,0,.26.17c.07.06.2.11.27.17a.36.36,0,0,0,.11-.26.31.31,0,0,1,.1-.26,1.14,1.14,0,0,1-.14-.24c-.07-.06-.08-.19-.14-.24S39.8,70,39.74,70.14Zm-.05,3.72v.2c0,.06.07.12.14.18l.41-.47v-.13l.36-.21a.23.23,0,0,1-.07-.19l-.63.05c-.12.13-.12.19,0,.25s.14.12.14.18l-.12.13c-.13-.12-.19,0-.18,0Zm.45,5.52a.35.35,0,0,1,.37,0,.56.56,0,0,0,.31-.09l0-.31-.38,0a.58.58,0,0,0-.31.08v.13c0,.07,0,.12,0,.19Zm.44,2.74a1.14,1.14,0,0,0,0-.45c-.06-.06-.13,0-.13-.11l-.14-.12,0,.25c.07.06.14.12.14.18s-.06.13.08.25Zm.09,1.31c-.13-.11-.19-.11-.37,0,.19.11.32.1.37,0Zm0,4c.06-.06.06-.13.12-.13s0-.13.11-.2l-.25,0c-.12.07-.11.2,0,.31ZM40.81,89h0c.06-.07.06-.13,0-.13v-.06c-.06,0-.06,0-.06.07a.15.15,0,0,1,.07.12Zm0-3.34H41a.38.38,0,0,1-.21-.37.21.21,0,0,0,0,.38Zm-.72-9.27h0c.07.06.13,0,.13,0s0-.19-.08-.25H40l0,.25Zm.52,6.39h0c0-.07,0-.07.12-.08l-.07,0C40.56,82.68,40.5,82.75,40.57,82.81Zm.15-11.35a.3.3,0,0,0-.26-.11.47.47,0,0,1-.26-.11c-.12.13-.18.2-.17.26l0,.38c.07.06.14.12.14.18l0,.31-.17.2-.18.2.2.18c.07.06.13,0,.26,0a.35.35,0,0,0,.11-.26.46.46,0,0,1,.11-.26c-.08-.12-.08-.18,0-.25s.18-.14.11-.26l-.2-.17c.06-.06.06-.06,0-.13s.06-.06.12-.13.06,0,.06-.07Zm-.09,8.7c0-.07,0-.13-.07-.13s0,.07-.06.07-.06,0-.06.07,0,.19.08.18h.13Zm-.08,1.46h.18a.18.18,0,0,0,.18-.14C40.73,81.48,40.6,81.49,40.55,81.62Zm.91,3.09a1.14,1.14,0,0,0,0-.45.47.47,0,0,1-.27-.23.11.11,0,0,1-.16,0l0,0c-.07-.06-.12,0-.18.08s.07.18.14.24.07.12.14.18a1571641903869.58,1571641903869.58,0,0,1,.24-.14.41.41,0,0,0,.09.3ZM40.12,69.3l-.25,0a.15.15,0,0,1,.07.12c0,.06,0,.06.08.12h.18c.13-.08.06-.2-.08-.25Zm.47,9.36c.07,0,.07,0,.13,0s.07.06.13.12c0-.19,0-.32,0-.38H40.7c-.06.07-.06.07-.12.07Zm.84,4.85.38,0c.06,0,.06-.06,0-.19l-.62,0-.14-.12a.37.37,0,0,0-.1.32.87.87,0,0,0-.1.39.67.67,0,0,0,.5,0v-.12a.47.47,0,0,0,0-.26Zm-1-8.37a.13.13,0,0,1,0-.17l0,0c.06-.07,0-.13-.13-.12a.23.23,0,0,0,.13.3h0Zm0,0c.13.11.19.11.38,0a1.18,1.18,0,0,0-.09-.37c-.12.14-.11.2-.11.2s-.06.07-.13,0-.12.06-.05.12Zm.68,2.66c-.13-.06-.25,0-.3.14-.19,0-.19.08-.12.14l.12-.14c.19-.08.25-.08.31-.15Zm.22,3.13a.41.41,0,0,1-.24.08c-.07-.06-.13,0-.19.08s.14.12.14.18.07.12.14.18l.19,0Zm-.71-4.74c.21.18.33.17.38,0a.38.38,0,0,0-.37,0Zm.15,1.13h0c.06,0,.12,0,.12-.07l-.06-.07c0,.07,0,.07-.06.13Zm.95,2.77a.2.2,0,0,1,.12-.08c.06,0,.06-.06.12-.13s-.08-.12-.26-.11-.13.07-.18.14-.13.07-.25.08l-.14-.12c0-.06-.06,0-.12.08l0,.25.69,0Zm-1.22-9.25c0,.13,0,.19.08.19l.13.11a.24.24,0,0,0,0-.33l-.05,0h-.19Zm.74,8.71c.2.11.32.1.37,0s-.13,0-.13-.11-.13-.12-.2-.12a2,2,0,0,1,0,.26ZM42,83.09l.17-.2c.06-.07.06-.13.12-.2a.24.24,0,0,0-.31-.11h0c-.06.07-.12.07-.11.13l-.12.14h.12c-.18.08-.17.14-.11.14s.06-.07.11-.14.14.05.14.12a.09.09,0,0,0,0,.12h0Zm0-2.52a.44.44,0,0,1-.25.08.23.23,0,0,0-.17.08c.06,0,.13.11.19.11s.13,0,.2.11v-.19a.45.45,0,0,1,.05-.19ZM40.75,69.25c0,.19,0,.32.09.38a.23.23,0,0,0,.31-.07.24.24,0,0,0-.06-.32h0Zm.09-.5h0c-.06.06-.05.13,0,.12l.06-.07ZM42.1,81.32c-.06.07-.12.07-.12.13l-.11.14c.13.11.19.11.37,0C42.11,81.51,42.11,81.44,42.1,81.32Zm0-2.21c-.13-.18-.26-.17-.37,0,.14.18.26.17.38,0Zm-.54-5c-.12.07-.12.07-.11.13s.12,0,.11-.13c.19,0,.25-.08.12-.14Zm.63,8.08c.13,0,.19-.08.12-.14l-.12.14c-.12.07-.18.07-.11.13s.06,0,.12-.13Zm-.43-12.45a.43.43,0,0,1-.25,0c-.07-.06-.19,0-.25.14.27.11.39.11.51-.09ZM42,78.3l.13.06.06-.07L42,78.17c-.06.07-.06.07-.06.13ZM42.39,80c-.07-.13-.07-.13-.14-.12h-.18c.07.13.2.12.32.11Zm.37.73a1.39,1.39,0,0,0,.35-.41L43,80.24l-.82.06,0,.37c-.06.07-.06.13-.12.2.14.18.27.17.32,0s.11-.13.31-.08ZM41.41,66.94l-.12.07c0,.06,0,.06.07.12l.06-.07a.06.06,0,0,0,.06-.06h0Zm.72,8.45c-.07,0-.13,0-.13,0l-.06.07.13.11Zm0,.88h0c-.07,0-.13,0-.13.08s0,.06.08.12V76.4a.16.16,0,0,0,.06-.12Zm.1,3.27.25,0a.24.24,0,0,0,0-.33l-.06,0c-.05.07-.05.13-.11.19a.37.37,0,0,0-.11.2Zm-.37-14.21a.48.48,0,0,0-.49.09,1,1,0,0,0,.38,0Zm-.34,1.34c.13.12.31,0,.56-.1a1.26,1.26,0,0,0-.38,0,.41.41,0,0,0-.18.15ZM43,75.39c-.07-.06-.07-.06-.07-.12s-.07-.06-.08-.12L43,75c-.21-.24-.34-.36-.4-.35s-.06.13,0,.25a.39.39,0,0,1,0,.26l-.38,0a1.82,1.82,0,0,1,.55.65.19.19,0,0,1,.12-.07.24.24,0,0,0,.12-.07l0-.25Zm-1-4.9c0,.06,0,.06.07.12l.06-.06a.07.07,0,0,0,.06-.07h0c-.06,0-.06,0-.13-.06S42,70.49,41.91,70.49Zm.47,5.76c0,.07,0,.13.07.13v-.13Zm.16,2.26v.13l.25,0c0-.06,0-.13-.07-.12Zm-.61-11.3h0c.06-.06.06-.06.12-.07L42,67.08C41.92,67.09,41.92,67.09,41.93,67.21Zm.08.25h-.12v.19c0,.06,0,.12.07.12l.12-.14a.27.27,0,0,0-.08-.18Zm.44.85c-.2-.17-.33-.16-.5,0,.2.18.33.17.5,0Zm-.07,3.53c-.06,0-.06,0-.13,0l0,.13.07.06Zm.19,5.35h0c.06,0,.12,0,.12-.08l-.07-.06C42.63,77.12,42.63,77.12,42.57,77.19Zm-.08-3,.2.17c.06,0,.06,0,0,.07s0,.06.07.06.18-.2,0-.38l-.25,0Zm-.23-6.79.22.37c.13,0,.2.11.26.1s.19,0,.26.11c.3-.21.48-.28.48-.35a.78.78,0,0,0,.17-.26c-.26-.11-.45-.16-.58-.21s-.19.07-.18.14a.23.23,0,0,1-.19.07,1.18,1.18,0,0,0-.26-.1Zm.62,8.84h0c.13.06.2,0,.19,0h.13v-.12l-.25,0-.06.06ZM43,71.74c.06-.07.12-.08.25,0a.56.56,0,0,0,.31-.09.19.19,0,0,0-.2-.11.12.12,0,0,1-.16,0l0,0-.2-.17c-.07-.06-.13,0-.25.08Zm.15,6.73.38,0-.4-.35Zm-.47-7.72c0,.06,0,.06.07.12l.06-.06A.19.19,0,0,0,42.69,70.75Zm.4,2.18c0-.06,0-.13-.07-.12l-.06.07v.06Zm.46,3.81c0-.06,0-.06-.07-.12l-.25,0v.12Zm-.36-4.13a1.12,1.12,0,0,0,.3-.27c0-.13,0-.19-.08-.25a.37.37,0,0,1-.18.14c-.06,0-.12.07-.18.07Zm-.32-8.23c-.14-.12-.2-.11-.32,0l0,.19c0,.06.07.12.08.24.05-.19,0-.25.1-.32a.13.13,0,0,0,.12-.13Zm.4,2.11a.25.25,0,0,0-.19,0,.46.46,0,0,1-.26,0,.78.78,0,0,1,.09.37c.13,0,.19,0,.18-.08s.06-.12.18-.2Zm-.22,3.17c.2.17.33.16.38,0a.42.42,0,0,0-.38,0Zm.11-4.8a.2.2,0,0,1-.08-.12c0-.06-.06,0-.12.07l.07.06c0-.06,0-.06.13,0s.07.12.13.18a.2.2,0,0,1,.08.12c0,.07,0,.07.07.12a2.79,2.79,0,0,0,.42-.28l-.27-.23-.44,0Zm-.06-.81h0c.07.06.07.06.07.12h.13l-.21-.11ZM44,76.21h0c.06-.07.06-.07.12-.07L44,76.08C44,76.14,44,76.15,44,76.21ZM43.2,62.78h0c0,.06,0,.06.07.12h.13C43.33,62.77,43.26,62.77,43.2,62.78Zm.33,5.65a.42.42,0,0,0,.38,0c-.19-.05-.32,0-.38,0Zm.13-7.26a.57.57,0,0,1-.26,0c-.07-.06-.19,0-.24.14.25,0,.38,0,.5-.09ZM44,69.34c.17-.2.16-.33,0-.5C43.83,69,43.84,69.23,44,69.34Zm-.31-5.27c0-.06,0-.06-.07-.12s-.06,0-.06.07A.21.21,0,0,0,43.73,64.07Zm1.56,21.37c.14.12.2,0,.38-.09a.12.12,0,0,1,0-.16s0,0,0,0a.23.23,0,0,0-.07-.19.44.44,0,0,0-.31.09l.2.17c-.12.07-.18.14-.17.2ZM43.73,62.31h0c.06-.13.06-.13,0-.13l-.06.06a.06.06,0,0,0,.07.06h0Zm1.56,22.13c0,.06-.06.06,0,0s-.06.13,0,.12v.06c.06-.06.06-.06.12-.07l-.07-.06c-.06,0-.06,0-.06-.06ZM44,63.1c-.12.07-.18.14-.17.2l0,.25c0-.06.12-.07.24-.14s.18-.07.24-.14a.21.21,0,0,0,.05-.13c0-.07,0-.07.06-.13l.38,0,.23-.27.23-.27v-.12c0-.06-.13-.06-.25,0,.06-.06,0-.06,0-.06s-.23.21-.58.61c-.07-.06-.13-.06-.2-.11s-.06.13-.05.25C44,63,44,63,44,63.1Zm.3,2.38a.47.47,0,0,1,.23-.27.45.45,0,0,0-.56,0c0,.12,0,.19.08.24Zm-.33-1c0,.06,0,.13.08.12v-.12Zm1.56,19.42c-.12.14-.12.2,0,.38a.24.24,0,0,0,0-.33s0,0-.06,0Zm-1.1-22.79a1.2,1.2,0,0,0-.38,0c-.06,0-.12.07-.18.14a.66.66,0,0,0,.56-.11Zm1.08,23.55c0,.06,0,.06.07.12l.32,0a.81.81,0,0,0,.37-.09l0-.25c-.06-.06-.13-.06-.13-.12L46,84.19a1.19,1.19,0,0,0-.1.32.62.62,0,0,1-.36.16ZM44.49,64.14c-.07,0-.07,0-.13,0l-.12.07.07.06h.06c.06-.07.06-.07.12-.08Zm.58,10.11c.12-.14.12-.2,0-.38a.23.23,0,0,0,0,.33.1.1,0,0,0,0,0Zm1.5,11.42a.14.14,0,0,1,.12-.13l-.47-.41v.19a.19.19,0,0,1,.07.12.21.21,0,0,1,.07.12.23.23,0,0,1-.18.08c-.06,0-.12.07-.24.14.06.06.13.06.13.12l.13.12c.07,0,.14,0,.14.11s0,.07.07.12a.2.2,0,0,1-.12.08c-.06,0,0,.06.07.12l.11-.2h.07c.12-.08.11-.14.11-.26-.21-.19-.15-.26-.09-.32Zm-2.3-26.42c-.05.07-.11.14-.18.14a.24.24,0,0,0,.34,0l0,0,0-.25-.06.07s0,0-.11.06ZM45,65.06c0-.13,0-.19,0-.25s-.07-.12-.14-.18L45,64.5c-.14-.12-.32-.11-.57,0a.68.68,0,0,1,.28.3.45.45,0,0,0,.33.22Zm-.53-1.22.5,0c0-.12-.08-.18-.2-.11s-.19,0-.26-.11h-.06Zm1.82,19.71A.53.53,0,0,0,46,84v.13l.31,0,0-.26c.12-.14,0-.2,0-.26Zm-1.35-23-.14-.12c-.06,0-.13,0-.19-.11,0,.13,0,.19,0,.26a.25.25,0,0,0,.33,0l0-.06Zm.53,12.12h0c.07.06.07.06.07.12h.13Zm.14,1.13h0c.06-.07.06-.07.06-.13s-.07,0-.13-.06-.07,0-.06.07ZM47.1,84.25l-.13,0-.38,0a1,1,0,0,0-.36.16l.25,0c.07.06.07.06.07.12s.07.06.07.12.12-.07.25,0,.19,0,.25-.08l0-.25Zm-2-20.08c.06-.13.05-.26-.14-.3A.11.11,0,0,1,45,64a0,0,0,0,1,0,0c-.06.06,0,.06.14.11Zm-.07-4.73c-.07-.12-.2-.11-.39-.1.07.12.14.12.2.11h.19c0,.19.07.18.13.12l-.06-.06Zm1.71,23.5a.12.12,0,0,1-.16,0l0,0c-.07-.06-.12,0-.18.07s0,.13.07.12l.13.12h.19C46.9,83.19,46.89,83.06,46.76,82.94ZM45.33,59.8l-.13.07,0,.38a.19.19,0,0,0,0,.13.2.2,0,0,0-.06.13l.25,0c.13-.07.18-.14.25-.14s.07.12.08.24v.25c-.25,0-.24.08-.11.14s.06-.07.11-.14.13,0,.13-.07,0-.13.11-.2.11-.19.11-.19L46,60.32a.06.06,0,0,0-.06-.06h0c.06-.07,0-.13.11-.2s.05-.13-.08-.24l-.38,0c0-.12-.13-.11-.26,0Zm1.6,25.59h0c.06-.07.06-.07.12-.07L47,85.26s-.07,0-.07-.06h0v.19ZM46.67,61a.29.29,0,0,0-.37.15h0a1.5,1.5,0,0,1-.22.39,2,2,0,0,0-.37,1.1,3.11,3.11,0,0,1-.35,1.22,1.12,1.12,0,0,0,.71-.68,4.06,4.06,0,0,1,.27-.65c.11-.2.22-.46.33-.65a.86.86,0,0,0,.15-.52C46.87,61.2,46.8,61.08,46.67,61Zm-1.47.61c0,.06,0,.12.07.12v-.13Zm1.68,22.18v-.12l-.06.06c-.06.07,0,.13.07.06s-.06,0,0,0ZM47,86.33c0-.07,0-.07,0-.13v-.12c-.06.07-.11.13,0,.25ZM45.63,65c.19,0,.18-.07.11-.13l-.11.13c-.12.07-.19.08-.12.14s.07,0,.12-.13ZM46.9,82.24c0,.06,0,.12,0,.13s.06,0,.06.06v-.19ZM48,85.5c.06-.07.06-.13.05-.26L48,85a.78.78,0,0,0,.17-.26,1.61,1.61,0,0,1-.21-.3c.06-.07.12-.14.11-.2l-.25,0-.12.14c0,.06-.05.06-.11.13l0,.69Zm-.29-3.32.25,0a.21.21,0,0,0,.18-.07,1.61,1.61,0,0,0-.21-.3.65.65,0,0,0-.31.08V82a.25.25,0,0,1,.08.18ZM47,69.5h.06c.06-.07.06-.07-.06,0,0-.13,0-.13,0-.12l-.06.07C47,69.44,47,69.44,47,69.5Zm-.45-10-.12.07v.06h0c.06,0,.13,0,.12-.07S46.57,59.52,46.57,59.52ZM48,81.78h.13c.06-.06.12-.13.18-.14s.12-.07.18-.13c-.14-.12-.32-.11-.57,0l0,.32Zm.25,1.69h0c-.07-.06-.07-.06-.07-.12s-.07,0-.06.07S48.19,83.54,48.25,83.47ZM47.5,69.22c.14.12.2.11.38,0-.2-.18-.33-.17-.38,0Zm1.2,14.41h0c-.07-.06-.07-.06-.13-.06l-.12.07.07.06h.06c.06-.07.06-.07.12-.07Zm.09,3.9c.19,0,.25,0,.31,0s0-.13.11-.2L49,87l-.12.13c-.06,0-.06,0-.12.07Zm.2-4.3c-.14-.12-.2-.11-.38,0,.2.11.32.1.38,0Zm-.31-.73h0l.07.12.06-.07C48.75,82.55,48.69,82.56,48.68,82.5Zm.22,4,.5,0,.2.18v-.06l-.21-.37-.25,0c-.06,0-.12.07-.18.14v.13ZM49.2,80c-.12.07-.18.14-.3.15a.44.44,0,0,0-.23.33.11.11,0,0,1,0,.16s0,0,0,0a.23.23,0,0,0,.08.18,1,1,0,0,0,.36-.21.45.45,0,0,0,0-.32.42.42,0,0,1,.38,0,.28.28,0,0,0,.31-.08l-.34-.29a.48.48,0,0,0-.31.08Zm-.43,1.86Zm.5,6.33c.06-.13,0-.19.11-.26s0-.13.11-.2a.41.41,0,0,0-.37.09V88c.07,0,.08.12.14.18Zm.36.6c.12-.07.19-.07.25,0a.23.23,0,0,0,.19-.07l0-.32c-.12.08-.18.08-.25,0a.41.41,0,0,0-.24.08v.13c0,.06.08.12.08.18Zm-.25-3.51c0,.06,0,.13.08.12s0-.06,0-.06v-.07Zm.56,1.6a.46.46,0,0,1-.25.08c-.07-.06-.12,0-.18.08l.33.29h.07c.06,0,.06,0,.12-.07l0-.38ZM48.61,68v-.13l-.26,0L48.3,68c0,.06,0,.06.07.12l.25,0Zm.57,12.62c0,.07.08.12.14.18l.25,0c-.06-.05-.06-.05-.07-.12s-.06-.06-.07-.12l-.25,0Zm.13,1.82.27.23c.07.06.14.18.21.24a2.22,2.22,0,0,0-.09-.37c-.08-.18-.09-.31-.15-.37l-.12.14ZM49.9,90c.06-.07.06-.07.12-.07L50,89.84a.07.07,0,0,0-.07-.06h0V90ZM48.48,67l-.12.07c.06,0,.06,0,.07.06h.12C48.54,67,48.54,67,48.48,67Zm2,23.61a.46.46,0,0,1-.25.08c-.07-.06-.13,0-.19.08s0,.12.08.12.13,0,.19.11l.25,0,0-.37ZM48.58,66.56h0v.19l.06-.07a.29.29,0,0,0-.07-.12Zm.19.94h-.13c0,.07,0,.13.07.13Zm.8,13.29c.08.13.2.12.33.11-.07-.12-.07-.12-.14-.12Zm.63,7.14c.2.18.27.24.33.23s.12-.07.25-.14l0-.25c.06-.07.06-.07.12-.07s.12-.14.18-.14c0,.18.15.3.4.35l0-.38-.37,0c0-.13-.07-.13-.26-.11s-.18.07-.12.13l0,.19-.44,0Zm.08-.63c-.12.07-.11.13-.05.19l.05-.19c.19,0,.19-.08.12-.14Zm.4,1.23-.11.13-.12.14a.67.67,0,0,0,.5,0l0-.31-.25,0Zm-.15,1.52c.14.11.2.11.38,0C50.71,89.85,50.59,89.86,50.53,90.05ZM50,79c-.11.14-.11.2,0,.38a.23.23,0,0,0,0-.33s0,0,0,0Zm-.66-13,.18-.2a.19.19,0,0,1-.07-.12.21.21,0,0,0-.07-.12l-.35.4L49,65.85c.07.05.07.05.07.12V65.9a.49.49,0,0,0,.27.24l.27.23,0-.31ZM51,92.54h0c.06-.07.06-.13,0-.13v-.06c-.06,0-.06,0-.06.06a.22.22,0,0,0,.08.13Zm.33-1.66v-.13l-.25,0v.12h.12C51.1,91,51.17,91,51.29,90.88Zm-.22.58.12-.14h-.12v.06C51,91.34,51,91.4,51.07,91.46ZM51.34,88a1.23,1.23,0,0,1-.31.14l.34.3c.11-.14.24-.21.29-.28a.24.24,0,0,1-.07-.12V88c-.06,0-.12,0-.12.07Zm.28,4.89h0c-.07-.06-.13-.05-.13,0l0,.25h.12ZM49.87,65.27l.05-.06a.07.07,0,0,0,.06-.07h0l-.06-.06-.21-.17,0,.37Zm1.76,24.26a.24.24,0,0,0,0-.33l-.06,0a.33.33,0,0,0-.24.08v.25h.26ZM52,92.34a.81.81,0,0,0-.38,0l0,.25c.06,0,.13,0,.12-.08Zm-.18,1.9h0c.06-.06.06-.06.12-.07l-.06-.06a.05.05,0,0,1-.07,0h0c0,.06,0,.06-.06.13a.06.06,0,0,1,.08,0v0ZM51.5,78.7a.17.17,0,0,1-.06-.12c0-.06-.07,0-.13.08s.14.11.2,0v.18a.5.5,0,0,1-.45-.15l-.24.26.14.12c0,.06.07.06.13.12s.12-.07.25,0a.38.38,0,0,0,.25-.08l0-.25a.13.13,0,0,1,.17,0l0,0A.27.27,0,0,0,52,78.8c-.07-.06-.07-.12-.08-.25a.23.23,0,0,1-.12.08,1,1,0,0,0-.25.08Zm.41,1.3c-.64-.08-.95,0-1,.13h0l.21.36.38,0,.35-.41V80Zm-.71,1.56a.52.52,0,0,0,.29-.34.12.12,0,0,0-.17,0s0,0,0,0h-.18c0-.13-.08-.18-.13-.12l.13.12.09.31c-.13.07-.18.14-.12.13s.06,0,.11-.13Zm-.28-3.13c-.12.07-.11.14-.11.14a.14.14,0,0,0,.11-.14c.13,0,.19-.07.12-.13l-.06.06Zm.83,10h0c0,.13,0,.13,0,.13l.06-.07Zm.63,7.14c.06,0,.13,0,.12-.07l-.13-.12c-.13,0-.19,0-.19.08v.12Zm-.3-4.2a.25.25,0,0,0,0,.33s0,0,0,0a.25.25,0,0,0,0-.34l-.06,0Zm.13-1.77-.25,0v.12l.25,0,.06-.06v-.07C52.21,89.68,52.21,89.62,52.21,89.62Zm0,.37L52,90l0,.13.07.06c0,.06,0,.06.06.06l.26,0,0-.25Zm.16,5h0V95h-.06c-.06,0-.06,0-.06.07Zm0-2.39h.19l.11-.14.12-.13-.13-.12c-.07,0-.07-.06-.14-.11a.24.24,0,0,1-.12.07c-.06,0-.06,0-.12.07l.09.37c-.19,0-.19.08-.12.13ZM50.69,64.34c.12,0,.18-.08.12-.14l-.06.07c-.07,0-.07,0-.06.07a.5.5,0,0,0-.29.33l.13.06.19,0Zm2.39,32.34c-.12,0-.19,0-.25-.05l-.06.13c.07,0,.07,0,.07.06s0,.06.07.06l.25,0v-.19Zm-.17,1.14c.06,0,.06,0,.12-.07L53,97.69C52.91,97.76,52.91,97.76,52.91,97.82Zm-1-18.26v-.13l-.06.07C51.75,79.51,51.82,79.56,51.88,79.56Zm1,11.4c-.2-.18-.26-.17-.31,0A.27.27,0,0,0,52.87,91Zm.18,6.16a1.14,1.14,0,0,0,.45,0,.82.82,0,0,0,.36-.15.38.38,0,0,1-.37,0A.41.41,0,0,0,53.05,97.12ZM50.92,63.94c0-.19,0-.25.1-.32s.12-.07.12-.13-.2-.12-.32,0A1.28,1.28,0,0,0,50.92,63.94ZM53.42,96c0-.06,0-.06-.07-.12s-.13-.05-.13,0H53.1V96C53.17,96.1,53.23,96.1,53.42,96Zm-.85-17.45a.47.47,0,0,0-.56,0A.47.47,0,0,0,52.57,78.57ZM52.3,80c.13.11.19.11.37,0a.48.48,0,0,1-.08-.31.74.74,0,0,0-.29.34Zm.89,12.79h0c.07,0,.13,0,.13,0s0-.19-.08-.25h-.13l0,.25Zm.26,3.63c.21.24.34.36.4.35a.12.12,0,0,0,.17,0l0,0c-.07-.06-.07-.12-.08-.25s0-.18-.14-.24a.13.13,0,0,1-.17,0l0,0c-.06.07-.12.07-.18.14Zm.26,2.76.11-.14L53.69,99V99c0,.13,0,.13,0,.19ZM52.29,76.38c0,.07-.06.07,0,0l.07.12.12-.13C52.36,76.44,52.3,76.45,52.29,76.38Zm.41.48a.24.24,0,0,0,0,.33l0,0c.13,0,.19,0,.25-.08a.44.44,0,0,0-.09-.31Zm1.7,22.3c.05-.06.11-.13.18-.14s.05-.06.05-.13a.22.22,0,0,0-.19,0c-.06.06-.12.13-.18.13s-.06.07-.06.13a.25.25,0,0,0,.2.06Zm.86.7c.08.12.14.12.14.12l-.14-.12a.28.28,0,0,0-.38-.1h0c.07.12.13.12.2.11a.11.11,0,0,1,.16,0s0,0,0,0ZM53.4,75.17l.13,0,.06-.06h-.06c-.07-.06-.07-.06-.12,0Zm.54,3.11a.24.24,0,0,0-.34,0l0,0a.24.24,0,0,0,.33,0l0-.06Zm1.3,22.21c.06,0,.06,0,.12-.07l-.06-.06C55.23,100.37,55.17,100.43,55.24,100.49Zm-1-23.61c-.19-.12-.31,0-.37.09A.41.41,0,0,0,54.22,76.88Zm.55-2.18a.25.25,0,0,0-.34,0l0,0a.23.23,0,0,0,.33,0s0,0,0,0Zm0-1.08c-.07,0-.07,0-.13.07l.07.06h.06Zm.26,2c.12-.14.12-.2,0-.38-.06.07-.13.07-.13,0s-.06,0-.12.07l.13.12c0,.13.08.18.14.18Zm1.75,27.6c.06,0,.06,0,.12-.08l-.07,0C56.82,103.09,56.82,103.09,56.83,103.22ZM55,73.86h0c-.06.07-.05.13,0,.13v.06C55,74,55,74,55,74v-.06c-.07,0-.07,0-.07-.06Zm.14-.7c0,.06-.06.07,0,0v.19l.12-.14Zm0,1.32.14.12.05-.13ZM54.54,59c0-.06-.06-.06-.13-.05l0,.13c.06,0,.06,0,.07.06Zm1.37,15.85h-.26a1.07,1.07,0,0,0,.22.37l.31-.15Zm.17-2c-.07-.06-.07-.12,0-.25a.33.33,0,0,0-.08-.25l-.25,0a3.85,3.85,0,0,0,0,.76.49.49,0,0,0,.14.24c.06-.07.06-.13,0-.26l0-.25c.06-.07.06-.07.12-.07s0,.13.07.06Zm-.3-.74c-.07,0-.07,0-.13.07l.07.06h.06Zm2.13,31.35c.06,0,.06,0,.12-.07l-.06-.06C57.91,103.39,57.91,103.39,57.91,103.45ZM55.06,58.29c.13.12.19.05.37-.09-.19,0-.31,0-.37.1Zm3.56,45.36c.06-.06.12-.07.25-.08-.07-.06-.08-.12-.14-.18s-.07-.12-.14-.17c-.05.19-.1.32,0,.44ZM55.51,57.57c.07,0,.13,0,.12-.07s-.06,0-.13-.06Zm1.24,17.68v.12l.12-.13c.06,0,.06-.07.12-.14s0-.13.11-.13.06-.07.06-.13-.07-.06-.13-.06-.07,0-.14-.11a.35.35,0,0,0-.11.26.52.52,0,0,1-.1.26v.06Zm.47-4.19a.57.57,0,0,1-.25.08.2.2,0,0,0-.18.07c.13.06.2.18.39.29a.19.19,0,0,0,0-.19c0-.06-.07-.12,0-.25Zm2,32.87,0-.13-.07-.06,0,.19Zm-1.75-32a.23.23,0,0,0,0,.33.12.12,0,0,0,.05,0c.12-.13.12-.2,0-.38Zm2.36,32.66c-.07-.06-.07-.06-.13-.06l-.06.07ZM57.58,72.73a.24.24,0,0,0,.34,0l0,0c-.13-.11-.19-.1-.37,0Zm0-1.63c0,.25,0,.38.1.49s.19,0,.25-.08l0-.19c-.06,0-.13,0-.13-.11a.32.32,0,0,0-.19-.11Zm2.74,32.75h0v-.12a.09.09,0,0,1-.07-.06h0c0,.06,0,.06,0,.13h.06a.07.07,0,0,0,.06.07h0Zm-2-30.73-.11.14v.18h.13Zm2.41,31.58c0-.06,0-.06-.07-.12l-.25,0v.13C60.46,104.72,60.59,104.78,60.71,104.7ZM58.46,71.79l.14.11v-.12Zm.42-3c-.12.07-.18.14-.24.14s-.18.08-.24.14a.38.38,0,0,0,.5,0Zm-.23,2h0c.06-.07.06-.07.05-.13s0-.06-.06-.06v.19Zm2.66,33.45c.06,0,.13,0,.12-.07s-.06,0-.06-.06H61.3C61.31,104.22,61.24,104.23,61.31,104.28ZM59.16,70.92l0,.25a.22.22,0,0,0-.06.13.21.21,0,0,0,0,.13c.13.12.2.11.31,0v-.25c-.13,0-.13-.12-.21-.24Zm.17,1.5-.13,0-.05.13c.06,0,.06,0,.06.06Zm2.47,32.52v-.12h-.25l-.06.07.14.12a.23.23,0,0,0,.19-.07ZM59.25,69.53c.14.18.15.24.09.31l-.18.2c.07.06.13,0,.14.11l.13.12a.81.81,0,0,0,0-.38l0-.31h-.07Zm0-1.26,0,.19a.21.21,0,0,0,.07.18l.26,0c0-.12,0-.19.09-.38a.53.53,0,0,1,.22.36,3.48,3.48,0,0,1,.43-.22c0,.13.07.19.13.12l-.13-.12a.12.12,0,0,1,0-.16l0,0c.06-.06,0-.12-.07-.18S60,67.84,60,68l-.17.2-.32,0C59.41,68.07,59.35,68.14,59.29,68.27ZM58.56,55a.23.23,0,0,1,.18-.08c.06,0,.12-.07.18-.14s-.14-.18-.13-.11a1,1,0,0,1-.37.15V55c.06,0,.06,0,.13.06Zm.87,12.47h0c.07.06.07.06.07.13l.06-.07C59.49,67.5,59.49,67.44,59.43,67.5Zm2.93,37.22c.13,0,.25,0,.3-.15a.12.12,0,0,1-.16,0l0,0ZM59.13,55.11l0-.13-.13-.11-.06.07a.31.31,0,0,1,.14.17Zm3.54,49.53a.11.11,0,0,1,.16,0l0,0c.06.06.12,0,.11-.13s-.25,0-.3.14ZM60.35,68.89c0-.06,0-.06-.07-.12l-.06.07v.06Zm.29-2.1a1.75,1.75,0,0,1-.35.46c.07.06.14.12.14.18s.07.12.14.18.19,0,.25-.08l-.14-.11a.54.54,0,0,0,.16-.39C60.84,66.9,60.77,66.84,60.64,66.79Zm-.27,2.41c0,.06,0,.06.07.12l.12-.14-.07-.05C60.43,69.13,60.43,69.19,60.37,69.2Zm.1,1.38c.13.11.19.11.37,0a.23.23,0,0,0-.33,0,.1.1,0,0,0,0,0Zm.2-4.24c-.2-.11-.26,0-.31.09.13,0,.25,0,.31-.09Zm.43.73C61,67,61,67,60.9,67a.27.27,0,0,1,.08.19.19.19,0,0,0,.12-.07Zm.42.53a.46.46,0,0,1-.25.08.38.38,0,0,0-.25.09.86.86,0,0,0,.39.09l.31,0a.35.35,0,0,0,.11-.26.54.54,0,0,1,.11-.26l-.07,0h-.25c-.12.08-.11.2-.1.33Zm-.31,1h0c-.06-.06-.06-.06-.13-.06l-.06.07ZM61.46,65h-.25a.55.55,0,0,0-.24.15l.13.11c.07,0,.07.06.14.12s0-.13.12-.13.18-.14.1-.26c.19,0,.19-.08.12-.14Zm-.88-10.71,0-.26a.25.25,0,0,0-.14-.24h-.13a.5.5,0,0,0,0,.57c.06-.07.13-.08.25-.08Zm1.07,14.41c.07,0,.06-.07.12-.14l-.38,0,0,.25.12-.13a.09.09,0,0,0,.12,0h0Zm-.07-2.89h0c-.07-.06-.13-.06-.13,0h-.06c.06,0,.06,0,.07.06h.06c0-.06,0-.06.06-.06ZM62.17,68A.25.25,0,0,0,62,68l-.25,0c0,.26.08.31.34.29,0-.06,0-.06,0-.13a.18.18,0,0,1,.06-.13Zm.13-4.48c.12-.07.18-.14.24-.14s.19-.08.25-.15a.49.49,0,0,0-.51,0ZM62.75,68c0-.07,0-.07-.07-.12l-.06.06V68Zm2.38,35.8a.38.38,0,0,0,.5,0l0-.25h-.25c-.06.07,0,.13-.11.14a.13.13,0,0,0-.12.13Zm.76,0,.12-.13c.06,0,.06-.07.11-.14-.13-.11-.19-.11-.37,0a.11.11,0,0,1,0,.16l0,0c.06,0,.07,0,.13,0Zm-2.66-37c0,.06.07.06,0,0s.07.06.08.12l0-.07C63.36,66.85,63.36,66.85,63.23,66.86Zm-.1-5c-.11.19,0,.31.09.37a.6.6,0,0,0-.09-.37Zm.21,3.83h0c.07,0,.07,0,.13,0l.06-.07h-.06c-.07-.06-.07-.06-.13,0Zm.28.42c.06,0,.06-.07.12-.14l-.38,0,0,.31.12-.14c.06-.06.06-.06.12-.07ZM63.42,65a.25.25,0,0,0,.33,0l0,0a.48.48,0,0,0-.08-.31.21.21,0,0,1-.12.07c-.07,0-.07,0-.12.07V65Zm.25-3.61c-.07-.06-.2-.05-.38.09.26,0,.38,0,.38-.1Zm-.69-8-.14-.11-.06.06c.07.06.07.06.08.12Zm.83,7.44c-.06,0-.12,0-.12.07l.14.12.06-.07c-.07-.06-.07-.06-.07-.12Zm.31,4.39,0,.32a.85.85,0,0,0,.38-.09.44.44,0,0,1-.09-.31l-.31,0Zm.26-.77c-.18.14-.17.26,0,.37.12-.13.11-.2,0-.38Zm0-5c-.12.13-.11.19,0,.37.06-.19,0-.32,0-.38Zm-.15-5.79,0,.38c.07.06.07.12.14.18a.23.23,0,0,1,.08.18c.06.06.07.12,0,.25l0,.25a.68.68,0,0,1,.31-.08c.12-.14.11-.2,0-.26s-.13-.11-.07-.18.06-.07.12-.13l-.47-.41c.06.06.06,0,.12-.07s-.14-.18-.26-.11Zm.49,6.07c-.12.14-.11.2,0,.38a.24.24,0,0,0,0-.33S64.77,59.65,64.75,59.63Zm0-1.32h0c.07.06.07.06.07.12l.06-.07C64.91,58.3,64.84,58.24,64.78,58.31Zm.88.82a2.66,2.66,0,0,0-.63,0c-.07,0-.12.07-.18.14a1.27,1.27,0,0,0,.81-.12Zm-.55,2.93h0c.06-.06.06-.06,0-.13l-.07-.12c0,.07,0,.07-.06.07v.06a.27.27,0,0,1,.07.13Zm.12-1.83.14.11.13.12a.2.2,0,0,0,.06-.13c0-.06,0-.06,0-.13s-.13-.05-.2-.11-.13-.12-.2-.11v.12a1.09,1.09,0,0,1,0,.13Zm-.06-5.41a.38.38,0,0,0-.31.14c.2,0,.25,0,.31-.14s.18-.08.12-.14Zm1.23.35-.32,0a1,1,0,0,0-.17.27c-.06.06-.11.19-.23.27l.2.17c.07.06.07.12,0,.25L65.5,56a2.27,2.27,0,0,0-.23.33.31.31,0,0,0,.33.23.35.35,0,0,1,.33.17l.37,0a.55.55,0,0,1,.37-.22c.06,0,0-.06.1-.25a1.5,1.5,0,0,1-.33-.23c-.13-.06-.26-.17-.39-.23a.91.91,0,0,0,.24-.2c-.08-.25,0-.32.1-.39Zm-1.22,1.6a.34.34,0,0,1,.26,0l0-.13-.07-.12-.25,0v.19Zm.13.87a.23.23,0,0,0,0,.19c0,.07.07.13.14.18,0-.19,0-.31-.1-.37Zm.3,3.38c.2.18.33.17.38,0a.41.41,0,0,0-.39,0Zm.24-7.38a.35.35,0,0,0-.5,0,.27.27,0,0,0-.07.08.21.21,0,0,1,.08.18c-.06.07,0,.12.08.18s.12-.07.24-.14.18-.08.24-.15v-.12Zm-.14,5.11.06.06a.07.07,0,0,0,.07.06h0v-.13c-.06,0-.07-.06-.07-.12s-.07.07-.07.13Zm.54-.29c.07.06.14.12.2.11s.13,0,.24-.14c-.13-.06-.2-.18-.4-.29l0-.31c.13,0,.19-.08.12-.14l-.12.14h-.19l-.17.2a.45.45,0,0,0,0,.32c.07.06.07.06.13,0s.07.06.13.12Zm-.65-4c0,.07,0,.07.07.12s.13.06.12,0h.13v-.13Zm1,6.49c.2.17.27.17.32,0a.27.27,0,0,0-.32,0Zm.08-4.29-.12.13c0,.07-.06.07-.12.14a.2.2,0,0,1,.08.12c0,.06,0,.06.07.12l.37,0c.06-.06.12-.13.18-.13l.63-.05c0,.13.08.18.14.12L67.72,57h.06c-.13-.12-.2-.18-.32-.17s-.2,0-.26-.11l-.57,0Zm.24,1.69a.24.24,0,0,0,.34,0l0-.05a.24.24,0,0,0-.33,0l0,.06Zm.21,2c0-.06.06-.07,0,0s.06-.07,0-.13,0-.06-.07-.06l0,.19ZM67,55.64l-.12.13.13.06v-.19ZM67.42,58c.06,0,.06,0,.12-.07s0-.06-.07-.06A.24.24,0,0,0,67.42,58Z"/><path id="Path_33" data-name="Path 33" class="cls-3" d="M71,84.52a1.15,1.15,0,0,0-.46.6,1,1,0,0,1-.33.59c-.29.39-.58.73-.87,1.13s-.58.73-.87,1.07a4.57,4.57,0,0,1-.71.68c-.18.14-.24.2-.3.21a2.92,2.92,0,0,1-.82.93c-.36.22-.66.43-1,.64-.12.08-.18.14-.24.15a.49.49,0,0,1-.62.3l-.12-.06a1.69,1.69,0,0,1-1.06.2,6.85,6.85,0,0,1-1.09-.24A2.06,2.06,0,0,1,60.82,89a15,15,0,0,1-.37-1.55,7.4,7.4,0,0,1-.11-1.56,1.46,1.46,0,0,0,0-.51,2.28,2.28,0,0,1,.09-.51.92.92,0,0,0,.08-.69,1.78,1.78,0,0,1,.06-1,4,4,0,0,0,.24-1,3.18,3.18,0,0,1,.31-1,2.69,2.69,0,0,0,.25-1c.06-.07.06-.07.05-.13a3.89,3.89,0,0,0,.83-1.63,3.43,3.43,0,0,1,.9-1.58,1.49,1.49,0,0,1,1.35-.53,1.93,1.93,0,0,1,.71.2,4.06,4.06,0,0,1,.65.27.84.84,0,0,1,.44.85c-.1.38-.19.83-.29,1.28a3.94,3.94,0,0,1-.48,1.23c0,.19-.1.32-.15.51a1.1,1.1,0,0,0-.09.51,1.44,1.44,0,0,0-.09.51.62.62,0,0,1-.23.45.32.32,0,0,0-.1.26,1.22,1.22,0,0,1,0,.82,3.34,3.34,0,0,0-.19.77,2.11,2.11,0,0,0-.1.45l.12,1.75A15.91,15.91,0,0,1,64.85,88a1.57,1.57,0,0,0,.15.43c.16.43.49.6,1,.37a3.55,3.55,0,0,0,.78-.55c.24-.21.41-.47.65-.68a8.3,8.3,0,0,0,.64-.8,6.92,6.92,0,0,1,.63-.8c.35-.4.64-.8.93-1.2s.51-.79.86-1.19a14.42,14.42,0,0,0,1.16-1.54c.34-.52.74-1.06,1.09-1.58a3.2,3.2,0,0,0,.51-.8,1.59,1.59,0,0,1,.65-.61c.18-.14.37-.09.58.09s.08.31-.09.51a1.12,1.12,0,0,0-.22.58c0,.19-.16.32-.47.35a.12.12,0,0,0-.12.13c0,.06-.05.19-.05.25a.62.62,0,0,1-.34.53l-.25,0a1.07,1.07,0,0,1-.33.65c-.18.2-.29.4-.46.6a1.43,1.43,0,0,1-.52.67.74.74,0,0,0-.32.78A.34.34,0,0,1,71,84.52Zm-9.26-.8c-.14-.12-.2-.12-.32,0a.29.29,0,0,0,.32,0Zm0,2c.06-.07.12-.07.11-.14L62,85.4a.43.43,0,0,0-.38,0v.12c.13.06.13.06.14.12Zm.34,1.3h0l-.07-.12-.12.13c.12-.07.19-.07.19,0Zm-.27-3.83.37-.21c0,.13.07.18.13.12s-.07-.06-.13-.12l0-.25c-.26-.05-.38,0-.44,0l0,.25c-.06.07,0,.13.07.19Zm-.11-1.63a.5.5,0,0,1,.08.31h.25c0-.13,0-.19-.08-.25l-.25,0Zm.85,2.21a.51.51,0,0,0-.5.1.88.88,0,0,0,.32,0c.06,0,.12-.07.18-.14Zm-.3,2c.07.06.07.06.13,0h.19c0,.19.07.18.13.12l-.13-.12c-.14-.12-.2-.11-.32,0ZM62.37,87c.06,0,.06-.07,0,0s.06-.13,0-.13l-.06.07c.07,0,.07,0,.07.06ZM62.45,88h0v-.13c0,.06,0,.06-.06.07s.06,0,.07.05Zm.14-1.53h0l-.12.07c.06,0,.06,0,.13.06Zm-.07.83c.07.06.07.06.13.05h.19a.27.27,0,0,0-.32,0Zm.58,1.85a.11.11,0,0,1,.16,0s0,0,0,0a.23.23,0,0,0,.19-.07c-.19,0-.26-.11-.33-.11a1.68,1.68,0,0,0-.3.15c0,.13,0,.19.08.25s.12-.07.12-.14,0-.06.06-.06Zm-.66-8.4a1.26,1.26,0,0,1-.16.33l.19.11a1.29,1.29,0,0,1,.17-.33Zm.73,6.69c-.08-.12-.08-.12-.14-.12l-.19,0c.07.12.14.18.32.1Zm-.11,2.15h0v-.12l0,.07c.06,0,.06,0,.06,0Zm.19-2.78c0,.06-.06.06-.13.07a.29.29,0,0,1-.07-.12c0-.07-.06,0-.12.07l.07.06a.21.21,0,0,0,.13,0l.07.12c.07.06.14.12.2.11s.13.06.2.12a.11.11,0,0,1,0,.16l0,0c0,.07,0,.07.12,0a.84.84,0,0,0,.05-.31c0-.07-.07-.06-.14-.12a.25.25,0,0,0-.19,0,.15.15,0,0,1-.07-.12c0-.06,0-.06-.08-.12l0,.07c.06-.07.06-.07,0,0ZM63,85.2c0,.07,0,.07.07.13s.06,0,.06-.07S63.13,85.13,63,85.2Zm.16.49c0-.06,0-.12-.08-.12l-.05.07Zm-.39-6.46c.06.06.06.06.07.12h.06C62.84,79.23,62.84,79.23,62.78,79.23ZM63,78.09c-.06,0-.06,0-.12.07s0,.19.08.24H63Zm.57,8.15c-.06,0-.06,0-.12.07s0,.19.08.18h.12Zm.15,2.06c-.07,0,0-.06.36-.15-.13-.05-.19-.05-.26-.11s-.06-.05-.13-.05-.1.26,0,.32Zm-.21-8.36c-.07-.12-.2-.11-.33-.1.07.06.07.06.13,0s.13.06.2.06Zm.08,1.13c-.08-.12-.2-.11-.33-.1.07.12.07.12.14.11Zm.3,1.68c-.13-.11-.19-.11-.37,0a.21.21,0,0,1,.07.18h.13ZM64.08,87c0-.19,0-.38-.1-.44a.36.36,0,0,0-.25.08l0,.19c.07.06.13.06.13.12S64,87,64.08,87Zm-.27-1c-.11.19,0,.25.09.3A.41.41,0,0,0,63.81,85.91Zm-.38-4.58c.19,0,.38,0,.43-.09V81l-.31,0Zm.3-1.09c.06-.07.05-.13.12-.13s.06-.07,0-.13l-.43,0v.25Zm-.15,1.4c.06,0,.06.06,0,0s.12,0,.12-.07l-.07-.06C63.63,81.57,63.63,81.57,63.58,81.64Zm.48-1.23h0c.06-.07.06-.07,0-.13L64,80.16l-.06.06c0,.13,0,.19.08.19Zm.17.62c-.12.13-.12.19,0,.37.06-.06.06-.13.12-.13s.06-.07,0-.13H64.3c0-.13,0-.13-.07-.12ZM66,70.83a1.15,1.15,0,0,1,1.17.48,1.37,1.37,0,0,1,.34,1.24,1.92,1.92,0,0,1-.22.51,4.71,4.71,0,0,1-.21.52,2.09,2.09,0,0,1-1.08.77,1.9,1.9,0,0,1-1.33,0,1.29,1.29,0,0,1-.6-.53,4.91,4.91,0,0,1-.32-.86,1.09,1.09,0,0,1,.26-.83c.12-.14.17-.27.23-.34A1.08,1.08,0,0,1,65,71a4.7,4.7,0,0,1,1-.2Zm-1.09,1.58c-.14-.11-.2-.11-.38,0,.07.06.07.12.08.25a.23.23,0,0,1,.12-.08c.07,0,.07,0,.13-.07v-.12Zm.1,5h0c-.06.06-.06.06,0,.13s0,.06.06.06v-.19Zm.07.94,0-.13L65,78.2v.06C65,78.27,65,78.33,65.05,78.39Zm-.11-1.45a.59.59,0,0,1,.09.31h.25c0-.13,0-.19-.08-.25L65,77Zm.2-5.3a1.61,1.61,0,0,1,.3-.21.44.44,0,0,1-.08-.25.3.3,0,0,1-.24.15.48.48,0,0,0-.25.14c.07.06.13,0,.14.12s.13,0,.14,0Zm.46.22a.49.49,0,0,0,.49-.1.85.85,0,0,0-.32,0c0,.07-.11.07-.17.14Zm.5.85c.06-.07.05-.13.11-.14s.06-.07.06-.13a1,1,0,0,1-.21-.24.39.39,0,0,0,0,.5Zm.28-1.35a.63.63,0,0,0-.27-.29c-.12.13-.12.19,0,.31Zm.51.16a1.41,1.41,0,0,1-.32-.17h-.19v.25a.44.44,0,0,0,.08.25.13.13,0,0,1,.17,0l0,0a.27.27,0,0,0,.19-.08c0-.06.06-.13.05-.26Z"/><path id="Path_34" data-name="Path 34" class="cls-3" d="M87.88,78.23a.47.47,0,0,1,.28.42.29.29,0,0,0,0,.2.2.2,0,0,1,0,.19,7.17,7.17,0,0,0-.57.79,2,2,0,0,1-.71.75c-.18.14-.29.27-.47.41a10.84,10.84,0,0,1-1.66,1.44,7.15,7.15,0,0,0-1.33.85,2.69,2.69,0,0,1-.67.3l-.76,0A4.76,4.76,0,0,1,80,83.7a.86.86,0,0,0-.57,0,1.13,1.13,0,0,0-.34.52,9.69,9.69,0,0,0-.54,1.24,6,6,0,0,1-.68,1.18.44.44,0,0,0-.16.39,3.73,3.73,0,0,1-2.31,2.18c-.18.07-.31.08-.49.16s-.3.14-.48.22a1,1,0,0,1-1.2.15,2,2,0,0,0-.58-.21,1.06,1.06,0,0,1-.53-.35,3.49,3.49,0,0,1-.54-1.47,7.88,7.88,0,0,1-.21-1.18c-.09-.37-.12-.75-.21-1.18,0-.19,0-.38,0-.45s.17-.26.1-.38a1.23,1.23,0,0,1-.06-.94c0-.32.07-.7.12-1l0-.63a.66.66,0,0,1,0-.69c.11-.13.17-.26.1-.38a1.28,1.28,0,0,1,0-.7c0-.19.09-.45.14-.64s.1-.45.15-.64a1,1,0,0,0,0-.62,2.94,2.94,0,0,0,.42-1.17A3.75,3.75,0,0,1,72.4,76a3.57,3.57,0,0,0,.26-.78,1.83,1.83,0,0,1,.51-.92c.11-.13.11-.19.11-.19a1.15,1.15,0,0,1,.7-.74,5.08,5.08,0,0,1,.94-.2,1.31,1.31,0,0,1,1.48,1.09,1.27,1.27,0,0,1,0,.58A4.18,4.18,0,0,0,76.13,76,8.2,8.2,0,0,1,76,77.24a11.42,11.42,0,0,0-.29,2.1c-.08.7-.1,1.39-.17,2.09a4.63,4.63,0,0,0-.09,1.39,8,8,0,0,0,0,1.38,3.21,3.21,0,0,1,0,.76,1.47,1.47,0,0,0,0,.75,6.4,6.4,0,0,1,.14,1.07,3.82,3.82,0,0,0,.33,1,10.52,10.52,0,0,0,.81-.94,5,5,0,0,0,.56-1,.83.83,0,0,1,.29-.4c.12,0,.18-.08.18-.14a1.75,1.75,0,0,1,.43-1,1.88,1.88,0,0,0,.44-.92c0-.13,0-.19,0-.25l-.2-.17a3.84,3.84,0,0,1-.67-2.41l0-.63a1.58,1.58,0,0,1,.08-.57c0-.19,0-.32.09-.51a1.63,1.63,0,0,1,.28-.52c.12-.13.11-.2.11-.2a2.15,2.15,0,0,1,.49-1.23c.28-.32.56-.65.81-1a1.72,1.72,0,0,1,1.1-.45.94.94,0,0,1,.91.37A2.18,2.18,0,0,1,81.81,77a4.81,4.81,0,0,1-.26.84,1.54,1.54,0,0,0-.06,1c.07.12,0,.19-.11.26a.64.64,0,0,0-.23.33c-.16.45-.31,1-.47,1.42a11.75,11.75,0,0,0-.46,1.42c-.17.32-.22.52-.15.57a3.27,3.27,0,0,0,.51.22,2.08,2.08,0,0,0,1.51-.11,11.93,11.93,0,0,1,1.54-.48,2.14,2.14,0,0,1,1-.7,1.8,1.8,0,0,0,.94-.88.63.63,0,0,1,.36-.34,1.07,1.07,0,0,0,.41-.35,2.78,2.78,0,0,0,.52-.79,2.75,2.75,0,0,1,.51-.79l.17-.2A.82.82,0,0,1,87.88,78.23ZM73.27,86.69l-.14-.12c-.06,0-.07-.06-.13,0s0,.19,0,.19Zm-.92-8.5c.07,0,.07,0,.12-.08L72.4,78l-.06.07Zm.56,4.3c0,.07,0,.13-.06.13s0,.07,0,.13.12-.13.12-.2,0-.13.11-.19,0-.07.06-.07h.06c.06-.07.06-.07.12-.08s.06-.06.11-.19l-.23.27h-.13v.07a.49.49,0,0,0-.18.14Zm-.23-3.32a.09.09,0,0,0,0-.12h0c-.07,0-.07-.06-.14-.12a.12.12,0,0,1,0,.16l0,0a.24.24,0,0,0,.14,0Zm.24,4.33c.06.06.06.06.07.12s.06.06.19,0a1.12,1.12,0,0,0-.09-.37,1.06,1.06,0,0,0-.17.26Zm0-2.84h0l-.19,0c0,.07,0,.07.06.06Zm.39,5.58a.19.19,0,0,0,0-.13c0-.06,0-.06.06-.13l-.13,0c-.18.14-.17.26,0,.31ZM73,81.42h0l.25,0v0Zm.34,3.12c0,.07,0,.07-.11.14l.13.12.12-.14Zm.49-4.88a3.26,3.26,0,0,1-.45-.09l-.45-.1-.06.07c0,.13.07.12.14.12A.76.76,0,0,0,73.79,79.66Zm-.22,8.59c.13.11.19.11.26.1a1,1,0,0,0,.3-.14c-.26-.11-.45-.16-.56,0ZM73,76.69C73,76.76,73.08,76.75,73,76.69Zm1.09,11a.15.15,0,0,1-.07-.12.2.2,0,0,1-.08-.12c-.1.32,0,.38.15.24Zm-.52-7.33a.82.82,0,0,0,.3.67l.25,0a1.83,1.83,0,0,0,.25-.08c-.2-.11-.33-.16-.4-.35s-.21-.23-.21-.3a.64.64,0,0,0-.19.08Zm.71,4.74c-.06-.06-.06-.06-.07-.12H74.1v.13h.06C74.24,85.17,74.23,85.11,74.29,85.11Zm-.58-6.58c.19,0,.25,0,.11-.14ZM74,76.3a.25.25,0,0,1-.18.08c-.07,0-.12.07-.19.08.2.17.27.17.33.1s0-.12,0-.25Zm.17-1.2a1.72,1.72,0,0,1-.38.08c-.06,0-.06.07-.1.26,0-.06.11-.13.18-.14s.18-.13.3-.2Zm.37,8h.19c-.07-.06-.07-.06-.13-.06l-.18,0c.06.06.06.06.13,0Zm.22,4h.12a.39.39,0,0,1,0-.38.37.37,0,0,0-.22-.42l0,.44a1.18,1.18,0,0,1,.09.37Zm.33,1.11h0C75.14,88.19,75.07,88.2,75.08,88.26Zm-.5-9.86c.06-.06.06-.06.12-.07l-.14-.12Zm.2,2.07h0l.13,0ZM74.6,77c.13.06.19-.07.24-.2s-.13-.12-.2-.12a.75.75,0,0,0,0,.33Zm4.9,4.19a1.63,1.63,0,0,0,.56-1,3.89,3.89,0,0,1,.3-1.16,2.12,2.12,0,0,0,.25-.9c0-.31.08-.63.13-.89a.81.81,0,0,0-.32-.86,2.09,2.09,0,0,1-.51.73,1.14,1.14,0,0,1-.23.33c-.06.13-.17.27-.23.4l-.13.83a5,5,0,0,1-.32.84,2.43,2.43,0,0,0-.13.89,3.24,3.24,0,0,1,0,.88.65.65,0,0,0,.36.54.72.72,0,0,0,.1-.38c.06,0,.12-.13.17-.2Z"/><path id="Path_35" data-name="Path 35" class="cls-3" d="M96.27,82.75a1.1,1.1,0,0,0-.46.6,1.06,1.06,0,0,1-.33.59c-.29.39-.58.73-.87,1.13s-.58.73-.87,1.07a4.57,4.57,0,0,1-.71.68c-.18.14-.24.2-.3.21a3,3,0,0,1-.82.93c-.36.22-.67.43-1,.64-.12.08-.18.14-.24.15a.49.49,0,0,1-.62.3L89.9,89a1.69,1.69,0,0,1-1.06.2A6.85,6.85,0,0,1,87.75,89a2.08,2.08,0,0,1-1.7-1.71c-.16-.55-.26-1-.36-1.55a6.79,6.79,0,0,1-.11-1.56,1.46,1.46,0,0,0,0-.51,2.28,2.28,0,0,1,.09-.51,1,1,0,0,0,.08-.69,1.86,1.86,0,0,1,0-1,3.58,3.58,0,0,0,.25-1,3.06,3.06,0,0,1,.31-1,2.78,2.78,0,0,0,.25-1c.06-.07.06-.07,0-.13a4,4,0,0,0,.83-1.63,3.34,3.34,0,0,1,.9-1.58,1.49,1.49,0,0,1,1.35-.53,1.93,1.93,0,0,1,.71.2,4.06,4.06,0,0,1,.65.27.84.84,0,0,1,.44.85c-.1.38-.2.83-.29,1.28a4.2,4.2,0,0,1-.48,1.23c0,.19-.1.32-.15.51a1.25,1.25,0,0,0-.1.51,1.71,1.71,0,0,0-.09.51.58.58,0,0,1-.22.45.32.32,0,0,0-.1.26,1.22,1.22,0,0,1,0,.82,4,4,0,0,0-.2.77,3,3,0,0,0-.09.45L90,84.44c0,.61.08,1.21.07,1.82a1.57,1.57,0,0,0,.15.43c.16.43.49.6,1,.37a3.55,3.55,0,0,0,.78-.55c.24-.21.41-.47.65-.68a6.92,6.92,0,0,0,.63-.8,8.3,8.3,0,0,1,.64-.8c.35-.4.64-.8.93-1.2s.51-.79.86-1.2a13.37,13.37,0,0,0,1.16-1.53c.34-.52.74-1.06,1.09-1.58a3.2,3.2,0,0,0,.51-.8,1.59,1.59,0,0,1,.65-.61c.18-.14.37-.09.57.09s.09.31-.09.51a1.2,1.2,0,0,0-.21.58c0,.19-.16.32-.48.35a.12.12,0,0,0-.11.13c0,.06,0,.19,0,.25a.62.62,0,0,1-.34.53l-.25,0a1.07,1.07,0,0,1-.33.65c-.18.2-.29.4-.46.6a1.43,1.43,0,0,1-.52.67.74.74,0,0,0-.33.77C96.52,82.67,96.46,82.73,96.27,82.75ZM87,82c-.13-.12-.19-.12-.31,0A.27.27,0,0,0,87,82Zm.08,1.94c.06-.06.12-.07.12-.13l.11-.13a.38.38,0,0,0-.37,0v.13c.13,0,.13,0,.14.11Zm.34,1.3h0l-.07-.12-.12.14c.12-.07.12-.07.19,0Zm-.27-3.82.37-.21c0,.12.07.18.13.11s-.07-.06-.13-.11l0-.26c-.26,0-.38,0-.44,0l0,.25c-.06.06-.06.13.07.18ZM87,79.74a.48.48,0,0,1,.08.31l.26,0c0-.13,0-.19-.08-.25l-.26,0ZM87.83,82a.51.51,0,0,0-.5.1.85.85,0,0,0,.32,0c.06,0,.12-.07.18-.14Zm-.3,2c.06.06.06.06.13.05h.19c0,.19.07.18.13.12L87.85,84c-.08-.12-.2-.11-.32,0Zm.14,1.18h0c.06-.06.06-.13,0-.12l0,.07c.06,0,.06,0,.06.06Zm.08,1.07h0v-.13c0,.07,0,.07-.06.07a.07.07,0,0,1,.07.06Zm.14-1.52h0l-.12.07c.07,0,.07,0,.13,0s-.07-.11,0-.12Zm-.13.83c.07.06.07.06.13,0h.19a.25.25,0,0,0-.32,0Zm.63,1.84a.13.13,0,0,1,.17,0l0,0a.27.27,0,0,0,.19-.08c-.2,0-.26-.11-.33-.1a.85.85,0,0,0-.3.15c0,.12,0,.18.08.24s.12-.07.12-.13,0-.06.06-.07ZM87.74,79a1.41,1.41,0,0,1-.17.32l.2.12a1.29,1.29,0,0,1,.17-.33Zm.66,6.69c-.07-.12-.07-.12-.13-.12l-.19,0a.22.22,0,0,0,.3.11Zm0,2.15h0v-.13l-.06.07Zm.12-2.79c0,.07-.06.07-.12.08a.21.21,0,0,1-.07-.12c0-.07-.06,0-.12.07l.07.06a.19.19,0,0,0,.13,0l.07.12c.06.06.13.12.19.11s.13.06.2.12a.11.11,0,0,1,0,.16l0,0c-.06.07,0,.07.12,0a.83.83,0,0,0,0-.31c0-.07-.07-.06-.13-.12a.29.29,0,0,0-.2,0,.24.24,0,0,1-.07-.12c0-.06,0-.06-.07-.12l-.06.06Zm-.17-1.62c0,.06,0,.06.07.12s.06,0,.06-.07S88.36,83.36,88.31,83.43Zm.09.49c0-.06,0-.12-.07-.12l-.06.07ZM88,77.46c.07.06.07.06.07.12h.07C88.14,77.45,88.14,77.45,88,77.46Zm.18-1.14c-.07,0-.07,0-.13.07s0,.19.08.24h.13Zm.57,8.15c-.07,0-.07,0-.12.07s0,.19.07.18h.13Zm.14,2.06c-.06,0,.06-.06.37-.15-.13,0-.19,0-.26-.11s-.07,0-.13,0a.21.21,0,0,0,0,.29l0,0Zm-.14-8.36c-.08-.12-.2-.12-.33-.11.07.06.07.06.13.06s.14.06.2,0Zm.08,1.13c-.08-.13-.2-.12-.33-.11.07.12.07.12.14.12ZM89.08,81c-.13-.11-.2-.11-.38,0a.22.22,0,0,1,.08.18h.13Zm.23,4.21c0-.19,0-.38-.09-.44s-.19,0-.25.08V85c.07.06.13.06.14.12s.13,0,.19,0Zm-.26-1c-.11.19,0,.25.08.3.06-.12.05-.25-.08-.3Zm-.39-4.58c.2,0,.39,0,.44-.09l0-.25-.25,0ZM89,78.47c.06-.07,0-.13.12-.14s0-.06,0-.13l-.44,0,0,.25Zm-.16,1.39h0c.07,0,.13,0,.13-.07l-.07-.06C88.93,79.8,88.87,79.8,88.87,79.86Zm.42-1.22h0c.06-.07.06-.07,0-.13l-.07-.12-.06.06a.66.66,0,0,1,.09.19Zm.23.61c-.11.14-.11.2,0,.38.06-.07,0-.13.12-.14s0-.06,0-.13h-.13c0-.12-.06-.12-.06-.12Zm1.69-10.19a1.12,1.12,0,0,1,1.16.48,1.37,1.37,0,0,1,.34,1.24,1.62,1.62,0,0,1-.21.51,3.38,3.38,0,0,1-.22.52,2,2,0,0,1-1.08.77,1.88,1.88,0,0,1-1.32,0,1.26,1.26,0,0,1-.61-.53,4.88,4.88,0,0,1-.31-.86,1.06,1.06,0,0,1,.26-.83c.11-.14.17-.27.23-.34a1.07,1.07,0,0,1,.76-.8,5.71,5.71,0,0,1,1-.2Zm-1.1,1.58c-.13-.11-.19-.11-.37,0,.06.06.07.12.08.25a.2.2,0,0,1,.12-.08c.06,0,.06,0,.12-.07v-.12Zm.1,5h0c0,.06,0,.06,0,.13s0,.06.07.06l0-.19Zm.07.94,0-.13-.06-.06v.06C90.21,76.5,90.21,76.56,90.28,76.62Zm0-1.45a.56.56,0,0,1,.09.31l.25,0c0-.12,0-.19-.08-.24h-.25Zm.2-5.3a1,1,0,0,1,.3-.21.46.46,0,0,1-.08-.25.35.35,0,0,1-.25.14.61.61,0,0,0-.24.15c.07,0,.13,0,.14.11s.07,0,.14,0Zm.45.21a.48.48,0,0,0,.5-.09.69.69,0,0,0-.32,0c0,.06-.11.07-.17.14Zm.44.86c.06-.07.06-.13.12-.14s.06-.07,0-.13a.78.78,0,0,1-.2-.24.37.37,0,0,0,0,.5Zm.35-1.35a.63.63,0,0,0-.28-.3c-.11.14-.11.2,0,.32Zm.51.15a1.26,1.26,0,0,1-.33-.16h-.19l0,.25a.44.44,0,0,0,.08.25.12.12,0,0,1,.17,0s0,0,0,0a.2.2,0,0,0,.18-.07.48.48,0,0,1,.07-.26Z"/><path id="Path_36" data-name="Path 36" class="cls-3" d="M113.24,77.27a9.89,9.89,0,0,0-.84,1.57c-.22.52-.49,1-.77,1.57-.17.33-.39.72-.56,1a7.33,7.33,0,0,0-.43,1c-.06.06-.11.19-.23.33l-.24.14a2.5,2.5,0,0,1-.2.71c-.12.19-.29.4-.4.59s-.29.4-.46.6a2.63,2.63,0,0,0-.27.65,3.09,3.09,0,0,0-.8,1.19,6.86,6.86,0,0,1-.81,1.13l-.46.53a1.65,1.65,0,0,1-.47.48c-.47.41-1,.88-1.42,1.29a7.47,7.47,0,0,1-1.63,1.06,1.48,1.48,0,0,1-.49.16.43.43,0,0,0-.3.27.33.33,0,0,1-.24.15,5.29,5.29,0,0,0-1.38.09,2.23,2.23,0,0,1-1.4-.15,4.06,4.06,0,0,0-.65-.27,2,2,0,0,1-.65-.2A3.71,3.71,0,0,1,96.54,90a5.91,5.91,0,0,1-.82-1.83,11.43,11.43,0,0,1,0-5A8.38,8.38,0,0,1,96,81.76c.1-.45.26-.84.35-1.29a8.37,8.37,0,0,1,.54-1.36c.22-.46.44-.85.67-1.31a13.39,13.39,0,0,1,.79-1.31c.29-.4.63-.8,1-1.2a4,4,0,0,1,1.32-1,5,5,0,0,1,1.61-.55,4.49,4.49,0,0,0,.61-.23.86.86,0,0,1,.57,0,2.7,2.7,0,0,1,2.12.54,4.9,4.9,0,0,1,.83,1.14,2.16,2.16,0,0,1,.23,1.43c0,.19,0,.32-.09.51a.83.83,0,0,0,0,.56.39.39,0,0,1-.16.39.67.67,0,0,0-.21.71l0,.19a.31.31,0,0,1-.06.13.58.58,0,0,0-.35.4,1,1,0,0,1-.28.46c-.29.4-.64.74-1,1.14a8.63,8.63,0,0,1-1.2,1,7.24,7.24,0,0,1-3,1.09.54.54,0,0,0-.47.48c0,.25,0,.56-.07.82s-.09.57-.13.83-.1.32-.15.51a.72.72,0,0,0,0,.5.27.27,0,0,1,0,.31,2,2,0,0,0-.15,1.46,6,6,0,0,1,.29,1.43,1.06,1.06,0,0,0,.55.72,1.4,1.4,0,0,0,1,.12.49.49,0,0,1,.44,0l.44,0a4.4,4.4,0,0,0,1-.32,9.54,9.54,0,0,0,.85-.5l1-.69a5.3,5.3,0,0,0,.82-.82,2,2,0,0,1,.65-.61,1,1,0,0,0,.45-.79c.06-.13.11-.19.24-.2a.9.9,0,0,0,.58-.74c0-.06,0-.12.05-.13a2.49,2.49,0,0,0,.82-1,5.52,5.52,0,0,1,.67-1.18c.23-.39.39-.78.61-1.18a6,6,0,0,1,.68-1.18l.67-1.18c.23-.39.38-.85.55-1.17a7.48,7.48,0,0,1,.51-.86,3,3,0,0,0,.43-.91.57.57,0,0,1,.42-.41c.18-.07.31-.08.38,0a.31.31,0,0,1,.09.37A1.08,1.08,0,0,0,113.24,77.27ZM96.16,85.65h0c-.07-.06-.13-.05-.13,0s0,.19.08.18h.13l0-.19Zm.89.13.37-.22c-.07,0-.08-.12-.14-.17s-.07-.13-.14-.18-.19,0-.25.08.07.06.07.12.07.06.07.12l-.11.13v.13C97.05,85.72,97.05,85.72,97.05,85.78ZM97,82c-.06,0-.13,0-.12.07s.06,0,.13.06S97,82.06,97,82Zm.46-1.55-.25,0a.44.44,0,0,0-.25.08c.07.06.13.06.2.12s.13,0,.26.1a.5.5,0,0,1,0-.32Zm-.29,2.23c0-.06,0-.06-.07-.12l-.06.07v.06ZM97.63,84c.11-.14,0-.26-.09-.37h-.19c.07.06.07.12.13.12s.07.12.14.24ZM98,86.22c0-.06,0-.12-.07-.12s-.2,0-.38,0l-.06.13c0,.13,0,.19.08.25l.18-.2.25,0ZM97.72,88h0v-.12l-.06.06c.06,0,.06,0,.06.06Zm-.47-8.41,0,.19a.2.2,0,0,0,.07.18c.06-.06.12-.07.12-.13s.06-.07.12-.07c.24-.14.36-.28.35-.4s-.14-.12-.14-.18-.07-.12-.14-.18l0,.31Zm.61,5.06c.07.13.07.13.13.06s0-.06-.13-.06-.08-.18-.14-.11Zm-.12-4.46c0-.06,0-.06-.08-.12s-.18,0-.18.07v.13Zm.38,6.34c0-.13,0-.26-.15-.31a.11.11,0,0,1,0,.16s0,0,0,0Zm.07-.7a1.22,1.22,0,0,0,.32,0c.07,0,.06-.07.12-.14v-.12c-.06,0-.13-.06-.26-.11s0,.13-.12.13,0,.13,0,.2Zm.38,4.44h0c-.07,0-.07,0-.07-.12l-.06.07v.06C98.51,90.28,98.51,90.34,98.57,90.27Zm-.52-9.22c0,.06-.06.07,0,0v.12c.06,0,.06,0,.06-.06Zm0,1.32v.13l.25,0,.06-.07-.14-.12-.19,0Zm.06.88c.14.18.2.17.31,0-.13-.12-.2-.12-.31,0Zm.24,1.62c0-.06,0-.13-.07-.12l-.06.06Zm.21,3.89h0c.06-.07.06-.07.12-.07s0-.06-.07-.06S98.52,88.64,98.59,88.76Zm-.18-3.52a.29.29,0,0,0,.38,0l0-.25ZM99,89.8v-.13c-.12,0-.19,0-.25,0l-.06.06.13.12Zm-1-11.15c-.06.07-.06.07,0,.13s0,.07.07.12l0-.25ZM99.31,81c-.06.07-.06.07-.12.07s-.06.07-.12.14c.14.12.2.11.31,0s0-.19-.07-.18Zm-.26-1.93c-.06.07-.06.07-.06.13l.07.06v-.19Zm.41-.35c-.12,0-.18.08-.18.14s.07.06.13.06.07.06.14.11c0-.13,0-.25-.09-.31Zm.29.49c-.06,0-.13-.06-.26-.11s0,.13-.12.13l-.11.14c.19,0,.26.11.32.1s.06-.07.12-.13v-.13Zm-.1-1.45c-.2-.11-.26-.1-.32,0,.14.11.26.11.32,0Zm.24.74,0-.25a.49.49,0,0,0-.14-.24c-.06.07,0,.13-.12.14l-.11.13c.06.06.13,0,.13.12s.19.11.26.1Zm-.12-1.75c.12-.07.18-.08.25,0a.44.44,0,0,0,.25-.08l0-.25-.25,0a.33.33,0,0,0-.25.08Zm.54,1.41a.91.91,0,0,0-.24.2.32.32,0,0,1-.24.15c.08.24.21.36.4.35l.12-.14c0-.06.05-.06.11-.13a.13.13,0,0,1,0-.17l0,0c.06-.07,0-.13-.08-.18h-.06Zm4-2.8c-.31.21-.61.36-.85.56a1.47,1.47,0,0,0-.63.86c-.06.13-.17.27-.23.4a2,2,0,0,0-.29.4,3.51,3.51,0,0,0-.4.53,5.67,5.67,0,0,0-.33.65l-1,2.22a1.92,1.92,0,0,0-.22.51,1.35,1.35,0,0,0,0,.69.88.88,0,0,1,.74-.24.87.87,0,0,0,.68-.17l1.09-.65a5,5,0,0,0,1-.76c.36-.34.64-.73.94-1.07A4.14,4.14,0,0,0,105.4,78a4.25,4.25,0,0,0,.23-1.27,2.25,2.25,0,0,0-.34-1.24c-.4-.34-.66-.39-1-.11Zm-4.41,1.88c0,.07,0,.07.07.13l.06-.07C99.93,77.32,99.93,77.26,99.87,77.26Zm.24-.14c0,.06.07.06,0,0h.12c-.06,0-.06,0-.06-.06s0,.07-.06.07h0Zm.52.34c-.13-.11-.19-.11-.31,0a.27.27,0,0,0,.31,0Zm.72-.61-.12.13c-.06,0-.06.07-.12.13a.27.27,0,0,0,.08.19l.31,0a.57.57,0,0,1-.08-.25.2.2,0,0,0-.07-.18Zm-.07-1V76c.06,0,.06,0,.12-.07l.17-.2-.37,0v.13Zm.46-.6c.13.12.19.12.31,0S102,75,102,75s-.12.07-.25.08Zm.27-.65c.06.06.06.06.13.06s.06,0,.06-.07Zm.49.73a1.61,1.61,0,0,1-.3.21c.13.11.2.11.38,0a2.25,2.25,0,0,0-.08-.24Zm.9-1.52c.07.06.07.06.07.13s.07,0,.06-.07S103.53,73.79,103.4,73.8Zm.08.25h0l0,.19c0-.07,0-.07,0-.13Zm.83.07a1,1,0,0,0-.38,0c-.07,0-.06.07-.12.14.13,0,.25,0,.5-.1Z"/><path id="Path_37" data-name="Path 37" class="cls-3" d="M121.3,86.91a.48.48,0,0,0-.1.38.37.37,0,0,1-.17.39.87.87,0,0,0-.45.67,1.09,1.09,0,0,1-.4.65c0,.07,0,.13-.05.13-.35.47-.75,1-1.1,1.53a2.94,2.94,0,0,1-1.56,1.12,2.82,2.82,0,0,1-1.77-.07,2.59,2.59,0,0,1-1.34-1.1c-.21-.3-.36-.67-.57-1a3,3,0,0,1-.26-1c0-.57,0-1.14.08-1.64a4.52,4.52,0,0,1,.33-1.54,3.32,3.32,0,0,0,.31-1l.31-1c.24-.51.46-1,.65-1.56s.36-1,.52-1.55a1.28,1.28,0,0,0,0-.82,1,1,0,0,0-.78-.32,8.7,8.7,0,0,1-1.14-.17c-.39-.1-.77-.14-1.16-.24a3.25,3.25,0,0,1-1.85-1.32,4.51,4.51,0,0,1-.5-.78,1.81,1.81,0,0,1-.2-1v-.07L110,75.6a2.09,2.09,0,0,1-.16-1.37,8.41,8.41,0,0,1,.41-1.29,3,3,0,0,1,2.08-1.78c.06-.07.13-.07.26,0l.25,0c.62-.17,1.08.11,1.38.79a3.25,3.25,0,0,1,.17.61,1.39,1.39,0,0,1,0,.7,10.89,10.89,0,0,0-.15,1.4,4.09,4.09,0,0,1-.41,1.41c-.11.2,0,.32.16.43a2.39,2.39,0,0,0,.84.32c.32,0,.58.15.84.19a1.85,1.85,0,0,1,.64.21,1,1,0,0,0,.63-.05.35.35,0,0,1,.26.11c.07.06.2.12.27.17a5.57,5.57,0,0,0,.59.4,1.7,1.7,0,0,1,.82.83,2.24,2.24,0,0,1,.14,1.12.81.81,0,0,0,0,.38l0,.38a.82.82,0,0,1-.08.63c-.12.08-.12.14-.12.2a1.56,1.56,0,0,1,0,.57.62.62,0,0,1-.34.46,4.28,4.28,0,0,1-.4,1.54,9.73,9.73,0,0,0-.52,1.49,4.15,4.15,0,0,1-.2.77c-.11.26-.16.45-.27.71a4.33,4.33,0,0,0-.29,1.28,9.81,9.81,0,0,0,0,1.33.62.62,0,0,0,.58.66.6.6,0,0,0,.46-.17,2.56,2.56,0,0,0,.71-.68,7.12,7.12,0,0,0,.57-.86,2.12,2.12,0,0,0,.4-.66c.11-.19.22-.45.33-.65l1-1.78,1-1.77c.12-.2.23-.33.34-.53a1.85,1.85,0,0,0,.21-.64,1.42,1.42,0,0,1,.34-.53.92.92,0,0,0,.34-.52,8.22,8.22,0,0,1,.74-1.25,3.16,3.16,0,0,0,.6-1.3,1,1,0,0,1,.22-.4,1.18,1.18,0,0,0,.23-.39,8.65,8.65,0,0,0,.5-.92c.17-.32.34-.59.51-.91.05-.13.11-.2.16-.33.24-.27.42-.34.62-.17a.55.55,0,0,1,.22.36.38.38,0,0,1-.1.45,4.52,4.52,0,0,0-.56.92l-.5,1L125,79.59l-.67,1.19c-.17.26-.28.52-.45.79s-.28.52-.45.78a8,8,0,0,1-.9,1.58,8.93,8.93,0,0,0-.83,1.63.72.72,0,0,0-.45.66C121.78,86.63,121.61,86.83,121.3,86.91Zm-10.69-12a.36.36,0,0,0,.5,0s0,0,.06-.08-.13-.18-.26-.17a.39.39,0,0,1-.26,0c0,.12,0,.25,0,.25ZM111,74c0,.07,0,.07-.06.13v.07c.06,0,.06,0,.12-.08A.15.15,0,0,1,111,74Zm.46-.53c.06-.07.12-.07.25-.08s.12-.07,0-.19l-.38,0c-.06.07-.12.14-.18.14s-.12.07-.18.14v.13c0,.06.07.12.08.18a.78.78,0,0,1,.17-.26c.13,0,.19,0,.18-.08Zm1.32.79,0,.69a.9.9,0,0,0,.29.61,2.43,2.43,0,0,0,.49-1.17c0-.38,0-.82,0-1.26,0-.2-.09-.31-.35-.36a.41.41,0,0,0-.43.16c0,.07,0,.13-.11.19a.29.29,0,0,0,0,.2.66.66,0,0,1,0,.5Zm.33-2.42c0,.06,0,.06.07.12l.06-.07ZM114.56,89l.44,0a.45.45,0,0,0,.36-.28l-.14-.11c0,.07-.12.07-.11.13l-.12.14a3.52,3.52,0,0,0-.42.15ZM114,78.29l.12-.07H114Zm.93,8.82c-.07-.12-.14-.18-.39-.23l0,.44a.44.44,0,0,0,.37-.21Zm.59,1.15c-.2-.17-.33-.16-.38,0Zm.33-5.19c.06,0,.06-.06-.07-.12a.52.52,0,0,0-.24.27c-.05.13-.05.19-.1.32a1.54,1.54,0,0,0,.42-.46Zm.05,4.41c.18-.14.18-.2.11-.32s-.25,0-.31.15Zm.08,1.13c-.06,0-.12,0-.13,0v.06Zm-.18-10.69c.12-.08.12-.14,0-.2s-.18.08-.12.14l.07.06Zm1.41,3c-.06.07-.06.07,0,.13h.06Zm.11.69h-.12c0,.06,0,.06.07.06Zm.62-2c-.13-.11-.26-.17-.38-.1.14.18.27.17.38.1Zm.14,1.13v-.19a3850522664484.89,3850522664484.89,0,0,0-.24.14c.07.12.2.17.26,0Zm.39-1.67a.15.15,0,0,1-.12.07.23.23,0,0,1-.12.08.19.19,0,0,0,.13,0c.06,0,.06.06.13,0a.19.19,0,0,0,0-.25Z"/><path id="Path_38" data-name="Path 38" class="cls-3" d="M123.13,83.38a9.55,9.55,0,0,1-.15-1.31,2.18,2.18,0,0,1,.29-1.22.4.4,0,0,0,0-.37.65.65,0,0,1,.2-.83c0-.07.11-.14.11-.2a4,4,0,0,1,.29-1.22l.49-1.17c.11-.19.16-.39.27-.58A1.76,1.76,0,0,1,125,76a2.28,2.28,0,0,0,.34-.53,2,2,0,0,1,.8-1.19.44.44,0,0,0,.23-.27,3.29,3.29,0,0,1,.92-1.32,10.14,10.14,0,0,0,1.12-1.15,15.2,15.2,0,0,1,1.43-1.23,5.83,5.83,0,0,1,1.77-.82,4.81,4.81,0,0,1,2.13-.21,2.92,2.92,0,0,1,1.84,1.06c.14.12.21.24.34.36a2,2,0,0,1,.41.35c.23-.27.46-.6.69-.87a3,3,0,0,1,.7-.81,2.47,2.47,0,0,1,1.11-.39,1.5,1.5,0,0,1,1.08.11,2,2,0,0,1,.69.84,1.54,1.54,0,0,1,0,1.19c-.16.45-.25,1-.4,1.42a6.57,6.57,0,0,1-.47,1.42,1,1,0,0,0-.15.57.63.63,0,0,1-.28.52c-.06.07-.05.13,0,.26a.73.73,0,0,1,0,.63,2,2,0,0,0-.21.58,30.07,30.07,0,0,0-.72,3.26,18.79,18.79,0,0,0-.21,3.35,6.4,6.4,0,0,0,.14,1.07,3.06,3.06,0,0,0,.45,1,2,2,0,0,0,2.79.31,3,3,0,0,0,.88-1,7.81,7.81,0,0,1,.75-1.06,2.84,2.84,0,0,0,.62-1.11,10.3,10.3,0,0,1,.54-1.17,6.28,6.28,0,0,0,.66-1.5,14.46,14.46,0,0,1,.58-1.55,6.87,6.87,0,0,0,.42-1.23,9.67,9.67,0,0,1,.41-1.29,2.1,2.1,0,0,1,.33-.65.9.9,0,0,0,.08-.7c-.07-.12.05-.19.23-.33a.55.55,0,0,1,.49-.16c.19,0,.26.11.27.23l0,.38a3.48,3.48,0,0,1-.29,1.15,8.16,8.16,0,0,0-.42,1.17c-.16.45-.25,1-.41,1.41a7.42,7.42,0,0,1-.54,1.3,4.05,4.05,0,0,0-.41,1.23,1.45,1.45,0,0,1-.62,1.05,5.33,5.33,0,0,1-.59,1.49,13.39,13.39,0,0,0-.79,1.31,6.22,6.22,0,0,1-1.51,1.87,1.56,1.56,0,0,1-.6.42c-.25.08-.43.22-.68.3s-.3.15-.56.1c-.06,0-.13,0-.26-.1a.2.2,0,0,0-.25,0,1.07,1.07,0,0,1-1.12.21,3.89,3.89,0,0,0-1.16-.3,2.85,2.85,0,0,1-1-.3,3.27,3.27,0,0,1-.87-.7,7.06,7.06,0,0,1-1.19-2.56,7.58,7.58,0,0,1-.2-2.07,10.7,10.7,0,0,1,.23-2v-.19l-.48.35a1.46,1.46,0,0,0-.28.52.66.66,0,0,1-.34.47,3.25,3.25,0,0,0-.42.41c-.23.33-.52.66-.75,1a6.08,6.08,0,0,1-.88,1,.6.6,0,0,1-.22.39c-.12.07-.24.21-.36.28s-.31.15-.36.28a1.16,1.16,0,0,0-.22.39,16.1,16.1,0,0,1-1.7,1,5,5,0,0,1-1.91.7,2.11,2.11,0,0,1-1.14-.11,4.52,4.52,0,0,1-.92-.56l-.82-.89C123.38,84.25,123.22,83.82,123.13,83.38Zm.41-.53h0l.07.13c0-.07,0-.07.06-.07s-.07-.06-.14-.06Zm.3-1.91c-.06.07-.06.07-.12.07l.14.12,0-.07c0-.07-.06-.06-.07-.12Zm.18,2.57h0c0,.07,0,.07.07.12s0-.06.06-.06a.16.16,0,0,0-.13-.06Zm.13-.83c-.12.08-.11.14,0,.25a.48.48,0,0,0,.31-.08l-.13-.12a.29.29,0,0,0-.2,0Zm.13-2.71c0,.06,0,.06,0,.13s0,.06.06.06V80Zm.7,1.9c-.2-.11-.26-.11-.31,0a.27.27,0,0,0,.31,0Zm-.2-2h0a.36.36,0,0,1-.11.26c.07.06.13.05.13.12s.07,0,.08.12a.77.77,0,0,1,.23-.21c.06-.07.18-.14.24-.2h-.25c-.07,0-.13,0-.13-.11s-.07-.06-.13,0-.06,0-.12.07c0-.13,0-.07.06-.07Zm.28-3c0,.06-.11.13-.17.13s-.06.13,0,.26.07.06.07.12.07.06.14.12l.11-.14c.07,0,.06-.06.12-.13s0-.19-.08-.18-.13-.13-.13-.19Zm.21,3.76c.13.06.18,0,.31-.08-.2-.12-.32-.11-.31.08Zm1.08.18a8.07,8.07,0,0,1-.41,1.35,3.34,3.34,0,0,0-.21,1.4,1.86,1.86,0,0,0,.18.87c.08.12.39.1.89.06a1.48,1.48,0,0,0,1.24-.27l.91-.63c.29-.24.57-.49.83-.75a16.84,16.84,0,0,0,1.63-2c.52-.66,1-1.39,1.49-2.12a5.91,5.91,0,0,1,.45-.66,5.41,5.41,0,0,0,.45-.72c.18-.27.28-.52.45-.79a5.56,5.56,0,0,0,.45-.79c.11-.19.23-.33.34-.52a1.11,1.11,0,0,0,.14-.64v-.19a.14.14,0,0,1,.12-.14c.3-.21.41-.4.39-.65a1.51,1.51,0,0,1,.08-.76.47.47,0,0,0-.09-.38,2.73,2.73,0,0,0-.35-.47l-.41-.35a.43.43,0,0,0-.38-.1,1.79,1.79,0,0,1-.74.24,3.38,3.38,0,0,0-.74.3,15.46,15.46,0,0,0-2.21,1.73,27.09,27.09,0,0,0-1.94,2,11.62,11.62,0,0,0-1.76,2.77c-.17.32-.27.71-.43,1a8.69,8.69,0,0,0-.36,1.09Zm-.69-1.72h0c0,.13,0,.13,0,.13l.06-.07Zm.48-.35h0c-.06.07-.06.07-.12.07s0,.07.07.06S126.14,78.77,126.14,78.7Zm.84-1.57c-.06.07-.06.07-.06.13H127ZM127,73.6c-.11.13-.11.2,0,.31a.27.27,0,0,0,0-.31Zm1-1.14h0l.07.12.06-.07c-.06,0-.06-.06-.13-.05Zm.68,1.59c-.13-.06-.2,0-.26-.11s-.07-.06-.14,0a.29.29,0,0,0,0,.31.23.23,0,0,1,.18-.08.23.23,0,0,0,.19-.07Zm.06-2.65h0c-.06.07-.05.13,0,.12v.07c0-.07,0-.07,0-.13Zm.44.79a.11.11,0,0,0,0,.16l0,0,.47.41a.78.78,0,0,1-.09-.37c0-.13,0-.19-.14-.24Zm.16-.33c-.12,0-.18.08-.11.13l.11-.13c.19,0,.19-.08.12-.13Zm.41,1.36c0-.07,0-.13-.07-.12s0,.06-.06.06v.07C129.73,73.22,129.73,73.28,129.79,73.22Zm.6-.42c-.13-.06-.25,0-.31.08l0,.25c.06-.06.12-.13.18-.14s.12-.13.12-.2Zm-.22-.55c-.06.06-.06.06-.06.13l.07.12c0-.06,0-.06.06-.07a.26.26,0,0,1-.07-.19Zm.28-.46c-.13,0-.19,0-.18.07V72l.19,0,.06-.06a.31.31,0,0,0-.06-.13Zm.9-1.64c-.07-.06-.26-.05-.5.1a1.2,1.2,0,0,0,.38,0Zm-.23,1.34H131c.06,0,.06,0,.06,0Zm3.9,7c.07.06.13.05.14.11s.06.06.13.06a.25.25,0,0,0,.05-.19.31.31,0,0,0-.32,0Zm.52,3.74c0,.06,0,.13-.06.13s0,.06.14.12,0-.13-.08-.25Zm.16,2.32c0-.06.06-.07,0,0,.05-.13.05-.19,0-.19s0,.07-.06.07v.06c.07,0,.07,0,.07.06Zm0-1c.07,0,.07,0,.12-.07l-.06-.06Zm.45.1.05-.13-.06-.06c-.06.07-.06.07,0,.19-.06-.06-.06,0,0,0Zm.13,0v.25l.32,0c-.07-.12-.08-.18,0-.25s0-.13-.08-.19-.12.08-.11.14a.29.29,0,0,1-.12.07Zm-.18-8.74-.13-.12-.13-.12c-.12.14-.12.2,0,.32a.38.38,0,0,0,.25-.09Zm.15,6.6.12-.07c-.06,0-.06,0-.06-.06A.25.25,0,0,0,136.24,81.46Zm.27,3.83c.06-.07.06,0,.13,0s.06,0,.12-.07c-.13-.13-.19-.06-.25.07Zm0-3c-.05.07-.05.07-.12.08s0,.06.07.06S136.56,82.39,136.55,82.32Zm.15,2h0l.05-.13c-.06,0-.06,0-.12.07Zm0-10.52c-.2-.11-.25,0-.31.09s.2,0,.31-.1Zm.28,8.48a.12.12,0,0,1,.16,0l0,0c.07.06.13,0,.18-.07s0-.13-.07-.12L137.1,82a.27.27,0,0,1-.19.08Zm.38,3.62.31-.14c-.07-.06-.13-.06-.2-.12a.25.25,0,0,0-.19-.05c-.06.07,0,.2.09.32Zm-.07-4.65h0v.12c.06,0,.06,0,.06-.06s-.07,0-.07-.06Zm.15-1.4c.07.06,0,.06,0,.13s0,.06.07.12c.12-.13.12-.2-.07-.25Zm-.2-7.36c-.19-.11-.32-.1-.37,0a.24.24,0,0,0,.33,0l0,0Zm.61,12.31h0l-.07-.12-.06.07a.24.24,0,0,1,.14,0Zm-.68-10.6h0c-.06,0-.12,0-.12.07s0,.07.07.12.06-.12.06-.19Zm.16-3.22c-.12.14-.12.2,0,.31.18-.14.17-.2,0-.31Zm.53.4c-.06.07-.06.07-.06.13s0,.07.07.06Zm.19-.89c0,.06,0,.06.07.12l.25,0c0-.06,0-.06-.07-.12S138.18,70.42,138,70.5Zm.11.75h0c-.06.07-.06.07-.05.13s.06,0,.06.06a.13.13,0,0,0,0-.17l0,0Zm.44,3.5c0-.07,0-.07,0,0s0-.07,0-.13-.06,0-.13-.06l-.06.07Zm.41-5c-.14-.11-.2-.11-.38,0a.24.24,0,0,0,.33,0l.05-.06Zm-.28-.36c-.13,0-.12.08-.06.13s.06-.06.06-.13.18-.07.12-.13,0,.06-.12.13Zm.44,3.63h0c0-.07,0-.13-.07-.12S139,73,139,73Zm.06-3.66c-.06.07-.06.07-.12.07v.13l.11-.2Z"/></g></g><path id="Path_39" data-name="Path 39" class="cls-3" d="M74.47,107.4a2.33,2.33,0,0,0,1.77.94,1.54,1.54,0,0,0,1.37-.28,1.84,1.84,0,0,0,.61-1.18.67.67,0,0,0,0-.5,1.15,1.15,0,0,0-.34-.42,1.23,1.23,0,0,0-1.11-.48.48.48,0,0,0-.31.08,3.26,3.26,0,0,0-.75.12C74.67,105.81,74.1,106.6,74.47,107.4Z"/><path id="Path_40" data-name="Path 40" class="cls-3" d="M135.56,103.11c.24.8,1.33,1.1,2.33.91H138a1.74,1.74,0,0,0,.55-.16,1.2,1.2,0,0,0,.6-1.59l-.09-.15a2.27,2.27,0,0,0-.41-.47v-.07a1.13,1.13,0,0,0-.92-.43,2.13,2.13,0,0,0-.94,0,1.59,1.59,0,0,0-1.2,1.91S135.55,103.09,135.56,103.11Z"/></g></svg>