<svg id="Layer_1" data-name="Layer 1" xmlns="http://www.w3.org/2000/svg" viewBox="0 0 327.23 144"><defs><style>.cls-1{isolation:isolate;}.cls-2{fill:#10294b;}.cls-3{fill:#bde2e4;}</style></defs><title>logo-shop-ammos</title><g id="Group_236" data-name="Group 236"><g id="Group_168" data-name="Group 168"><g id="A" class="cls-1"><g class="cls-1"><path class="cls-2" d="M75.08,74.76H63.18l-3.09,6.76H55.57l13.75-29.6,13.26,29.6H78Zm-1.71-4-4.12-9.48-4.32,9.48Z"/></g></g><g id="Group_155" data-name="Group 155"><g id="Path_5405" data-name="Path 5405"><path class="cls-3" d="M115.19,62.1c-.29,1.39.88,2.2,1.39,3.3,2.28,4.76,2.06,8.5-1.1,15.69.29.58.74.43,1.18.22,3.52-1.76,6.61-1,9.33,1.75a7.38,7.38,0,0,1,1.54,8.51c-1.47,3.51-4.26,5.2-8.08,5.34-6,.15-11.24-4.18-12.93-10.92a10,10,0,0,0-3.38-5.86,3.78,3.78,0,0,0-4.41-.58,1.54,1.54,0,0,0-1,1.75,4.2,4.2,0,0,0,3.09,2.86c.15.08.22.08.37.15,1.17.58,3.82-.44,3.3,1.69-.44,1.75-2.94.8-4.41.43a5.77,5.77,0,0,1-4.62-4.69,3.68,3.68,0,0,1,1.69-4.18,6.1,6.1,0,0,1,6.9.15,11.62,11.62,0,0,1,4.93,7.4c1.32,5.5,4.84,8.87,9.55,9.31,3.08.29,5.66-.87,6.76-3.81a5.39,5.39,0,0,0-2-6.82,4.78,4.78,0,0,0-3.82-.87c-1.69.37-2.64,1.47-2.35,3.15a2.25,2.25,0,0,0,2.35,2.14,2.39,2.39,0,0,0,.88-.23c1-.3,2-1,2.28.51.22,1.17-.88,1.61-1.83,1.91a4.7,4.7,0,0,1-6.18-4.77,16.06,16.06,0,0,1,.52-3.15c-2-.44-3,3.08-4.34,1.39-1.76-2.12,1.47-2.78,2.43-4.1,2.94-4.18,3.6-8.51,1.32-13.12s-6.17-6.75-11.17-7a5.76,5.76,0,0,0-1.1.07c-1.91.37-3.53,1-4.26,3a1.52,1.52,0,0,0,.84,2,1.27,1.27,0,0,0,.18.06c1.92.73,3.53.07,5-1.25.81-.73,1.54-2.56,2.87-1.24s-.66,2.2-1.33,3.15a4.61,4.61,0,0,1-1.46,1.1c-2.28,1.25-4.63,1.61-6.91.07a3.85,3.85,0,0,1-1.62-4.18,6.09,6.09,0,0,1,5.07-4.76,14.8,14.8,0,0,1,12.35,3.15c.51.51,1,1.61,2.13,1.32Z"/></g><g id="Path_5406" data-name="Path 5406"><path class="cls-3" d="M71.1,119.13c.08-3.08,1.84-6.38,4.85-9.16,2-1.84,3.75-3.89,3.53-6.89-.15-1.62-.59-3.37-2.72-3.23s-2.2,2-2.06,3.59a4.8,4.8,0,0,0,.59,2.06c.59,1,1.1,2.2-.29,2.71s-1.54-1.1-2.06-2a6.83,6.83,0,0,1-.66-2c-.37-2.42.08-4.7,2.21-6.23a4,4,0,0,1,4.84-.08,6.09,6.09,0,0,1,2.72,6c-.29,3.37-2.28,5.79-4.63,8.07-3.89,3.81-4.92,8.65-2.79,12.6C76,127,78.08,128.44,80.87,128c2.58-.37,4.56-1.69,5.22-4.4a4.73,4.73,0,0,0-1-4.4,2.63,2.63,0,0,0-3.65-.64l-.25.2c-1.4,1.1-1.54,2.42-.07,3.67.73.58,1.83,1.24.66,2.2-.81.66-1.84,0-2.65-.59a4.27,4.27,0,0,1-1.25-4.69c.52-2.12,2.14-3.15,4.27-3.44a5.22,5.22,0,0,1,5.58,2.64,7.92,7.92,0,0,1-2.64,10.62,8.77,8.77,0,0,1-11.54-1.83C72,125.58,71.1,122.79,71.1,119.13Z"/></g><g id="Path_5407" data-name="Path 5407"><path class="cls-3" d="M69,24.43a13.94,13.94,0,0,1-5,9.75c-2,1.76-3.52,3.74-3.38,6.59.08,1.69.45,3.45,2.5,3.38,2.35-.08,2.35-2,2.28-3.82a5.69,5.69,0,0,0-.22-1.09c-.29-1.25-2.2-2.94.15-3.52,1.39-.37,1.83,1.83,2.27,3.15.81,2.64.45,5.13-1.83,7a3.83,3.83,0,0,1-5.07,0A6.64,6.64,0,0,1,58.24,39c.67-3.08,2.65-5.14,4.71-7.26,3.82-4,4.7-8.72,2.35-12.68a6,6,0,0,0-6.11-3.23,5.72,5.72,0,0,0-5.29,4.4,4.76,4.76,0,0,0,1,4.4,2.56,2.56,0,0,0,3.57.7,3.75,3.75,0,0,0,.33-.26c1.47-1.1,1.61-2.42.14-3.67-.8-.66-1.83-1.32-.66-2.2.81-.66,1.84-.07,2.65.66a4.24,4.24,0,0,1,1.17,4.69A4.46,4.46,0,0,1,58.24,28a5.36,5.36,0,0,1-5.51-2.06c-2.79-3.44-1.25-9.23,3-11.43C62.14,11.24,69,16.22,69,24.43Z"/></g><g id="Path_5408" data-name="Path 5408"><path class="cls-3" d="M35.4,95.31c1.54-.15,3.67.58,5.8,1.17a7.34,7.34,0,0,0,6.61-1.17c1.18-.88,1.91-2.13,1.11-3.52s-2.43-1-3.68-.51a5.67,5.67,0,0,0-2.79,2.78,1.24,1.24,0,0,1-1.65.6,1,1,0,0,1-.26-.16c-.88-.51-.51-1.25-.15-1.83a8.85,8.85,0,0,1,3-3.15c2.86-1.76,6.09-1.4,7.56.8s.44,5.72-2.5,7.48c-3.3,2-6.76,1.39-10.28.44-5.07-1.39-9.92.22-12.42,4-1.4,2.12-1.69,4.32-.29,6.52a5.77,5.77,0,0,0,6.24,2.93A4.87,4.87,0,0,0,35.47,109c.88-1.61.66-3.15-1.1-4s-3.09-.22-3.6,1.69c-.22.8-.08,2-1.25,1.76-1.47-.3-1.18-1.69-1-2.72a4.14,4.14,0,0,1,3.82-3.44,5.27,5.27,0,0,1,6,4.47,5.34,5.34,0,0,1-1,3.89,8.42,8.42,0,0,1-14.18-9,.75.75,0,0,1,.07-.12C25.91,97.21,29.81,95.45,35.4,95.31Z"/></g><g id="Path_5409" data-name="Path 5409"><path class="cls-3" d="M24.52,61.59c-2.79,2.79-6,2.64-9,.58a7.46,7.46,0,0,1-3.31-8.57,8.62,8.62,0,0,1,7.57-6.45c5.43-.52,11,3.22,13.08,8.72.44,1.17.51,2.42,1,3.52.81,2.34,2.06,4.54,4.63,5.2,1.4.37,3.16.66,3.75-1.17.44-1.47-.74-2.49-2-3.15a7.49,7.49,0,0,0-2.79-.73c-1.1-.08-2.2-.22-2-1.47s1.54-.66,2.35-.81a6,6,0,0,1,3.53.81c2.71,1.39,4,4.32,3,6.67s-4,3.3-6.9,2.13c-3.53-1.32-5.22-4.11-6.1-7.63-1.47-5.79-4.92-9.16-9.62-9.67a6.21,6.21,0,0,0-7.13,4.84c-.52,3.3,1.25,6,4.19,6.67,1.54.29,2.94.22,3.89-1.32a2.3,2.3,0,0,0,0-2.71c-.88-1.47-2.13-1.4-3.45-.74-.74.37-1.47.37-1.69-.58s.44-1.32,1-1.76c2.79-1.76,6.76.51,7.05,4a6.45,6.45,0,0,1-1.1,3.81Z"/></g><g id="Path_5410" data-name="Path 5410"><path class="cls-3" d="M96.52,54.48c-3.67,1.76-6.24,1.39-7.64-.95s-.07-5.72,2.94-7.33c3.24-1.76,6.54-1.25,9.92-.29,5.51,1.54,11-.59,12.93-4.84a5.59,5.59,0,0,0-1.54-7.26,5.47,5.47,0,0,0-7-.36,5.24,5.24,0,0,0-1.69,1.9,2.66,2.66,0,0,0,.9,3.64,2.9,2.9,0,0,0,.57.25c1.69.66,2.86-.07,3.3-1.76.22-.87.08-2.27,1.62-1.68,1.1.43.88,1.61.73,2.56a4.28,4.28,0,0,1-3.74,3.52,4.91,4.91,0,0,1-5.14-2.13c-1.55-2-1.25-4.1,0-6.15A8.37,8.37,0,0,1,117,42.17c-2,3.89-5.37,5.87-9.63,6.45a19.82,19.82,0,0,1-8.3-.95A7.37,7.37,0,0,0,92.12,49,2.85,2.85,0,0,0,91,51.92c.29,1.17,1.32,1.32,2.35,1.32A4.25,4.25,0,0,1,96.52,54.48Z"/></g><g id="Path_5411" data-name="Path 5411"><path class="cls-3" d="M53.69,114.73c-7.35,0-14-5.28-14.92-12-.07-.73-1.1-2,.59-2.27,1.1-.15,1.4.8,1.76,1.9,2.72,8.72,10.73,12.54,18.3,8.66,2.79-1.47,5-3.52,5.88-6.67a3.65,3.65,0,0,0-1-4,1.78,1.78,0,0,0-2.05-.22c-1.55.81-1.77,2.2-1.7,3.74,0,.15.08.22,0,.37-.29,1.39,2,3.66-.44,4-2.13.22-1.83-2.71-2.13-4.25A5.73,5.73,0,0,1,61,98a4.11,4.11,0,0,1,4.85.37,5.9,5.9,0,0,1,2,5.94C67,109.82,60.45,114.65,53.69,114.73Z"/></g><g id="Path_5412" data-name="Path 5412"><path class="cls-3" d="M54.35,29.34a14.45,14.45,0,0,1,4.77,1c.59.22,1.62.36,1.33,1.31a1.48,1.48,0,0,1-1.77,1c-.81-.15-1.61-.52-2.49-.66-5.14-.88-9.48.51-12.72,4.69s-3.52,8.72-1,13.42c.29.51.66,1,1,1.53A4.09,4.09,0,0,0,48,53.16a1.46,1.46,0,0,0,1.1-1.68C49,49.64,47.66,48.84,46.27,48c-1.18-.66-4.11.15-3.16-2.27.66-1.69,2.94-.29,4.26.22,2.57,1,4.26,2.93,4.26,5.79a3.89,3.89,0,0,1-2.94,3.81c-2.79.88-5.07-.22-6.9-2.2-5.88-6.16-3.9-17.15,3.89-21.77A15,15,0,0,1,54.35,29.34Z"/></g><g id="Path_5413" data-name="Path 5413"><path class="cls-3" d="M86.68,29.34c7.13.07,13.45,5.06,14.54,11.65.15.81,1.33,2.35-.44,2.72-1.32.22-1.47-1-1.83-2.2-2.21-7.7-9.33-11.58-16.46-9.09-3.53,1.25-6.25,3.37-7.57,7a3.93,3.93,0,0,0,.74,4.47A1.71,1.71,0,0,0,78,44a3.93,3.93,0,0,0,1.47-4.25c-.15-.73-.37-1.39-.59-2.13s.15-1.39.88-1.75c1.11-.59,1.25.58,1.47,1a9.72,9.72,0,0,1,.81,3.52A6,6,0,0,1,79,46.2a4,4,0,0,1-4.49-.37c-2.13-1.54-2.49-3.81-2-6.23C73.38,34,79.92,29.27,86.68,29.34Z"/></g><g id="Path_5414" data-name="Path 5414"><path class="cls-3" d="M100.57,105.35c-3.75,7.55-10.95,11-18.37,8.72-1-.29-2.94-.07-2.43-1.76s2.06-.73,3.16-.44c9.33,2.2,17.34-4.69,16-13.85a9.12,9.12,0,0,0-3.67-6.52c-1.33-1-3.16-1.4-4.19.36-.88,1.54.22,2.79,1.54,3.67a9.35,9.35,0,0,0,2.65,1.1c1.1.22,2,.58,1.76,1.83s-1.4.66-2.13.58c-3.38-.44-6.47-3.15-6.62-5.93A4.13,4.13,0,0,1,91,88.78c2.71-1.1,6,.15,8.15,3.3,2.8,4.1,3.09,8.58,1.4,13.27Z"/></g><g id="Path_5415" data-name="Path 5415"><path class="cls-3" d="M100.57,105.35h0c1.83.51,2.05-1.39,3.08-2.13a5.24,5.24,0,0,1,5.88-.29,4,4,0,0,1,2.06,4c-.08.81-.37,1.47-1.25,1.54s-1-.52-1-1.25a2.42,2.42,0,0,0-2.18-2.63h-.24a2.38,2.38,0,0,0-2.5,1.76,3.33,3.33,0,0,0,1.32,3.89,5.61,5.61,0,0,0,7.42.22,5.77,5.77,0,0,0,1.54-7.84c-2-3.3-5.07-4.77-8.89-5-1-.07-2.57.37-2.57-1.24.07-1.84,1.84-1.18,2.79-1.1A12.48,12.48,0,0,1,116.51,101a8.13,8.13,0,0,1-.15,9.61,7.79,7.79,0,0,1-8.67,3.22,7.21,7.21,0,0,1-6-6.89C101.52,106.3,101.59,105.5,100.57,105.35Z"/></g><g id="Path_5416" data-name="Path 5416"><path class="cls-3" d="M71.1,24c.15-8.21,7.2-12.9,13.52-9.38a7.8,7.8,0,0,1,3.22,10.53,7.64,7.64,0,0,1-.72,1.12c-1.91,2.35-5.8,2.71-7.86.66a4.59,4.59,0,0,1-.65-6.44l.13-.15c.74-1,2.06-1.91,3.09-.81s-.37,1.54-1,2.2c-1.39,1.32-1,2.71.44,3.66a2.74,2.74,0,0,0,3.86-.6,2.65,2.65,0,0,0,.26-.42c1.61-2.57,1-5-1.1-6.89a6.15,6.15,0,0,0-8.6.44c-2.5,2.64-2.86,6.89-1,11,.44.95,2.05,2.05.22,3s-1.84-1.1-2.36-1.91A12.32,12.32,0,0,1,71.1,24Z"/></g><g id="Path_5417" data-name="Path 5417"><path class="cls-3" d="M24.81,81.89c.22,1.91,1.4,3.67.44,5.64-1.17,2.57-4.56,3.82-6.76,2.42-.66-.44-1.25-.87-.95-1.76s1-.87,1.76-.51c1.4.73,2.57.58,3.45-.8a2.31,2.31,0,0,0-.14-2.72c-1-1.46-2.43-1.54-3.9-1.17a5.62,5.62,0,0,0-4.19,6.38,6.09,6.09,0,0,0,6.54,5.13,10.81,10.81,0,0,0,8.67-5.43c.52-.8.81-2,2.14-1.32,1.61.88.29,1.91-.22,2.72-2.72,4.76-8.6,7.4-13.38,6.08A8.13,8.13,0,0,1,12,89.66,7.27,7.27,0,0,1,15.19,82c2.71-1.91,5.58-2.28,8.52-.37a6,6,0,0,0,1.1.22Z"/></g><g id="Path_5418" data-name="Path 5418"><path class="cls-3" d="M115.19,62.1h0a20.33,20.33,0,0,1-.66-4.25c.22-3.44,4.33-5.49,7-3.74.66.44,1.25.88,1,1.76s-1.11,1-1.77.59c-1.39-.74-2.57-.74-3.45.66a2.43,2.43,0,0,0,.07,2.71c1,1.54,2.43,1.61,3.9,1.17a5.09,5.09,0,0,0,4.26-5.2,5.6,5.6,0,0,0-4.34-5.94c-3.67-1.17-7.71.66-10.65,4.69-.59.81-.81,2.49-2.28,1.61-1.69-1-.15-2.12.37-3.08,2.71-4.54,8.45-7,13.22-5.64A8,8,0,0,1,128,54a7.42,7.42,0,0,1-3.23,8c-2.72,1.9-5.66,2.27-8.52.22C115.92,62.18,115.56,62.18,115.19,62.1Z"/></g><g id="Path_5419" data-name="Path 5419"><path class="cls-3" d="M69,120.37c-.29,3.82-1.47,7.19-5.07,9.17a8.34,8.34,0,0,1-8.74-.3,7.94,7.94,0,0,1-2.72-10.84,5.41,5.41,0,0,1,7.05-2.13c2.43,1,3.24,3.22,2.65,5.79a3.79,3.79,0,0,1-2,2.49c-.67.29-1.47.58-2.06,0s-.22-1.32.44-1.83c1.25-.88,2-1.84,1-3.38a2.6,2.6,0,0,0-2.5-1.24,3.34,3.34,0,0,0-3,2.78c-.81,2.93.36,5,2.86,6.38A6.12,6.12,0,0,0,65,125.21c2.2-3.45,1.83-7,.07-10.41-.52-1-1.62-1.91-.07-2.71,1.61-1,1.76.8,2.2,1.54A12.75,12.75,0,0,1,69,120.37Z"/></g><g id="Path_5420" data-name="Path 5420"><path class="cls-3" d="M34.44,48.76c-5.59-.22-10.22-3.37-11.76-7.77a8.36,8.36,0,0,1,14.62-7.7,5.32,5.32,0,0,1-.73,7.26,5.12,5.12,0,0,1-7-.22A4.11,4.11,0,0,1,28.41,37c.07-.81.37-1.47,1.25-1.47s1,.59,1,1.25a2.41,2.41,0,0,0,2.17,2.63h.25a2.45,2.45,0,0,0,2.5-1.76,3.21,3.21,0,0,0-1.25-3.89,5.61,5.61,0,0,0-7.42-.22,5.71,5.71,0,0,0-1.54,7.84,10.17,10.17,0,0,0,8.89,5c1,.07,2.57-.44,2.57,1.17C36.93,49.64,35,48.1,34.44,48.76Z"/></g><g id="Path_5421" data-name="Path 5421"><path class="cls-3" d="M24.81,81.89h0a50.16,50.16,0,0,1-2.5-7,14.36,14.36,0,0,1,1.55-10.11c.51-.95,1.83-1.83.73-3.15l-.07.14c1.91,1.1,2.2-1.24,3.45-1.54.51-.14,1-.87,1.54-.14.52.58.81,1.24.15,1.9a3.58,3.58,0,0,0-.51.52c-7.06,8-6.25,15,2.57,21-.08.73-.15,1.47-.22,2.13C28.78,85.05,27.24,82.63,24.81,81.89Z"/></g><g id="Path_5422" data-name="Path 5422"><path class="cls-3" d="M12.47,108.43c-1.33-.3-3.46.22-4.34-1.54s.29-3.3,1.18-4.77c2-3.3,5.8-5.05,8.67-3.81a4.09,4.09,0,0,1,2.71,5C20.11,106.23,16.8,108.35,12.47,108.43Zm.66-2.42c2.35-.37,4.77-.88,5.14-3.74.22-1.54-1.1-2-2.5-1.91a5.31,5.31,0,0,0-4.85,4.26C10.48,106.45,12.25,105.79,13.13,106Z"/></g><g id="Path_5423" data-name="Path 5423"><path class="cls-3" d="M127.6,108.5c-2.94-.22-5.51-.81-7.27-3.15-1.17-1.54-1.69-3.3-.66-5.06a4.76,4.76,0,0,1,4.56-2.42c3.45.15,7.56,4,7.79,7.55S129.15,107.69,127.6,108.5Zm-.36-2.49c.58-.29,1.91.44,2-1.17s-3.16-4.48-5.14-4.48c-1.39,0-2.57.44-2.27,2.06.44,2.86,2.71,3.37,5.36,3.59Z"/></g><g id="Path_5424" data-name="Path 5424"><path class="cls-3" d="M125.62,67.16h.59c3,.07,7.71,2.71,7.79,4.55.07,2.19-1.91,3-3.38,3.88-3.31,2-7.42,1.62-9.48-.66a3.9,3.9,0,0,1-.88-4.39C121.21,68.11,123.49,67.53,125.62,67.16Zm.37,2.42c-1.69.22-3.53.37-3.45,2.49s1.91,2.35,3.52,2.27c1.84-.07,4.49-.51,4.49-2.27,0-2.12-2.72-2.12-4.56-2.49Z"/></g><g id="Path_5425" data-name="Path 5425"><path class="cls-3" d="M124,46.12a4.44,4.44,0,0,1-4.83-4c0-.13,0-.25,0-.37.07-3.3,3.6-6.16,7.93-6,1.91.07,4.85-.74,5,2.71S127.75,46.05,124,46.12Zm3-8.21c-2.35.59-5,.81-5.29,4-.15,1.54,1.17,1.91,2.57,1.84,2.06-.08,5.22-3,5-4.62-.16-1.39-1.4-1-2.28-1.17Z"/></g><g id="Path_5426" data-name="Path 5426"><path class="cls-3" d="M12.47,35.57c2.71.15,5.07.66,6.83,2.64,1.4,1.54,2.13,3.3,1.18,5.35-1.11,2.2-3,2.71-5.22,2.49-3.23-.29-6.91-4.11-7.2-7.4C7.69,35,11,36.45,12.47,35.57Zm5.88,6.16c.07-1.83-2.28-3.52-5.22-3.59-.88,0-2.13-.44-2.43,1s3.16,4.62,5.07,4.69C17.17,43.71,18.2,43.27,18.35,41.73Z"/></g><g id="Path_5427" data-name="Path 5427"><path class="cls-3" d="M70,128.29c3,0,5.07,2.71,4.85,6.38-.22,3.22-3.16,7.47-5.07,7.33s-4.48-4.4-4.7-7.33C64.93,130.93,67,128.29,70,128.29Zm2.64,6.08c-.14-1.83-.51-3.52-2.42-3.66-2.2-.08-2.72,1.76-2.65,3.52s.74,4.39,2.36,4.39c2,.08,2.27-2.56,2.71-4.25Z"/></g><g id="Path_5428" data-name="Path 5428"><path class="cls-3" d="M103.51,22.38c0,3.89-2.21,7.33-5.3,7.84-2.42.44-4.33-.37-5.14-2.86-1-3.08.67-6.37,4.27-8.35C101.52,16.51,103.43,17.61,103.51,22.38Zm-2.36.44c-.22-.74.37-2.49-1.25-2.27A5.35,5.35,0,0,0,95.28,25c-.3,1.46.14,3,1.83,2.86C99.9,27.65,100.64,25.31,101.15,22.82Z"/></g><g id="Path_5429" data-name="Path 5429"><path class="cls-3" d="M14,76.84c-3.23,0-8.08-3-8-4.84s4.85-4.77,8.08-4.77c3.46,0,6.18,2.28,6,5.06C20,74.86,17.17,76.91,14,76.84Zm.15-2.35c1.39-.29,3.3-.29,3.3-2.42s-1.76-2.49-3.38-2.49c-2,0-4.77.44-4.77,2.34S12,74.27,14.16,74.49Z"/></g><g id="Path_5430" data-name="Path 5430"><path class="cls-3" d="M36.64,22c.15-1.1-.14-3.15,1.55-4s3.3.22,4.77,1.1a8.72,8.72,0,0,1,3.6,3.52c1.47,2.71.88,5.94-1.39,7.11-2.94,1.54-5.22.29-7-2A8.39,8.39,0,0,1,36.64,22Zm8.16,3.45c0-2.06-2.72-5.06-4.56-5-1.47.07-1.32,1.25-1.25,2.13.22,2.56,1,4.91,3.9,5.34,1.39.16,2-1.09,1.91-2.48Z"/></g><g id="Path_5431" data-name="Path 5431"><path class="cls-3" d="M103.51,121.91c-.45,1.54.44,4.25-2.65,4.4-3.53.22-8-4.1-8.08-7.62,0-2.79,1.17-4.69,4.26-4.91C100.49,113.63,103.43,117.15,103.51,121.91Zm-2.36-.44c-.36-2.42-1-4.83-4-5.27-1.47-.22-1.91,1.1-1.91,2.49.07,2.12,2.71,5,4.55,5,1.47-.15,1.1-1.32,1.32-2.2Z"/></g><g id="Path_5432" data-name="Path 5432"><path class="cls-3" d="M36.57,122c.07-4.33,2.42-7.77,5.43-8.21,2.28-.29,4.12.44,5,2.71,1.18,2.93-.51,6.38-4,8.5-1.47.88-3.16,1.91-4.78,1S36.72,123.23,36.57,122Zm2.28-.52c.29.74-.22,2,1.24,2.13,1.77.15,4.63-2.79,4.71-4.91.07-1.32-.37-2.71-1.84-2.57-3,.37-3.6,2.86-4.11,5.36Z"/></g><g id="Path_5433" data-name="Path 5433"><path class="cls-3" d="M31.35,85.49c.07-.74.15-1.47.22-2.13,2.57.73,5.14,1.69,7.86.66a4,4,0,0,0,2.94-2.93,1.63,1.63,0,0,0-1.1-1.76c-1.47-.81-2.79-.22-4.11.51a1.05,1.05,0,0,1-.3.22c-1.24.52-2.13,3.59-3.6,1.62C32,80,34.59,78.74,36,77.79a6,6,0,0,1,6.83-.37,4,4,0,0,1,1.84,4.1c-.44,2.79-2.35,4.26-4.85,4.92A11.07,11.07,0,0,1,31.35,85.49Z"/></g><g id="Path_5434" data-name="Path 5434"><path class="cls-3" d="M65.15,9.55c.22-3.08,3.16-7.62,4.92-7.55,2.06.07,5,5.06,4.85,8.28-.15,3.45-2.13,5.57-5.07,5.43S65,13.14,65.15,9.55Zm7.5.15c-.37-1.76-.66-4.4-2.72-4.33-1.69,0-2.35,2.57-2.42,4.4s.44,3.67,2.64,3.59c2-.07,2.35-1.83,2.49-3.66Z"/></g></g></g><g id="ammos" class="cls-1"><g class="cls-1"><path class="cls-2" d="M175.83,85.23H174V81.91H174a7,7,0,0,1-1.3,1.58,8.61,8.61,0,0,1-1.7,1.18,8.21,8.21,0,0,1-2,.72,9.54,9.54,0,0,1-5.86-.52,8.52,8.52,0,0,1-2.88-2.08,9.4,9.4,0,0,1-1.82-3.1,11.14,11.14,0,0,1-.64-3.82,10.79,10.79,0,0,1,.64-3.78,9.22,9.22,0,0,1,1.8-3,8,8,0,0,1,2.84-2,9.87,9.87,0,0,1,7.82.18A7.26,7.26,0,0,1,174,70H174v-3.2h1.8ZM166.75,68a6.43,6.43,0,0,0-2.92.66,7.08,7.08,0,0,0-2.26,1.76,8.1,8.1,0,0,0-1.46,2.5,8.2,8.2,0,0,0-.52,2.92,9.53,9.53,0,0,0,.5,3.06,7.82,7.82,0,0,0,1.46,2.58,7.3,7.3,0,0,0,2.3,1.78,6.73,6.73,0,0,0,3,.66,7.08,7.08,0,0,0,3.12-.66,6.52,6.52,0,0,0,2.28-1.8,8.14,8.14,0,0,0,1.4-2.64,10.37,10.37,0,0,0,.48-3.18,8.45,8.45,0,0,0-.52-3,7,7,0,0,0-1.5-2.42,7.21,7.21,0,0,0-2.34-1.62A7.46,7.46,0,0,0,166.75,68Z"/><path class="cls-2" d="M195.51,69.07h.08a4.64,4.64,0,0,1,1.9-2,5.42,5.42,0,0,1,2.74-.72,5.78,5.78,0,0,1,3.14.84,5.37,5.37,0,0,1,2.06,2.52,5.42,5.42,0,0,1,2.18-2.52,6.21,6.21,0,0,1,3.22-.84,6.32,6.32,0,0,1,2.9.56,4.38,4.38,0,0,1,1.74,1.56,6.08,6.08,0,0,1,.86,2.32,16.88,16.88,0,0,1,.22,2.84v11.6h-1.8V73.39a16.47,16.47,0,0,0-.12-2,4.53,4.53,0,0,0-.54-1.7,3,3,0,0,0-1.2-1.18,4.2,4.2,0,0,0-2.1-.44A4.11,4.11,0,0,0,207,70.11a6,6,0,0,0-.74,2.1,14.52,14.52,0,0,0-.2,2.38V85.23h-1.8V73.83a16.41,16.41,0,0,0-.14-2.12,5.34,5.34,0,0,0-.58-1.86,3.42,3.42,0,0,0-1.24-1.32,4,4,0,0,0-2.16-.5,3.74,3.74,0,0,0-2.34.68,4.53,4.53,0,0,0-1.4,1.72,7.86,7.86,0,0,0-.68,2.28,16.34,16.34,0,0,0-.18,2.36V85.23h-1.8V66.75h1.8Z"/><path class="cls-2" d="M236.51,69.07h.08a4.64,4.64,0,0,1,1.9-2,5.42,5.42,0,0,1,2.74-.72,5.78,5.78,0,0,1,3.14.84,5.37,5.37,0,0,1,2.06,2.52,5.42,5.42,0,0,1,2.18-2.52,6.21,6.21,0,0,1,3.22-.84,6.32,6.32,0,0,1,2.9.56,4.38,4.38,0,0,1,1.74,1.56,6.08,6.08,0,0,1,.86,2.32,16.88,16.88,0,0,1,.22,2.84v11.6h-1.8V73.39a16.47,16.47,0,0,0-.12-2,4.53,4.53,0,0,0-.54-1.7,3,3,0,0,0-1.2-1.18,4.2,4.2,0,0,0-2.1-.44A4.11,4.11,0,0,0,248,70.11a6,6,0,0,0-.74,2.1,14.52,14.52,0,0,0-.2,2.38V85.23h-1.8V73.83a16.41,16.41,0,0,0-.14-2.12,5.34,5.34,0,0,0-.58-1.86,3.42,3.42,0,0,0-1.24-1.32,4,4,0,0,0-2.16-.5,3.74,3.74,0,0,0-2.34.68,4.53,4.53,0,0,0-1.4,1.72,7.86,7.86,0,0,0-.68,2.28,16.34,16.34,0,0,0-.18,2.36V85.23h-1.8V66.75h1.8Z"/><path class="cls-2" d="M283.51,66.35a9.74,9.74,0,0,1,3.82.74,9.33,9.33,0,0,1,5.14,5.08,9.76,9.76,0,0,1-2.06,10.7,9.75,9.75,0,0,1-3.08,2,9.92,9.92,0,0,1-3.82.74,9.38,9.38,0,0,1-3.72-.76,9.7,9.7,0,0,1-3.06-2.08,10.05,10.05,0,0,1-2.06-3.06,9.11,9.11,0,0,1-.76-3.7,9.63,9.63,0,0,1,.74-3.76,9.57,9.57,0,0,1,5.1-5.16A9.33,9.33,0,0,1,283.51,66.35ZM283.39,68a7.46,7.46,0,0,0-5.5,2.38,8.23,8.23,0,0,0-1.6,2.54,8.08,8.08,0,0,0-.58,3.08,7.89,7.89,0,0,0,.58,3,8.22,8.22,0,0,0,1.62,2.54,7.88,7.88,0,0,0,2.44,1.74,7.29,7.29,0,0,0,3,.64,8.34,8.34,0,0,0,3.16-.6,7.6,7.6,0,0,0,2.56-1.68,8,8,0,0,0,1.7-2.52,7.86,7.86,0,0,0,.62-3.12,8.09,8.09,0,0,0-.62-3.18,7.82,7.82,0,0,0-1.7-2.54,7.71,7.71,0,0,0-2.54-1.68A8.26,8.26,0,0,0,283.39,68Z"/><path class="cls-2" d="M317.35,70.11a3.51,3.51,0,0,0-1.3-1.52,3.42,3.42,0,0,0-1.94-.56,3.22,3.22,0,0,0-2.16.84,3.41,3.41,0,0,0-.72.92,2.53,2.53,0,0,0,.38,2.86,6,6,0,0,0,1.66,1.06c.67.29,1.39.57,2.18.84a9.9,9.9,0,0,1,2.18,1,5.34,5.34,0,0,1,1.66,1.62,4.79,4.79,0,0,1,.66,2.68,6,6,0,0,1-.46,2.34A5.46,5.46,0,0,1,318.21,84a6.08,6.08,0,0,1-1.9,1.18,6.33,6.33,0,0,1-2.32.42,6.63,6.63,0,0,1-4.06-1.3,6.13,6.13,0,0,1-2.3-3.58l1.76-.56A6.11,6.11,0,0,0,311,82.91a4.19,4.19,0,0,0,3,1,4,4,0,0,0,4.16-4.16,3.19,3.19,0,0,0-.3-1.44,2.93,2.93,0,0,0-.8-1,4.72,4.72,0,0,0-1.16-.68c-.44-.19-.89-.36-1.34-.52-.64-.24-1.28-.5-1.92-.76a8.62,8.62,0,0,1-1.74-1,4.8,4.8,0,0,1-1.26-1.4,3.87,3.87,0,0,1-.48-2,4.24,4.24,0,0,1,.42-1.9,4.77,4.77,0,0,1,2.7-2.44,5.39,5.39,0,0,1,1.92-.34,5.22,5.22,0,0,1,2.76.84,4.91,4.91,0,0,1,2,2.12Z"/></g></g></g></svg>