<svg id="Layer_1" data-name="Layer 1" xmlns="http://www.w3.org/2000/svg" viewBox="0 0 214.12 212.47"><defs><style>.cls-1{fill:#c5b893;}</style></defs><title>patch-1</title><path id="Path_22" data-name="Path 22" class="cls-1" d="M22.05,74.24a2,2,0,0,1,.65-1.08c.22-.43,2.59-1.29,2.59,1.52,0,2.37-3.24,7.33-3.67,7.12-3.23,1.94-3.45,1.07-3.45-2s4.32-4.53,3.88-5.61Zm-.64-5.61C19.47,66.48,19,63,20.54,61.3c1.73-2.16,7.77-.22,7.56,2.59-.22,3.45.43,5.82-3.67,5.82C21.84,69.5,22.7,69.93,21.41,68.63Zm9.92,2.8c-1.72.44-3.67,5.83,1.08,5.83,3.45,0,4.1-4.75,1.3-5.83-2.8-1.29-1.95,0-2.38,0Zm7.12-1.72c0,.86,2.59,2.16,4.32.21,1.51-1.72,2.59-3.23,1.94-5.82C44.28,62.16,37.81,64.1,38.45,69.71Zm11.22,16c-15.32,0,5.4-14,5.4-3.24C55.07,85,51.61,85.68,49.67,85.68Zm-23.3-3.89c-.43,2.38-2.59,3.67,1.3,5.83,1.51.86,5.82-1.72-.65-6-.22,0-.65,0-.65.22ZM35,92.58c1.3,1.3.44,1.08,3,1.08,4.1,0,3.46-2.37,3.67-5.82.22-2.59-5.82-4.75-7.55-2.59C32.63,87,32.85,90.43,35,92.58Zm-8.84,9.71c-15.32,0,5.39-14,5.39-3.23C31.55,101.43,27.88,102.29,26.16,102.29ZM18.82,89.78h0c-.22,1.08-4.53.65-5.83,3.67-1.07,2.59-1.29,3.66,2.38,3.23.21.22,5.18-3,6.26-5.17,1.07-2.59-1.3-2.8-1.73-2.38-.65.22-1.08.43-1.08.65ZM7,88.92c0,.86,2.59,2.15,4.31.21,1.51-1.72,2.59-3.23,2-5.82C12.77,81.36,6.31,83.31,7,88.92ZM37.16,103.8c0,.87,2.59,2.16,4.31.22,1.51-1.73,2.59-3.24,1.94-5.83C43,96.25,36.51,98.19,37.16,103.8ZM66.5,90.64c-10.57,11-6.25-13.59,1.51-6C69.74,86.11,67.8,89.13,66.5,90.64ZM49,98.41c1.3,1.29.43,1.08,3,1.08,4.1,0,3.45-2.37,3.67-5.83.22-2.59-5.83-4.75-7.55-2.59C46.86,92.8,47.08,96.47,49,98.41Zm2.16,11.43c0,.87,2.59,2.16,4.31.22,1.51-1.72,2.59-3.24,1.95-5.83C57,102.29,50.54,104,51.18,109.84ZM60,74.46c-1.73.43-3.67,5.83,1.08,5.83,3.45,0,4.1-4.75,1.29-5.83-2.8-1.3-1.94-.22-2.37,0ZM10.62,123.65c-5.18,4.53-6-5.82-6-6.47C4.58,111.35,19,116.1,10.62,123.65Zm9.71-1.72h0c.22,1.08-3.88,2.59-3.88,5.82,0,2.8.21,3.89,3.45,1.95.21.21,3.67-5,3.67-7.12,0-3-2.38-2-2.59-1.51-.43,0-.65.43-.65.86Zm-.65-5.83c1.3,1.3.44,1.08,3,1.08,4.1,0,3.45-2.37,3.66-5.82.22-2.59-5.82-4.75-7.55-2.59C17.31,110.49,17.53,113.94,19.68,116.1Zm9.71,2.8c-1.72.43-3.66,5.83,1.08,5.83,3.46,0,4.1-4.75,1.3-5.83-2.59-1.29-1.94,0-2.37,0Zm7.12-1.72c0,.86,2.59,2.15,4.32.21,1.51-1.72,2.59-3.23,1.94-5.82C42.56,109.62,35.87,111.57,36.51,117.18Zm11.44,16c-15.32,0,5.39-14,5.39-3.23C53.34,132.5,49.68,133.14,48,133.14Zm-23.52-3.88h0c0-.22.43-.22.65-.22,6.47,4.32,2.16,6.9.65,6-3.89-2.15-1.51-3.45-1.3-5.82Zm8.63,10.79c1.3,1.29.43,1.08,3,1.08,4.1,0,3.45-2.38,3.67-5.83.22-2.59-5.83-4.75-7.55-2.59-1.3,1.73-1.08,5.18.86,7.34Zm-8.84,9.71h0c1.94,0,5.39-.65,5.39-3.24C29.61,135.73,9.11,149.76,24.22,149.76ZM17.1,137.24c0-.21.43-.43,1.08-.86.43-.22,2.8-.22,1.72,2.37-.86,2.16-6,5.4-6.26,5.18-3.66.43-3.45-.43-2.37-3.23,1.08-2.59,5.61-2.38,5.83-3.46ZM5,136.38c-.64-5.61,5.83-7.55,6.26-5.61.65,2.37-.43,4.1-1.94,5.83C7.6,138.54,5.23,137.24,5,136.38Zm30.21,14.89c0,.86,2.59,2.16,4.31.21,1.51-1.72,2.59-3.23,1.95-5.82C41.26,143.72,34.58,145.66,35.22,151.27Zm29.34-13.16c-10.57,11-6.26-13.59,1.51-6C67.8,133.58,65.85,136.81,64.56,138.11Zm-17.26,8c1.29,1.3.43,1.08,3,1.08,4.1,0,3.45-2.37,3.67-5.83.21-2.58-5.83-4.74-7.55-2.58-1.51,1.72-1.3,5.17.86,7.33Zm2.16,11.22c0,.87,2.59,2.16,4.31.22,1.51-1.73,2.59-3.24,1.94-5.83C55.28,149.76,48.81,151.7,49.46,157.31Zm8.63-35.38c-1.73.43-3.67,5.82,1.08,5.82,3.45,0,4.1-4.74,1.29-5.82-2.59-1.3-1.94-.22-2.37,0ZM0,101.43c-.64-5.61,5.83-7.55,6.26-5.61.65,2.37-.43,4.1-1.94,5.83a2.75,2.75,0,0,1-3.88.26A2.51,2.51,0,0,1,0,101.43Zm11,9.93c.64.43,3.23-.65,3-3.24-.22-2.16-.87-4.1-3-5.18C9.1,102.08,6.3,108.12,11.05,111.36Zm179.73-10.79c5.18,4.53,6-5.83,6-6.48C196.6,88.27,182.36,93,190.78,100.57Zm-9.71-1.73h0c-.22,1.08,3.88,2.59,3.88,5.83,0,2.8-.21,3.88-3.45,1.94-.22,0-3.67-5.18-3.67-7.34,0-3,2.38-1.94,2.59-1.51.43.44.65.65.65,1.08Zm.65-5.83c-1.3,1.3-.44,1.08-3,1.08-4.1,0-3.45-2.37-3.66-5.82-.22-2.59,5.82-4.75,7.55-2.59C184.09,87.41,183.66,90.86,181.72,93Zm-9.93,3c1.73.43,3.67,5.82-1.08,5.82-3.45,0-4.1-4.75-1.29-5.82,2.8-1.3,1.94-.22,2.37,0Zm-7.12-1.73c0,.86-2.59,2.16-4.31.22-1.51-1.73-2.59-3.24-2-5.83C158.85,86.76,165.31,88.48,164.67,94.31Zm-11.22,16c15.32,0-5.39-14-5.39-3.24C148.06,109.41,151.51,110.28,153.45,110.28ZM177,106.39h0c0-.21-.43-.21-.65-.21-6.47,4.31-2.16,6.9-.86,6,3.88-2.38,1.73-3.67,1.51-5.83ZM168.12,117c-1.29,1.29-.43,1.07-3,1.07-4.1,0-3.45-2.37-3.66-5.82-.22-2.59,5.82-4.75,7.55-2.59C170.5,111.36,170.28,114.81,168.12,117Zm8.85,9.71h0c-1.94,0-5.39-.65-5.39-3.24C171.58,112.65,192.29,126.68,177,126.68Zm7.34-12.52c0-.21-.44-.43-1.08-.86-.44-.22-2.8-.22-1.73,2.37.86,2.16,6,5.4,6.26,5.18,3.67.43,3.45-.43,2.37-3.24-1.29-2.59-5.61-2.37-5.83-3.45Zm11.86-.86h0c.65-5.61-5.82-7.55-6.25-5.61-.65,2.37.43,4.1,1.94,5.82C193.58,115.46,196.17,114.16,196.17,113.3ZM166,128.19c0,.86-2.59,2.15-4.32.21-1.51-1.72-2.59-3.23-1.94-5.82C160.14,120.63,166.61,122.58,166,128.19ZM136.84,115c10.57,11,6.25-13.59-1.51-6C133.6,110.49,135.54,113.73,136.84,115Zm17.26,8c-1.29,1.29-.43,1.08-3,1.08-4.1,0-3.45-2.37-3.67-5.83-.21-2.59,5.83-4.74,7.56-2.59C156.48,117.4,156.05,120.85,154.1,123Zm-2.16,11.22c0,.86-2.58,2.16-4.31.22-1.51-1.73-2.59-3.24-1.94-5.83C146.12,126.68,152.59,128.62,151.94,134.23ZM143.1,98.84c1.73.43,3.67,5.83-1.08,5.83-3.45,0-4.1-4.75-1.29-5.83,2.8-1.29,1.94-.21,2.37,0ZM192.72,148c5.18,4.53,6-5.83,6-6.48C198.55,135.74,184.31,140.48,192.72,148Zm-9.92-1.73h0c-.22,1.08,3.88,2.59,3.88,5.83,0,2.8-.22,3.88-3.45,1.94-.22.21-3.67-5-3.67-7.12,0-3,2.37-1.94,2.59-1.51.43.21.86.65.65.86Zm.86-5.83c-1.3,1.3-.43,1.08-3,1.08-4.1,0-3.45-2.37-3.67-5.82-.22-2.59,5.83-4.75,7.55-2.59,1.3,1.72,1.08,5.18-.86,7.33Zm-9.93,3c1.73.44,3.67,5.83-1.07,5.83-3.46,0-4.11-4.75-1.3-5.83,2.8-1.29,1.94-.21,2.37,0Zm-7.12-1.72c0,.86-2.59,2.16-4.31.21-1.51-1.72-2.59-3.23-1.94-5.82C160.79,134.23,167.26,136,166.61,141.78Zm-11.43,16c15.32,0-5.4-14-5.4-3.24C149.78,156.88,153.45,157.75,155.18,157.75Zm23.52-3.89h0c0-.21-.44-.21-.65-.21-6.47,4.31-2.16,6.9-.86,6,4.1-2.38,1.94-3.67,1.51-5.83Zm-8.63,10.57c-1.3,1.3-.44,1.08-3,1.08-4.11,0-3.46-2.37-3.67-5.82-.22-2.59,5.82-4.75,7.55-2.59,1.51,1.72,1.08,5.18-.86,7.33Zm8.84,9.71h0c-1.94,0-5.39-.64-5.39-3.23C173.52,160.12,194.23,174.14,178.91,174.14Zm7.34-12.3c0-.21-.43-.43-1.08-.86-.43-.21-2.8-.21-1.73,2.37.87,2.16,6,5.4,6.26,5.18,3.67.43,3.45-.43,2.37-3.23-1.29-2.8-5.82-2.38-5.82-3.46Zm11.86-1.07h0c.65-5.61-5.82-7.56-6.25-5.61-.65,2.37.43,4.1,1.94,5.82C195.53,162.92,197.9,161.63,198.11,160.77Zm-30.2,14.88c0,.87-2.59,2.16-4.32.22-1.51-1.73-2.59-3.24-1.94-5.83C162.08,168.1,168.55,170,167.91,175.65Zm-29.35-13.16c10.58,11,6.26-13.59-1.51-6C135.33,158.18,137.27,161.2,138.56,162.49Zm17.48,8c-1.29,1.3-.43,1.08-3,1.08-4.1,0-3.45-2.37-3.67-5.82-.21-2.59,5.83-4.75,7.55-2.59,1.3,1.72,1.08,5.18-.86,7.33Zm-2.16,11.22c0,.87-2.59,2.16-4.31.22-1.51-1.73-2.59-3.24-1.94-5.83C147.84,174.14,154.31,176.08,153.88,181.69ZM145,146.31c1.73.43,3.67,5.83-1.08,5.83-3.45,0-4.1-4.75-1.29-5.83,2.8-1.3,1.94,0,2.37,0Zm58-20.5c.65-5.61-5.82-7.55-6.25-5.61-.65,2.37.43,4.1,1.94,5.83C200.49,128,203.08,126.67,203.08,125.81Zm-10.79,9.92h0c4.75-3.23,1.73-9.49,0-8.41a6.07,6.07,0,0,0-3,5.18C188.84,135.3,191.65,136.17,192.29,135.73Zm-52.86-120c5.18,4.53,6-5.83,6-6.47C145.47,3.69,131,8.22,139.43,15.77Zm-9.71-1.72h0c-.22,1.07,3.88,2.58,3.88,5.82,0,2.8-.21,3.89-3.45,1.94-.21.22-3.66-5-3.66-7.12,0-3,2.37-1.94,2.58-1.51a1.17,1.17,0,0,1,.65.87Zm.65-5.83c-1.3,1.29-.43,1.08-3,1.08-4.1,0-3.45-2.38-3.67-5.83-.22-2.59,5.83-4.75,7.55-2.59C132.74,2.61,132.53,6.28,130.37,8.22Zm-9.71,3c1.72.43,3.67,5.83-1.08,5.83-3.45,0-4.1-4.75-1.3-5.83,2.59-1.3,2-.22,2.38,0Zm-7.12-1.73c0,.86-2.59,2.16-4.32.21-1.51-1.72-2.59-3.23-1.94-5.82C107.5,2,114.18,3.9,113.54,9.51Zm-11.44,16c15.32,0-5.39-14-5.39-3.24C96.71,24.83,100.38,25.48,102.1,25.48Zm23.52-3.88h0c0-.22-.43-.22-.65-.22-6.47,4.32-2.15,6.9-.64,6,3.88-2.37,1.51-3.67,1.29-5.82ZM117,32.17c-1.29,1.29-.43,1.08-3,1.08-4.1,0-3.45-2.38-3.67-5.83-.21-2.59,5.83-4.75,7.55-2.59C119.15,26.56,118.93,30.23,117,32.17Zm8.85,9.71h0c-1.94,0-5.4-.65-5.4-3.24C120.44,28.07,140.94,41.88,125.84,41.88ZM133,29.58c0-.22-.44-.43-1.08-.86-.43-.22-2.8-.22-1.73,2.37.87,2.16,6,5.39,6.26,5.18,3.67.43,3.45-.43,2.37-3.24s-5.61-2.37-5.82-3.45ZM145,28.72h0c.65-5.61-5.83-7.56-6.26-5.61-.64,2.37.44,4.1,1.95,5.82a2.89,2.89,0,0,0,4.1,0ZM114.83,43.39c0,.86-2.58,2.16-4.31.22-1.51-1.73-2.59-3.24-1.94-5.83C108.79,36.05,115.48,37.78,114.83,43.39ZM85.49,30.23c10.57,11,6.26-13.6-1.51-6C82.25,25.91,84.2,28.93,85.49,30.23Zm17.26,8c-1.29,1.29-.43,1.08-3,1.08-4.1,0-3.45-2.38-3.67-5.83-.21-2.59,5.83-4.75,7.55-2.59C105.12,32.6,104.91,36.27,102.75,38.21Zm-2.16,11.22c0,.86-2.59,2.16-4.31.22-1.51-1.73-2.59-3.24-1.94-5.83C94.77,41.88,101.24,43.82,100.59,49.43ZM92,14.05c1.73.43,3.67,5.82-1.08,5.82-3.45,0-4.1-4.75-1.29-5.83,2.59-1.29,1.94,0,2.37,0Zm49.41,49.19c5.18,4.53,6-5.83,6-6.47C147.2,51.16,133,55.69,141.37,63.24Zm-9.06-7.55c-1.29,1.29-.43,1.08-3,1.08-4.1,0-3.45-2.38-3.67-5.83-.21-2.59,5.83-4.75,7.55-2.59C134.68,50.08,134.25,53.75,132.31,55.69Zm-9.93,3c1.73.43,3.67,5.83-1.07,5.83-3.46,0-4.1-4.75-1.3-5.83,2.8-1.3,1.94,0,2.37,0ZM115.26,57c0,.87-2.58,2.16-4.31.22-1.51-1.73-2.59-3.24-1.94-5.83C109.44,49.43,115.91,51.37,115.26,57ZM93.69,61.51c-.43-.22.43-1.3-2.59,0-2.59,1.08-2.16,5.83,1.29,5.83,5,0,3-5.4,1.3-5.83Zm58-20.5c.65-5.61-5.83-7.55-6.26-5.61-.64,2.37.43,4.1,1.94,5.82C149.14,43.17,151.73,41.87,151.73,41ZM140.94,51.16h0c4.75-3.24,1.73-9.5,0-8.42a6.05,6.05,0,0,0-3,5.18C137.7,50.51,140.29,51.59,140.94,51.16ZM107.71,204.57c-5.82,3.45,3.67,7.55,4.1,7.77C117.42,214.06,117.64,199,107.71,204.57Zm4.75-8.63c-.86-.65-3.67,2.8-6.69,1.94-2.8-.87-3.67-1.51-.65-3.89-.21-.21,5.83-1.94,8-1.07,2.8.86,1.08,2.8.64,3-.64,0-1.08.21-1.29,0Zm5.39,2.59c-.86-1.73-.86-.65,0-3.24,1.3-3.89,3.46-2.59,6.69-1.51,2.59.65,2.59,6.9,0,8-2.15.65-5.39-.86-6.69-3.24Zm.22-10.36c-.86,1.51-6.69,1.72-5.18-2.8,1.08-3.24,5.83-2.37,6,.43.22,3-.64,1.94-.86,2.37Zm3.88-6.26c-.64-.21-1.29-3,1.08-4.31a5.56,5.56,0,0,1,6,0C130.8,178.68,127.13,184.29,122,181.91ZM110.3,166.16c-4.74,14.46,14.89-.86,4.75-4.1C112.68,161.2,110.74,164.43,110.3,166.16Zm-3.66,23.52c-2.16-.43-4.1,1.29-5.18-3.24-.43-1.72,3.45-5,5.39,2.59a.41.41,0,0,1-.08.58l-.14.07ZM99.3,178c-.86-1.73-.86-.65,0-3.24,1.29-3.88,3.45-2.59,6.69-1.51,2.59.65,2.59,6.9,0,8-2.16.87-5.4-.64-6.69-3.23Zm-12.08,5.39c-4.75,14.46,14.88-.86,4.74-4.1C89.59,178.46,87.86,181.69,87.22,183.42Zm9.49,10.79c-1.08-.22-2.16,4.1-5.39,4.53-2.8.22-3.89.22-2.16-3.24-.22-.21,4.53-4.1,6.9-4.31,2.8-.22,2.16,2.16,1.72,2.37-.43.43-.64.65-1.08.65Zm-2.8,11.65c-.65-.22-1.3-3,1.08-4.32a5.6,5.6,0,0,1,6,0C103,202.62,99.09,208.23,93.91,205.86Zm-4.75-33.44c-.65-.22-1.29-3,1.08-4.32a5.56,5.56,0,0,1,6,0C98.22,169.18,94.34,174.79,89.16,172.42ZM111,148.9c1.73-.87,5.18-1.73,6.26.43C121.74,159,97.15,155.37,111,148.9Zm-13,14c-.86-1.72-.86-.64,0-3.23,1.3-3.89,3.46-2.59,6.69-1.51,2.59.64,2.59,6.9,0,8-2.15.65-5.39-.86-6.69-3.24Zm-10.14-5.61c-.64-.21-1.29-3,1.08-4.31a5.56,5.56,0,0,1,6,0C96.93,154.08,93,159.69,87.86,157.31Zm36.47,2.59c-.86,1.51-6.69,1.73-5.18-2.8,1.08-3.23,5.83-2.37,6,.44.22,3.23-.65,1.94-.86,2.37ZM62,191.62c-5.82,3.45,3.67,7.55,4.1,7.77C71.9,200.9,71.9,186,62,191.62Zm10.14-6.26c-.86-1.72-.86-.64,0-3.23,1.3-3.89,3.45-2.59,6.69-1.51,2.59.64,2.59,6.9,0,8a6.19,6.19,0,0,1-6.69-3.24ZM72.33,175c-.87,1.51-6.69,1.72-5.18-2.8,1.08-3.24,5.82-2.37,6,.43.22,3.24-.65,1.94-.86,2.37Zm3.88-6.26c-.65-.21-1.29-3,1.08-4.31a5.56,5.56,0,0,1,6,0C85.27,165.52,81.39,171.13,76.21,168.75ZM78.58,147c-.86,1.51-6.68,1.73-5.17-2.8,1.08-3.24,5.82-2.37,6,.43.21,3-.65,1.94-.87,2.37Zm1.3,61.49c-.65-.21-1.3-3,1.08-4.31a5.56,5.56,0,0,1,6,0C88.94,205.22,85.06,210.83,79.88,208.45Zm-6-13.37c-.22-.87,1.51-3,3.88-2,2.16.87,3.67,2.16,4.1,4.53.43,2-6.25,2.8-8-2.58ZM77.29,62c-1.73.43-3.67,5.82,1.08,5.82,3.45,0,4.1-4.75,1.29-5.82-2.8-1.3-1.94,0-2.37,0Zm7.12-1.73c-.65-5.61,5.83-7.55,6.26-5.61.64,2.37-.44,4.1-2,5.82C87,62.38,84.41,61.08,84.41,60.22Zm11.22,16c-15.32,0,5.39-14,5.39-3.24.22,2.59-3.45,3.24-5.39,3.24ZM81,83.09c1.29,1.29.43,1.08,3,1.08,4.1,0,3.45-2.38,3.67-5.83.21-2.59-5.83-4.75-7.55-2.59C78.59,77.48,78.8,80.93,81,83.09Zm2.16,11.22c0,.86,2.58,2.16,4.31.22,1.51-1.73,2.59-3.24,1.94-5.83C88.94,86.76,82.47,88.7,83.12,94.31Zm29.34-13.16c1.3-1.3,3.24-4.53,1.51-6C106,67.55,101.89,92.15,112.46,81.15ZM95,89.13h0C93,87,92.61,83.52,94.12,81.8c1.73-2.16,7.77-.22,7.55,2.58-.21,3.46.43,5.83-3.67,5.83C95.42,90,96.28,90.43,95,89.13Zm2.16,11.22c0,.87,2.59,2.16,4.32.22,1.51-1.73,2.58-3.24,1.94-5.83C103.18,92.8,96.5,94.74,97.14,100.35ZM106,65h0c.43-.22-.44-1.3,2.59,0,2.58,1.08,2.15,5.82-1.3,5.82-5,0-3-5.39-1.29-5.82ZM75.35,109.63c-1.73.43-3.67,5.83,1.08,5.83,3.45,0,4.1-4.75,1.29-5.83-2.59-1.29-1.72-.22-2.37,0Zm7.12-1.94c0,.86,2.59,2.16,4.31.21,1.51-1.72,2.59-3.23,2-5.82C88.51,100.35,82,102.08,82.47,107.69Zm11.43,16c-15.31,0,5.4-14,5.4-3.24C99.3,123,95.63,123.66,93.9,123.66ZM79,130.56c1.3,1.29.43,1.08,3,1.08,4.1,0,3.45-2.38,3.67-5.83.22-2.59-5.83-4.75-7.55-2.59C76.86,125,77.08,128.4,79,130.56Zm2.16,11.22c0,.86,2.59,2.16,4.31.22,1.51-1.73,2.59-3.24,2-5.83C87.22,134.23,80.75,136.17,81.18,141.78Zm29.34-13.16c-10.57,11-6.26-13.6,1.51-6C113.76,124.09,111.81,127.32,110.52,128.62Zm-17.26,8c1.29,1.3.43,1.08,3,1.08,4.1,0,3.45-2.37,3.67-5.83.21-2.59-5.83-4.74-7.55-2.59-1.51,1.73-1.3,5.18.86,7.34Zm2.16,11.22c0,.86,2.59,2.16,4.31.22,1.51-1.73,2.59-3.24,1.94-5.83C101.24,140.27,94.77,142.21,95.42,147.82Zm8.63-35.39c-1.73.44-3.67,5.83,1.08,5.83,3.45,0,4.1-4.75,1.29-5.83-2.59-1.29-1.94-.21-2.37,0Zm20.5,25c-.86,1.51-6.69,1.73-5.18-2.8,1.08-3.23,5.83-2.37,6,.44.22,3-.65,1.94-.86,2.37ZM72.76,30.66a2,2,0,0,0-.65-1.08c-.21-.43-2.59-1.3-2.59,1.51,0,2.37,3.24,7.34,3.67,7.12,3.24,1.94,3.45,1.08,3.45-1.94,0-3.24-4.1-4.53-3.88-5.61Zm.65-5.83c-1.3,1.3-.44,1.08-3,1.08-4.1,0-3.45-2.37-3.66-5.82-.22-2.59,5.82-4.75,7.55-2.59C75.78,19.22,75.56,22.67,73.41,24.83Zm-9.71,3c1.72.44,3.66,5.83-1.08,5.83-3.45,0-4.1-4.75-1.3-5.83,2.59-1.29,1.73-.21,2.38,0ZM55.28,24.4c0,.87-2.59,2.16-4.31.22-1.51-1.73-2.59-3.24-1.95-5.83C49.24,16.85,55.92,18.79,55.28,24.4Zm-11.43,16c15.32,0-5.4-14-5.4-3.24C38.45,39.72,42.12,40.37,43.85,40.37Zm24.81-2.16c.43,2.37,2.59,3.45-1.51,5.83-1.51.86-5.83-1.73.65-6,.21-.21.86,0,.86.22Zm-9.93,8.85c-1.29,1.29-.43,1.07-3,1.07-4.1,0-3.45-2.37-3.66-5.82-.22-2.59,5.82-4.75,7.55-2.59C60.89,41.45,60.68,45.11,58.73,47.06ZM68.87,58.49c15.32,0-5.39-14-5.39-3.23C63.26,57.85,66.93,58.49,68.87,58.49ZM76,46.19c.22,1.08,4.54.65,5.83,3.67,1.08,2.59,1.3,3.67-2.37,3.24-.22.21-5.18-3-6.26-5.18-1.08-2.59,1.3-2.8,1.73-2.37.64,0,1.08.21,1.08.64ZM57.87,60c0,.87-2.59,2.16-4.31.22-1.51-1.73-2.59-3.24-2-5.83C51.83,52.45,58.3,54.39,57.87,60ZM27.23,45.33c10.58,11,6.26-13.59-1.51-6C24,40.8,25.94,43.82,27.23,45.33Zm18.56,9.49c-1.3,1.3-.43,1.08-3,1.08-4.1,0-3.46-2.37-3.67-5.82-.22-2.59,5.82-4.75,7.55-2.59C48.16,49.21,48,52.67,45.79,54.82ZM33.7,29.15c1.73.43,3.67,5.82-1.07,5.82-3.46,0-4.1-4.74-1.3-5.82,2.8-1.3,1.94-.22,2.37,0ZM189.06,51.59c5.18,4.53,6-5.83,6-6.47C194.88,39.29,180.64,44,189.06,51.59Zm-9.93-1.73h0c-.21,1.08,3.89,2.59,3.89,5.83,0,2.8-.22,3.88-3.46,1.94-.21.22-3.66-5-3.66-7.12,0-3,2.37-1.94,2.59-1.51.43,0,.86.43.64.86ZM180,44c-1.3,1.29-.44,1.07-3,1.07-4.1,0-3.45-2.37-3.66-5.82-.22-2.59,5.82-4.75,7.55-2.59C182.15,38.43,181.94,41.88,180,44Zm-9.93,3c1.73.43,3.67,5.82-1.08,5.82-3.45,0-4.1-4.74-1.29-5.82,2.8-1.3,1.94-.22,2.37,0Zm-7.12-2c0,.87-2.59,2.16-4.31.22-1.51-1.73-2.59-3.24-1.95-5.83C156.91,37.78,163.59,39.5,163,45.11ZM175,57.2h0c0-.22-.43-.22-.64-.22-6.48,4.32-2.16,6.9-.87,6,4.1-2.16,1.95-3.45,1.51-5.82ZM166.4,68c-1.29,1.29-.43,1.07-3,1.07-4.1,0-3.45-2.37-3.67-5.82-.21-2.59,5.83-4.75,7.56-2.59C168.78,62.38,168.34,65.83,166.4,68Zm8.85,9.71h0c-1.94,0-5.4-.65-5.4-3.24C169.85,63.67,190.35,77.7,175.25,77.7Zm7.12-12.52c0-.21-.43-.43-1.08-.86-.43-.22-2.8-.22-1.73,2.37.87,2.16,6,5.4,6.26,5.18,3.67.43,3.45-.43,2.37-3.24-1.08-2.59-5.61-2.37-5.82-3.45Zm12.08-.86h0c.65-5.61-5.82-7.55-6.26-5.61-.64,2.37.44,4.1,1.95,5.83C191.86,66.48,194.24,65.18,194.45,64.32ZM164.24,79.21c0,.86-2.58,2.16-4.31.22-1.51-1.73-2.59-3.24-1.94-5.83C158.42,71.66,164.89,73.6,164.24,79.21Zm36.9-2.37c0,.86-2.58,2.15-4.31.21-1.51-1.72-2.59-3.24-1.94-5.82C195.32,69.28,201.79,71.23,201.14,76.84ZM17.31,158.61c.64-1.73,2.37-5,4.74-4.1C32.19,157.75,12.56,173.06,17.31,158.61Zm43.37,14.24c-1.08-.22-2.16,4.1-5.4,4.53-2.8.22-3.88.22-2.16-3.24-.21-.21,4.53-4.1,6.9-4.31,2.8-.22,2.16,2.16,1.73,2.37-.43.43-.65.65-1.08.65Zm-2.8,11.65c-.65-.22-1.3-3,1.07-4.32a5.61,5.61,0,0,1,6,0C66.94,181.26,63.05,186.87,57.88,184.5ZM26.15,170.26c-5.82,3.45,3.67,7.55,4.1,7.77C35.86,179.54,35.86,164.65,26.15,170.26ZM36.08,164c-.86-1.72-.86-.64,0-3.23,1.29-3.89,3.45-2.59,6.69-1.51,2.59.64,2.59,6.9,0,8A6.19,6.19,0,0,1,36.08,164Zm7.77,23.09c-.65-.22-1.3-3,1.07-4.31a5.57,5.57,0,0,1,6,0C52.91,183.85,49,189.46,43.85,187.09Zm-6-13.38c-.22-.65,1.5-3,3.88-1.94,2.16.86,3.67,2.16,4.1,4.53.43,1.94-6.26,2.8-8-2.59Zm31.07-14.24c-.87,1.51-6.69,1.72-5.18-2.8,1.08-3.24,5.82-2.38,6,.43.21,3-.65,1.94-.86,2.37Zm72.28,47.25c-.87,1.51-6.69,1.73-5.18-2.8,1.08-3.24,5.83-2.37,6,.43.22,3.24-.65,2-.86,2.38Zm25.46-15.31c-.86,1.51-6.69,1.72-5.18-2.8,1.08-3.24,5.83-2.37,6,.43.44,3.24-.43,1.94-.86,2.37Zm-31.93-62.14c-.87,1.51-6.69,1.72-5.18-2.8,1.08-3.24,5.83-2.38,6,.43.22,3-.65,1.94-.86,2.37Zm-15.11-35c-.86,1.51-6.69,1.73-5.18-2.8,1.08-3.24,5.83-2.37,6,.43.22,3-.64,1.94-.86,2.37ZM142.45,87c-.86,1.51-6.47,1.73-5-2.8,1.08-3.23,5.82-2.37,6,.44.21,3.23-.65,1.94-1.08,2.37Zm28.27-63.65c-.86,1.51-6.69,1.73-5.18-2.8,1.08-3.23,5.83-2.37,6,.43.22,3.24-.64,1.95-.86,2.38ZM80.09,6.71c-.86,1.51-6.68,1.72-5.17-2.8C76,.67,80.74,1.54,81,4.34c.43,3.24-.43,1.94-.87,2.37Zm133.13,97.1c-.86,1.51-6.69,1.72-5.17-2.8,1.07-3.24,5.82-2.37,6,.43.21,3.24-.65,1.94-.87,2.37Zm-3-16c-.86,1.51-6.69,1.73-5.18-2.8,1.08-3.24,5.83-2.37,6,.43.21,3-.65,2-.87,2.38ZM153.67,202.19c0,.87-2.59,2.16-4.31.22-1.51-1.73-2.59-3.24-2-5.83C147.85,194.64,154.31,196.37,153.67,202.19ZM90,6.49c0,.87-2.59,2.16-4.31.22C84.2,5,83.12,3.47,83.76.88,84.2-1.06,90.66.88,90,6.49ZM213.87,114.38c0,.86-2.59,2.15-4.31.21-1.51-1.72-2.59-3.23-1.95-5.82C208.05,106.82,214.51,108.77,213.87,114.38ZM12.34,76.19c8.42-7.56-5.82-12.3-6-6.48C6.3,70.36,7.38,80.71,12.34,76.19Z"/></svg>