<svg id="Layer_1" data-name="Layer 1" xmlns="http://www.w3.org/2000/svg" viewBox="0 0 188 87.91"><defs><style>.cls-1{fill:#bde2e4;}</style></defs><title>patch-2</title><g id="Group_228" data-name="Group 228"><path id="Path_43" data-name="Path 43" class="cls-1" d="M169,16a24.48,24.48,0,0,1-15.23-5.35,21.51,21.51,0,0,1-4.48-4.8,20.37,20.37,0,0,1-4.06,4.67,22.08,22.08,0,0,1-14.43,5.36,23.87,23.87,0,0,1-19-9.9A20.19,20.19,0,0,1,94,15.88,21.54,21.54,0,0,1,75.48,6a21.3,21.3,0,0,1-18.36,9.84,22.34,22.34,0,0,1-14.56-5.36,20.82,20.82,0,0,1-3.8-4.42c-3.14,5.35-10.14,9.84-18.43,9.84C7.74,15.94,0,7.66,0,0H3.87c0,5.79,6.63,12,16.46,12S36.85,4.79,36.85,0h3.87c0,4.23,6.27,12,16.46,12C66.7,12,73.64,4.86,73.64,0h3.87c0,4.23,6.26,12,16.52,12s15.72-7.85,15.72-12h3.87c0,4.11,7.25,12,17.2,12s16.46-7.91,16.46-12h3.87c0,4.11,7.56,12.08,17.87,12.08,9.46,0,15.11-4.55,15.11-12.08H188C188,9.9,180.69,16,169,16Z"/><path id="Path_44" data-name="Path 44" class="cls-1" d="M169,40a24.43,24.43,0,0,1-15.23-5.36,21.46,21.46,0,0,1-4.48-4.79,20.58,20.58,0,0,1-4.06,4.67,22,22,0,0,1-14.43,5.35,23.87,23.87,0,0,1-19-9.9A20.15,20.15,0,0,1,94,39.83,21.54,21.54,0,0,1,75.48,30a21.28,21.28,0,0,1-18.36,9.83,22.38,22.38,0,0,1-14.56-5.35,21.16,21.16,0,0,1-3.81-4.42c-3.13,5.35-10.13,9.84-18.42,9.84C7.74,39.9,0,31.62,0,24H3.87c0,5.79,6.63,12,16.46,12s16.52-7.22,16.52-12h3.87c0,4.23,6.27,12,16.46,12,9.52,0,16.46-7.16,16.46-12h3.87c0,4.23,6.26,12,16.52,12s15.72-7.84,15.72-12h3.87c0,4.11,7.25,12,17.2,12s16.46-7.9,16.46-12h3.87C151.15,28.07,158.71,36,169,36c9.46,0,15.11-4.55,15.11-12.08H188C188,33.86,180.69,40,169,40Z"/><path id="Path_45" data-name="Path 45" class="cls-1" d="M169,63.91a24.42,24.42,0,0,1-15.23-5.35,21.68,21.68,0,0,1-4.48-4.79,20.53,20.53,0,0,1-4.06,4.66,22.08,22.08,0,0,1-14.43,5.36,23.87,23.87,0,0,1-19-9.9A20.17,20.17,0,0,1,94,63.79,21.53,21.53,0,0,1,75.48,54a21.29,21.29,0,0,1-18.36,9.84,22.34,22.34,0,0,1-14.56-5.36A20.91,20.91,0,0,1,38.75,54c-3.19,5.3-10.2,9.78-18.48,9.78C7.74,63.85,0,55.57,0,47.91H3.87c0,5.79,6.63,12,16.46,12s16.52-7.22,16.52-12h3.87c0,4.24,6.27,12,16.46,12,9.52,0,16.46-7.16,16.46-12h3.87c0,4.24,6.26,12,16.52,12s15.72-7.84,15.72-12h3.87c0,4.11,7.25,12,17.2,12s16.46-7.91,16.46-12h3.87C151.15,52,158.71,60,169,60c9.46,0,15.11-4.54,15.11-12.08H188C188,57.81,180.69,63.91,169,63.91Z"/><path id="Path_77" data-name="Path 77" class="cls-1" d="M169,87.91a24.42,24.42,0,0,1-15.23-5.35,21.68,21.68,0,0,1-4.48-4.79,20.53,20.53,0,0,1-4.06,4.66,22.08,22.08,0,0,1-14.43,5.36,23.87,23.87,0,0,1-19-9.9A20.17,20.17,0,0,1,94,87.79,21.53,21.53,0,0,1,75.48,78a21.29,21.29,0,0,1-18.36,9.84,22.34,22.34,0,0,1-14.56-5.36A20.91,20.91,0,0,1,38.75,78c-3.19,5.3-10.2,9.78-18.48,9.78C7.74,87.85,0,79.57,0,71.91H3.87c0,5.79,6.63,12,16.46,12s16.52-7.22,16.52-12h3.87c0,4.24,6.27,12,16.46,12,9.52,0,16.46-7.16,16.46-12h3.87c0,4.24,6.26,12,16.52,12s15.72-7.84,15.72-12h3.87c0,4.11,7.25,12,17.2,12s16.46-7.91,16.46-12h3.87C151.15,76,158.71,84,169,84c9.46,0,15.11-4.54,15.11-12.08H188C188,81.81,180.69,87.91,169,87.91Z"/></g></svg>