<svg id="swim" xmlns="http://www.w3.org/2000/svg" viewBox="0 0 94 72"><defs><style>.cls-1{fill:#3d70d7;}</style></defs><title>swim</title><path id="wave-2" class="cls-1" d="M2.18,52.94h0a14.29,14.29,0,0,0,11-5.22l.23-.26.22.24a14.21,14.21,0,0,0,22,0l.24-.26.21.24a14.11,14.11,0,0,0,9.5,5.17c.52.05,1,.08,1.56.08A14.1,14.1,0,0,0,56,49.84a13.85,13.85,0,0,0,2.14-2.12l.23-.26.22.24a14.48,14.48,0,0,0,11,5.25,13.21,13.21,0,0,0,10.76-5.19l.22-.31.2.25a14.47,14.47,0,0,0,11,5.25,1.16,1.16,0,1,0,0-2.32,12.07,12.07,0,0,1-10.28-5.8,1.9,1.9,0,0,0-.82-.51l-.08,0h-.09a1.42,1.42,0,0,0-1.07.61,12,12,0,0,1-10.12,5.65h0A12,12,0,0,1,59.08,44.8a1.28,1.28,0,0,0-.9-.5,1.26,1.26,0,0,0-1,.54A12,12,0,0,1,47,50.48h0a12,12,0,0,1-10.25-5.76,1.29,1.29,0,0,0-.91-.49,1.28,1.28,0,0,0-1,.53,12,12,0,0,1-10.13,5.65h0a12.11,12.11,0,0,1-10.29-5.8,1.76,1.76,0,0,0-.82-.51l-.08,0h-.09a1.36,1.36,0,0,0-1.06.6A12,12,0,0,1,2.25,50.33h0a1.11,1.11,0,0,0-.81.21,1.07,1.07,0,0,0-.42.71.68.68,0,0,0,0,.24A1.32,1.32,0,0,0,2.18,52.94Z"/><path id="wave-1" class="cls-1" d="M93,67.69H91.83a12.08,12.08,0,0,1-10.29-5.8,1.84,1.84,0,0,0-.82-.51l-.08,0h-.09a1.4,1.4,0,0,0-1.06.61,11.94,11.94,0,0,1-10.13,5.65h0a12,12,0,0,1-10.25-5.76,1.25,1.25,0,0,0-.91-.49,1.19,1.19,0,0,0-1,.53A12,12,0,0,1,47,67.53h0a12,12,0,0,1-10.25-5.76,1.29,1.29,0,0,0-.91-.49,1.24,1.24,0,0,0-1,.53,11.94,11.94,0,0,1-10.12,5.65h0a12.08,12.08,0,0,1-10.29-5.8,1.76,1.76,0,0,0-.82-.51l-.08,0H13.4a1.35,1.35,0,0,0-1.07.61A12,12,0,0,1,2.25,67.39h0A1.07,1.07,0,0,0,1,68.3a.68.68,0,0,0,0,.24A1.32,1.32,0,0,0,2.18,70a14.18,14.18,0,0,0,11-5.23l.23-.26.22.24A14.21,14.21,0,0,0,33.53,66.9a13.91,13.91,0,0,0,2.14-2.13l.24-.26.21.24A14.22,14.22,0,0,0,56,66.9a14.37,14.37,0,0,0,2.14-2.13l.23-.26.22.25a14.47,14.47,0,0,0,11,5.24h.31a13.11,13.11,0,0,0,10.45-5.19l.22-.3.2.25a14.46,14.46,0,0,0,11,5.24A1.17,1.17,0,0,0,93,68.84a1.19,1.19,0,0,0-.33-.81Z"/><path id="sun" class="cls-1" d="M38.91,35.64a1,1,0,0,0,.4-.68,1,1,0,0,0-.2-.78C39.05,34.1,39,34,39,34a12,12,0,0,1,.43-16.88,12.26,12.26,0,0,1,8.29-3.22h0A11.88,11.88,0,0,1,59.63,26a11.76,11.76,0,0,1-3.78,8.33,1.14,1.14,0,0,0,0,1.5,1,1,0,0,0,.84.43h0a1.72,1.72,0,0,0,.77-.22l.08-.06a13.23,13.23,0,0,0,4.35-9.81A14.32,14.32,0,0,0,37.66,15.62a14.13,14.13,0,0,0-.34,20A1.28,1.28,0,0,0,38.91,35.64Z"/><path id="sunshine-6" class="cls-1" d="M39.63,7.82a.91.91,0,0,0,.91.75h.09a.66.66,0,0,0,.3-.07h.14l.12-.08a1.1,1.1,0,0,0,.47-.55.89.89,0,0,0,0-.85l-1.6-4.3a1.44,1.44,0,0,0-.58-.57l-.11-.06h-.06A.91.91,0,0,0,39,2H38.7l-.1.06a1.39,1.39,0,0,0-.58.57.89.89,0,0,0,0,.85Z"/><path id="sunshine-5" class="cls-1" d="M24.34,33.54a.93.93,0,0,0,1,.71.74.74,0,0,0,.34-.07L30,32.58a1.16,1.16,0,0,0,.65-1.42,1.11,1.11,0,0,0-1.14-.78h-.15L24.89,32a1.39,1.39,0,0,0-.58.57.93.93,0,0,0,0,.9Zm1,.23Z"/><path id="sunshine-4" class="cls-1" d="M25.42,16.26l4.44,2,.35.05a1.35,1.35,0,0,0,1-.71.9.9,0,0,0,0-.9l-.11-.16a1.22,1.22,0,0,0-.42-.36l-4.27-1.93a1.12,1.12,0,0,0-.93,0l-.18.12a1.33,1.33,0,0,0-.37.42,1.19,1.19,0,0,0-.08.62h0l0,.24A.93.93,0,0,0,25.42,16.26Z"/><path id="sunshine-3" class="cls-1" d="M53.31,7.86a1.24,1.24,0,0,0,.7.59l.26.13.16,0a1.4,1.4,0,0,0,1-.84L57,3.49a1.8,1.8,0,0,0,0-.73l0-.13a1.39,1.39,0,0,0-.58-.57L56.27,2H56a1.27,1.27,0,0,0-1.12.77L53.27,7a1.54,1.54,0,0,0,0,.74Z"/><path id="sunshine-2" class="cls-1" d="M66,30.41l-.41,0a1.31,1.31,0,0,0-1.13.77,1.09,1.09,0,0,0,0,.85,1.12,1.12,0,0,0,.7.6l4.55,1.68.13,0a1.35,1.35,0,0,0,1.06-.92,1,1,0,0,0-.07-.78.94.94,0,0,0-.68-.58Z"/><path id="sunshine-1" class="cls-1" d="M64.91,18.32H65l.1-.05.13,0a1.58,1.58,0,0,0,.31-.1l4.11-1.86a1.12,1.12,0,0,0,.6-1.47l0-.09a1.18,1.18,0,0,0-.39-.43l-.14-.14h-.13a.41.41,0,0,0-.25-.07.84.84,0,0,0-.57.12l-4.13,2a.86.86,0,0,0-.63.63,1.13,1.13,0,0,0,0,.79A.93.93,0,0,0,64.91,18.32Z"/></svg>