<svg id="Layer_1" data-name="Layer 1" xmlns="http://www.w3.org/2000/svg" viewBox="0 0 556.07 545.26"><defs><style>.cls-1{fill:#fff;}</style></defs><title>white-big-logo</title><g id="Group_227" data-name="Group 227"><g id="Group_1" data-name="Group 1"><path id="Path_25" data-name="Path 25" class="cls-1" d="M307.14,526.45c-57.82,4.06-118.66-12-168.88-45.66C90.59,449,49.2,395,27.61,336.54,10.73,290.88,15.15,242.11,41,191.44,60,153.91,90,102.55,123.82,71.42c62.5-57.87,162-70.27,253.13-31.83,56.57,24,100.76,69.14,127.59,130.6,25.13,57.35,43.34,147.76,12.53,213.05-9.8,20.8-26.54,43.08-48.39,64.12h0c-36.71,35.55-83,63.33-120.95,72.83A253,253,0,0,1,307.14,526.45Zm-55-502.64c-45,3.16-89.58,18.55-125.07,51.4C93.67,105.91,64.25,156.63,45.35,194c-25.09,49.21-29.62,96.58-13.24,140.87C53.43,392.24,94,445.29,141,476.58c61,40.76,137.79,55.28,205.59,38.66,37.17-9,82.49-36.55,118.65-71.46,21.27-20.59,37.65-42.25,47.28-62.63,30.1-63.84,12-152.45-12.64-208.83-26.35-60.28-69.46-104.51-125-128A272.49,272.49,0,0,0,252.18,23.81Z"/><path id="Path_26" data-name="Path 26" class="cls-1" d="M287.59,514.35c-5.2.36-10.22.51-15.43.68-76.9,1.57-150.48-26.85-196.54-75.89C36.93,397.82,19.15,345,24.05,285.92l.44-5.26c5.75-70,13.11-157.15,74.91-201.9,73.09-53,168.4-67.3,254.67-38.57,63.62,21.28,119.42,60,153.44,106.46,31.58,43.23,38.4,91.61,21.53,152.11-10.28,36.91-25.13,83.2-49.92,113.89C429.38,474.85,364.82,508.93,287.59,514.35Zm-42.72-483A276.14,276.14,0,0,0,102.31,83c-59.9,43.21-67.14,129.17-73,198.15l-.44,5.25C24.1,343.83,41.39,395.49,79.2,435.67,124.4,483.77,196.31,511.5,272,510c82.72-1.78,151.13-35.53,203.47-100.53,24.23-30.05,38.92-75.71,49-112.21l2.46.63-2.46-.63c16.38-58.86,9.67-105.84-20.82-147.74-33.16-45.73-88.32-83.88-150.9-104.62A278.8,278.8,0,0,0,244.87,31.36Z"/></g><g id="Group_2" data-name="Group 2"><path id="Path_27" data-name="Path 27" class="cls-1" d="M273.45,337.18h0a12.59,12.59,0,0,1,3.17-3.86,8.68,8.68,0,0,1,4.67-1.67,10.15,10.15,0,0,1,4.44.46,8.48,8.48,0,0,1,3,2.08,10.36,10.36,0,0,1,1.78,3.52,34.41,34.41,0,0,1,.72,4.73L292.4,359l-2.67.18-1.16-16.56a19.75,19.75,0,0,0-.43-3.42,6.37,6.37,0,0,0-1.16-2.79,4.56,4.56,0,0,0-2-1.77,6.88,6.88,0,0,0-3.67-.51,7.25,7.25,0,0,0-4.11,1.44,7.15,7.15,0,0,0-2.27,3,12.71,12.71,0,0,0-.88,3.89,34.93,34.93,0,0,0-.08,4.22l.94,13.52-2.66.19-1.94-27.62,2.67-.19.32,4.57Z"/><path id="Path_28" data-name="Path 28" class="cls-1" d="M329.35,356.62l-2.67.19-.34-5-.19,0a7.73,7.73,0,0,1-1.75,2.42,9.77,9.77,0,0,1-2.36,1.88,17.73,17.73,0,0,1-2.77,1.35,16.29,16.29,0,0,1-3,.59,12.84,12.84,0,0,1-13.38-7.86,17.67,17.67,0,0,1-.8-11.43,13.83,13.83,0,0,1,2.34-4.76,11.45,11.45,0,0,1,4-3.34,14.34,14.34,0,0,1,11.63-.63,11.78,11.78,0,0,1,4.86,3.68h.19l-.34-4.76,2.67-.19ZM314,332a11.46,11.46,0,0,0-4.32,1.26,10.81,10.81,0,0,0-5.07,6.87,11.07,11.07,0,0,0-.45,4.43,12.84,12.84,0,0,0,1.08,4.52,12.22,12.22,0,0,0,2.36,3.66,11.82,11.82,0,0,0,3.62,2.43,11.51,11.51,0,0,0,9.14-.64,9.33,9.33,0,0,0,3.24-2.91,13.39,13.39,0,0,0,1.82-4.15,13.22,13.22,0,0,0,.42-4.81,11.21,11.21,0,0,0-1.06-4.33,11.86,11.86,0,0,0-2.54-3.46,11.42,11.42,0,0,0-3.61-2.23A9.39,9.39,0,0,0,314,332Z"/><path id="Path_29" data-name="Path 29" class="cls-1" d="M335.79,328.61l3.24-.23L348.58,339l8-11.86,3.24-.22-9.37,13.67,12.25,13.69-3.24.23-10.79-11.88-8.83,13.25-3.05.22L347,340.84Z"/><path id="Path_30" data-name="Path 30" class="cls-1" d="M380.12,324.93a13.91,13.91,0,0,1,5.79.75,14.8,14.8,0,0,1,4.79,2.72,15.1,15.1,0,0,1,3.37,4.36,14.94,14.94,0,0,1,.8,11.43,14,14,0,0,1-7.09,8.15,13.9,13.9,0,0,1-5.63,1.55,13.73,13.73,0,0,1-5.61-.76,14.1,14.1,0,0,1-8.15-7.08,14,14,0,0,1-.77-11.05,13.93,13.93,0,0,1,7.08-8.15A8.49,8.49,0,0,1,380.12,324.93Zm0,2.49a11.59,11.59,0,0,0-4.5,1.28,9.89,9.89,0,0,0-3.44,2.92,12.49,12.49,0,0,0-2.84,8.62,11.41,11.41,0,0,0,1.26,4.31,10.15,10.15,0,0,0,2.75,3.64,12.71,12.71,0,0,0,3.8,2.41,11.45,11.45,0,0,0,4.64.63,12.4,12.4,0,0,0,8.33-4,10.22,10.22,0,0,0,2.21-4,13.06,13.06,0,0,0,.63-4.64,12.4,12.4,0,0,0-4-8.33,10.15,10.15,0,0,0-4-2.21A10.33,10.33,0,0,0,380.1,327.42Z"/><path id="Path_31" data-name="Path 31" class="cls-1" d="M416.11,328a5.53,5.53,0,0,0-2.06-2.15,4.91,4.91,0,0,0-2.91-.56,5.23,5.23,0,0,0-1.69.5,4,4,0,0,0-1.46,1.06,8.07,8.07,0,0,0-1.05,1.41,2.83,2.83,0,0,0-.26,1.74,4.12,4.12,0,0,0,1.14,2.6,7.87,7.87,0,0,0,2.58,1.35,35,35,0,0,1,3.33,1.11,16.81,16.81,0,0,1,3.35,1.29,6.35,6.35,0,0,1,2.65,2.3,7.87,7.87,0,0,1,1.23,3.93,6.54,6.54,0,0,1-.52,3.49,7,7,0,0,1-1.72,2.8,7.19,7.19,0,0,1-2.74,1.91,10.65,10.65,0,0,1-3.38.81,9.69,9.69,0,0,1-6.23-1.47,9.35,9.35,0,0,1-3.81-5.09l2.62-.95a8.48,8.48,0,0,0,2.75,3.82,6.84,6.84,0,0,0,4.49,1.22,5.88,5.88,0,0,0,5.67-6.52,6.93,6.93,0,0,0-.53-2.07,10.09,10.09,0,0,0-1.25-1.44,7.61,7.61,0,0,0-1.78-.83c-.58-.15-1.37-.48-2-.63l-2.93-1a12,12,0,0,1-2.78-1.33,10.34,10.34,0,0,1-2.05-2,4.87,4.87,0,0,1-1-3,7.73,7.73,0,0,1,.38-2.9,8.82,8.82,0,0,1,1.55-2.4,11,11,0,0,1,2.37-1.7,7.5,7.5,0,0,1,2.82-.77,7.24,7.24,0,0,1,4.28,1,6.67,6.67,0,0,1,3.08,3Z"/><path id="Path_32" data-name="Path 32" class="cls-1" d="M243.83,309.05q1.36-1,1.8,1c.21.37.05.76-.09,1.54a4.09,4.09,0,0,1-.68,1.2l-1,1.79-1,1.79a3.27,3.27,0,0,1-1.07,1.23l-.57,0a3.26,3.26,0,0,1-1,2.36,5.46,5.46,0,0,0-1.79,1.85,8.84,8.84,0,0,1-1.77,2,2.74,2.74,0,0,0-1.18,2.19,2.79,2.79,0,0,0-2,1.48,8,8,0,0,1-1.78,1.85,3.39,3.39,0,0,0-.9.83,1.74,1.74,0,0,0-.68,1.19c0,.38-.15.59-.34.6a2.2,2.2,0,0,0-1.85.9,3,3,0,0,1-1.45,1.25,47.3,47.3,0,0,1-5.66,3.84,66.86,66.86,0,0,1-6.29,3.12,36.11,36.11,0,0,1-6.4,1.6,18.26,18.26,0,0,1-6.51-.12l-5.26-1.36a13.66,13.66,0,0,1-4.76-2.34c-.82-.71-1.81-1.21-2.63-1.92a13,13,0,0,0-2.8-1.72,5.47,5.47,0,0,1-1.21-.87,4.24,4.24,0,0,1-.84-1.09c-.85-1.28-1.72-2.75-2.58-4a28.41,28.41,0,0,1-2.2-4.06,8.72,8.72,0,0,0-2-3.69,3,3,0,0,1-.65-1.1,5.4,5.4,0,0,0-.6-3c-.44-.92-1.07-1.64-1.5-2.38a5.6,5.6,0,0,1-.52-1.88,8.63,8.63,0,0,0-.51-1.87c-.72-2.06-1.43-3.92-2.14-6-.71-1.86-1.62-3.91-2.53-5.95-.66-1.29-1.34-2.77-2-4.07s-1.52-2.57-2.39-4a13,13,0,0,0-7.09-5.63,5.34,5.34,0,0,1-2.2-1.38,14.94,14.94,0,0,1-1.69-2.18,6.16,6.16,0,0,1-.76-2.62,3.88,3.88,0,0,1,.59-2.53,11.52,11.52,0,0,1,1.2-2,2.8,2.8,0,0,1,2.19-1.49c.56-.23.74-.44.72-.63a3.18,3.18,0,0,1,1.72-2.8,6.2,6.2,0,0,0,2.35-2.08,22.36,22.36,0,0,1,1.93-2.43c.71-.82,1.43-1.44,2.14-2.26l2.12-2.44a8.64,8.64,0,0,0,1.74-2.61,1.34,1.34,0,0,1,.89-.83,3,3,0,0,0,1.28-.86c.17-.39.52-.8.69-1.19a9.9,9.9,0,0,0,1.75-2.23,7.74,7.74,0,0,1,2.16-2.07c.57,0,.74-.24.72-.62a2.93,2.93,0,0,1,1.37-2.2,3.47,3.47,0,0,0,1.59-2c.34-.6.51-.8,1.08-.84a2.48,2.48,0,0,0,1.57-2.22,1.05,1.05,0,0,1,.51-1,12.49,12.49,0,0,0,3.22-3.1,23.39,23.39,0,0,1,2.63-3.62l2.65-3.06a10.78,10.78,0,0,0,2-3.59c.18-.2.16-.39.54-.42.19,0,.56-.23.75-.24.75-.24,1.1-.65,1.06-1.22a1.76,1.76,0,0,1,1.4-2,1.56,1.56,0,0,0,.88-1c.29-1.36.81-2.17,1.75-2.42.38,0,.55-.23.51-.81-.06-1,.46-1.75,1.75-2.41.18-.21.18-.21.37-.22s.17-.21.35-.41a29.21,29.21,0,0,1,3.08-5.19,28.62,28.62,0,0,0,3.08-5.19c.83-1.79,1.86-3.58,2.7-5.17a20.92,20.92,0,0,0,1.93-5.3,9.43,9.43,0,0,1,.61-2.15,4,4,0,0,0,.41-2.33,3.72,3.72,0,0,0-.76-2.63,9.3,9.3,0,0,0-2-1.77,12.91,12.91,0,0,0-3.53-1.09,3.86,3.86,0,0,0-3.55,1.21l-.18.2a.2.2,0,0,0-.18.2h0a20.46,20.46,0,0,0-4.29,1.65,11.21,11.21,0,0,0-2.95,1.73,24.08,24.08,0,0,0-2.53,2.1,33.8,33.8,0,0,0-2.86,2.88,63.55,63.55,0,0,0-6.74,7.55c-2.12,2.64-4,5.45-6.14,8.09-1.21,1.81-2.44,3.42-3.47,5a45.14,45.14,0,0,0-3.08,5.19,25.71,25.71,0,0,1-1.91,2.81,5.85,5.85,0,0,0-1.31,3.16,6.59,6.59,0,0,1-.85,1.59,5.65,5.65,0,0,1-1.41,1.63c-.68,1.19-1.18,2.38-1.87,3.38a30.37,30.37,0,0,0-1.68,3.38,44.85,44.85,0,0,1-2.2,4.17,11.07,11.07,0,0,0-1.8,4.34,5.89,5.89,0,0,1-.82,2c-.34.6-.66,1.39-1,2-.65,1.76-1.3,3.34-1.94,5.11a50.15,50.15,0,0,1-2,4.73,8.82,8.82,0,0,0-1.27,3.73,12.23,12.23,0,0,1-1.27,3.72,25.55,25.55,0,0,0-1.77,4.72,38.28,38.28,0,0,0-1.18,5.06,4.56,4.56,0,0,0-.27,1.55,1.46,1.46,0,0,1-.67,1.39l-.36.4a6.42,6.42,0,0,1-.46,4.25,6.5,6.5,0,0,0-.66,4.26,8.41,8.41,0,0,1-.24,2.12c-.13.78-.47,1.37-.61,2.15a1.87,1.87,0,0,0-.3,1.17,14.13,14.13,0,0,1-.42,5c-.26,1.74-.72,3.3-1,4.85-.42,2.14-.65,4.26-1.08,6.39a40.43,40.43,0,0,1-1.46,6.43c-.48,1.37-.79,2.35-1.18,2.37a12.26,12.26,0,0,1-6.51-.11,11.86,11.86,0,0,0-3.51-.9,2.45,2.45,0,0,1-1.8-1.23,3.28,3.28,0,0,1-.54-2.26,16.69,16.69,0,0,0,.07-4.41,8.92,8.92,0,0,1,.84-4.46c.17-.2.17-.2.16-.39a13.41,13.41,0,0,1,.18-5.57,50,50,0,0,0,1-5.42c.42-2.33.62-4.83,1-7.35s.8-5,1-7.34c.13-.78.28-1.36.42-2.14a9.45,9.45,0,0,1,.62-2.15,3.67,3.67,0,0,0,.22-2.31,2.06,2.06,0,0,1-.11-1.52,2.19,2.19,0,0,1,.86-1.4c.19,0,.37-.22.34-.6a20.1,20.1,0,0,1,.73-6c.44-2,.86-4.08,1.3-6,.41-2.33.65-4.45,1.06-6.77s.81-4.5,1-6.78l.91-3.51a8.4,8.4,0,0,0,.11-3.83,1.94,1.94,0,0,0-1.69.5c-1.65,1.07-3.48,2.16-5.14,3-1.86.9-3.52,1.78-5.18,2.66a29,29,0,0,1-4.25,2.21,42.72,42.72,0,0,0-4.24,2.22c-1.11.65-2.22,1.11-3.32,1.76a27.85,27.85,0,0,0-3.33,1.76c-1.65,1.08-3.29,2.15-4.75,3.21a38.38,38.38,0,0,0-4.32,3.94,38,38,0,0,0-2.46,3,17.66,17.66,0,0,0-1.68,3.37,31.09,31.09,0,0,0-1.6,4.52,7.46,7.46,0,0,0,.54,4.94A11.87,11.87,0,0,0,99.63,278a5.78,5.78,0,0,0,3.34,1.3c.58,0,1-.07,1.16.11a1.45,1.45,0,0,1,1.25,1.44,1.53,1.53,0,0,1-1.18,1.8h0l-1.15.08a9.21,9.21,0,0,1-5.7-2.09,7.48,7.48,0,0,1-3.21-4.94,10.71,10.71,0,0,0-.72-2.06,3.17,3.17,0,0,1-.27-1.13,9.16,9.16,0,0,0,1.06-3.9,12.71,12.71,0,0,1,.88-3.89,15.93,15.93,0,0,1,3.27-5.21,28.11,28.11,0,0,0,3.69-4.66,4,4,0,0,1,1.83-1.27,17.54,17.54,0,0,0,1.82-1.28,41.17,41.17,0,0,1,5.1-3.8,52.31,52.31,0,0,0,5.31-3.44,29.79,29.79,0,0,1,4-2.39,9,9,0,0,0,3.64-2.74,3.39,3.39,0,0,1,1.66-.88,12.64,12.64,0,0,0,1.85-.9c1.28-.85,2.38-1.5,3.66-2.36,1.09-.84,2.37-1.7,3.65-2.55a17.31,17.31,0,0,0,3.08-2.52,21.82,21.82,0,0,1,3.06-2.7,3.52,3.52,0,0,0,.64-1.77,19.35,19.35,0,0,0,.58-2.72,8.12,8.12,0,0,1,.95-2.74,2,2,0,0,0,.31-1.17c0-.38.12-1,.09-1.35a3.46,3.46,0,0,1,1-2.75,1.7,1.7,0,0,0,.65-1.57,2.6,2.6,0,0,1,.26-1.75,14.15,14.15,0,0,0,1.18-2.37l1-2.37a12.72,12.72,0,0,1,2.06-3.4,38.1,38.1,0,0,1,2.67-2.87,5.58,5.58,0,0,1,4.1-1.62,8.71,8.71,0,0,1,4.48,1.21,4.34,4.34,0,0,1,1.42,1,5.71,5.71,0,0,1,2.44,4.81c-.1,1.34-.38,2.7-.48,4.05a26.68,26.68,0,0,1-1.08,3.71,19.5,19.5,0,0,1-2.66,5.74c-1,1.8-2.25,3.41-3.47,5.22-.36.21-.53.61-.66,1.38a12.2,12.2,0,0,1-.91,3.51,5.84,5.84,0,0,0-.12,3.65.69.69,0,0,1-.27,1l-.05,0c-.37.22-.53.61-.71.81a48.8,48.8,0,0,1-1,5.24,24.94,24.94,0,0,0-.78,5.22,1.84,1.84,0,0,0-.44,2,2.83,2.83,0,0,1-.6,2.34,2.88,2.88,0,0,0,1.39-2,5.54,5.54,0,0,1,.25-1.94,3.94,3.94,0,0,0,1-1.6c.34-.6.49-1.18.83-1.78,1-2.17,2-4.35,3.18-6.54s2.18-4.36,3.38-6.36l2.54-4.77c.85-1.59,1.9-3,2.74-4.6,2.09-3,4.16-6.22,6.61-9.46a27.59,27.59,0,0,1,3-3.65,29.16,29.16,0,0,0,2.78-4,17.14,17.14,0,0,1,1.58-2c.53-.61,1.25-1.24,1.79-1.85.88-1,2-2,2.84-3.07a21.79,21.79,0,0,0,2.85-3.07,46.37,46.37,0,0,1,4.5-4.14c1.63-1.26,3.09-2.32,4.72-3.58a25.57,25.57,0,0,1,5.53-3.07,34.72,34.72,0,0,1,6-1.77,8.25,8.25,0,0,1,3-.21,7.88,7.88,0,0,1,2.91.56,8.24,8.24,0,0,0,1.37.48,8.1,8.1,0,0,1,4.54,2c1.22,1.06,2.27,2.33,3.51,3.58a4.53,4.53,0,0,1,1.29,2c.24.75.5,1.69.74,2.44a12.91,12.91,0,0,1,0,7.66c-.78,2.54-1.38,4.88-2,7.22-.49,1.18-1,2.18-1.48,3.36a16.75,16.75,0,0,0-1.3,3.34,7.58,7.58,0,0,1-1.69,3.19,11.64,11.64,0,0,0-2.07,3.2c-1.9,3-3.78,6.2-5.88,9-2.08,3-4.18,5.84-6.27,8.86-3.14,4.24-6.5,8.31-10,12.57l-4.95,5.71c-1.79,1.85-3.37,3.87-5.15,5.72a76.33,76.33,0,0,1-5.35,5.73c-1.78,1.85-3.55,3.89-5.32,5.93-.54.61-1.26,1.23-1.79,1.85a20.42,20.42,0,0,1-2,1.86c-.9.83-1.43,1.44-1.41,1.82s.45.92,1.46,1.62a12.65,12.65,0,0,1,2.69,2.87,34.3,34.3,0,0,0,2.33,3.29,17.44,17.44,0,0,1,2.83,4.77,44.08,44.08,0,0,1,1.89,5.23c1,2.61,1.9,5.23,2.65,7.66.76,2.63,1.5,5.07,2.07,7.71.28,1.32.77,2.81,1.05,4.13a33.27,33.27,0,0,1,1.25,4.13c.45.92.71,1.86,1.15,2.79l1.35,2.78a18.36,18.36,0,0,0,4,5.65,28.62,28.62,0,0,0,5.45,4c.41.35.6.34.79.33a10.31,10.31,0,0,1,4.84.8,6.38,6.38,0,0,0,5,0,4.32,4.32,0,0,1,1.51-.3,3.63,3.63,0,0,0,1.54.08l.76-.05a3.66,3.66,0,0,1,3.14-1.56,4.52,4.52,0,0,0,3.36-1.19,12.39,12.39,0,0,1,2.93-1.93,18.26,18.26,0,0,0,3.12-1.94,47,47,0,0,0,4.51-4c1.24-1.43,2.67-2.87,3.89-4.49,1.05-1.41,2.28-3,3.14-4.43a27.3,27.3,0,0,0,2.73-4.79A5.24,5.24,0,0,1,243.83,309.05Zm-114.51,2.1c.4.16.78.13.94-.26l0-.38c0-.19-.22-.37-.25-.75-.16.4-.14.78-.33.79A.55.55,0,0,0,129.32,311.15ZM125.05,242c.17-.21.17-.21.16-.4l-.2-.18Zm5.6,63.53c.6.34.79.33,1,.32s.18-.21.35-.41l0-.38-.41-.36c0-.19-.21-.17-.41-.35-.18.2-.35.41-.54.42l-.82-.71c.22.37.05.76.07,1-.18.2,0,.57.43.73Zm-.35-4.95h0c-.17.21-.17.21-.16.4s0,.19.2.17C130.33,300.93,130.52,300.92,130.3,300.55Zm1.12,7.77a1.38,1.38,0,0,0,.14-.77l-.87-1.47c-.18.2-.16.39-.14.77l0,.19a4.09,4.09,0,0,1,.85,1.28Zm3.33-4.44c.17-.21.37-.22.35-.41s.18-.21.36-.41c-.21-.18-.41-.36-.43-.55a.71.71,0,0,0-.58-.15c-.38,0-.39-.16-.42-.54l.57,0c.19,0,.38,0,.55-.42-.21-.18-.4-.17-.41-.36a.73.73,0,0,0-.59-.15l.07.95-1.14.08a6.7,6.7,0,0,1-1.17-.3c0-.38-.23-.56-.41-.35l.2.18a.65.65,0,0,1,.22.36l0,.58.81.7,1.15-.08a3.3,3.3,0,0,1,.44.93ZM131.31,293a1.16,1.16,0,0,0,.1,1.53l1-.07A16.93,16.93,0,0,0,131.3,293Zm1.48,18.47c.36-.41.34-.6-.08-1.15-.34.6-.31,1,.08,1.15Zm-.65-3.79c.21.18.21.18.4.17s.19,0,.37-.22h-.19a.36.36,0,0,0-.51,0Zm.29-12.27v-.19c-.2-.17-.2-.17,0,.19-.39-.16-.39-.16-.38,0l.21.18Zm1.12,16c.41.36.79.33,1.13-.27,0-.38,0-.57-.23-.55C134.07,310.62,133.89,310.83,133.55,311.42Zm.29-20.5a.72.72,0,0,0-1-.07.87.87,0,0,0-.13.15c.2.18.21.37.24.75l1.14-.08-.05-.76Zm-.57-8.19h0l.21.37.18-.2c-.19,0-.21-.18-.4-.17Zm2.49,35.62.36-.41-.41-.35,0,.76Zm-2.18-36.6c.19,0,.19,0,.39.17l.2,0C134,281.54,133.76,281.55,133.58,281.75Zm1.69,10.42c.17-.21.17-.21.36-.22s.2,0,.37-.22c-.2-.18-.21-.37-.43-.73-.21-.18-.23-.56-.44-.74l-1.14.08c.22.37.42.55.43.74a11.13,11.13,0,0,0,.84,1.08Zm.89,12.76c.18-.21.17-.4.36-.41s.17-.2.35-.41a.71.71,0,0,0-1-.07.64.64,0,0,0-.13.15l0,.38c-.18.2,0,.19.4.35Zm-.77-5.5.38,0v-.19h0c-.19,0-.38,0-.37.22Zm0-8.8c.18-.21.37-.22.76-.05.38,0,.57,0,.75-.25l-.05-.76-.76.05a.76.76,0,0,0-.74.44Zm1.26,17.9h0c.19,0,.19,0,.36-.21l0-.39c-.18.21-.36.41-.35.6Zm.68,7,.17-.4-.21-.17C137.26,315.19,137.07,315.2,137.29,315.57Zm-4.16-78.38c-.19,0-.38,0-.39-.17l-.18.21.41.35Zm4.2,43.54a1,1,0,0,1-.73.43c-.18.2-.56.23-.74.43l1-.06c.17-.21.35-.41.54-.42.18-.21.37-.22.74-.44Zm-.27,15.13h0c.17-.2.16-.39,0-.38v-.19c-.18.2-.18.2-.17.4ZM140,310.2a3.5,3.5,0,0,0-1.16-.11c-.19,0-.37.22-.54.43.2.17.21.36.24.74-.16.4,0,.58.26.94l.57,0Zm-6.71-73.79c.18-.2.18-.2.16-.39h-.19ZM137,264.29l-.37.21.21.18.38,0c0-.39,0-.39-.22-.37Zm1.54,27.46c.41.35.79.33,1.13-.27a.42.42,0,0,1-.41-.36c-.2-.17-.21-.36-.4-.35A1.52,1.52,0,0,0,138.49,291.75ZM138,268.82h0c-.2-.18-.2-.18-.21-.37l-.77.05c-.19,0-.19,0-.17.21,0,.38,0,.38.21.36l.39,0a.67.67,0,0,1,.55-.24Zm1.77,19.78,1.33-.1-.2-.17a.18.18,0,0,0-.2-.18h0l-1,.07c-.2-.18-.39-.17-.59-.34a2.67,2.67,0,0,0-.81-.52,1.85,1.85,0,0,1,.47,1.11c0,.38,0,.58.24.75Zm.14,10.13h0c0-.19,0-.19-.22-.36-.19,0-.19,0-.17.2.18,0,.2.17.39.16Zm-2.19-39.47c-.18.21-.18.21-.17.4l.21.18,0-.58Zm2.61,18.19a.7.7,0,0,0-.59-.15,1.38,1.38,0,0,1-.77-.14,3.36,3.36,0,0,1,.28,1.32Zm2.14,16.89-.38,0a11.26,11.26,0,0,0-1.09.84.67.67,0,0,1,.22.37c0,.19.2.18.21.37a2.63,2.63,0,0,0,.52-.8c.18-.21.34-.6.52-.8Zm-5.73-59.9c.41.36.6.34,1.14-.08C137.3,233.83,136.92,233.86,136.77,234.44Zm2,17.85c-.19,0-.19,0-.36.22l.2.18h.19C138.8,252.48,139,252.47,138.78,252.29Zm2.43,26.44c-.17.2-.35.41-.54.42a.7.7,0,0,0-.15.59l1.71-.12-.41-.36a.19.19,0,0,0-.19-.18h0c-.19,0-.19,0-.2-.17l-.21-.18c.57,0,.75-.24.55-.42l-.55.42Zm.3,9.74c.38,0,.56-.23.36-.41l-.18.21a.19.19,0,0,0-.18.19h0l-.38,0c0,.38,0,.38.22.37C141.55,289,141.54,288.85,141.51,288.47Zm.2-2.69c.18-.21.16-.4.14-.78l-.07-.95a2.85,2.85,0,0,1-.75.24l0,.39c.2.17.4.35.42.54A.7.7,0,0,0,141.71,285.78Zm-.38-5.34-.35.41.2.18c.18-.2.18-.2.37-.22Zm-3.49-47c.19,0,.18-.2.36-.41.38,0,.37-.21.35-.4l-.35.4c-.38,0-.56.23-.36.41ZM142,273.7c-.41-.36-.6-.34-1.14.08C141.65,274.11,142,274.08,142,273.7Zm-2.33-22.23c.19,0,.19,0,.37-.22,0-.38,0-.57-.25-.75l-.38,0Zm2.32,3.09a2.44,2.44,0,0,1-1.13.27.84.84,0,0,0-.94.25l.41.36a3.15,3.15,0,0,1,.45.92l.57,0a1,1,0,0,0,.33-.78A1.24,1.24,0,0,1,142,254.56Zm-2.19-20.33c-.18.2-.18.2-.56.23s-.35.41-.33.79a2.88,2.88,0,0,0,.81.52c.2.17.6.34.8.51a1,1,0,0,0,.33-.78,1,1,0,0,1,.32-.79c-.21-.37-.42-.55-.43-.74-.2-.17-.23-.55-.44-.73-.36.21-.33.6-.49,1Zm-.16,11.3,0,.58c0,.19.22.36.42.54l1.24-1.43,0-.38,1.1-.65a.73.73,0,0,1-.23-.56l-1.9.13c-.35.41-.34.6-.13.78s.4.35.42.54l-.36.41C139.81,245.14,139.64,245.34,139.65,245.53ZM141,262.29a1.19,1.19,0,0,1,1.14-.08,1.82,1.82,0,0,0,.94-.26L143,261l-1.14.08a1.65,1.65,0,0,0-.94.26l0,.38c-.18.2,0,.37,0,.56Zm1.35,8.33a3.84,3.84,0,0,0,.09-1.35c-.2-.18-.39-.16-.4-.35l-.41-.36,0,.76c.21.18.41.36.42.55-.17.19-.16.39.25.74Zm.28,4c-.41-.36-.6-.34-1.15.08.6.33,1,.3,1.15-.09Zm.09,12.24c.18-.2.16-.39.36-.41.17-.2.16-.39.34-.59l-.77.05c-.36.21-.33.59.07.94Zm.33,4.76h0c.18-.2.17-.39,0-.38l0-.19c-.19,0-.19,0-.17.21a.53.53,0,0,1,.21.36Zm-.13-10.13.76-.06a1.14,1.14,0,0,1-.65-1.1c-.56.23-.52.8-.11,1.15Zm-2.17-28.18h0c.2.18.4.17.38,0,0-.38,0-.57-.24-.74l-.38,0,.05.76Zm1.55,19.42h0c.18-.21.18-.21.37-.22l-.2-.18C142.3,272.34,142.12,272.55,142.32,272.73Zm.46-34.49a1,1,0,0,0-.79-.33,1.43,1.43,0,0,1-.79-.33c-.35.41-.53.62-.52.81l.08,1.14c.21.18.41.35.42.54l.07,1-.53.61-.53.61.61.53c.2.18.39.17.77.14a1,1,0,0,0,.33-.79,1.46,1.46,0,0,1,.33-.79c-.22-.37-.23-.56.14-.77s.54-.42.32-.79l-.61-.53c.18-.21.18-.21.17-.4s.17-.2.35-.4c.2.16.19,0,.18-.22Zm-.26,26.43c0-.19,0-.38-.21-.37,0,.2,0,.2-.18.21s-.19,0-.18.2c0,.38,0,.57.23.56l.38,0Zm-.26,4.42.57,0c.19,0,.38,0,.55-.42-.58,0-1,.06-1.12.46Zm2.76,9.38a2.81,2.81,0,0,0,.1-1.35,1.43,1.43,0,0,1-.81-.7.37.37,0,0,1-.5.1l-.08-.06c-.2-.18-.38,0-.55.23.21.36.23.56.43.73s.22.37.42.55a.55.55,0,0,1,.37-.22.64.64,0,0,1,.37-.22,1.41,1.41,0,0,0,.25.94Zm-4-46.8-.77.05a.55.55,0,0,1,.22.37c0,.19,0,.19.22.37l.57,0c.37-.23.15-.6-.25-.76Zm1.41,28.41c.2.18.2.18.39.16s.21.18.41.36c0-.57-.06-1,.11-1.16l-.57,0c-.18.21-.18.21-.37.22ZM145,274.83l1.14-.08c.19,0,.18-.2.15-.58l-1.9.13-.41-.36a1.12,1.12,0,0,0-.31,1,2.87,2.87,0,0,0-.31,1.17,2.13,2.13,0,0,0,1.53-.1l0-.39a1.36,1.36,0,0,0,.14-.77ZM142,249.39a.36.36,0,0,1-.11-.5l.07-.07c.17-.21,0-.39-.41-.36a.7.7,0,0,0,.39.91Zm0,0c.4.35.6.34,1.15.11a2.76,2.76,0,0,0-.27-1.13c-.35.41-.34.6-.34.6-.18.2-.18.2-.38,0C142,249.2,141.82,249.21,142,249.39Zm2.1,8.08c-.4-.16-.78-.14-.93.45-.57,0-.56.23-.35.41l.35-.41C143.76,257.68,144,257.67,144.13,257.47Zm.66,9.52a1.43,1.43,0,0,1-.74.25c-.21-.18-.39,0-.56.23.2.18.4.35.42.54.2.18.22.37.42.55l.57,0Zm-2.15-14.39c.61.53,1,.5,1.14-.08A1.19,1.19,0,0,0,142.64,252.6Zm.43,3.41h0c.19,0,.38,0,.36-.21l-.2-.18C143.24,255.81,143.24,255.81,143.07,256Zm2.88,8.42a.57.57,0,0,1,.37-.22c.19,0,.18-.21.36-.41,0-.38-.22-.37-.79-.33-.18.21-.37.22-.55.42s-.37.22-.75.25l-.4-.36c0-.19-.19,0-.37.22l.05.76,2.1-.15Zm-3.69-28.08c0,.39,0,.58.23.56l.41.36a.71.71,0,0,0,.07-1,.47.47,0,0,0-.15-.13l-.57,0Zm2.24,26.45c.6.35,1,.32,1.14-.08-.2-.17-.39-.16-.41-.35-.2-.18-.4-.36-.59-.34C144.65,262.22,144.49,262.61,144.5,262.8Zm2.09,10.77.54-.61c.17-.21.16-.4.34-.6a.7.7,0,0,0-.93-.34l0,0c-.18.21-.37.22-.36.41l-.35.41.38,0c-.56.23-.54.42-.35.41s.17-.2.35-.41c.2.18.4.17.41.36a.27.27,0,0,0,0,.37Zm0-7.66a1.42,1.42,0,0,1-.75.24.75.75,0,0,0-.56.23c.21.18.41.36.6.34.21.18.4.17.6.35l0-.58a1.47,1.47,0,0,1,.15-.58Zm-3.75-34.38c0,.57.07.95.27,1.13a1.49,1.49,0,0,0,.94-.26,1.43,1.43,0,0,0-.26-.94Zm.27-1.55h0c-.17.2-.16.39,0,.38l.18-.21Zm3.83,38.2c-.18.2-.37.22-.35.41l-.36.41c.41.35.6.34,1.15-.08C147,268.75,147,268.56,147,268.18Zm.11-6.71c-.43-.54-.81-.51-1.15.08C146.36,262.1,146.74,262.07,147.09,261.47Zm-1.64-15.19c-.37.21-.37.21-.36.4.2.18.38,0,.36-.4.57,0,.74-.25.35-.41Zm1.91,24.55c.38,0,.56-.23.35-.4l-.35.4c-.37.22-.56.24-.36.41,0,0,.2,0,.36-.41ZM146.05,233a1.49,1.49,0,0,1-.78-.14c-.2-.18-.57,0-.73.43.79.33,1.17.3,1.51-.29Zm.48,26,.39.16.18-.2-.41-.36C146.51,258.83,146.51,258.83,146.53,259Zm1.32,5.26c-.21-.37-.21-.37-.4-.35l-.57,0c.22.36.6.34,1,.31Zm1.12,2.22a3.29,3.29,0,0,0,1.06-1.22l-.22-.37-2.47.17.08,1.15c-.18.2-.16.39-.34.59.42.55.8.52.95-.06.16-.4.36-.41.94-.26Zm-4.1-42-.36.21c0,.19,0,.19.21.37l.18-.2a.2.2,0,0,0,.18-.2h0Zm2.19,25.68c-.19,0-.38,0-.4-.16l-.17.2.41.36Zm0,2.68h0c-.2,0-.39,0-.37.22s0,.19.21.37v-.19A.66.66,0,0,0,147.06,252.86Zm.31,9.93.76-.05a.71.71,0,0,0,.07-1,.47.47,0,0,0-.15-.13c-.18.2-.16.39-.34.6s-.35.4-.34.59Zm-1.12-43.18a1.51,1.51,0,0,0-1.51.3,3.5,3.5,0,0,0,1.16.11Zm-1.05,4.1c.41.35,1,.12,1.7-.31a3,3,0,0,0-1.15-.11C145.56,223.3,145.38,223.5,145.2,223.71Zm4.35,26.49c-.21-.18-.21-.18-.22-.37s-.2-.18-.22-.37l.54-.61c-.63-.72-1-1.07-1.23-1.06-.17.2-.16.39-.13.77a1.25,1.25,0,0,1-.14.78l-1.14.08a5.45,5.45,0,0,1,1.67,2,.55.55,0,0,1,.36-.22.55.55,0,0,0,.37-.22l0-.76Zm-3.15-14.9c0,.19,0,.19.21.37l.18-.21a.19.19,0,0,0,.18-.19h0c-.19,0-.19,0-.4-.17.2,0,0,.2-.17.21Zm1.42,17.51c0,.19,0,.38.21.37l0-.38Zm.48,6.86,0,.38.77-.06c0-.19,0-.38-.22-.36Zm-1.84-34.33h0c.18-.2.18-.2.37-.22l-.2-.17C146.44,225,146.44,225,146.46,225.34Zm.25.75-.38,0,0,.57c0,.19,0,.38.21.37l.36-.41a.93.93,0,0,0-.23-.57Zm1.33,2.59c-.61-.54-1-.51-1.53.1C147.13,229.31,147.51,229.29,148,228.68Zm-.21,10.73c-.2-.18-.2-.18-.39-.17l-.16.4.2.18Zm.57,16.23h0c.19,0,.38,0,.36-.22l-.2-.17C148.57,255.44,148.57,255.44,148.4,255.64Zm-.25-9,.61.53c.19,0,.19,0,0,.19,0,.19,0,.19.2.18.54-.42.53-.61-.08-1.14l-.76.05ZM147.47,226l.65,1.1c.4.17.6.35.79.33.21.18.59.15.79.33.91-.64,1.47-.87,1.46-1.06a2.69,2.69,0,0,0,.52-.8c-.79-.33-1.38-.48-1.77-.64-.38,0-.56.23-.55.42a.69.69,0,0,1-.56.23c-.2-.18-.39-.16-.78-.33Zm1.88,26.86h0c.4.16.59.15.58,0l.37,0,0-.38-.76.05-.18.21Zm.38-13.81c.17-.2.36-.22.76-.05a1.85,1.85,0,0,0,.94-.26c-.22-.37-.41-.35-.6-.34a.38.38,0,0,1-.5.11.46.46,0,0,1-.07-.07l-.62-.53c-.2-.18-.38,0-.74.24Zm.47,20.45,1.15-.08-1.23-1.06.08,1.14Zm-1.45-23.44c0,.19,0,.19.22.37l.17-.2A.61.61,0,0,0,148.75,236.09ZM150,242.7c0-.19,0-.38-.22-.36l-.18.2,0,.19Zm1.39,11.58c0-.19,0-.19-.22-.36l-.76.05,0,.38Zm-1.08-12.56a3.24,3.24,0,0,0,.9-.83c0-.38,0-.57-.24-.74-.18.2-.36.4-.55.42s-.36.21-.56.23Zm-1-25c-.41-.36-.6-.34-1,.06l0,.58c0,.19.22.36.25.74.15-.58.13-.77.31-1a.43.43,0,0,0,.36-.41Zm1.21,6.42a.68.68,0,0,0-.58-.15,1.4,1.4,0,0,1-.78-.14,2.47,2.47,0,0,1,.27,1.13c.38,0,.57,0,.56-.23.18-.2.16-.39.53-.61Zm-.66,9.62c.61.53,1,.5,1.14-.08a1.19,1.19,0,0,0-1.14.08Zm.31-14.57a.58.58,0,0,1-.21-.37c0-.19-.19,0-.37.22l.2.18c0-.19,0-.19.38,0,0,.19.22.37.43.54a.63.63,0,0,1,.21.37c0,.19,0,.19.22.37a10.93,10.93,0,0,0,1.28-.85l-.81-.71-1.34.09Zm-.17-2.48h0c.2.18.2.18.22.37l.38,0Zm2.59,37h0c.18-.21.18-.21.37-.22l-.2-.18C152.77,252.46,152.58,252.47,152.59,252.67Zm-2.28-40.81h0c0,.19,0,.19.21.37l.38,0C150.69,211.84,150.5,211.85,150.31,211.86Zm1,17.16a1.19,1.19,0,0,0,1.14-.08C151.88,228.79,151.49,228.82,151.32,229Zm.37-22a1.4,1.4,0,0,1-.78-.14c-.2-.17-.57,0-.73.44C151,207.42,151.33,207.39,151.69,207Zm1.16,24.8c.53-.61.51-1-.11-1.52C152.21,230.87,152.25,231.44,152.85,231.78Zm-.93-16c0-.19,0-.19-.22-.37-.19,0-.19,0-.18.21A.71.71,0,0,0,151.92,215.77Zm4.74,64.94c.41.35.59.15,1.13-.27a.37.37,0,0,1-.1-.5l.06-.07a.67.67,0,0,0-.23-.56,1.39,1.39,0,0,0-.94.26l.62.53C156.83,280.31,156.65,280.52,156.66,280.71Zm-4.73-70.3h0c.16-.39.16-.39,0-.38l-.18.2a.18.18,0,0,0,.2.18Zm4.71,67.24c0,.19-.18.2,0,0-.18.2-.16.39,0,.38v.19c.18-.2.18-.2.37-.22l-.2-.17C156.66,277.84,156.66,277.84,156.64,277.65Zm-3.78-64.82c-.37.22-.54.42-.53.62l0,.76c.18-.21.37-.22.74-.44.17-.2.56-.23.73-.43a.66.66,0,0,0,.17-.4c0-.19,0-.19.16-.39l1.14-.08.71-.82.71-.81,0-.38c0-.19-.39-.17-.77-.14.17-.2,0-.19,0-.19a25.44,25.44,0,0,0-1.78,1.85c-.21-.18-.4-.17-.6-.34-.18.2-.16.39-.14.77-.57,0-.55.23-.54.42Zm.89,7.21a1.49,1.49,0,0,1,.71-.81,1.43,1.43,0,0,0-1.72.12c0,.38,0,.57.25.75Zm-1-3c0,.19,0,.38.22.37l0-.38Zm4.72,59c-.36.41-.34.6.08,1.14a.75.75,0,0,0,0-1A.24.24,0,0,1,157.49,276.06Zm-3.33-69.25a3.2,3.2,0,0,0-1.15-.11c-.2,0-.37.21-.55.42A2,2,0,0,0,154.16,206.81Zm3.3,71.55c0,.19,0,.19.21.36l1-.06a3,3,0,0,0,1.13-.27l-.06-.76c-.2-.18-.39-.17-.41-.36l-.4-.35a3,3,0,0,0-.32,1A1.9,1.9,0,0,1,157.46,278.36ZM154.23,216c-.2-.18-.2-.18-.39-.16l-.37.21.2.18h.19c.18-.21.18-.21.37-.22ZM156,246.68c.36-.4.34-.59-.08-1.14a.71.71,0,0,0-.07,1A.47.47,0,0,0,156,246.68Zm4.54,34.71a.4.4,0,0,1,.36-.4l-1.43-1.24,0,.57a.64.64,0,0,1,.22.37.63.63,0,0,1,.21.37.71.71,0,0,1-.55.23c-.2,0-.37.21-.74.43.2.18.39.17.41.36l.41.35c.2.18.39.16.4.35s0,.2.22.37a.55.55,0,0,1-.37.22c-.19,0,0,.19.22.37l.34-.6h.19c.37-.22.36-.41.33-.79C160.19,281.8,160.36,281.6,160.54,281.39Zm-7-80.28c-.18.2-.35.41-.54.42a.71.71,0,0,0,1,.07.64.64,0,0,0,.13-.15l-.06-.76-.17.2C153.75,200.9,153.75,200.9,153.57,201.11Zm2.2,17.65c.16-.4.15-.59-.06-.77s-.22-.36-.42-.54l.36-.41c-.41-.35-1-.31-1.72.12a1.91,1.91,0,0,1,.83.9,1.32,1.32,0,0,0,1,.69ZM154.16,215l1.53-.11c0-.38-.23-.56-.6-.34s-.57,0-.79-.33l-.19,0Zm5.55,59.9a1.54,1.54,0,0,0-.88,1.21l0,.39.95-.07-.05-.76C160.11,275.3,159.91,275.12,159.71,274.94Zm-4.13-69.76-.41-.36c-.2-.17-.39-.16-.6-.34,0,.38,0,.57-.14.78a.71.71,0,0,0,1,.07A.5.5,0,0,0,155.58,205.18ZM157.2,242h0c.21.17.21.17.22.36l.38,0Zm.44,3.41h0c.17-.2.17-.2.16-.39-.19,0-.19,0-.4-.17-.19,0-.19,0-.17.21Zm4.51,31.65-.39-.16-1.15.08a2.53,2.53,0,0,0-1.11.46l.76-.06c.2.18.2.18.22.37s.2.18.22.37c.17-.2.36-.22.76-.05.2.17.57,0,.74-.25l0-.76Zm-6-61c.16-.4.14-.78-.45-.93a.36.36,0,0,1,.11.5l-.07.08C155.56,215.9,155.76,215.88,156.15,216.05Zm-.24-14.34c-.22-.37-.6-.34-1.17-.3.22.37.41.35.6.34l.57,0c0,.57.23.56.41.35l-.21-.17-.2-.18Zm5.2,71.41a.35.35,0,0,1-.49.11.27.27,0,0,1-.08-.07c-.21-.17-.38,0-.56.24,0,.19,0,.38.22.36l.41.36.57,0c.36-.22.34-.6-.07-1Zm-4.36-70.32-.37.22.08,1.14a.59.59,0,0,0-.16.39.65.65,0,0,0-.16.4l.76-.06c.37-.21.54-.42.73-.43.21.18.22.37.25.75l.05.76c-.76.05-.75.24-.35.41,0-.19.17-.21.35-.41.19,0,.38,0,.37-.22.18-.2.16-.39.34-.6.35-.4.34-.59.34-.59l-.2-.18a.2.2,0,0,0-.2-.18h0c.18-.2.17-.39.34-.6s.17-.39-.24-.75l-1.14.08c0-.38-.41-.35-.78-.13Zm4.88,77.75h0c.18-.2.18-.2.37-.22l-.2-.17a.19.19,0,0,1-.21-.17h0Zm-.8-74.21a.85.85,0,0,0-1.11.46h0A3.76,3.76,0,0,1,159,208a6.21,6.21,0,0,0-1.1,3.33,9.31,9.31,0,0,1-1.09,3.71A3.33,3.33,0,0,0,159,213a16.06,16.06,0,0,1,.82-2c.34-.6.66-1.39,1-2a2.48,2.48,0,0,0,.47-1.56C161.45,207.06,161.24,206.69,160.83,206.34Zm-4.47,1.84c0,.2,0,.39.22.37l0-.38Zm5.11,67.41,0-.39-.18.21c-.18.2,0,.38.2.18-.17.2-.19,0,0,0Zm.36,7.82c0-.19,0-.19.16-.4l0-.38c-.18.21-.36.41-.14.78Zm-4.16-64.79c.57,0,.56-.23.35-.41l-.35.41c-.37.22-.56.23-.36.41C157.33,219.22,157.51,219,157.67,218.62ZM161.53,271c0,.19,0,.38-.16.39.19,0,.19,0,.2.18l0-.57Zm3.38,9.91c.18-.21.16-.4.14-.78l-.06-.76a2.51,2.51,0,0,0,.52-.8,4.81,4.81,0,0,1-.64-.91c.18-.21.36-.41.35-.6l-.77.05-.35.41c0,.19-.18.2-.35.41l.14,2.09Zm-.9-10.09.76-.05a.7.7,0,0,0,.56-.23,4.15,4.15,0,0,0-.64-.91,1.65,1.65,0,0,0-.94.26l0,.38A.68.68,0,0,1,164,270.81Zm-2.13-38.51h.19c.18-.21.18-.21-.19,0,.17-.4.17-.4,0-.38l-.18.2C161.87,232.11,161.87,232.11,161.88,232.3ZM160.52,202l-.37.22,0,.19h0c.19,0,.38,0,.36-.22C160.72,202.14,160.52,202,160.52,202Zm4.36,67.65.38,0c.18-.21.36-.41.55-.42s.37-.22.54-.42c-.4-.36-1-.32-1.72-.07l.06.95Zm.74,5.11h0c-.2-.18-.2-.18-.21-.37-.19,0-.19,0-.18.21C165.45,274.93,165.45,274.93,165.62,274.72Zm-2.27-43.29c.41.35.6.34,1.15-.08-.62-.53-1-.5-1.15.08ZM167,275.2h0c-.21-.17-.21-.17-.4-.16l-.36.22.2.17h.19c.18-.21.18-.21.37-.22Zm.25,11.85c.59.15.78.14,1-.06s.16-.4.34-.6l-.65-1.11-.36.41c-.19,0-.19,0-.37.22Zm.62-13.06c-.41-.35-.6-.34-1.14.08.59.34,1,.31,1.14-.08Zm-.92-2.23h0l.22.37.17-.21C167.15,271.94,167,272,167,271.76Zm.65,12,1.52-.1.61.53V284l-.65-1.1-.76.05c-.19,0-.37.22-.55.43l0,.38Zm.92-19.58c-.37.21-.54.42-.92.44a1.37,1.37,0,0,0-.7,1,.35.35,0,0,1,.11.49.27.27,0,0,1-.07.08.7.7,0,0,0,.23.56,3.06,3.06,0,0,0,1.1-.65,1.42,1.42,0,0,0,.13-1,1.24,1.24,0,0,1,1.14-.08.83.83,0,0,0,.94-.26l-1-.88a1.44,1.44,0,0,0-.94.25Zm-1.33,5.64Zm1.54,19.22c.17-.39.15-.58.33-.78s.17-.4.34-.6a1.26,1.26,0,0,0-1.13.27l0,.57c.21.17.22.36.43.54Zm1.09,1.84c.37-.21.56-.23.76-.05a.7.7,0,0,0,.56-.23l-.07-.95c-.36.21-.56.23-.76,0a1.2,1.2,0,0,0-.75.24l0,.39c0,.18.22.36.23.55Zm-.75-10.66c0,.19,0,.38.22.36,0-.19,0-.19.18-.2l0-.19Zm1.68,4.85a1.43,1.43,0,0,1-.75.25c-.2-.18-.38,0-.55.23l1,.88h.2c.19,0,.19,0,.36-.22l-.08-1.14Zm-4-57.33,0-.38-.76,0-.17.21c0,.19,0,.19.21.37l.77-.06Zm1.74,38.35c0,.19.21.37.42.54l.76-.05c-.21-.18-.21-.18-.22-.37s-.2-.17-.22-.36l-.76.05Zm.38,5.52.82.71c.2.18.42.55.62.72a3.8,3.8,0,0,0-.27-1.13c-.23-.56-.26-.94-.46-1.11l-.35.41Zm1.8,22.84c.17-.2.17-.2.36-.21l-.2-.18a.19.19,0,0,0-.2-.18h0Zm-4.32-69.75-.37.22c.19,0,.19,0,.2.17l.38,0C166.52,224.7,166.52,224.7,166.33,224.71Zm6.18,71.73a1.45,1.45,0,0,1-.75.24c-.21-.18-.38,0-.56.23,0,.19,0,.38.22.37.2.18.39.16.6.34l.76-.05-.08-1.14Zm-5.89-73.09h0l0,.57.17-.2a.58.58,0,0,0-.21-.37Zm.58,2.83-.38,0c0,.19,0,.38.21.36Zm2.45,40.41c.22.36.6.34,1,.31-.22-.37-.22-.37-.41-.35Zm1.9,21.68c.61.54.82.71,1,.7s.37-.22.73-.44l0-.76c.18-.2.18-.2.37-.21.17-.21.35-.41.54-.43,0,.58.45.93,1.22,1.07l-.07-1.14-1.15.08c0-.38-.21-.37-.79-.33-.38,0-.55.24-.35.41l0,.57-1.33.1Zm.25-1.93c-.37.22-.35.41-.15.59l.15-.59c.57,0,.56-.23.35-.41Zm1.22,3.74-.36.41-.35.41a2.05,2.05,0,0,0,1.52-.11l-.06-1-.76.05Zm-.44,4.63c.41.35.6.34,1.14-.08-.61-.53-1-.5-1.14.08ZM171,261.13c-.36.41-.34.6.08,1.15a.75.75,0,0,0,0-1,.17.17,0,0,1-.06-.1Zm-2-39.67.53-.61a.61.61,0,0,1-.21-.37.64.64,0,0,0-.22-.37L168,221.34l-.21-.18c.21.18.21.18.22.37v-.19a1.49,1.49,0,0,0,.81.71l.82.71-.07-.95Zm4.9,80.81h0c.18-.2.17-.39,0-.38l0-.18c-.19,0-.19,0-.17.2a.69.69,0,0,0,.21.37Zm1-5,0-.38-.76,0,0,.38.38,0c-.17.21,0,.19.38,0Zm-.64,1.77.35-.41-.38,0,0,.19C174,298.63,174,298.82,174.22,299Zm.8-10.4a3.15,3.15,0,0,1-.92.45l1,.89c.36-.41.73-.63.9-.83a.58.58,0,0,1-.21-.37l0-.38c-.19,0-.38,0-.37.22Zm.85,14.87h0c-.2-.17-.39-.16-.38,0l0,.76.39,0Zm-5.32-84,.18-.21a.19.19,0,0,0,.18-.19h0l-.21-.18-.61-.53.08,1.14Zm5.36,73.69a.72.72,0,0,0,.08-1l-.16-.13c-.38,0-.57,0-.74.25l0,.76.76-.06Zm1,8.55a2.4,2.4,0,0,0-1.16-.11l0,.76c.19,0,.38,0,.37-.22Zm-.56,5.78h0c.18-.2.18-.2.37-.22l-.2-.17a.18.18,0,0,1-.2-.17h0c0,.19,0,.19-.16.39a.2.2,0,0,1,.2.18h0Zm-.82-47.22a.64.64,0,0,1-.22-.37c0-.19-.19,0-.36.22.2.18.4.35.58.15l0,.57a1.47,1.47,0,0,1-1.37-.48l-.71.82.41.35c0,.19.2.18.41.36.17-.21.36-.22.76-.06a1.14,1.14,0,0,0,.75-.24l-.06-.76a.37.37,0,0,1,.5-.11.23.23,0,0,1,.07.07.69.69,0,0,0,.56-.23c-.2-.18-.22-.37-.24-.75a.59.59,0,0,1-.37.22c-.39,0-.56.23-.75.25Zm1.23,3.93c-1.93-.24-2.87,0-3,.41h0l.65,1.1,1.14-.07,1.06-1.23v-.19Zm-2.15,4.75a1.56,1.56,0,0,0,.89-1,.36.36,0,0,0-.51,0l-.06.07-.58.05c0-.39-.24-.56-.41-.36l.41.36.25.93c-.37.22-.54.43-.35.41C174.24,269.33,174.43,269.32,174.6,268.92Zm-.87-9.51c-.36.22-.35.41-.35.41a.41.41,0,0,0,.35-.41c.39,0,.56-.23.36-.4l-.18.2Zm2.52,30.45h0c-.16.4-.16.4,0,.38l.18-.2Zm1.91,21.69c.19,0,.38,0,.36-.22l-.4-.35c-.38,0-.57,0-.56.23l0,.38Zm-.9-12.76a.71.71,0,0,0-.07,1,.61.61,0,0,0,.15.13.71.71,0,0,0,.08-1,.87.87,0,0,0-.15-.13Zm.39-5.39-.76.06,0,.38.77-.06.17-.2v-.19c-.17.2-.19,0-.19,0Zm.08,1.15-.76.05-.17.39.21.18c0,.19,0,.19.2.18l.76-.06-.05-.76Zm.5,15.27h0v-.19l-.19,0c-.19,0-.19,0-.18.2Zm-.12-7.26.57,0,.35-.41.36-.41-.41-.35c-.19,0-.21-.18-.41-.36a.55.55,0,0,1-.37.22c-.19,0-.19,0-.37.22l.27,1.13c-.57,0-.55.23-.35.41Zm-5.08-86c.38,0,.56-.23.36-.41l-.18.2c-.19,0-.19,0-.18.21a1.55,1.55,0,0,0-.88,1l.39.16.57,0Zm7.28,98.25c-.38,0-.58,0-.78-.13l-.16.39c.19,0,.19,0,.2.18s0,.19.21.18l.76-.06,0-.57Zm-.52,3.49c.19,0,.19,0,.36-.22l-.2-.18c-.18.21-.18.21-.16.4Zm-3.13-55.49,0-.38-.17.21C176.26,262.68,176.47,262.86,176.66,262.84Zm3,34.63c-.61-.53-.8-.52-.95.07a.85.85,0,0,0,.95-.07Zm.55,18.72a3.84,3.84,0,0,0,1.35.09,2.53,2.53,0,0,0,1.11-.46,1.19,1.19,0,0,1-1.14.08,1.2,1.2,0,0,0-1.32.29Zm-6.5-100.8c.16-.59.14-.78.32-1s.37-.22.35-.41c-.4-.36-.59-.34-.95.07a3.76,3.76,0,0,0,.28,1.32Zm7.61,97.47c0-.2,0-.2-.22-.37s-.4-.17-.38,0l-.38,0,0,.38c.21.18.4.17,1-.06Zm-2.57-53a1.46,1.46,0,0,0-1.72.12,1.43,1.43,0,0,0,1.71-.11Zm-.84,4.46c.41.36.6.35,1.14-.08a1.4,1.4,0,0,1-.25-.93,2.2,2.2,0,0,0-.89,1Zm2.73,38.86h0c.2.18.39.17.38,0,0-.39,0-.58-.25-.75l-.38,0,.05.77Zm.77,11.05c.63.72,1,1.08,1.22,1.06a.36.36,0,0,0,.51,0,.24.24,0,0,0,.06-.08c-.2-.18-.21-.37-.24-.75.18-.2,0-.57-.43-.73a.37.37,0,0,1-.5.11l-.08-.07c-.18.21-.36.22-.54.42Zm.78,8.37.35-.41-.4-.35V322c-.17.39-.17.39,0,.57Zm-4.29-69.37c0,.19-.18.2,0,0l.21.37.36-.41c-.37.21-.56.23-.57,0Zm1.25,1.44a.71.71,0,0,0-.07,1,.47.47,0,0,0,.15.13c.38,0,.57,0,.75-.24a1.49,1.49,0,0,0-.26-.94Zm5.13,67.78c.18-.2.36-.4.55-.42.18-.2.18-.2.16-.39a.68.68,0,0,0-.58-.15c-.18.2-.36.4-.55.42-.17.2-.17.2-.16.39a.68.68,0,0,0,.58.15Zm2.64,2.12c.22.36.41.35.41.35l-.41-.35a.84.84,0,0,0-1.16-.31h0c.22.37.41.36.6.35a.36.36,0,0,1,.5-.11l.07.07Zm-5.64-75,.39.17.18-.21-.19,0C181.45,249.3,181.45,249.3,181.28,249.5ZM182.9,259a.71.71,0,0,0-1-.07.5.5,0,0,0-.14.15.71.71,0,0,0,1,.07.67.67,0,0,0,.14-.15Zm4,67.48c.19,0,.19,0,.37-.21l-.21-.18c-.19,0-.36.22-.16.39Zm-3.12-71.75c-.6-.34-1-.12-1.13.27a1.25,1.25,0,0,0,1.13-.27Zm1.64-6.62a.71.71,0,0,0-1-.07.64.64,0,0,0-.13.15.71.71,0,0,0,1,.07.47.47,0,0,0,.13-.15Zm.16-3.27c-.19,0-.19,0-.37.22l.2.18.19,0Zm.81,6.07c.35-.41.34-.6-.08-1.14-.18.2-.37.22-.39,0-.19,0-.19,0-.36.21l.4.36c0,.38.24.56.43.54Zm5.3,83.85c.19,0,.19,0,.37-.22l-.2-.17c-.19,0-.19,0-.17.39ZM186,245.54h0c-.18.2-.16.39,0,.38v.19c0-.19,0-.19.18-.2v-.19C186,245.73,186,245.73,186,245.54Zm.43-2.14c0,.19-.18.21,0,0l0,.58.35-.41Zm.09,4,.4.35.17-.39Zm-1.77-47c0-.19-.2-.18-.39-.16l-.16.39c.19,0,.19,0,.2.18Zm4.15,48.14-.77,0a2.94,2.94,0,0,0,.66,1.1l.92-.44Zm.52-6.16c-.2-.18-.22-.37,0-.77a1.11,1.11,0,0,0-.25-.74l-.76.05a12.61,12.61,0,0,0,0,2.3,1.42,1.42,0,0,0,.44.73c.17-.2.16-.39.13-.77l-.05-.76c.18-.21.18-.21.37-.22,0,.38,0,.38.2.18Zm-.92-2.24c-.19,0-.19,0-.37.22l.2.18h.2ZM195,335.44c.19,0,.19,0,.37-.21l-.21-.18c-.18.2-.18.2-.16.39Zm-8.67-137.2c.41.35.59.15,1.13-.27C186.84,197.82,186.46,197.84,186.29,198.24Zm10.82,137.82c.17-.21.36-.22.75-.25-.21-.17-.22-.36-.43-.54s-.21-.37-.42-.55c-.15.59-.31,1,.1,1.34Zm-9.44-140c.19,0,.38,0,.37-.21-.19,0-.19,0-.4-.17Zm3.77,53.72,0,.38.36-.41c.19,0,.17-.2.35-.41s.17-.39.36-.41.17-.2.16-.39c-.2-.18-.2-.18-.39-.16s-.21-.18-.41-.36a1,1,0,0,0-.33.79,1.46,1.46,0,0,1-.33.79l0,.19Zm1.4-12.74a1.52,1.52,0,0,1-.75.25.67.67,0,0,0-.56.23c.4.16.62.53,1.21.87a.7.7,0,0,0,.15-.59c0-.18-.21-.36,0-.75Zm6,99.88.16-.4-.2-.18Zm-5.29-97.25a.73.73,0,0,0-.07,1,.64.64,0,0,0,.15.13C194,240.38,194,240.19,193.6,239.64Zm7.15,99.23c-.2-.18-.2-.18-.4-.17l-.17.21ZM194,242.11a.71.71,0,0,0,1,.07,1,1,0,0,0,.14-.15C194.7,241.67,194.51,241.69,194,242.11Zm-.15-5c-.14.78-.11,1.16.29,1.51.38,0,.57,0,.75-.24l0-.57c-.2-.18-.39-.17-.41-.36C194.2,237.31,194,237.13,193.81,237.14Zm8.32,99.53h0l0-.39a.18.18,0,0,1-.2-.16h0c0,.19,0,.19-.17.39h.19a.2.2,0,0,0,.2.18Zm-6-93.38-.35.41,0,.57.38,0-.07-1Zm7.31,96c0-.19,0-.19-.22-.37l-.76.06,0,.38a1.54,1.54,0,0,0,1-.07Zm-6.83-100,.41.35,0-.38Zm1.28-9.09c-.37.22-.54.43-.73.44-.18.2-.56.23-.74.43a1.16,1.16,0,0,0,1.53-.1Zm-.71,6.18h0c.17-.21.17-.21.16-.4s0-.19-.2-.17ZM205.28,338c.19,0,.38,0,.37-.22-.19,0-.19,0-.2-.18h-.19c0,.19-.18.21,0,.39ZM198.75,236.6l.05.76a.59.59,0,0,0-.16.4.66.66,0,0,0-.17.39c.41.36.6.34.95-.06l0-.76c-.4-.17-.41-.36-.63-.73Zm.51,4.56-.4-.16-.16.39c.19,0,.19,0,.2.18Zm7.5,98.82,0-.38-.77,0-.17.2.41.36a.71.71,0,0,0,.55-.23ZM199,232.37c.43.55.44.74.26.94l-.53.61c.2.18.39.17.41.36l.41.35a2.49,2.49,0,0,0,.11-1.15l-.07-1-.19,0Zm.12-3.83,0,.57a.7.7,0,0,0,.23.56l.76-.06c0-.38.15-.58.3-1.17a1.66,1.66,0,0,1,.65,1.11,9.4,9.4,0,0,1,1.3-.67c0,.38.23.56.4.36l-.4-.36a.35.35,0,0,1-.11-.49.27.27,0,0,1,.07-.08c.17-.2,0-.38-.23-.56-.41-.35-.81-.52-.78-.14l-.53.62-1,.06c-.41-.35-.59-.15-.75.25Zm-2.25-40.23a.67.67,0,0,1,.56-.23c.19,0,.37-.22.54-.43-.21-.36-.42-.54-.4-.35a2.75,2.75,0,0,1-1.12.46l0,.38c.19,0,.19,0,.39.17Zm2.66,37.9h0c.2.18.2.18.22.37l.17-.21C199.74,226.2,199.73,226,199.55,226.21Zm8.89,113.08a.6.6,0,0,0,.92-.45.35.35,0,0,1-.49.1.24.24,0,0,1-.08-.06Zm-9.81-150.72.17-.4-.41-.35-.18.2c.2.18.41.36.42.55ZM209.38,339a.35.35,0,0,1,.49-.11.27.27,0,0,1,.08.07c.2.17.38,0,.35-.41-.39-.16-.78-.14-.93.45Zm-7-108.61c0-.19,0-.19-.21-.37l-.18.2v.19Zm.9-6.38a6.31,6.31,0,0,1-1,1.41c.2.18.4.35.42.54s.21.37.42.55c.39.16.58.15.75-.24l-.41-.36a1.64,1.64,0,0,0,.49-1.18c0-.38-.23-.56-.63-.72Zm-.83,7.33c0,.19,0,.19.22.37l.35-.41-.2-.18c-.2,0-.18.21-.37.22Zm.29,4.19c.41.35.6.34,1.15-.08a.71.71,0,0,0-1-.07.5.5,0,0,0-.14.15Zm.63-12.87c-.6-.34-.77-.14-.94.26.4.16.78.14.94-.26Zm1.31,2.21c-.21-.18-.41-.36-.6-.34a.71.71,0,0,1,.23.55.58.58,0,0,0,.36-.21Zm1.26,1.63a1.52,1.52,0,0,1-.75.25,1.14,1.14,0,0,0-.75.24,2.64,2.64,0,0,0,1.17.3l.95-.07a1,1,0,0,0,.33-.78,1.43,1.43,0,0,1,.33-.79l-.2-.18-.77.05c-.37.22-.34.6-.31,1Zm-.93,3.13h0c-.2-.18-.2-.18-.39-.16l-.18.2Zm.75-11.16-.76.06a1.5,1.5,0,0,0-.74.43l.41.36c.19,0,.2.17.41.35.18-.2.16-.39.35-.41.37-.21.55-.42.33-.78.57,0,.56-.24.36-.41ZM203,186l0-.76a.77.77,0,0,0-.44-.74l-.37,0a1.43,1.43,0,0,0,.12,1.72c.17-.21.36-.22.74-.25Zm3.27,43.8c.19,0,.17-.2.35-.41l-1.14.08,0,.76.36-.4a.27.27,0,0,0,.37,0h0Zm-.24-8.79h0c-.2-.18-.39-.16-.38,0h-.19c.19,0,.19,0,.21.18h.19c0-.2,0-.2.17-.21Zm1.82,6.77a.7.7,0,0,0-.59-.16l-.76.06c-.14.77.26.94,1,.88,0-.19,0-.19.16-.39a.65.65,0,0,1,.16-.4Zm.38-13.62c.36-.22.54-.43.73-.44.18-.2.56-.23.74-.43a1.43,1.43,0,0,0-1.54-.09Zm1.34,13.68c0-.19,0-.19-.22-.37l-.18.21,0,.19Zm7.25,108.79a1.15,1.15,0,0,0,1.52-.11l0-.76-.76,0c-.18.21-.17.4-.36.41A.41.41,0,0,0,216.86,336.59Zm2.3,0,.35-.41c.19,0,.18-.2.35-.41-.4-.35-.59-.34-1.14.08a.36.36,0,0,1,.11.5l-.07.08c.19,0,.21.17.4.16Zm-8.08-112.37c0,.19.21.18,0,0,.21.18.21.18.22.37l.18-.2C211.46,224.23,211.46,224.23,211.08,224.25Zm-.3-15.29c-.35.6-.13,1,.27,1.13a2.15,2.15,0,0,0-.27-1.13Zm.62,11.63h0c.2.18.2.18.39.17l.18-.21-.19,0C211.58,220.39,211.58,220.39,211.4,220.59Zm.86,1.28c.19,0,.17-.2.35-.4l-1.14.08.06.95.36-.41c.18-.2.18-.2.37-.22Zm-.63-3.4a.72.72,0,0,0,1,.08.7.7,0,0,0,.14-.16,1.85,1.85,0,0,0-.26-.94.55.55,0,0,1-.37.22c-.19,0-.19,0-.37.22l0,.57Zm.77-11c-.21-.18-.59-.15-1.13.27.77.14,1.16.11,1.13-.27Zm-2.09-24.36-.41-.35-.18.2c.21.18.21.18.22.37Zm2.54,22.6c-.19,0-.38,0-.37.22l.41.36.18-.21c-.21-.18-.21-.18-.22-.37Zm.93,13.34.07.95a2.47,2.47,0,0,0,1.13-.27,1.49,1.49,0,0,1-.26-.94l-.95.07Zm.8-2.35c-.55.42-.52.8.08,1.14.35-.41.34-.6-.08-1.14Zm.07-15.32c-.35.41-.34.6.08,1.14.15-.58.13-1-.08-1.14Zm-.46-17.58.08,1.14c.2.18.21.37.42.55a.73.73,0,0,1,.23.56c.2.17.21.36.05.76l.05.76a2.07,2.07,0,0,1,.94-.26c.36-.41.34-.6-.05-.76-.2-.18-.41-.35-.23-.56,0-.19.18-.2.35-.41l-1.42-1.24c.2.18.19,0,.36-.21C214.74,183.61,214.55,183.62,214.19,183.84Zm1.48,18.47c-.35.4-.34.59.08,1.14a.71.71,0,0,0,.08-1,1.07,1.07,0,0,0-.16-.14Zm.1-4h0c.21.18.21.18.22.37l.18-.21C216.15,198.25,216,198.08,215.77,198.28Zm2.67,2.49a9.49,9.49,0,0,0-1.92-.05c-.19,0-.37.21-.55.42a3.91,3.91,0,0,0,2.47-.37Zm-1.68,8.92h0c.18-.2.18-.2.17-.39l-.22-.37c0,.19,0,.19-.18.21l0,.19a.58.58,0,0,1,.21.36Zm.38-5.57.41.35.4.36a.6.6,0,0,0,.17-.4c0-.19,0-.19.16-.4-.2-.17-.39-.16-.6-.34s-.41-.35-.6-.34l0,.38s0,.19,0,.38Zm-.2-16.46a1.11,1.11,0,0,0-.92.45c.58.15.76-.05.92-.45.38,0,.56-.23.36-.41Zm3.71,1.08-1,.07a2.69,2.69,0,0,0-.52.8,2.69,2.69,0,0,1-.71.81l.62.54c.2.17.21.36,0,.76l-1.18-.49c-.36.4-.52.8-.7,1a1,1,0,0,0,1,.7,1,1,0,0,1,1,.5l1.14-.08a1.66,1.66,0,0,1,1.11-.65c.19,0,.17-.2.32-.79a3.44,3.44,0,0,1-1-.69c-.4-.17-.8-.52-1.2-.69a2.52,2.52,0,0,0,.72-.62c-.24-.74-.06-.95.3-1.16ZM217,193.59c.39,0,.58,0,.78.14l.16-.39-.21-.37-.77.05Zm.38,2.66a.71.71,0,0,0-.15.58c0,.19.22.37.42.55.15-.58.13-1-.27-1.13Zm.91,10.27c.62.54,1,.51,1.15-.08A1.27,1.27,0,0,0,218.26,206.52Zm.73-22.44a1.08,1.08,0,0,0-1.52-.11,1.1,1.1,0,0,0-.2.23.7.7,0,0,1,.23.56c-.17.2,0,.38.23.56.18-.21.37-.22.74-.44.18-.2.56-.23.73-.43l0-.39Zm-.45,15.53.21.18a.19.19,0,0,0,.19.18h0l0-.38c-.19,0-.21-.18-.22-.37C218.72,199.41,218.53,199.42,218.54,199.61Zm1.67-.88c.2.18.4.36.59.34.21.18.39,0,.74-.43-.4-.17-.61-.53-1.21-.87l-.07-1c.38,0,.56-.23.36-.4l-.36.4-.57,0-.53.62a1.38,1.38,0,0,0-.12,1c.2.18.2.18.39.17s.21.17.41.35Zm-2-12.11c0,.19,0,.19.22.37s.39.16.38,0l.38,0,0-.38Zm2.91,19.7c.61.54.8.52.95-.06A.85.85,0,0,0,221.12,206.32Zm.24-13-.36.41c0,.19-.18.2-.35.41a.58.58,0,0,1,.21.37c0,.19,0,.19.22.36l1.14-.08c.18-.2.36-.41.55-.42l1.9-.13c0,.38.24.56.41.35l-.41-.35.2,0c-.41-.35-.62-.53-1-.5-.39-.16-.58-.15-.79-.33l-1.71.12Zm.74,5.12a.71.71,0,0,0,1,.07l.13-.15a.72.72,0,0,0-1-.08.65.65,0,0,0-.13.16Zm.62,6.08c0-.19.17-.21,0,0,.17-.21.17-.21.16-.4s0-.19-.2-.17Zm-.24-14.34-.36.41.4.16Zm1.26,7.18c.2,0,.2,0,.37-.21,0-.19,0-.19-.2-.18a.66.66,0,0,0-.17.39Z"/><path id="Path_33" data-name="Path 33" class="cls-1" d="M234.7,277.92a3.33,3.33,0,0,0-1.41,1.82,3,3,0,0,1-1,1.79c-.87,1.21-1.76,2.23-2.63,3.44-.89,1-1.76,2.23-2.64,3.25a12.46,12.46,0,0,1-2.16,2.07c-.54.42-.72.62-.91.63a9,9,0,0,1-2.48,2.86c-1.1.65-2,1.29-3.12,1.94-.36.22-.54.42-.73.43a1.47,1.47,0,0,1-1.87.93,1.69,1.69,0,0,1-.38-.19,4.92,4.92,0,0,1-3.21.6,20.66,20.66,0,0,1-3.3-.72c-2.93-.75-4.57-2.36-5.15-5.19-.5-1.7-.8-3.21-1.1-4.72a20,20,0,0,1-.33-4.76,4.15,4.15,0,0,0,.08-1.53,6,6,0,0,1,.28-1.56,2.94,2.94,0,0,0,.23-2.12,5.45,5.45,0,0,1,.17-3.07,12.79,12.79,0,0,0,.75-2.92,9,9,0,0,1,.94-2.94,8.2,8.2,0,0,0,.74-3.12c.18-.2.18-.2.16-.39a12.32,12.32,0,0,0,2.53-5,10.18,10.18,0,0,1,2.72-4.79,4.6,4.6,0,0,1,4.1-1.63,7,7,0,0,1,2.15.62,16.06,16.06,0,0,1,2,.82,2.54,2.54,0,0,1,1.33,2.58c-.3,1.17-.59,2.53-.87,3.89a12.83,12.83,0,0,1-1.46,3.74c-.15.59-.32,1-.47,1.57a3.58,3.58,0,0,0-.27,1.55,4.52,4.52,0,0,0-.28,1.55,1.93,1.93,0,0,1-.67,1.39,1,1,0,0,0-.32.78,3.71,3.71,0,0,1,.17,2.48,10.45,10.45,0,0,0-.6,2.34,7,7,0,0,0-.29,1.36l.37,5.33a53.88,53.88,0,0,1,.2,5.54,4.66,4.66,0,0,0,.47,1.31c.48,1.3,1.47,1.81,3.15,1.12a11,11,0,0,0,2.36-1.7c.73-.63,1.24-1.43,2-2a22.73,22.73,0,0,0,1.93-2.44,23.74,23.74,0,0,1,1.94-2.43c1.06-1.22,1.93-2.43,2.8-3.64s1.56-2.41,2.62-3.63a40.38,40.38,0,0,0,3.5-4.65c1-1.6,2.27-3.22,3.3-4.82a9.06,9.06,0,0,0,1.56-2.41,4.65,4.65,0,0,1,2-1.86c.55-.42,1.13-.27,1.74.26.42.55.26.94-.27,1.55a3.34,3.34,0,0,0-.64,1.77c-.15.58-.51,1-1.46,1.06a.4.4,0,0,0-.35.41c0,.19-.15.58-.14.77a1.89,1.89,0,0,1-1,1.6l-.76.06a3.22,3.22,0,0,1-1,2c-.53.62-.87,1.21-1.4,1.82a4.18,4.18,0,0,1-1.58,2,2.33,2.33,0,0,0-1,2.37A1,1,0,0,1,234.7,277.92Zm-28.12-2.44c-.41-.35-.6-.34-1,.07A.87.87,0,0,0,206.58,275.48Zm0,5.93c.18-.2.37-.21.36-.4l.35-.41a1.19,1.19,0,0,0-1.14.08l0,.38c.39.16.39.16.4.35Zm1,3.95h0l-.22-.37-.35.41C207.45,285.18,207.65,285.17,207.66,285.36Zm-.82-11.62,1.11-.65c0,.38.23.56.4.35-.19,0-.2-.17-.4-.35l-.06-.76c-.77-.14-1.15-.11-1.33.09l.05.76C206.43,273.39,206.64,273.57,206.84,273.74Zm-.34-4.95a1.72,1.72,0,0,1,.25.94l.76-.06c0-.38,0-.57-.24-.74l-.76.05Zm2.57,6.71a1.49,1.49,0,0,0-1.51.3,2.64,2.64,0,0,0,1,.12C208.71,275.91,208.89,275.7,209.07,275.5Zm-.91,6.19c.21.18.21.18.4.16l.57,0c0,.57.23.56.41.36l-.41-.35C208.72,281.46,208.53,281.47,208.16,281.69Zm.26,3.62c.19,0,.17-.21,0,0,.17-.21.16-.4,0-.38l-.18.2C208.4,285.12,208.4,285.12,208.42,285.31Zm.22,3.24h0l0-.39c0,.19,0,.19-.18.21a.18.18,0,0,1,.2.17Zm.45-4.63h0l-.37.22c.19,0,.19,0,.39.17Zm-.21,2.51c.2.17.2.17.39.16l.58,0a.83.83,0,0,0-1-.13Zm1.73,5.61a.38.38,0,0,1,.5-.11l.07.07a.7.7,0,0,0,.56-.23c-.58-.15-.79-.33-1-.31a3.39,3.39,0,0,0-.92.44c0,.39,0,.58.24.75.18-.2.37-.21.36-.41C210.24,292.07,210.42,292.05,210.61,292Zm-2-25.51a4.07,4.07,0,0,1-.5,1l.59.34a4.41,4.41,0,0,1,.51-1Zm2.19,20.33c-.21-.37-.21-.37-.41-.35l-.56,0C210.06,286.91,210.26,287.09,210.82,286.86Zm-.3,6.53h0l0-.38-.18.2c.19,0,.19,0,.2.18Zm.55-8.46c0,.19-.18.2-.37.21a.65.65,0,0,1-.22-.36c0-.19-.19,0-.36.21l.2.18a.59.59,0,0,0,.4.16l.21.37c.21.18.41.36.6.34s.4.17.6.34a.37.37,0,0,1,.11.5l-.07.08c0,.19,0,.19.38,0a2.65,2.65,0,0,0,.13-1c0-.19-.21-.17-.41-.35a.7.7,0,0,0-.59-.15.64.64,0,0,1-.22-.37c0-.19,0-.19-.21-.37l-.18.21Zm-.73-4.93c0,.19,0,.19.22.37.19,0,.19,0,.18-.2S210.71,279.79,210.34,280Zm.49,1.5c0-.19,0-.38-.22-.37l-.17.21Zm-1.19-19.63c.21.18.21.18.22.37l.19,0c-.22-.36-.22-.36-.41-.35Zm.53-3.48c-.2,0-.2,0-.37.21,0,.39,0,.58.24.75l.38,0Zm1.73,24.76c-.19,0-.19,0-.37.22,0,.38,0,.57.24.55l.38,0-.25-.75Zm.44,6.29c-.19,0,.18-.21,1.12-.47-.4-.16-.59-.15-.79-.32s-.2-.18-.39-.17c-.36.41-.34.79.06.95ZM211.71,264c-.22-.37-.6-.34-1-.31.2.18.2.18.39.16s.4.16.59.15Zm.24,3.43c-.22-.37-.6-.34-1-.31.22.36.22.36.41.35Zm.93,5.1c-.41-.35-.6-.34-1.14.08a.71.71,0,0,1,.23.56l.38,0Zm.71,12.78c.15-.59.11-1.16-.29-1.32-.38,0-.57,0-.75.24l0,.57c.21.18.4.17.41.36.19,0,.4.16.59.15Zm-.8-3.2c-.34.6-.14.77.25.94A1.43,1.43,0,0,0,212.79,282.13Zm-1.17-13.89c.59.15,1.16.11,1.32-.29l-.05-.76-.95.07Zm.92-3.32c.17-.2.16-.39.35-.41.18-.2.18-.2.17-.39l-1.34.09.06.76Zm-.47,4.25c.19,0,.2.17,0,0,.19,0,.38,0,.37-.22l-.21-.18C212.25,269,212.25,269,212.07,269.17Zm1.46-3.74h0c.18-.21.18-.21.16-.4l-.21-.37-.18.21c0,.38,0,.57.23.55Zm.52,1.87c-.36.41-.35.6.08,1.15.17-.21.16-.4.35-.41.18-.2.18-.2.16-.4l-.38,0c0-.38,0-.38-.22-.37Zm5.29-31a3.46,3.46,0,0,1,3.54,1.47,4.18,4.18,0,0,1,1,3.76,5.86,5.86,0,0,1-.65,1.58,11.34,11.34,0,0,1-.66,1.57,6.26,6.26,0,0,1-3.28,2.34,5.65,5.65,0,0,1-4,.09,3.78,3.78,0,0,1-1.84-1.6,14,14,0,0,1-.94-2.61,3.3,3.3,0,0,1,.77-2.54c.36-.41.52-.8.7-1a3.3,3.3,0,0,1,2.31-2.46A14.9,14.9,0,0,1,219.34,236.31Zm-3.3,4.82c-.41-.35-.6-.34-1.15.08.21.18.22.37.25.75a.59.59,0,0,1,.37-.22c.19,0,.19,0,.36-.22l0-.38Zm.3,15.29h0c-.17.21-.17.21-.16.4s0,.19.21.17Zm.21,2.86.16-.4-.2-.17v.19C216.33,258.91,216.34,259.1,216.55,259.28Zm-.31-4.38a1.8,1.8,0,0,1,.26.94l.76-.06c0-.38,0-.57-.25-.75l-.76.06Zm.59-16.12a4.15,4.15,0,0,1,.91-.64,1.42,1.42,0,0,1-.24-.75,1,1,0,0,1-.74.44,1.4,1.4,0,0,0-.73.43c.2.18.39.16.41.36C216.63,238.6,216.81,238.59,216.83,238.78Zm1.38.67a1.51,1.51,0,0,0,1.52-.3,2.64,2.64,0,0,0-1-.12c-.18.2-.37.21-.54.42Zm1.52,2.57c.18-.2.17-.4.36-.41s.18-.2.16-.39a2.66,2.66,0,0,1-.62-.72,1.14,1.14,0,0,0,.11,1.52Zm.87-4.08a1.91,1.91,0,0,0-.83-.9c-.35.41-.34.6.07,1Zm1.56.46a4.19,4.19,0,0,1-1-.5l-.57,0,.05.76a1.18,1.18,0,0,0,.24.75.36.36,0,0,1,.5-.11l.08.07a.68.68,0,0,0,.55-.23c0-.19.17-.39.14-.78Z"/><path id="Path_34" data-name="Path 34" class="cls-1" d="M285.78,258.83a1.44,1.44,0,0,1,.86,1.28.68.68,0,0,0-.15.58.73.73,0,0,1-.15.59,19.85,19.85,0,0,0-1.75,2.42,6,6,0,0,1-2.14,2.25c-.54.42-.9.83-1.44,1.25a10.25,10.25,0,0,1-1.43,1.44,10.63,10.63,0,0,1-3.62,2.94,22.08,22.08,0,0,0-4,2.58,6.71,6.71,0,0,1-2.05.9l-2.28.17a14.56,14.56,0,0,1-5.73.21,2.52,2.52,0,0,0-1.71.12,3.43,3.43,0,0,0-1,1.6,32.83,32.83,0,0,0-1.65,3.75,17.73,17.73,0,0,1-2.05,3.59,1.37,1.37,0,0,0-.49,1.18,11.22,11.22,0,0,1-7,6.62c-.56.24-.94.26-1.5.49s-.92.45-1.48.68a3.17,3.17,0,0,1-3.61.45,7,7,0,0,0-1.77-.65,3,3,0,0,1-1.6-1,10.44,10.44,0,0,1-1.65-4.48,22.88,22.88,0,0,1-.64-3.59c-.27-1.13-.35-2.27-.63-3.59a2.56,2.56,0,0,1,.09-1.35c.55-.42.52-.8.3-1.16a3.79,3.79,0,0,1-.2-2.86c.13-1,.24-2.12.36-3.09l-.13-1.91a2,2,0,0,1,0-2.1c.36-.41.52-.81.3-1.17a4,4,0,0,1,.05-2.11c.15-.59.28-1.36.43-1.95s.29-1.36.44-1.94a3.28,3.28,0,0,0-.13-1.91,8.94,8.94,0,0,0,1.28-3.53,10.63,10.63,0,0,1,.9-3.51,10.83,10.83,0,0,0,.79-2.35,5.58,5.58,0,0,1,1.53-2.79c.36-.41.35-.6.35-.6a3.48,3.48,0,0,1,2.13-2.25,15.31,15.31,0,0,1,2.83-.59,4,4,0,0,1,4.38,5.06,12.49,12.49,0,0,0-.7,3.68,25.26,25.26,0,0,1-.51,3.68,37,37,0,0,0-.89,6.38c-.24,2.12-.28,4.23-.51,6.35a15.82,15.82,0,0,0-.28,4.23A29.6,29.6,0,0,0,248,277a8.86,8.86,0,0,1,0,2.3,4.65,4.65,0,0,0,.16,2.28,17.53,17.53,0,0,1,.42,3.23,11.19,11.19,0,0,0,1,3.18,35.41,35.41,0,0,0,2.47-2.86,15.89,15.89,0,0,0,1.69-3.18,2.59,2.59,0,0,1,.88-1.21c.38,0,.56-.23.54-.42a5.22,5.22,0,0,1,1.33-3,5.47,5.47,0,0,0,1.33-2.78c.17-.39.15-.58-.05-.76l-.61-.53a11.71,11.71,0,0,1-2-7.32l-.13-1.91a5.4,5.4,0,0,1,.26-1.74c.15-.58.12-1,.27-1.55a4.79,4.79,0,0,1,.85-1.59c.35-.41.34-.6.34-.6a6.49,6.49,0,0,1,1.46-3.74,36,36,0,0,0,2.47-3,5.27,5.27,0,0,1,3.35-1.38,2.85,2.85,0,0,1,2.76,1.14,6.64,6.64,0,0,1,.62,3.4,14.17,14.17,0,0,1-.78,2.55,4.73,4.73,0,0,0-.18,2.88c.22.37,0,.57-.33.79a1.84,1.84,0,0,0-.69,1c-.48,1.38-1,2.94-1.43,4.32a39.51,39.51,0,0,0-1.42,4.31c-.5,1-.65,1.57-.45,1.75a11.46,11.46,0,0,0,1.58.66,6.34,6.34,0,0,0,4.57-.32,33.87,33.87,0,0,1,4.68-1.48,6.44,6.44,0,0,1,2.92-2.12,5.49,5.49,0,0,0,2.88-2.69,1.93,1.93,0,0,1,1.07-1,3.4,3.4,0,0,0,1.27-1.05,8.82,8.82,0,0,0,1.55-2.4,8.9,8.9,0,0,1,1.56-2.41l.53-.61A2.43,2.43,0,0,1,285.78,258.83Zm-44.32,25.7-.41-.36c-.19,0-.2-.18-.39-.16,0,.38,0,.57-.15.58Zm-2.77-25.84c.19,0,.19,0,.37-.22l-.22-.37-.18.2Zm1.68,13.08c0,.19,0,.39-.16.4-.18.2-.18.2,0,.38.17-.2.35-.41.34-.6.17-.2.16-.39.34-.6,0-.19,0-.19.18-.2h.19c.17-.21.17-.21.36-.22s.18-.21.35-.6l-.71.81-.39,0,0,.19A2.86,2.86,0,0,0,240.37,271.77Zm-.7-10.09a.27.27,0,0,0,0-.37h0c-.19,0-.21-.18-.41-.36a.37.37,0,0,1,.11.5l-.07.08a.71.71,0,0,0,.4.16Zm.73,13.16c.2.17.2.17.21.36s.21.18.58,0a3.17,3.17,0,0,0-.27-1.13A2.88,2.88,0,0,0,240.4,274.84Zm.16-8.63h0l-.59-.15c0,.19,0,.19.21.18Zm1.19,17a.55.55,0,0,0,.16-.39c0-.19,0-.19.16-.4l-.39-.16C241.13,282.63,241.16,283,241.75,283.16Zm-1.22-14.65h0l.77.14v-.19Zm1.05,9.5c0,.19-.18.2-.36.41l.41.35.35-.41ZM243,263.16a12.61,12.61,0,0,1-1.36-.28,10.27,10.27,0,0,0-1.36-.29l-.17.2c0,.38.21.37.4.36A2.31,2.31,0,0,0,243,263.16Zm-.66,26.09c.41.35.6.34.79.32a3.45,3.45,0,0,0,.93-.44C243.29,288.8,242.7,288.65,242.36,289.25Zm-1.69-35.11C240.68,254.33,240.87,254.32,240.67,254.14ZM244,287.6a.58.58,0,0,1-.21-.37.65.65,0,0,1-.22-.36c-.32,1-.11,1.15.43.73Zm-1.56-22.28a2.38,2.38,0,0,0,.91,2l.76-.06c.19,0,.56-.23.75-.24-.6-.34-1-.5-1.22-1.06-.43-.55-.63-.72-.64-.91a1.43,1.43,0,0,0-.56.22Zm2.16,14.39c-.21-.18-.21-.18-.22-.37l-.38,0,0,.38h.2C244.39,279.92,244.38,279.73,244.57,279.71Zm-1.79-20c.59.15.76-.05.36-.41Zm.87-6.76a.7.7,0,0,1-.56.23c-.19,0-.37.22-.56.23.62.53.81.52,1,.31S243.68,253.36,243.65,253Zm.51-3.67a5.63,5.63,0,0,1-1.13.27c-.19,0-.18.2-.33.79.18-.21.35-.41.54-.43C243.61,249.73,243.79,249.52,244.16,249.31Zm1.14,24.42.57,0c-.21-.18-.21-.18-.4-.17l-.57,0c.2.18.2.18.4.17Zm.66,12.2.38,0a1.24,1.24,0,0,1-.08-1.14,1.11,1.11,0,0,0-.66-1.29l.09,1.33A3.17,3.17,0,0,1,246,285.93Zm1,3.37h0C247.14,289.1,247,289.11,247,289.3Zm-1.53-29.94c.18-.21.18-.21.37-.22l-.41-.36Zm.63,6.27h0l.4.16ZM245.51,255c.4.16.56-.23.72-.62-.2-.18-.4-.36-.59-.35a2,2,0,0,0-.13,1Zm14.87,12.74a4.93,4.93,0,0,0,1.69-3.18A11.86,11.86,0,0,1,263,261a6.35,6.35,0,0,0,.76-2.73c.13-1,.25-1.93.39-2.71a2.44,2.44,0,0,0-.95-2.61,6.8,6.8,0,0,1-1.57,2.22,3.44,3.44,0,0,1-.69,1c-.17.4-.52.8-.68,1.2-.14.77-.26,1.74-.4,2.51a14.65,14.65,0,0,1-1,2.56,7.34,7.34,0,0,0-.39,2.71,12,12,0,0,1,0,2.68,1,1,0,1,0,1.37.47C260,268.29,260.2,267.9,260.38,267.69Z"/><path id="Path_35" data-name="Path 35" class="cls-1" d="M311.23,272.56a3.41,3.41,0,0,0-1.4,1.83,3,3,0,0,1-1,1.79c-.88,1.21-1.76,2.23-2.63,3.44-.89,1-1.76,2.23-2.65,3.25a12,12,0,0,1-2.15,2.06c-.54.42-.72.63-.91.64a9,9,0,0,1-2.48,2.86c-1.1.65-2,1.29-3.12,1.94-.37.21-.54.42-.73.43a1.48,1.48,0,0,1-1.88.92,1.44,1.44,0,0,1-.37-.19,4.93,4.93,0,0,1-3.21.61,20.78,20.78,0,0,1-3.31-.72c-2.92-.75-4.56-2.36-5.14-5.19-.51-1.7-.8-3.21-1.1-4.72a20,20,0,0,1-.33-4.76,4.19,4.19,0,0,0,.08-1.54,5.93,5.93,0,0,1,.27-1.55,2.94,2.94,0,0,0,.24-2.12,5.44,5.44,0,0,1,.16-3.07,12.76,12.76,0,0,0,.76-2.93,8.9,8.9,0,0,1,.94-2.93,8.2,8.2,0,0,0,.74-3.12c.17-.2.17-.2.16-.39a12.3,12.3,0,0,0,2.52-5,10.29,10.29,0,0,1,2.73-4.79,4.56,4.56,0,0,1,4.1-1.63,7.07,7.07,0,0,1,2.15.62,16.06,16.06,0,0,1,2,.82,2.56,2.56,0,0,1,1.33,2.58c-.3,1.17-.59,2.53-.88,3.89a12.29,12.29,0,0,1-1.46,3.74c-.15.59-.31,1-.46,1.56a3.6,3.6,0,0,0-.28,1.56,4.51,4.51,0,0,0-.27,1.55,1.91,1.91,0,0,1-.67,1.38,1,1,0,0,0-.33.79,3.65,3.65,0,0,1,.18,2.48,10.45,10.45,0,0,0-.6,2.34,7.86,7.86,0,0,0-.3,1.36l.38,5.33a53.88,53.88,0,0,1,.2,5.54,4.71,4.71,0,0,0,.47,1.3c.48,1.31,1.47,1.82,3.14,1.12a10.66,10.66,0,0,0,2.37-1.69c.72-.63,1.24-1.43,2-2.06a21.75,21.75,0,0,0,1.94-2.43,22.61,22.61,0,0,1,1.93-2.43c1.07-1.22,1.94-2.43,2.81-3.64s1.56-2.41,2.62-3.63a42.82,42.82,0,0,0,3.5-4.65c1-1.6,2.26-3.22,3.3-4.83a8.82,8.82,0,0,0,1.55-2.4,4.68,4.68,0,0,1,2-1.86c.54-.42,1.13-.27,1.74.26.42.54.26.94-.27,1.55a3.44,3.44,0,0,0-.65,1.77c-.15.58-.5,1-1.45,1.06a.4.4,0,0,0-.36.4c0,.19-.15.59-.13.78a1.91,1.91,0,0,1-1,1.6l-.76.06a3.22,3.22,0,0,1-1,2c-.53.61-.87,1.21-1.4,1.82a4.2,4.2,0,0,1-1.59,2,2.31,2.31,0,0,0-1,2.36C312,272.32,311.8,272.52,311.23,272.56Zm-28.11-2.43c-.41-.35-.6-.34-1,.07A.86.86,0,0,0,283.12,270.13Zm.22,5.92c.18-.2.37-.22.35-.41l.36-.41a1.24,1.24,0,0,0-1.14.08l0,.38c.4.17.4.17.41.36Zm1,3.95h0l-.21-.37-.36.41c.37-.22.37-.22.57-.05Zm-.81-11.62,1.1-.66c0,.39.23.56.41.36-.19,0-.21-.18-.41-.36l-.05-.76c-.78-.13-1.16-.11-1.34.1l.06.76c-.18.2-.17.39.23.56Zm-.35-5a1.85,1.85,0,0,1,.26.94l.76-.05c0-.38,0-.57-.25-.75l-.76.06Zm2.39,6.73a1.49,1.49,0,0,0-1.51.3,2.64,2.64,0,0,0,1,.12C285.25,270.55,285.42,270.35,285.61,270.15Zm-.91,6.19c.2.17.2.17.39.16l.58,0c0,.57.23.56.4.35l-.4-.35C285.45,276.09,285.07,276.12,284.7,276.34Zm.44,3.6h0c.18-.2.17-.39,0-.38l-.18.2c.19,0,.19,0,.2.18Zm.23,3.24h0l0-.38c0,.19,0,.19-.18.2a.19.19,0,0,1,.2.17Zm.44-4.62h0l-.36.22c.19,0,.19,0,.39.16C285.64,278.76,285.62,278.57,285.81,278.56Zm-.4,2.52c.21.17.21.17.4.16l.58,0a.77.77,0,0,0-1-.13Zm1.93,5.6a.35.35,0,0,1,.49-.11.27.27,0,0,1,.08.07.73.73,0,0,0,.56-.23,8.53,8.53,0,0,0-1-.32,3.15,3.15,0,0,0-.92.45c0,.38,0,.57.24.75.18-.21.37-.22.35-.41C287,286.7,287.15,286.69,287.34,286.68Zm-2-25.51a3.88,3.88,0,0,1-.51,1l.6.34a4.64,4.64,0,0,1,.51-1Zm2,20.34c-.22-.37-.22-.37-.41-.36l-.57,0a.71.71,0,0,0,.94.34Zm-.12,6.51h0l0-.38-.18.21Zm.37-8.45c0,.2-.18.21-.37.22a.59.59,0,0,1-.22-.37c0-.19-.19,0-.37.22l.21.18a.64.64,0,0,0,.39.16l.22.37c.2.18.41.36.6.34s.39.17.6.34a.37.37,0,0,1,.1.5l-.06.07c-.18.21,0,.2.38,0a2.64,2.64,0,0,0,.12-1c0-.19-.2-.17-.41-.35a.68.68,0,0,0-.58-.15.55.55,0,0,1-.22-.37c0-.19,0-.19-.22-.37l-.17.21Zm-.54-4.93c0,.19,0,.19.22.36.19,0,.19,0,.17-.2C287.26,274.62,287.25,274.43,287.07,274.64Zm.3,1.51c0-.19,0-.38-.22-.37l-.18.2Zm-1.19-19.64c.2.18.2.18.22.37h.18c0-.38,0-.38-.4-.35Zm.52-3.48c-.19,0-.19,0-.37.22,0,.38,0,.57.25.75l.38,0Zm1.74,24.76c-.19,0-.19,0-.37.22,0,.38,0,.57.23.56l.38,0-.24-.74Zm.44,6.29c-.19,0,.18-.2,1.12-.46-.4-.16-.59-.15-.79-.33s-.21-.17-.4-.16a.63.63,0,0,0,0,.89l.07.06Zm-.44-25.42c-.22-.37-.6-.35-1-.32.2.18.2.18.39.16s.4.17.59.16Zm.24,3.42c-.22-.36-.6-.34-1-.31.21.37.21.37.41.35Zm.74,5.12c-.41-.36-.6-.34-1.14.08a.73.73,0,0,1,.23.56l.38,0Zm.7,12.77c.15-.58.11-1.15-.28-1.32-.38,0-.57,0-.75.25l0,.57c.2.18.39.16.41.35.19,0,.39.17.58.16Zm-.8-3.19c-.34.59-.13.77.26.93.17-.39.14-.77-.26-.93Zm-1.16-13.9c.58.16,1.15.12,1.32-.28l-.06-.76-.76.05Zm1.1-3.33c.18-.2.17-.39.36-.41.18-.2.18-.2.16-.39l-1.33.09.05.77Zm-.46,4.25h0c.19,0,.38,0,.36-.22l-.2-.18C289,263.59,288.78,263.61,288.8,263.8Zm1.27-3.73h0c.17-.2.17-.2.16-.39l-.22-.37-.17.2a1.62,1.62,0,0,1,.23.56Zm.7,1.87c-.35.41-.34.6.08,1.14.18-.2.17-.39.36-.41.17-.2.17-.2.16-.39l-.38,0C291,261.92,290.77,261.94,290.77,261.94Zm5.1-31a3.5,3.5,0,0,1,3.55,1.48,4.16,4.16,0,0,1,1,3.75,5.92,5.92,0,0,1-.65,1.58,11.46,11.46,0,0,1-.66,1.58,6.26,6.26,0,0,1-3.28,2.34,5.71,5.71,0,0,1-4,.09,3.78,3.78,0,0,1-1.84-1.6,14.3,14.3,0,0,1-.95-2.61,3.31,3.31,0,0,1,.78-2.54c.36-.41.52-.81.7-1a3.3,3.3,0,0,1,2.31-2.46A17.36,17.36,0,0,1,295.87,231Zm-3.3,4.83c-.4-.36-.59-.34-1.14.08.21.18.22.37.25.75a.55.55,0,0,1,.36-.22c.19,0,.19,0,.37-.22l0-.38Zm.31,15.29h0c-.18.2-.18.2-.16.39s0,.19.2.18Zm.2,2.86.17-.4-.21-.18,0,.2C292.86,253.56,292.88,253.75,293.08,253.93Zm-.11-4.4a1.72,1.72,0,0,1,.25.94l.76-.05c0-.38,0-.57-.24-.75l-.76.05Zm.59-16.12a4.51,4.51,0,0,1,.91-.64,1.41,1.41,0,0,1-.24-.74,1,1,0,0,1-.74.43,1.42,1.42,0,0,0-.73.44c.2.17.39.16.4.35C293.35,233.24,293.35,233.24,293.56,233.41Zm1.38.67a1.49,1.49,0,0,0,1.51-.29,2.4,2.4,0,0,0-1-.13C295.31,233.87,295.12,233.88,294.94,234.08Zm1.33,2.59c.18-.21.17-.4.36-.41s.18-.2.16-.4a2.52,2.52,0,0,1-.62-.72A1.16,1.16,0,0,0,296.27,236.67Zm1.06-4.1a1.94,1.94,0,0,0-.83-.89c-.36.4-.34.59.06.95Zm1.56.47a3.72,3.72,0,0,1-1-.51l-.57,0,.05.77a1.15,1.15,0,0,0,.24.74.37.37,0,0,1,.5-.1l.08.06a.68.68,0,0,0,.55-.23A1.47,1.47,0,0,1,298.89,233Z"/><path id="Path_36" data-name="Path 36" class="cls-1" d="M362.69,255.94a29.46,29.46,0,0,0-2.54,4.77c-.65,1.58-1.5,3.17-2.35,4.76-.5,1-1.18,2.19-1.69,3.18a24,24,0,0,0-1.31,3.15c-.17.21-.34.6-.69,1l-.74.43a6.71,6.71,0,0,1-.61,2.15c-.34.6-.87,1.21-1.21,1.81-.54.61-.88,1.21-1.41,1.82a9.43,9.43,0,0,0-.82,2,9.35,9.35,0,0,0-2.42,3.62,21.68,21.68,0,0,1-2.44,3.42L343,289.67a5.16,5.16,0,0,1-1.43,1.44c-1.44,1.25-2.87,2.69-4.32,3.93a22.32,22.32,0,0,1-4.94,3.22,4.41,4.41,0,0,1-1.5.49,1.29,1.29,0,0,0-.9.83.94.94,0,0,1-.73.43,15.53,15.53,0,0,0-4.19.3,6.9,6.9,0,0,1-4.25-.47,8.72,8.72,0,0,0-2-.82,5.7,5.7,0,0,1-2-.63,10.86,10.86,0,0,1-4.86-3.87,18.34,18.34,0,0,1-2.5-5.56,35.24,35.24,0,0,1,.08-15.33,24.88,24.88,0,0,1,.86-4.08c.29-1.36.78-2.54,1.07-3.9a25.65,25.65,0,0,1,1.62-4.13c.67-1.39,1.35-2.59,2-4a45,45,0,0,1,2.4-4c.87-1.21,1.93-2.43,3-3.65a11.89,11.89,0,0,1,4-3,14.72,14.72,0,0,1,4.86-1.69,10.16,10.16,0,0,0,1.86-.7,2.67,2.67,0,0,1,1.72-.12,8.21,8.21,0,0,1,6.43,1.65,14.63,14.63,0,0,1,2.54,3.46,6.8,6.8,0,0,1,.69,4.36c-.15.58-.13,1-.28,1.55a2.64,2.64,0,0,0,.12,1.71,1.14,1.14,0,0,1-.49,1.18,2,2,0,0,0-.61,2.15l0,.58a.66.66,0,0,1-.17.39,1.74,1.74,0,0,0-1.06,1.22,3.39,3.39,0,0,1-.86,1.4c-.87,1.21-1.95,2.25-3,3.47a26.81,26.81,0,0,1-3.62,2.93,22.12,22.12,0,0,1-9.15,3.32,1.65,1.65,0,0,0-1.43,1.44c-.14.78-.07,1.73-.21,2.51-.12,1-.26,1.74-.39,2.51-.15.59-.32,1-.47,1.57a2.06,2.06,0,0,0,.11,1.52.85.85,0,0,1,.06.95,6,6,0,0,0-.45,4.44,18.28,18.28,0,0,1,.88,4.34,3.18,3.18,0,0,0,1.68,2.18,4.25,4.25,0,0,0,3.09.35,1.65,1.65,0,0,1,1.34-.09l1.33-.09a14.34,14.34,0,0,0,3-1c.93-.45,1.84-1.08,2.58-1.52.91-.64,2-1.48,2.91-2.12a15,15,0,0,0,2.51-2.47,5.94,5.94,0,0,1,2-1.86,3,3,0,0,0,1.37-2.39c.16-.4.34-.6.72-.63.94-.26,1.45-1.06,1.76-2.23,0-.19,0-.38.16-.39a7.67,7.67,0,0,0,2.46-3,17.93,17.93,0,0,1,2.05-3.59c.68-1.2,1.17-2.38,1.86-3.58a18,18,0,0,1,2-3.59l2-3.59c.68-1.19,1.15-2.56,1.66-3.56a28,28,0,0,1,1.54-2.59,9,9,0,0,0,1.33-2.78,1.68,1.68,0,0,1,1.26-1.24c.55-.23.94-.25,1.15.11a.89.89,0,0,1,.27,1.13A3.27,3.27,0,0,0,362.69,255.94Zm-51.81,25.45h0c-.21-.18-.4-.16-.38,0,0,.38,0,.57.23.56l.38,0,0-.57Zm2.7.38,1.11-.65c-.21-.17-.22-.37-.42-.54s-.22-.37-.43-.55c-.38,0-.57,0-.74.25.2.17.2.17.21.36s.21.18.22.37l-.35.41,0,.38C313.57,281.58,313.57,281.58,313.58,281.77Zm0-11.48c-.19,0-.38,0-.36.22.19,0,.19,0,.39.16C313.37,270.5,313.56,270.48,313.54,270.29Zm1.4-4.69-.76,0a1.19,1.19,0,0,0-.75.25c.2.18.39.16.6.34s.39.16.78.33A1.7,1.7,0,0,1,314.94,265.6Zm-.87,6.76c0-.19,0-.19-.22-.37l-.17.21v.19Zm1.25,4.13c.35-.41.14-.78-.27-1.13l-.57,0c.2.17.22.36.41.35,0,.38.21.37.43.73Zm1,6.62c0-.19,0-.38-.22-.37-.2-.17-.59-.15-1.16-.11l-.16.4c0,.38,0,.57.24.75l.54-.62.76-.05Zm-.77,5.41h0l0-.38-.17.2C315.58,288.33,315.58,288.33,315.59,288.52ZM314.18,263l0,.58a.68.68,0,0,0,.23.55c.18-.2.37-.21.36-.4s.17-.21.36-.22c.74-.44,1.09-.84,1.06-1.22-.2-.18-.4-.36-.42-.55-.2-.18-.21-.37-.42-.54l.07.95ZM316,278.35c.22.37.22.37.4.16.19,0,0-.19-.4-.16,0-.38-.23-.56-.4-.36Zm-.37-13.56c0-.2,0-.2-.22-.37-.38,0-.57,0-.56.23l0,.38.75-.24ZM316.81,284c.16-.4.13-.78-.45-.93a.37.37,0,0,1,.1.5s0,.05-.06.07Zm.23-2.13a2.45,2.45,0,0,0,1,.13c.19,0,.17-.21.35-.41l0-.38c-.19,0-.39-.16-.79-.33-.17.21-.16.4-.35.41,0,.19-.16.39-.15.59Zm1.14,13.51h0c-.21-.17-.21-.17-.22-.36l-.18.2,0,.19C318,295.44,318,295.63,318.18,295.42Zm-1.58-28c0,.19-.18.2,0,0l0,.38c.19,0,.19,0,.18-.2Zm.09,4,0,.38.76-.05.18-.2-.41-.36-.57,0Zm.18,2.67c.42.54.61.53.95-.07-.4-.35-.59-.34-.95.07Zm.73,4.92c0-.19,0-.38-.22-.36l-.17.2Zm.64,11.83h0c.18-.21.18-.21.37-.22,0-.19,0-.19-.21-.18C318,290.46,318,290.46,318.24,290.83Zm-.56-10.68a.91.91,0,0,0,1.16.11l-.06-.76ZM319.61,294l0-.38c-.38,0-.57,0-.77-.13l-.18.2.41.35Zm-2.95-33.86c-.18.2-.18.2-.16.4-.18.2,0,.19.21.36l0-.76Zm3.76,7.2c-.18.21-.18.21-.37.22s-.18.2-.35.41c.4.35.6.34.95-.07,0-.38,0-.57-.23-.56Zm-.8-5.88c-.17.21-.17.21-.16.4l.2.18Zm1.27-1c-.38,0-.56.23-.55.42.21.18.21.18.4.16s.2.18.41.36c.16-.4.13-.78-.26-.94Zm.87,1.47c-.19,0-.4-.17-.79-.33-.18.2-.16.39-.35.41l-.36.41a10,10,0,0,0,1,.31c.19,0,.18-.2.35-.41l0-.38Zm-.31-4.38c-.6-.34-.79-.33-.95.06.41.36.79.33.95-.06Zm.73,2.24-.05-.76a1.47,1.47,0,0,0-.43-.73c-.18.2-.17.39-.36.4l-.35.41c.2.18.39.17.4.36.42.35.6.34.79.32Zm-.37-5.33c.37-.22.56-.23.76-.05a1.19,1.19,0,0,0,.75-.25l-.05-.76-.77,0a1.16,1.16,0,0,0-.74.25Zm1.64,4.29a2.52,2.52,0,0,0-.72.62,1,1,0,0,1-.74.44c.25.75.65,1.1,1.23,1.06l.35-.41c0-.19.18-.2.36-.41a.35.35,0,0,1-.11-.49.27.27,0,0,1,.07-.08c.17-.2,0-.38-.24-.56l-.19,0Zm12-8.5a30.7,30.7,0,0,0-2.56,1.71,4.52,4.52,0,0,0-1.93,2.62c-.16.4-.51.8-.68,1.2a5,5,0,0,0-.87,1.21,9.66,9.66,0,0,0-1.23,1.61,16.82,16.82,0,0,0-1,2l-3.17,6.73a5.61,5.61,0,0,0-.65,1.58,3.81,3.81,0,0,0,.14,2.09,2.67,2.67,0,0,1,2.25-.73,2.66,2.66,0,0,0,2.07-.53l3.31-1.95a17.94,17.94,0,0,0,2.9-2.31c1.07-1,1.95-2.25,2.83-3.26a13,13,0,0,0,2-4,12.51,12.51,0,0,0,.68-3.88,6.93,6.93,0,0,0-1-3.76C337.35,249.48,336.58,249.35,335.49,250.19Zm-13.38,5.72c0,.19,0,.19.21.37l.18-.21C322.31,256.09,322.3,255.9,322.11,255.91Zm.73-.43c0,.19.2.17,0,0l.38,0c-.19,0-.19,0-.2-.18a.2.2,0,0,1-.17.21Zm1.6,1c-.4-.35-.59-.34-.95.07a.86.86,0,0,0,1-.07Zm2.17-1.87-.35.4c-.2,0-.18.21-.36.41a.7.7,0,0,0,.23.56l.95-.07a1.41,1.41,0,0,1-.24-.74.7.7,0,0,0-.23-.56Zm-.21-3,0,.38c.19,0,.19,0,.37-.22l.53-.61-1.14.08,0,.38Zm1.4-1.82c.41.35.6.34.95-.07,0-.38,0-.57-.24-.75-.18.21-.37.22-.75.25Zm.82-2c.2.18.2.18.39.16s.19,0,.18-.2Zm1.49,2.19a3.84,3.84,0,0,1-.91.64c.41.36.6.34,1.16.11,0-.19-.23-.56-.25-.75Zm2.74-4.59c.21.17.21.17.22.37.19,0,.19,0,.18-.21C333.25,245.56,333.23,245.37,332.85,245.4Zm.25.75h0l0,.57c.17-.21.17-.21.16-.4Zm2.5.2a3.5,3.5,0,0,0-1.16-.11c-.19,0-.17.21-.35.41.39.16.76-.06,1.51-.3Z"/><path id="Path_37" data-name="Path 37" class="cls-1" d="M387.12,285.24a1.59,1.59,0,0,0-.3,1.17,1.18,1.18,0,0,1-.49,1.19,2.6,2.6,0,0,0-1.39,2,3.55,3.55,0,0,1-1.2,2c0,.19,0,.38-.17.39-1.05,1.41-2.27,3-3.31,4.64a8.83,8.83,0,0,1-4.74,3.39,8.44,8.44,0,0,1-5.37-.2,7.79,7.79,0,0,1-4.06-3.35c-.64-.91-1.1-2-1.74-2.94a8.77,8.77,0,0,1-.79-3c.07-1.73.14-3.45.23-5a13.91,13.91,0,0,1,1-4.67,10,10,0,0,0,.93-3.12l.94-2.94a50.15,50.15,0,0,0,2-4.73c.46-1.56,1.12-3.14,1.58-4.7a3.86,3.86,0,0,0,0-2.49,3.3,3.3,0,0,0-2.37-1,21.66,21.66,0,0,1-3.48-.52c-1.17-.3-2.33-.41-3.5-.71a9.78,9.78,0,0,1-3.16-1.5,10.19,10.19,0,0,1-2.48-2.51,15.88,15.88,0,0,1-1.5-2.38,5.4,5.4,0,0,1-.6-3v-.19l-.21-.17a6.36,6.36,0,0,1-.48-4.18,22.28,22.28,0,0,1,1.26-3.91,9,9,0,0,1,6.32-5.42c.17-.21.36-.22.76-.06l.76,0c1.88-.52,3.28.34,4.19,2.38a8.87,8.87,0,0,1,.51,1.88,4.08,4.08,0,0,1,0,2.11,31.94,31.94,0,0,0-.47,4.25,12.48,12.48,0,0,1-1.23,4.3c-.34.59-.12,1,.48,1.3a7.32,7.32,0,0,0,2.55,1c1,.12,1.76.45,2.53.58a5.85,5.85,0,0,1,2,.63,3.24,3.24,0,0,0,1.9-.13,1,1,0,0,1,.79.33c.21.17.6.34.8.51a19.77,19.77,0,0,0,1.81,1.22,5.09,5.09,0,0,1,2.47,2.5,6.78,6.78,0,0,1,.44,3.42,2.54,2.54,0,0,0-.12,1.16l.08,1.14a2.46,2.46,0,0,1-.24,1.93c-.37.22-.36.41-.34.6a5.59,5.59,0,0,1-.07,1.73,1.94,1.94,0,0,1-1.06,1.41,12.9,12.9,0,0,1-1.2,4.68,30.23,30.23,0,0,0-1.6,4.51,10.45,10.45,0,0,1-.6,2.34c-.33.79-.48,1.38-.8,2.17a12.36,12.36,0,0,0-.88,3.89,28.38,28.38,0,0,0-.1,4,1.88,1.88,0,0,0,3.17,1.5,7.81,7.81,0,0,0,2.15-2.06,30.24,30.24,0,0,0,1.73-2.61,6.79,6.79,0,0,0,1.2-2c.34-.6.67-1.39,1-2l3.07-5.38,3.06-5.38c.35-.6.7-1,1-1.61a5.63,5.63,0,0,0,.63-2,3.94,3.94,0,0,1,1-1.6,3,3,0,0,0,1-1.6,24.49,24.49,0,0,1,2.22-3.8,9.36,9.36,0,0,0,1.83-3.95,2.93,2.93,0,0,1,.68-1.2,3.72,3.72,0,0,0,.68-1.19c.52-.81,1-1.8,1.53-2.79s1-1.8,1.53-2.79c.16-.39.34-.6.5-1,.71-.82,1.27-1,1.88-.52a1.66,1.66,0,0,1,.65,1.11,1.18,1.18,0,0,1-.28,1.36,13,13,0,0,0-1.72,2.8l-1.52,3-2,3.58-2.05,3.59c-.51.8-.84,1.59-1.36,2.39s-.85,1.6-1.36,2.4a27.58,27.58,0,0,1-2.73,4.78,23.87,23.87,0,0,0-2.52,5,2.2,2.2,0,0,0-1.39,2C388.59,284.37,388.06,285,387.12,285.24Zm-32.43-36.58a1.08,1.08,0,0,0,1.52.11,1.5,1.5,0,0,0,.2-.23c-.22-.37-.42-.54-.81-.52a1.1,1.1,0,0,1-.77-.14C354.86,248.27,354.88,248.65,354.69,248.66Zm1.15-2.76c0,.19,0,.19-.17.39l0,.2c.19,0,.19,0,.36-.22A.58.58,0,0,1,355.84,245.9Zm1.42-1.63c.17-.2.36-.22.74-.24.19,0,.37-.22.15-.59l-1.14.08c-.18.2-.35.41-.54.42-.18.21-.37.22-.55.42l0,.38c0,.19.21.37.23.56a2.51,2.51,0,0,1,.52-.8C357.09,244.66,357.27,244.46,357.26,244.27Zm4,2.4.15,2.1a2.74,2.74,0,0,0,.89,1.84,7.32,7.32,0,0,0,1.48-3.55c.11-1.15,0-2.49.11-3.83.15-.59-.25-.94-1-1.08a1.19,1.19,0,0,0-1.31.48c-.17.2-.16.39-.34.6a.71.71,0,0,0-.15.58,2.06,2.06,0,0,1,.11,1.52Zm1-7.34c0,.19,0,.19.22.37l.17-.21Zm4.43,52.33,1.34-.1a1.41,1.41,0,0,0,1.09-.84l-.41-.35c-.18.2-.37.21-.36.4l-.35.41a12.81,12.81,0,0,0-1.31.47ZM365,259l.37-.21-.38,0Zm2.84,26.79c-.22-.37-.42-.55-1.2-.68l.09,1.33A1.36,1.36,0,0,0,367.83,285.83Zm1.78,3.51c-.62-.53-1-.5-1.15.08Zm1-15.77c.19,0,.17-.2-.22-.36a1.49,1.49,0,0,0-.71.81c-.16.4-.15.59-.31,1a4.41,4.41,0,0,0,1.23-1.42Zm.17,13.39c.54-.42.53-.61.31-1-.58-.15-.76.06-.92.45Zm.24,3.43c-.19,0-.38,0-.39-.16v.19Zm-.56-32.5c.37-.22.36-.41.15-.59-.57,0-.55.23-.35.41Zm4.28,9.08c-.18.2-.18.2-.17.39h.19Zm.33,2.08-.38,0c0,.19,0,.19.21.18ZM377,263c-.41-.36-.81-.52-1.17-.31.42.55.8.52,1.16.31Zm.43,3.41,0-.57a.71.71,0,0,1-.37.22.69.69,0,0,1-.37.21c.22.37.61.54.77.14Zm1.17-5.06a.6.6,0,0,1-.36.22.71.71,0,0,1-.37.22.55.55,0,0,0,.39.16c.19,0,.21.18.4.16a.58.58,0,0,0-.06-.76Z"/><path id="Path_38" data-name="Path 38" class="cls-1" d="M392.67,274.53a28.2,28.2,0,0,1-.47-4,6.74,6.74,0,0,1,.88-3.7,1.19,1.19,0,0,0-.08-1.14,2,2,0,0,1,.59-2.53c.18-.21.36-.41.34-.6a11.58,11.58,0,0,1,.89-3.7l1.48-3.55c.34-.6.49-1.18.83-1.78a5.36,5.36,0,0,1,1.22-1.62,6.2,6.2,0,0,0,1-1.6,6.13,6.13,0,0,1,2.43-3.62,1.43,1.43,0,0,0,.7-.81,10.07,10.07,0,0,1,2.79-4,29.42,29.42,0,0,0,3.38-3.5,48.3,48.3,0,0,1,4.34-3.74,17.42,17.42,0,0,1,5.37-2.49,15.08,15.08,0,0,1,6.47-.64,9,9,0,0,1,5.59,3.24c.4.36.62.72,1,1.08a6.5,6.5,0,0,1,1.22,1.06c.71-.81,1.4-1.82,2.11-2.64A8.58,8.58,0,0,1,437,231.8a7.23,7.23,0,0,1,3.36-1.19,4.35,4.35,0,0,1,3.28.34,6,6,0,0,1,2.09,2.53,4.71,4.71,0,0,1,.06,3.63c-.47,1.38-.75,2.93-1.23,4.3a19.11,19.11,0,0,1-1.42,4.31,3.11,3.11,0,0,0-.45,1.76,2,2,0,0,1-.84,1.59c-.18.2-.17.39-.14.77a2.16,2.16,0,0,1-.06,1.92,6.94,6.94,0,0,0-.64,1.77,95.28,95.28,0,0,0-2.18,9.92,58.8,58.8,0,0,0-.62,10.18,17.53,17.53,0,0,0,.42,3.23,9.86,9.86,0,0,0,1.35,3,6.06,6.06,0,0,0,8.49.93,9.58,9.58,0,0,0,2.67-2.86,19.56,19.56,0,0,1,2.27-3.23,8.51,8.51,0,0,0,1.86-3.38,32.13,32.13,0,0,1,1.67-3.57,19.09,19.09,0,0,0,2-4.54c.51-1.6,1.11-3.17,1.78-4.72a20.15,20.15,0,0,0,1.27-3.72,30.31,30.31,0,0,1,1.26-3.92,6.19,6.19,0,0,1,1-2,2.69,2.69,0,0,0,.23-2.13c-.22-.36.15-.58.69-1a1.71,1.71,0,0,1,1.5-.49c.59.15.79.33.82.71l.08,1.14a10.47,10.47,0,0,1-.91,3.51,29.28,29.28,0,0,0-1.28,3.54c-.48,1.37-.75,2.92-1.23,4.29a23.85,23.85,0,0,1-1.64,3.95,12.23,12.23,0,0,0-1.27,3.72,4.29,4.29,0,0,1-1.88,3.2,15.53,15.53,0,0,1-1.79,4.53q-1.29,1.94-2.4,4a19.22,19.22,0,0,1-4.57,5.69,5.07,5.07,0,0,1-1.83,1.27c-.75.25-1.29.67-2,.91-.35.41-.93.45-1.7.31-.21-.17-.4-.16-.79-.32a.57.57,0,0,0-.76,0,3.26,3.26,0,0,1-3.4.62,12.18,12.18,0,0,0-3.51-.9,8.4,8.4,0,0,1-3.13-.93,9.27,9.27,0,0,1-2.63-2.11,21.34,21.34,0,0,1-3.61-7.79,23.28,23.28,0,0,1-.64-6.28,32.08,32.08,0,0,1,.72-6.17l0-.57c-.54.42-.91.64-1.46,1.06a4.13,4.13,0,0,0-.84,1.59,2,2,0,0,1-1.05,1.41,8.14,8.14,0,0,0-1.25,1.24c-.7,1-1.59,2-2.28,3a20.14,20.14,0,0,1-2.67,2.87,1.74,1.74,0,0,1-.68,1.19c-.37.22-.72.63-1.09.84s-.93.45-1.09.84a4.09,4.09,0,0,0-.68,1.2,46.7,46.7,0,0,1-5.15,3,15.19,15.19,0,0,1-5.78,2.13,6.51,6.51,0,0,1-3.47-.33,13.42,13.42,0,0,1-2.8-1.72l-2.49-2.7C393.42,277.15,393,275.85,392.67,274.53Zm1.22-1.62h0l.22.37c0-.19,0-.19.18-.21C394.08,272.89,394.08,272.89,393.89,272.91Zm.94-5.81c-.18.2-.18.2-.37.22l.41.35.17-.2c0-.19-.2-.18-.21-.37Zm.54,7.81h0c0,.19,0,.19.22.37,0-.19,0-.19.18-.21a.59.59,0,0,0-.4-.16Zm.4-2.52c-.37.22-.35.41.06.76a1.4,1.4,0,0,0,.93-.25l-.4-.36a.74.74,0,0,0-.59-.15Zm.38-8.26c0,.19,0,.19-.16.4,0,.19,0,.19.2.18Zm2.13,5.79c-.6-.34-.79-.33-.95.07a.87.87,0,0,0,.95-.07Zm-.62-6.08h0a1,1,0,0,1-.33.79c.21.17.4.16.41.35s.2.18.22.37a2.72,2.72,0,0,1,.72-.63c.18-.2.54-.42.72-.62l-.76,0c-.21-.18-.4-.16-.41-.35s-.2-.18-.38,0c-.19,0-.19,0-.37.22,0-.38,0-.19.18-.2Zm.88-9.25c-.17.2-.35.41-.54.42-.18.2-.17.39-.14.77.2.18.2.18.22.37s.2.18.41.36l.35-.41c.19,0,.18-.21.35-.41,0-.38,0-.57-.23-.56-.2-.17-.4-.35-.42-.54Zm.61,11.44c.4.16.58,0,.94-.26C399.49,265.43,399.11,265.46,399.15,266Zm3.3.53a25.33,25.33,0,0,1-1.25,4.11,10.49,10.49,0,0,0-.66,4.26,5.74,5.74,0,0,0,.57,2.64c.22.37,1.17.3,2.7.2a4.51,4.51,0,0,0,3.77-.84l2.73-1.92a25.92,25.92,0,0,0,2.52-2.28,48.94,48.94,0,0,0,4.95-5.9c1.58-2,3-4.23,4.52-6.44a15.61,15.61,0,0,1,1.39-2,19.43,19.43,0,0,0,1.38-2.21c.52-.8.84-1.59,1.36-2.39a17.17,17.17,0,0,0,1.37-2.39c.34-.6.69-1,1-1.61a3.21,3.21,0,0,0,.44-1.94l0-.57a.42.42,0,0,1,.35-.41,2.13,2.13,0,0,0,1.2-2,4.78,4.78,0,0,1,.23-2.31,1.29,1.29,0,0,0-.28-1.13,6.55,6.55,0,0,0-1.05-1.45l-1.23-1.07a1.4,1.4,0,0,0-1.17-.3,5,5,0,0,1-2.24.73,11.23,11.23,0,0,0-2.24.92,46,46,0,0,0-6.71,5.26,83.16,83.16,0,0,0-5.89,6.16,36.21,36.21,0,0,0-5.34,8.41c-.51,1-.81,2.16-1.31,3.15a23.31,23.31,0,0,0-1.1,3.34Zm-2.09-5.21h0c-.17.4-.17.4,0,.39l.18-.21Zm1.45-1.06h0c-.17.21-.17.21-.36.22,0,.19,0,.19.2.18C401.83,260.49,401.83,260.49,401.81,260.29Zm2.54-4.77c-.18.21-.18.21-.16.4l.19,0Zm.2-10.73c-.35.41-.34.6.07,1A.85.85,0,0,0,404.55,244.79Zm3-3.47h0l.21.37.18-.2C407.77,241.5,407.76,241.31,407.57,241.32Zm2.06,4.84c-.4-.17-.59-.15-.79-.33s-.21-.18-.4-.17a.88.88,0,0,0,.07,1,.67.67,0,0,1,.56-.23A.73.73,0,0,0,409.63,246.16Zm.2-8.06h0c-.18.21-.17.4,0,.38l0,.19c.17-.2.17-.2.16-.39Zm1.31,2.4a.35.35,0,0,0,0,.5.46.46,0,0,0,.07.07l1.43,1.24a2.47,2.47,0,0,1-.27-1.13c.16-.39,0-.57-.43-.73Zm.51-1c-.38,0-.56.23-.36.4l.36-.4c.57,0,.56-.24.35-.41Zm1.24,4.12c0-.19,0-.38-.21-.37,0,.19,0,.19-.18.21v.19C412.7,243.64,412.72,243.83,412.89,243.63Zm1.83-1.28c-.39-.16-.77-.13-.94.26l.05.76c.18-.2.36-.4.55-.42.37-.22.35-.41.34-.6Zm-.69-1.67c-.18.2-.18.2-.17.39l.22.37c0-.19,0-.19.18-.2A.7.7,0,0,1,414,240.68Zm.86-1.4c-.38,0-.58,0-.56.23l0,.38.58,0,.17-.2A.66.66,0,0,0,414.89,239.28Zm2.71-5c-.2-.17-.77-.13-1.51.3a3.25,3.25,0,0,0,1.16.11Zm-.67,4.07-.38,0c.19,0,.19,0,.2.18Zm11.82,21.18c.2.18.4.17.41.36.2.18.2.18.39.16a.68.68,0,0,0,.15-.58A.85.85,0,0,0,428.75,259.55Zm1.56,11.38c0,.19,0,.38-.16.39-.18.21,0,.19.41.36C430.73,271.47,430.53,271.3,430.31,270.93Zm.5,7.05c0-.19.18-.21,0,0,.16-.4.15-.59,0-.58,0,.2,0,.2-.18.21v.19C430.79,277.79,430.79,277.79,430.81,278Zm0-3.06c.2,0,.2,0,.37-.22l-.2-.18Zm1.36.28.17-.39-.21-.18c-.17.2-.17.2,0,.57C431.94,275,432,275.22,432.14,275.2Zm.39,0,.05.76.95-.07c-.22-.37-.23-.56,0-.76s0-.38-.23-.56c-.18.2-.37.22-.36.41A.65.65,0,0,1,432.53,275.18ZM432,248.61l-.41-.36-.4-.35c-.36.41-.34.6.06.95A1.18,1.18,0,0,0,432,248.61Zm.45,20.06.37-.21c-.19,0-.19,0-.2-.18A.66.66,0,0,0,432.45,268.67Zm.82,11.62c.18-.2.19,0,.38,0,.2.17.19,0,.37-.22C433.61,279.69,433.43,279.9,433.27,280.29Zm.13-9c-.18.2-.18.2-.37.21,0,.19,0,.19.21.18C433.22,271.49,433.41,271.48,433.4,271.29Zm.43,6.09h0L434,277c-.19,0-.19,0-.36.21Zm-.14-31.95c-.59-.35-.77-.14-.93.25.2.18.58.15.93-.25Zm.86,25.78a.35.35,0,0,1,.49-.11l.08.07c.2.17.38,0,.56-.23,0-.2,0-.39-.22-.37l-.41-.36a.67.67,0,0,1-.56.23Zm1.15,11,.93-.45c-.21-.18-.4-.16-.6-.34a.7.7,0,0,0-.59-.15c-.17.2-.15.58.26.94Zm-.23-14.15h0l0,.38c.19,0,.19,0,.18-.2a.2.2,0,0,1-.21-.17Zm.47-4.25c.21.18,0,.19,0,.39-.18.2,0,.19.22.36C436.54,264.18,436.53,264,435.94,263.83Zm-.61-22.35c-.6-.34-1-.31-1.14.08a.71.71,0,0,0,1,.07A.64.64,0,0,0,435.33,241.48Zm1.86,37.39h0l-.22-.37-.18.2A.66.66,0,0,1,437.19,278.87Zm-2.07-32.21h0c-.19,0-.38,0-.37.22s0,.19.22.37c0-.19.16-.39.15-.59Zm.46-9.79c-.35.41-.34.6.07.95.54-.42.53-.61-.07-.95Zm1.62,1.23c-.18.2-.18.2-.16.39s0,.19.2.18Zm.57-2.72c0,.19,0,.19.22.36l.76-.05c0-.19,0-.19-.22-.37C438.52,235.13,438.33,235.15,437.77,235.38Zm.35,2.27h0c-.18.2-.18.2-.16.39.19,0,.19,0,.2.18a.35.35,0,0,0,0-.5Zm1.32,10.63c0-.2.18-.21,0,0,.18-.21.18-.21.16-.4-.19,0-.19,0-.39-.16l-.18.2Zm1.24-15c-.4-.36-.6-.34-1.14.08a.72.72,0,0,0,1,.08,1.07,1.07,0,0,0,.14-.16Zm-.83-1.09c-.38,0-.37.22-.16.39.19,0,.17-.2.16-.39.37-.22.56-.23.36-.41C440.2,231.76,440.21,232,439.85,232.17Zm1.35,11h0c0-.19,0-.38-.22-.37s-.19,0-.18.2Zm.17-11.12c-.17.21-.17.21-.36.22l0,.38Z"/><path id="Path_39" data-name="Path 39" class="cls-1" d="M245.08,347.39a7,7,0,0,0,5.37,2.88,4.67,4.67,0,0,0,4.15-.87,5.51,5.51,0,0,0,1.86-3.57,2.18,2.18,0,0,0-.11-1.53A3.37,3.37,0,0,0,255.3,343a3.69,3.69,0,0,0-3.36-1.49,1.41,1.41,0,0,0-.93.26,9.26,9.26,0,0,0-2.28.35C245.7,342.56,244,345,245.08,347.39Z"/><path id="Path_40" data-name="Path 40" class="cls-1" d="M430.33,334.43c.74,2.44,4.06,3.36,7.08,2.76h.19a5.23,5.23,0,0,0,1.69-.5,3.66,3.66,0,0,0,1.78-4.86c-.07-.14-.15-.28-.23-.42a8.18,8.18,0,0,0-1.25-1.44l0-.19a3.52,3.52,0,0,0-2.77-1.34,6.77,6.77,0,0,0-2.87,0,4.86,4.86,0,0,0-3.65,5.8C430.3,334.31,430.31,334.37,430.33,334.43Z"/></g></g></svg>